<?xml version="1.0" encoding="utf-8"?>

<svg fill="#FF7F50" version="1.1" id="Layer_1" xmlns="http://www.w3.org/2000/svg" xmlns:xlink="http://www.w3.org/1999/xlink" x="0px" y="0px"
	 viewBox="0 0 713.96 598.47" style="enable-background:new 0 0 713.96 598.47;" xml:space="preserve">
	 
<g>
	<g>
		<circle cx="140.7" cy="58.41" r="58.41"/>
		<path d="M280.45,296.89l-30.04-101.98c-4.71-16.89-11.45-31.2-22.89-41.83c-12.1-11.25-28.31-18.08-46.01-18.08h-74.07
			c-22.04,0-42.08,11.12-53.9,28.76c-2.55,2.39-4.53,5.45-5.64,9.03L0.96,323.5c-3.45,11.07,2.73,22.84,13.8,26.29
			c2.08,0.65,4.18,0.96,6.25,0.96c8.95,0,17.25-5.77,20.05-14.76l40.82-131.06c5.4-5.05,14.17-0.09,12.54,7.19l-21.63,96.7
			l-24.52,100.5c-1.3,5.34,2.75,10.49,8.25,10.49l27.86-0.04v151.99c0,14.36,11.64,26,26,26c14.36,0,26-11.64,26-26V419.69
			l17.71-0.03v152.1c0,14.36,11.64,26,26,26s26-11.64,26-26V419.58l26.77-0.04c5.45,0,9.47-5.07,8.25-10.38l-45.3-196.54
			c-1.66-7.21,6.7-11.93,11.99-7.73l32.55,104.49c2.8,9,11.09,14.76,20.04,14.76c2.07,0,4.17-0.3,6.25-0.95
			C277.72,319.74,283.9,307.97,280.45,296.89z"/>
	</g>
	<g>
		<ellipse transform="matrix(0.7071 -0.7071 0.7071 0.7071 129.4346 429.3062)" cx="582.94" cy="58.41" rx="58.41" ry="58.41"/>
		<path d="M452.4,299.39l20-91.81h-0.01c2.64-38.41,34.58-68.23,73.08-68.23h84.4c29.14,0,54.38,17.04,66.16,41.8
			c2.77,5.8,4.79,12.02,5.95,18.55l1.15,12.77v0.05l10.74,119.24c1.05,11.55-7.47,21.75-19.03,22.79c-0.64,0.06-1.27,0.09-1.9,0.09
			c-10.75,0-19.91-8.21-20.9-19.12l-9.81-108.93l-1.35-14.97l-0.12-0.01c-1.07-5.38-9.19-6.23-11.76-1.77
			c-0.27,0.46-0.45,0.98-0.54,1.51c-0.07,0.34-0.1,0.69-0.1,1.03l-0.1,4.79v355.3c0,14.36-11.64,26-26,26s-26-11.64-26-26V370.35
			h-17.71v202.12c0,14.36-11.64,26-26,26c-14.36,0-26-11.64-26-26v-359.4c0-1.9-0.8-3.39-1.98-4.37c-2.03-1.72-5.21-1.93-7.38-0.16
			c-0.63,0.51-1.18,1.2-1.59,2.06l-1.62,3.42l-20.54,94.31c-2.14,9.83-10.84,16.54-20.5,16.54c-1.48,0-2.99-0.16-4.49-0.49
			C457.12,321.91,449.93,310.72,452.4,299.39z"/>
	</g>
	<g>
		<path d="M462.43,330.78c-12.35-6.88-22.79,7.94-22.79,7.94s-18.79,33.69-63.81,34.91c-53.64,1.45-68.71-14.75-82.87-36.09
			c-5.49-8.29-16.66-10.55-24.94-5.05c-8.29,5.49-10.55,16.66-5.06,24.94c8.62,13,21.18,29.25,42,39.74
			c4.2,2.11,8.62,3.95,13.3,5.52v173.97c0,11.6,9.4,21,21,21s21-9.4,21-21v-93.41h12.94v93.41c0,11.6,9.4,21,21,21
			c11.6,0,21-9.4,21-21V402.41c38.95-14.4,55.52-45.42,56.39-47.1C473.74,351.65,474.79,337.66,462.43,330.78z"/>
		<circle cx="366.44" cy="310.66" r="48.31"/>
	</g>
</g>
</svg>
