<?xml version="1.0" encoding="utf-8"?>
<!-- Generator: Adobe Illustrator 27.0.0, SVG Export Plug-In . SVG Version: 6.00 Build 0)  -->
<svg version="1.2" baseProfile="tiny" id="Layer_1" xmlns="http://www.w3.org/2000/svg" xmlns:xlink="http://www.w3.org/1999/xlink"
	 x="0px" y="0px" viewBox="0 0 440.59 159.07" overflow="visible" xml:space="preserve">
<g>
	<g>
		<g>
			<path  d="M170.71,145.82c-0.75-1.38-1.88-2.38-3.13-3.13c-1.25-0.75-2.75-1.13-4.5-1.13
				c-1.75,0-3.25,0.38-4.5,1.13c-1.25,0.75-2.38,1.75-3,3.13c-0.63,1.38-1.13,2.88-1.13,4.5c0,1.75,0.38,3.25,1.13,4.5
				c0.75,1.25,1.75,2.38,3.13,3.13c1.38,0.75,2.88,1.13,4.5,1.13c1.63,0,3.13-0.38,4.5-1.13c1.25-0.75,2.38-1.75,3-3.13
				c0.63-1.38,1.13-2.88,1.13-4.5C171.83,148.57,171.46,147.07,170.71,145.82z M167.7,153.2c-0.5,0.88-1.13,1.5-1.88,2
				c-0.75,0.5-1.75,0.75-2.75,0.75c-1,0-2-0.25-2.75-0.75c-0.88-0.5-1.5-1.13-1.88-2c-0.5-0.88-0.63-1.88-0.63-3
				c0-1.13,0.25-2.13,0.63-3c0.5-0.88,1.13-1.5,1.88-2c0.75-0.5,1.75-0.75,2.75-0.75c1,0,2,0.25,2.75,0.75
				c0.75,0.5,1.38,1.13,1.88,2c0.5,0.88,0.63,1.88,0.63,3C168.33,151.44,168.2,152.32,167.7,153.2z"/>
			<path  d="M185.09,141.82h-3.25l-6.75,17.01h3.5l1.38-3.75h7l1.38,3.75h3.5L185.09,141.82z M181.34,152.07
				l2.38-6.25l2.38,6.25H181.34z"/>
			<polygon  points="210.48,141.82 206.1,141.82 199.85,148.45 199.85,141.82 196.6,141.82 196.6,158.7 199.85,158.7 
				199.85,153.07 201.1,151.7 206.6,158.7 210.73,158.7 203.35,149.45 			"/>
			<polygon  points="222.11,154.95 217.11,141.82 213.48,141.82 220.23,158.7 220.61,158.7 223.49,158.7 
				223.86,158.7 230.61,141.82 227.11,141.82 			"/>
			<rect x="235.12" y="141.82"  width="3.25" height="17.01"/>
			<polygon  points="247.87,141.82 244.5,141.82 244.5,158.7 255.25,158.7 255.25,155.7 247.87,155.7 			"/>
			<polygon  points="263.25,141.82 259.88,141.82 259.88,158.7 270.76,158.7 270.76,155.7 263.25,155.7 			"/>
			<polygon  points="278.64,155.7 278.64,151.57 285.01,151.57 285.01,148.7 278.64,148.7 278.64,144.82 
				286.14,144.82 286.14,141.82 275.39,141.82 275.39,158.7 286.27,158.7 286.27,155.7 			"/>
		</g>
		<path  d="M437.87,48c-2.03,0.23-4.02,0.46-6.04,0.68c-1.29,0.16-2.61,0.23-3.94,0.23
			c-10.7,0.39-24.91,0.18-42.98,0.49c-20.96,0.36-45.35-0.26-69.65-0.49l-20.05-0.16c-0.51,0-0.97,0-1.48-0.05
			c-0.31,0-0.66-0.02-0.97-0.07l-10.76-0.98c-2.89-0.39-2.89-2.8,0-3.19l10.75-1.22c0.31-0.05,0.66-0.07,0.97-0.07
			c0.51-0.05,0.97-0.05,1.48-0.05l20.06,0.08c15.42-0.46,34.68-0.03,62.25-0.02c16.19,0.01,24.95-0.95,50.38,0.02
			c1.33,0,2.65,0.07,3.94,0.23c2.03,0.23,4.02,0.46,6.04,0.68C441.49,44.54,441.49,47.59,437.87,48z"/>
		<path  d="M158.04,48c-2.03,0.23-4.02,0.46-6.04,0.68c-1.29,0.16-2.61,0.23-3.94,0.23
			c-10.7,0.39-24.91,0.18-42.98,0.49c-20.96,0.36-45.35-0.26-69.65-0.49l-20.05-0.16c-0.51,0-0.97,0-1.48-0.05
			c-0.31,0-0.66-0.02-0.97-0.07L2.16,47.66c-2.89-0.39-2.89-2.8,0-3.19l10.75-1.22c0.31-0.05,0.66-0.07,0.97-0.07
			c0.51-0.05,0.97-0.05,1.48-0.05l20.06,0.08c15.42-0.46,34.68-0.03,62.25-0.02c16.19,0.01,24.95-0.95,50.38,0.02
			c1.33,0,2.65,0.07,3.94,0.23c2.03,0.23,4.02,0.46,6.04,0.68C161.66,44.54,161.66,47.59,158.04,48z"/>
		<path  d="M438.21,153.3c-1.77,0.23-3.51,0.46-5.28,0.68c-1.13,0.16-2.28,0.23-3.44,0.23
			c-9.36,0.39-21.78,0.18-37.57,0.49c-18.33,0.36-39.64-0.26-60.88-0.49l-17.52-0.16c-0.44,0-0.85,0-1.3-0.05
			c-0.27,0-0.58-0.02-0.85-0.07l-9.41-0.98c-2.52-0.39-2.52-2.8,0-3.19l9.4-1.22c0.27-0.05,0.58-0.07,0.85-0.07
			c0.44-0.05,0.85-0.05,1.3-0.05l17.53,0.08c13.48-0.46,30.32-0.03,54.41-0.02c14.16,0.01,21.81-0.95,44.03,0.02
			c1.16,0,2.32,0.07,3.44,0.23c1.77,0.23,3.51,0.46,5.28,0.68C441.38,149.84,441.38,152.89,438.21,153.3z"/>
		<path  d="M138.14,153.3c-1.77,0.23-3.51,0.46-5.28,0.68c-1.13,0.16-2.28,0.23-3.44,0.23
			c-9.36,0.39-21.78,0.18-37.57,0.49c-18.33,0.36-39.64-0.26-60.88-0.49l-17.52-0.16c-0.44,0-0.85,0-1.3-0.05
			c-0.27,0-0.58-0.02-0.85-0.07l-9.41-0.98c-2.52-0.39-2.52-2.8,0-3.19l9.4-1.22c0.27-0.05,0.58-0.07,0.85-0.07
			c0.44-0.05,0.85-0.05,1.3-0.05l17.53,0.08c13.48-0.46,30.32-0.03,54.41-0.02c14.16,0.01,21.81-0.95,44.03,0.02
			c1.16,0,2.32,0.07,3.44,0.23c1.77,0.23,3.51,0.46,5.28,0.68C141.31,149.84,141.31,152.89,138.14,153.3z"/>
		<g>
			<path  d="M40.27,94.08c-1.44,2.66-3.7,4.81-6.76,6.44c-3.07,1.63-6.94,2.44-11.61,2.44h-9.53v21.84H0.95V67.92
				h20.94c4.4,0,8.15,0.76,11.25,2.28c3.1,1.52,5.42,3.61,6.97,6.28c1.55,2.66,2.32,5.68,2.32,9.05
				C42.43,88.56,41.71,91.41,40.27,94.08z M28.41,91.59c1.52-1.44,2.28-3.46,2.28-6.07c0-5.54-3.1-8.31-9.29-8.31h-9.05v16.54h9.05
				C24.55,93.75,26.89,93.03,28.41,91.59z"/>
			<path  d="M87.98,124.8l-12.55-22.17h-5.38v22.17H58.65V67.92H80c4.4,0,8.15,0.77,11.25,2.32
				c3.1,1.55,5.42,3.64,6.97,6.28c1.55,2.64,2.32,5.58,2.32,8.84c0,3.75-1.09,7.13-3.26,10.15c-2.17,3.02-5.41,5.09-9.7,6.23
				l13.61,23.06H87.98z M70.06,94.08h9.54c3.1,0,5.41-0.75,6.93-2.24c1.52-1.49,2.28-3.57,2.28-6.23c0-2.61-0.76-4.63-2.28-6.07
				c-1.52-1.44-3.83-2.16-6.93-2.16h-9.54V94.08z"/>
			<path  d="M130.45,77.12v14.26h19.15v9.05h-19.15v15.08h21.6v9.29h-33.01V67.83h33.01v9.29H130.45z"/>
			<path  d="M179.47,123.33c-3.18-1.36-5.69-3.31-7.54-5.87c-1.85-2.55-2.8-5.57-2.85-9.05h12.22
				c0.16,2.34,0.99,4.18,2.49,5.54c1.49,1.36,3.54,2.04,6.15,2.04c2.66,0,4.75-0.64,6.28-1.91c1.52-1.28,2.28-2.95,2.28-5.01
				c0-1.68-0.52-3.07-1.55-4.16c-1.03-1.09-2.32-1.94-3.87-2.57c-1.55-0.62-3.68-1.32-6.4-2.08c-3.7-1.09-6.7-2.16-9-3.22
				c-2.31-1.06-4.29-2.66-5.95-4.81c-1.66-2.15-2.48-5.01-2.48-8.6c0-3.37,0.84-6.3,2.53-8.8c1.68-2.5,4.05-4.41,7.09-5.75
				c3.04-1.33,6.52-2,10.43-2c5.87,0,10.64,1.43,14.3,4.28c3.67,2.85,5.69,6.83,6.07,11.94h-12.55c-0.11-1.96-0.94-3.57-2.49-4.85
				c-1.55-1.28-3.6-1.91-6.15-1.91c-2.23,0-4.01,0.57-5.34,1.71c-1.33,1.14-2,2.8-2,4.97c0,1.52,0.5,2.79,1.51,3.79
				c1,1.01,2.25,1.82,3.75,2.44c1.49,0.63,3.6,1.35,6.32,2.16c3.69,1.09,6.71,2.17,9.05,3.26c2.34,1.09,4.35,2.72,6.03,4.89
				c1.68,2.17,2.53,5.03,2.53,8.56c0,3.04-0.79,5.87-2.36,8.48c-1.58,2.61-3.88,4.69-6.93,6.23c-3.04,1.55-6.66,2.32-10.84,2.32
				C186.22,125.37,182.64,124.69,179.47,123.33z"/>
			<path  d="M239.73,77.12v14.26h19.15v9.05h-19.15v15.08h21.6v9.29h-33.01V67.83h33.01v9.29H239.73z"/>
			<path  d="M309.17,124.8l-12.55-22.17h-5.38v22.17h-11.41V67.92h21.35c4.4,0,8.15,0.77,11.25,2.32
				c3.1,1.55,5.42,3.64,6.97,6.28c1.55,2.64,2.32,5.58,2.32,8.84c0,3.75-1.09,7.13-3.26,10.15c-2.17,3.02-5.41,5.09-9.7,6.23
				l13.61,23.06H309.17z M291.24,94.08h9.54c3.1,0,5.41-0.75,6.93-2.24c1.52-1.49,2.28-3.57,2.28-6.23c0-2.61-0.76-4.63-2.28-6.07
				c-1.52-1.44-3.83-2.16-6.93-2.16h-9.54V94.08z"/>
			<path  d="M391.32,67.92l-20.86,56.88H356.6l-20.86-56.88h12.22l15.65,45.23l15.57-45.23H391.32z"/>
			<path  d="M417.72,77.12v14.26h19.15v9.05h-19.15v15.08h21.6v9.29h-33.01V67.83h33.01v9.29H417.72z"/>
		</g>
	</g>
	<g>
		<g>
			<path  d="M214.73,52.71l0.35-0.28c0,0,0,0,0.07,0.07c-0.14,0.14-0.21,0.21-0.35,0.35
				C214.8,52.71,214.73,52.71,214.73,52.71z"/>
			<path  d="M221.52,41.09c0,0.02-0.03,0.55-0.25,1.44c-0.03,0.13-0.06,0.25-0.1,0.39c-0.17,0.64-0.42,1.43-0.8,2.31
				c-0.86,2.07-2.37,4.67-5.01,7.27h-0.07l-0.28,0.21c-0.01-0.01-0.02-0.03-0.03-0.04c-0.01-0.02-0.02-0.03-0.03-0.05
				c-0.01-0.02-0.03-0.04-0.04-0.06c-0.08-0.16-0.14-0.32-0.19-0.48c-0.14-0.28-0.21-0.56-0.35-0.77c0.14-0.21,0.42-0.42,0.63-0.63
				c0.14-0.56,0.56-1.05,0.84-1.4c1.93-2.48,3.05-4.89,3.48-7.24c0.01-0.03,0.01-0.08,0.02-0.11h-0.14c-0.7,2.8-2.66,5.88-5.46,8.61
				c-0.07-0.14-0.14-0.28-0.21-0.42c-0.07-0.14-0.14-0.35-0.28-0.49c1.68-2.38,2.59-4.55,2.8-6.65h-0.14
				c-0.35,1.96-1.4,3.92-3.22,6.02c-0.07-0.14-0.21-0.21-0.28-0.35c-0.07-0.14-0.21-0.21-0.28-0.35c0.28-1.54,0.56-3.01,0.77-4.55
				c0.14-0.49,0.42-1.12,0.84-1.82c0.35-0.56,0.77-1.12,1.26-1.68l-0.14-0.14c-0.7,0.63-1.33,1.33-1.82,1.96
				c0.07-0.7,0.14-1.4,0.14-2.03c0-2.17,0.7-4.13,1.47-6.16c0.28-0.7,0.56-1.4,0.84-2.17c0.01-0.03,0.02-0.06,0.03-0.09
				c0.17-0.47,0.32-0.95,0.44-1.44c0.03-0.11,0.05-0.2,0.07-0.31c0.06-0.24,0.11-0.48,0.15-0.71c0.04-0.16,0.06-0.32,0.09-0.48
				c0.02-0.09,0.04-0.19,0.04-0.29c0.03-0.13,0.04-0.25,0.06-0.39c0.06-0.44,0.11-0.89,0.13-1.35c0.01-0.2,0.02-0.39,0.03-0.6
				c0.01-0.03,0.01-0.06,0.01-0.09h-0.14c-0.01,0.19-0.03,0.38-0.05,0.57c-0.04,0.46-0.1,0.91-0.18,1.36
				c-0.02,0.13-0.04,0.25-0.06,0.37c-0.02,0.11-0.04,0.22-0.07,0.34c-0.03,0.15-0.06,0.31-0.1,0.46c-0.06,0.28-0.14,0.56-0.22,0.83
				c-0.02,0.1-0.05,0.19-0.08,0.28c-0.13,0.46-0.29,0.9-0.46,1.34c-0.01,0.04-0.04,0.08-0.05,0.13c-0.21,0.63-0.49,1.26-0.77,1.75
				c-0.14-0.35-0.28-0.77-0.35-1.26c-0.04-0.36-0.06-0.71-0.06-1.06c-0.01-0.25-0.01-0.5-0.01-0.76h-0.14
				c-0.04,0.22-0.08,0.44-0.11,0.66c-0.15,1.13-0.03,2.16,0.32,2.98c-0.42,0.98-0.91,2.03-1.19,3.08c-0.28,1.47-0.49,2.94-0.63,4.34
				c-0.28,1.96-0.56,3.99-0.98,5.95c-0.7-0.84-1.47-1.61-2.17-2.38c-0.77-4.76-1.05-10.08,2.59-13.58l-0.07-0.07l-0.07-0.07
				c-0.77,0.7-1.47,1.54-2.03,2.52c0.07-1.05-0.35-1.96-1.12-2.52l-0.14,0.14c1.12,0.91,1.12,2.38,0.77,3.29
				c-0.92,2.07-1.17,4.38-1.17,6.5c0,0.97,0.06,1.89,0.12,2.74c-0.42-0.42-0.84-0.91-1.26-1.33c0-0.14-0.07-0.28-0.07-0.49
				c-0.28-1.61-0.63-3.29-0.21-4.9l-0.14-0.07c-0.56,1.4-0.56,2.94-0.42,4.48c-0.42-0.49-0.84-0.84-1.19-1.19
				c-0.21-1.33-0.35-2.38-0.49-3.43c1.4-1.96,2.24-4.34,2.31-6.72h-0.14c-0.21,1.96-1.05,3.92-2.31,5.53
				c-0.42-3.85-0.42-7-0.07-9.94h-0.14c-0.14,0.7-0.21,1.47-0.35,2.38c-0.77-0.77-1.12-1.68-1.12-2.59h-0.14
				c-0.07,0.98,0.35,2.03,1.19,2.94c-0.14,1.19-0.14,2.45-0.14,3.64c-0.28-0.28-0.56-0.49-0.7-0.77c-0.35-0.42-0.56-0.84-0.77-1.33
				h-0.14c0.21,0.98,0.77,1.89,1.61,2.66c0,1.12,0.07,2.31,0.14,3.57c0.07,0.91,0.14,1.89,0.21,2.87c-0.56-0.49-1.12-1.05-1.68-1.61
				v-0.07l-0.07-0.07c-0.07,0-0.14,0-0.14-0.07l-0.28-0.28c-0.42-1.68-0.98-3.71-1.4-5.74c-0.44-2.28-0.66-4.25-0.66-6.06
				c0-1.09,0.08-2.11,0.24-3.11h-0.14c-0.49,2.45-0.56,5.11-0.14,8.33c-0.55-0.71-0.89-1.52-1.11-2.39
				c0.22,1.29,0.69,2.58,1.67,3.58c0.21,1.54,0.56,3.01,0.84,4.41c-1.26-1.12-2.31-2.38-3.29-3.78c-1.54-2.24-2.59-4.76-3.22-7.56
				c1.05-1.05,1.61-2.03,1.75-3.01h-0.14c-0.14,0.91-0.7,1.82-1.75,2.73c-0.35-1.54-0.56-3.08-0.56-4.69h-0.14
				c0,1.47,0.07,2.87,0.35,4.34c-0.91-0.49-1.47-1.05-1.54-1.68h-0.14c0.07,0.77,0.63,1.4,1.75,2.03c0.14,0.84,0.35,1.68,0.56,2.45
				c-0.63-0.42-1.33-1.05-1.61-1.89h-0.14c0.21,1.05,1.12,1.82,1.96,2.52c0.42,1.33,0.98,2.59,1.54,3.78
				c-1.82-1.4-3.57-2.73-4.9-4.41l-0.07,0.07l-0.07,0.07c1.4,2.03,3.36,3.71,5.25,5.32c0.21,0.14,0.35,0.35,0.56,0.49
				c0.91,1.47,2.03,2.8,3.29,3.99c-3.08-0.77-5.04-2.03-6.16-3.64l-0.07,0.07h-0.07c0.56,0.98,1.4,1.89,2.59,2.66
				c-0.98-0.28-2.1-0.49-3.15-0.77v0.14c1.68,0.49,3.5,1.12,5.53,1.82c0.49,0.21,0.98,0.35,1.61,0.56c0.21,0.07,0.35,0.14,0.56,0.21
				c0.14,0.07,0.28,0.07,0.35,0.14c0.98,0.98,2.03,2.03,3.01,3.15h-0.28c-3.08,0-5.39-0.77-6.72-2.17l-0.07,0.07l0.07,0.35
				c0.84,1.05,2.17,1.82,3.78,2.31c-1.33,0.14-2.66,0.35-4.13,0.56v0.14c2.45-0.21,4.62-0.35,6.58-0.28
				c0.56,0.07,1.05,0.07,1.61,0.14c0.7,0.77,1.4,1.61,2.17,2.45c-0.49,0.07-1.05,0.07-1.61,0c-0.84-0.07-1.68-0.28-2.52-0.63v0.14
				c1.12,0.63,2.8,1.26,4.76,1.12c0.35,0.35,0.63,0.77,0.98,1.12l0.35,0.42c-8.47-0.07-15.54-2.38-19.88-6.51l-0.07,0.07l-0.07,0.07
				c1.89,1.96,4.34,3.5,7.28,4.69c-1.82,0.28-3.71,0.14-5.67,0.07v0.14c2.03,0.28,4.34,0.56,6.51,0.14
				c1.75,0.63,3.71,1.19,5.74,1.54c-0.07,0-0.07,0.07-0.14,0.07c-0.84,0.35-1.89,0.63-3.22,0.77v0.14c1.54,0,3.15,0,4.48-0.77
				c1.75,0.28,3.64,0.42,5.53,0.42c0.28,0.35,0.56,0.7,0.91,1.05c0.21,0.21,0.35,0.42,0.56,0.63c-0.56,0.07-1.12,0.14-1.61,0.21
				c-3.78,0.49-7.7,0.98-11.13-0.84V49c2.24,1.33,4.76,1.61,7.21,1.61c-3.08,0.28-6.23,0.35-9.31,0.35h-2.45v0.14
				c0.91,0,1.89,0.07,2.73,0.07c4.97,0.14,10.08,0.28,15.05-0.84c0,0.07,0.07,0.14,0.07,0.21c0.07,0.07,0.07,0.14,0.07,0.21
				c-0.14,0.14-0.28,0.14-0.42,0.21c-0.14,0.07-0.35,0.14-0.49,0.35l-0.07,0.07c-1.05,0.35-3.36,1.12-4.97,1.47
				c-2.03,0.42-3.71,0.63-5.25,0.7v0.14c2.24,0.07,4.55-0.14,7.35-0.77c-2.87,1.33-5.95,2.38-8.89,3.43l-0.98,0.35v0.14
				c0.35-0.14,0.77-0.21,1.12-0.35c3.15-0.91,6.44-1.89,9.52-3.22c-1.12,1.05-2.24,2.17-3.36,3.29c-0.28,0.35-0.63,0.63-0.91,0.98
				l0.07,0.07l0.07,0.07c0.28-0.28,0.56-0.49,0.91-0.77c2.1-1.89,4.27-3.78,6.65-5.39l0.07,0.21c0.28,0.28,0.28,0.7,0.28,1.12
				c0,0.42,0.07,0.91,0.35,1.26h0.07l1.98-1.64c0,0,0,0,0.07,0.07h0.07l0.28-0.28c0.56,0.77,4.24,4.84,4.87,6.17
				c0.36,0.72,0.38,2.14,0.36,3.32c-0.01,0.51-0.03,0.97-0.03,1.32v0.14c0,0.08,0,0.15,0.01,0.21c0,0.09,0.01,0.16,0.02,0.21h-2.42
				c-0.02-0.08-0.03-0.22-0.01-0.42c-0.01-0.02,0-0.05,0-0.07v-0.07c0.05-1.1,0.32-3.37-0.19-4.27c-0.63-1.12-3.61-3.57-5.57-4.55
				h-0.07c0,0.07-2.87,3.78-9.87,5.11c0.07-0.21,0.28-0.56,0.35-1.19l-0.07-0.07c-0.07,0-5.74,1.4-9.87-0.56
				c0.77-0.21,3.78-1.12,5.25-3.85l-0.07-0.07c-0.07,0-5.95,0.49-8.61-3.5c0.49,0.14,2.03,0.56,3.57,0.21v-0.14
				c-0.07,0-6.02-2.73-7.28-6.3c0.42,0.14,1.68,0.42,3.08,0.35l0.07-0.14c0,0-2.8-1.75-3.5-3.57c0.21,0.14,0.56,0.28,1.12,0.14
				v-0.14c0,0-2.24-2.38-2.1-4.62c0.63,0.42,4.48,2.66,5.95,2.94h0.07c0,0,0.49-0.49,0.49-0.91c0.49,0.42,2.52,2.17,4.55,1.89
				l0.07-0.14c-0.07,0-3.36-2.66-4.48-5.04c0.21,0,0.84-0.07,1.26-0.35v-0.14c0,0-2.59-2.17-2.87-4.48c0.21,0.14,0.77,0.49,1.4,0.63
				l0.07-0.14c0,0-2.1-2.24-2.1-4.2c0.14,0.14,0.42,0.42,0.98,0.49l0.07-0.07c0-0.07,0.7-4.13,1.26-6.72
				c0.56-2.31,0.28-5.04,0.21-5.74c0.77,0.63,4.55,3.92,4.55,5.53l0.07,0.07c0,0,0.42-0.14,0.63-1.05c0.21,0.77,0.84,2.87,1.89,3.08
				h0.07c0,0,0.77-0.91,1.05-2.45c0.56,0.35,3.78,2.59,4.34,5.88l0.07,0.07c0.07,0,1.05-0.56,1.68-2.38
				c0.49,0.63,3.08,4.06,3.29,6.86l0.07,0.07c0.07,0,1.33,0.14,2.03-0.49c0.13-0.1,0.23-0.21,0.3-0.34c0.09-0.15,0.15-0.32,0.19-0.5
				c0.07,0.07,0.21,0.14,0.28,0.07c0.23-0.05,0.4-0.31,0.55-0.8c0.03-0.08,0.06-0.18,0.08-0.28c0.05-0.2,0.1-0.42,0.15-0.67
				c0.24,0.12,0.83,0.34,1.35,0.22c0.09-0.01,0.18-0.04,0.26-0.08c0.01,0,0.01-0.01,0.01-0.01c0.34-0.21,0.48-0.62,0.41-1.25
				c0.02-0.03,0.06-0.09,0.13-0.18c0.06-0.09,0.14-0.22,0.23-0.36c0.06-0.1,0.13-0.21,0.19-0.33c0.04-0.08,0.09-0.17,0.13-0.26
				c0.17-0.34,0.33-0.75,0.44-1.2c0.02-0.11,0.05-0.21,0.06-0.32c0.07-0.4,0.08-0.82,0.02-1.25c0-0.03-0.01-0.06-0.01-0.09
				c0.45,0.41,1.77,1.72,2.58,3.3c0.42,0.84,0.71,1.76,0.65,2.67c-0.02,0.28-0.07,0.55-0.15,0.83l0.07,0.07c0,0,0.51,0,0.79-0.43
				c0.02-0.02,0.03-0.04,0.05-0.06v0.1c0,0.26-0.01,0.62-0.03,1.04c-0.01,0.21-0.02,0.43-0.04,0.67c-0.01,0.23-0.03,0.48-0.06,0.74
				c-0.06,0.54-0.12,1.11-0.21,1.69c-0.21,1.34-0.54,2.67-1.06,3.47l0.07,0.07c0,0,0.07,0,0.14,0.14c0.07,0.14,0.07,0.42-0.28,1.12
				c-0.28,0.49-0.28,0.98-0.35,1.54c-0.07,0.84-0.07,1.75-1.05,2.87l0.07,0.07c0.05-0.05,1.25-0.68,2.09-2.48v-0.01
				c0.22-0.48,0.41-1.04,0.55-1.69c0.06-0.31,0.12-0.64,0.15-1c0.07,0.06,0.18,0.15,0.33,0.28c0.11,0.11,0.24,0.24,0.36,0.41
				c0.14,0.18,0.29,0.41,0.42,0.68c0.01,0.01,0.01,0.01,0.01,0.02c0.15,0.29,0.27,0.63,0.36,1.03c0,0,0,0,0.01,0.01
				c0.02,0.07,0.03,0.15,0.05,0.22C221.57,39.45,221.61,40.2,221.52,41.09z"/>
			<path  d="M215.08,52.43l-0.35,0.28c0,0.07,0.07,0.07,0.07,0.07C214.94,52.64,215.01,52.57,215.08,52.43
				C215.15,52.43,215.08,52.43,215.08,52.43z"/>
		</g>
		<g>
			<path  d="M221.66,31.99h0.35v0.07c-0.14,0-0.21,0-0.35,0C221.66,32.06,221.66,32.06,221.66,31.99z"/>
			<path  d="M235.38,21.05c1.59-1.13,1.25-4.2,1.12-5.02c-0.7,1.19-2.31,1.47-2.52,1.54
				c-0.21,0.35-0.49,0.49-0.77,0.49c-0.49-0.07-0.77-0.63-0.91-0.84c-0.63,0.49-1.05,0.7-1.26,0.56c-0.07-0.07-0.14-0.14-0.14-0.21
				c-0.91,0.63-2.1-0.56-2.1-0.56v-0.07c1.12-1.61,1.19-4.62,1.19-5.25c-1.19,0.63-1.96,0.42-2.03,0.42l-0.07-0.07
				c1.19-1.96,0.35-4.69,0.14-5.25c-0.77,0.63-1.61,0.77-1.68,0.77h-0.07c-0.49-0.56,0-1.96,0.28-2.52
				c-0.49,0.35-0.77,0.21-0.77,0.21V5.18c0.7-0.84,0-4.41-0.14-5.18c-0.35,0.42-1.4,2.03-2.73,2.94c-1.54,1.12-3.78,3.01-3.78,3.01
				h-0.07c-0.28-0.28-0.35-0.56-0.35-0.7c-0.84,1.12-0.63,3.29-0.63,3.29l-0.14,0.07c-0.35-0.35-0.49-0.77-0.56-0.98
				c-0.91,1.4-0.35,3.78-0.35,3.78l-0.07,0.07c-0.42-0.07-0.77-0.28-0.91-0.42c-0.42,1.82,0.35,4.83,0.35,4.83l-0.07,0.07
				c-1.26-0.84-1.68-2.66-1.75-3.22c-0.21,0.21-0.7,0.21-0.7,0.21h-0.07c-0.77-0.84-1.96-3.85-2.17-4.48
				c-1.05,1.12-0.84,3.43-0.84,3.43l-0.07,0.07c-0.35-0.21-0.49-0.42-0.56-0.56c-0.35,1.33,0.42,3.57,0.42,3.57l-0.07,0.07
				c-0.84-0.63-1.4-1.4-1.61-1.68c-0.84,2.59,1.4,6.86,1.4,6.93l-0.07,0.07c-0.98-0.56-1.68-1.47-1.96-1.82
				c-0.21,3.43,3.36,6.02,3.43,6.02v0.14c-2.03,0.7-4.13-0.21-4.76-0.49c1.06,2.14,3.24,3.77,4.5,4.56
				c0.56,0.36,0.94,0.55,0.96,0.55v0.14c-0.28,0.28-0.56,0.42-0.7,0.49c0.69,0.41,1.37,0.74,2,1.01c0.08,0.03,0.17,0.07,0.25,0.11
				c0.43,0.18,0.84,0.32,1.23,0.44c0.11,0.04,0.22,0.07,0.33,0.1c2.07,0.6,3.54,0.53,4.05,0.47c0.13-0.01,0.2-0.03,0.2-0.03h0.07
				c0.55,1.16,0.8,2.88,0.81,4c0,0.3-0.01,0.56-0.04,0.76c0,0.02-0.01,0.03-0.01,0.06c-0.17,0.95-1.04,3.1-1.18,3.44l0.98,0.77
				c0.15-0.26,0.69-1.32,1.05-2.25c0.01-0.02,0.01-0.04,0.02-0.06c0.11-0.3,0.21-0.6,0.26-0.83c0.08-0.41,0.14-1.22,0.19-2.09
				c0-0.08,0.01-0.18,0.01-0.26c0.01-0.2,0.01-0.39,0.02-0.59c0.03-1.09,0.06-2.11,0.06-2.45h-0.28l-0.07-0.07l-0.48-0.05
				l-0.99-0.09l-0.07-0.07c0-0.35,0.14-0.56,0.35-0.84c0.21-0.28,0.35-0.49,0.35-0.77v-0.14c-0.34-0.05-0.69-0.08-1.04-0.12
				c-1.27-0.13-2.54-0.2-3.82-0.22c-0.11,0-0.21-0.01-0.32-0.01c-0.38-0.01-0.76-0.01-1.13-0.01h-0.84v-0.14
				c0.35-0.07,0.63-0.07,0.98-0.07c0.35-0.02,0.71-0.05,1.08-0.06c0.1-0.01,0.2-0.01,0.3-0.02c0.63-0.03,1.27-0.06,1.91-0.06
				c-0.59-0.21-1.18-0.43-1.76-0.66c-0.08-0.03-0.16-0.06-0.24-0.1c-1.18-0.48-2.34-0.99-3.48-1.51c-0.49-0.22-0.97-0.45-1.46-0.67
				l-0.84-0.35l0.07-0.14l0.77,0.28c0.51,0.2,1.02,0.4,1.53,0.6c1.16,0.45,2.32,0.91,3.5,1.33c0.08,0.03,0.15,0.06,0.23,0.08
				c0.43,0.15,0.88,0.3,1.32,0.44c-0.45-0.24-0.88-0.48-1.27-0.73c-0.07-0.04-0.14-0.08-0.2-0.13c-0.76-0.47-1.44-0.95-2.07-1.44
				c-0.32-0.26-0.63-0.52-0.93-0.78l0.07-0.07l0.07-0.07c0.34,0.28,0.69,0.55,1.06,0.83c0.55,0.39,1.16,0.77,1.86,1.17
				c0.06,0.03,0.13,0.08,0.2,0.11c0.08,0.04,0.15,0.09,0.24,0.13c0.97,0.55,2.37,1.15,3.22,1.53c0.13,0.06,0.25,0.1,0.35,0.15h0.07
				c0.14,0,0.28,0,0.42,0.07c0.07,0,0.12,0.01,0.18,0.03c0.06,0.02,0.11,0.03,0.18,0.03c0-0.07,0-0.07,0-0.14
				c0.07-0.07,0.07-0.07,0.07-0.14c-0.09-0.05-0.18-0.1-0.27-0.15c-0.32-0.17-0.63-0.35-0.95-0.53c-1.18-0.71-2.3-1.5-3.37-2.34
				c-0.06-0.04-0.1-0.08-0.15-0.12c-0.51-0.39-1.02-0.81-1.51-1.23c-1-0.83-1.97-1.69-2.93-2.56c-0.56-0.49-1.05-0.91-1.61-1.4
				l0.07-0.07l0.07-0.07c0.49,0.42,0.98,0.77,1.47,1.19c1.04,0.83,2.08,1.7,3.16,2.54c0.44,0.36,0.89,0.7,1.34,1.03
				c0.04,0.03,0.08,0.06,0.12,0.09c0.19,0.13,0.38,0.27,0.57,0.4c-0.19-0.16-0.38-0.32-0.56-0.49c-0.45-0.43-0.89-0.88-1.27-1.36
				c-0.55-0.69-1-1.44-1.32-2.28l0.14-0.07c0.33,0.78,0.78,1.47,1.31,2.09c1.03,1.21,2.37,2.18,3.75,3.1
				c0.23,0.16,0.47,0.32,0.71,0.47c0.02,0.01,0.03,0.02,0.05,0.03c0.09,0.06,0.19,0.12,0.28,0.18c0.18,0.18,0.38,0.32,0.59,0.45
				c0.13,0.08,0.26,0.17,0.39,0.25v-0.56c-0.02-0.09-0.03-0.18-0.04-0.27c-0.03-0.24-0.03-0.46-0.03-0.71
				c-0.96-0.84-1.81-1.67-2.6-2.51c-0.15-0.14-0.28-0.29-0.41-0.43c-0.81-0.2-1.55-0.67-2.24-1.2c-0.27-0.2-0.52-0.41-0.77-0.62
				l0.07-0.07l0.07-0.07c0.24,0.16,0.47,0.3,0.69,0.43c0.55,0.32,1.05,0.54,1.55,0.69c-0.55-0.67-1.06-1.3-1.53-1.94
				c-0.42-0.57-0.81-1.13-1.13-1.7c-1.47-0.91-2.73-2.17-3.78-3.29l0.07-0.07c1.05,0.98,2.1,1.96,3.29,2.73
				c-1.19-2.1-1.89-4.13-2.1-6.09h0.14c0.63,4.34,3.71,9.03,8.61,13.23v-0.35c0-0.42-0.07-0.77-0.07-1.12
				c-1.19-0.91-1.89-2.1-2.24-2.94h0.14c0.35,0.56,0.7,1.05,1.19,1.54c0.28,0.28,0.63,0.56,0.91,0.77c0-0.77-0.07-1.54-0.14-2.31
				c-0.35-0.28-0.63-0.56-0.91-0.84c-1.05-0.98-2.38-1.96-3.92-3.08l0.07-0.07v-0.07c0.91,0.56,1.75,1.12,2.59,1.68
				c-0.7-1.05-1.12-2.03-1.12-3.01h0.14c0.14,1.47,1.12,2.94,2.94,4.48c0.07,0.07,0.07,0.07,0.14,0.14
				c-0.07-1.05-0.21-2.1-0.35-3.08c0-0.14-0.07-0.21-0.14-0.28c-0.07-0.07-0.14-0.21-0.21-0.35c-0.28-0.42-0.49-0.77-0.7-1.12
				c-0.84-1.4-1.61-2.59-2.38-3.71l0.14-0.14c0.49,0.56,0.98,1.19,1.4,1.82c-0.35-0.98-0.42-1.82-0.28-2.59h0.14
				c-0.14,1.4,0.49,3.01,1.89,4.9c-0.04-0.26-0.08-0.51-0.11-0.77c0.39-0.84,0.85-1.68,1.37-2.52c-0.28-2.03,1.19-3.71,2.17-4.76
				l0.07,0.07l0.07,0.07c-0.91,1.26-1.75,2.45-1.82,3.92c1.26-1.96,2.45-3.36,3.85-4.41l0.07,0.07L226,8.4c-0.7,0.6-1.37,1.3-2,2.14
				c-0.64,0.84-1.25,1.82-1.85,2.98c-0.63,1.26-1.26,2.66-1.75,3.78l0.07,0.28l0.07,0.07v0.07c0.14,0.56,0.21,1.05,0.28,1.68
				c0.35-0.56,0.77-1.12,1.12-1.61c0.56-0.77,1.05-1.4,1.54-2.03c-0.14-0.84,0-1.61,0.28-2.24h0.14c-0.07,0.35-0.14,0.77-0.14,1.12
				c0,0.21,0,0.42,0.07,0.7c0.56-0.63,1.12-1.26,1.75-1.82c-0.14-0.91,0.14-1.68,0.63-2.17l0.14,0.14
				c-0.35,0.49-0.56,1.12-0.49,1.89c0.49-0.49,0.91-0.84,1.26-1.12l0.14,0.14c-1.54,1.4-2.94,3.08-4.41,5.32
				c1.47-0.21,2.73-0.91,3.78-1.82l0.07,0.07l0.07,0.07c-1.05,1.26-2.59,2.17-4.34,2.52c-0.35,0.63-0.77,1.26-1.26,2.1
				c0.07,0.35,0.07,0.7,0.14,1.19c0.7-0.91,1.33-1.68,2.31-2.17l0.07,0.14c-0.98,0.63-1.54,1.68-2.1,2.73
				c0,0.07-0.07,0.21-0.14,0.28c0.07,0.49,0.07,0.91,0.14,1.33c0.56-0.77,1.23-1.62,2.01-2.42c0.79-0.79,1.7-1.51,2.75-2
				c0.63-0.35,1.26-1.05,1.05-2.1h0.14c0.21,0.7,0.07,1.33-0.42,1.89c0.7-0.21,1.47-0.35,2.24-0.35v0.07
				c-1.92,0.07-3.44,0.89-4.7,2.07c-1.01,0.95-1.84,2.11-2.57,3.32c-0.01,0.02-0.02,0.05-0.04,0.08c-0.11,0.19-0.22,0.37-0.32,0.55
				c0.01,0.06,0.01,0.13,0.02,0.2c0.06,0.71,0.13,1.41,0.19,2.11c0.64-0.45,1.25-0.95,1.83-1.45c0.04-0.03,0.07-0.06,0.11-0.09
				c0.46-0.4,0.91-0.8,1.36-1.19c0.08-0.07,0.15-0.13,0.22-0.2c0.69-0.63,1.4-1.26,2.16-1.83c0.7-0.49,1.4-0.84,2.1-1.12
				c0.21-0.77,0.77-1.47,1.54-2.1l0.07,0.07c-0.28,0.28-0.56,0.63-0.77,0.98c-0.14,0.28-0.28,0.49-0.35,0.77
				c0.35-0.14,0.77-0.35,1.19-0.56c1.19-0.63,2.31-1.47,3.29-2.45l0.07,0.07c-0.98,1.12-2.1,1.96-3.22,2.59
				c-0.49,0.28-0.98,0.56-1.47,0.77c-1.4,0.7-2.66,1.4-3.64,2.59c-0.2,0.25-0.43,0.46-0.67,0.69c-0.1,0.09-0.2,0.19-0.31,0.29
				c0.13-0.01,0.27-0.03,0.41-0.05c0.45-0.05,0.95-0.09,1.48-0.09v0.14c-0.49,0.07-0.98,0.14-1.47,0.28l-0.01,0.01
				c-0.55,0.2-0.9,0.34-1.25,0.55c-0.21,0.19-0.42,0.38-0.64,0.57l-0.15,0.13c-0.54,0.46-1.11,0.92-1.67,1.34v0.63
				c0.68-0.1,1.3-0.23,1.87-0.4c0.06-0.01,0.13-0.03,0.19-0.05c0.98-0.31,1.81-0.71,2.49-1.23l0.14,0.14
				c-0.65,0.65-1.5,1.17-2.53,1.59c-0.07,0.03-0.13,0.05-0.2,0.08c-0.57,0.22-1.2,0.41-1.89,0.57c0,0.07-0.07,0.21-0.07,0.35
				c-0.07,0.14-0.07,0.21-0.07,0.35c0.78-0.02,1.54-0.08,2.26-0.2c0.08-0.01,0.17-0.03,0.25-0.04c1.77-0.29,3.3-0.86,4.46-1.66
				c0.04-0.02,0.06-0.04,0.1-0.06l0.07,0.07l0.07,0.07c-0.05,0.04-0.09,0.08-0.14,0.11c-1.14,0.92-2.58,1.55-4.41,1.96
				c-0.09,0.02-0.18,0.04-0.27,0.06c-0.18,0.04-0.37,0.08-0.57,0.11c-0.35,0.07-0.84,0.07-1.26,0.07h-0.63
				c0,0.21-0.07,0.42-0.14,0.63c-0.07,0.21-0.14,0.35-0.14,0.49h0.28l0.07,0.07c0.99-0.04,1.89-0.14,2.7-0.3
				c0.12-0.02,0.23-0.04,0.34-0.07c0.46-0.09,0.88-0.2,1.27-0.33c0.07-0.02,0.14-0.04,0.21-0.06c1.87-0.6,3.1-1.41,3.72-1.9
				c0.34-0.25,0.5-0.42,0.5-0.42c1.68-1.61,1.4-3.01,1.26-3.36c-2.03,1.89-3.92,1.4-3.99,1.4v-0.14c1.05-0.14,1.47-0.63,1.89-1.05
				c0.28-0.21,0.56-0.49,0.91-0.63c0.49-0.14,0.63-0.35,0.63-0.42V24.5c1.47-0.42,3.64-2.73,4.27-3.43
				C235.65,21.1,235.49,21.06,235.38,21.05z M219.89,11.99c-0.38-1.69-0.67-3.44-0.61-5.06h0.14c0,1.29,0.29,2.58,0.64,3.91
				C219.98,11.22,219.93,11.61,219.89,11.99z M221.08,7.5c-0.08,0.18-0.15,0.36-0.22,0.54c-0.08-0.55-0.06-1.06,0.17-1.53l0.14,0.07
				C221.06,6.87,221.04,7.19,221.08,7.5z M221.16,4.51l-0.06-0.03h0.07C221.16,4.49,221.16,4.5,221.16,4.51z M221.67,5.5
				c0.42-0.64,0.9-1.27,1.39-1.86l0.14,0.14c-0.57,0.74-1.04,1.47-1.46,2.25C221.69,5.84,221.67,5.66,221.67,5.5z M222.01,6.8
				L222.01,6.8c-0.04-0.08-0.07-0.17-0.09-0.24c0.74-0.06,1.3-0.26,1.7-0.61l0.14,0.14C223.37,6.48,222.79,6.69,222.01,6.8z"/>
			<path  d="M221.66,31.99v0.07c0.14,0,0.21,0,0.35,0v-0.07H221.66z"/>
		</g>
		<g>
			<path  d="M222.11,63.07c-0.01,0.03-0.01,0.05-0.02,0.07c-0.01,0.03-0.01,0.05-0.02,0.07
				c-0.03,0.09-0.05,0.16-0.06,0.21h-1.68c0.01-0.05,0.02-0.12,0.03-0.21c0.01-0.02,0.01-0.04,0.01-0.07
				c0.01-0.02,0.01-0.04,0.01-0.07c0.06-0.32,0.16-0.79,0.29-1.32c-0.01,0.51-0.03,0.97-0.03,1.32H222.11z"/>
			<path  d="M227.4,43.82c0.21,1.54,0.42,3.01,0.77,4.55c-0.14,0.14-0.21,0.21-0.28,0.35
				c-0.07,0.14-0.21,0.21-0.28,0.28c-1.75-2.1-2.8-4.06-3.22-6.02h-0.14c0.21,2.1,1.12,4.27,2.8,6.65
				c-0.14,0.14-0.21,0.35-0.28,0.49c-0.07,0.14-0.14,0.35-0.21,0.42c-2.6-2.54-4.48-5.32-5.29-8.01c-0.06-0.2-0.12-0.4-0.17-0.6
				h-0.14c0.06,0.33,0.13,0.66,0.21,0.99c0.22,0.86,0.53,1.74,0.98,2.65c0.56,1.19,1.33,2.45,2.31,3.71
				c0.28,0.35,0.7,0.77,1.19,1.19c0.21,0.21,0.42,0.42,0.63,0.63c-0.14,0.21-0.28,0.49-0.35,0.77c-0.07,0.21-0.14,0.49-0.28,0.63
				l-0.28-0.21h-0.07c-2.55-2.52-4.05-5.04-4.93-7.06c-0.57-1.31-0.88-2.42-1.04-3.19c-0.01-0.04-0.02-0.08-0.03-0.11
				c-0.13-0.65-0.16-1.03-0.16-1.05c-0.06-0.77-0.03-1.43,0.06-1.99v-0.01c0.11-0.71,0.32-1.27,0.55-1.69
				c0.16-0.3,0.33-0.54,0.48-0.72c0.17-0.19,0.31-0.32,0.41-0.41c0.04-0.04,0.07-0.06,0.1-0.08c0.06,0.58,0.15,1.11,0.27,1.58
				c0.01,0.01,0.01,0.01,0.01,0.02c0.11,0.38,0.23,0.71,0.36,1.03c0,0,0,0,0.01,0.01c0.02,0.06,0.05,0.11,0.07,0.16
				c0.78,1.65,1.88,2.29,2.08,2.39l0.07-0.07c-0.98-1.19-1.05-2.1-1.05-2.87c0-0.49-0.07-1.05-0.35-1.54
				c-0.2-0.39-0.28-0.66-0.3-0.83c-0.02-0.12-0.01-0.2,0.01-0.26c0-0.01,0-0.02,0.01-0.03c0.07-0.07,0.14-0.14,0.14-0.14l0.07-0.07
				c-0.07-0.11-0.14-0.22-0.2-0.35c-0.35-0.68-0.6-1.6-0.77-2.57c-0.15-0.84-0.26-1.72-0.33-2.51c-0.01-0.14-0.02-0.27-0.03-0.4
				c-0.03-0.34-0.04-0.65-0.05-0.93c-0.02-0.4-0.03-0.72-0.03-0.95c0.11,0.18,0.24,0.29,0.38,0.36c0.23,0.13,0.46,0.13,0.46,0.13
				l0.07-0.07c-0.29-0.86-0.2-1.76,0.09-2.6c0.08-0.26,0.19-0.5,0.3-0.75c0.02-0.03,0.03-0.06,0.04-0.08
				c0.81-1.62,2.16-2.94,2.58-3.36c0,0.01-0.01,0.03-0.01,0.04c-0.22,1.34,0.36,2.6,0.79,3.33c0.12,0.2,0.22,0.36,0.29,0.47
				c0.06,0.08,0.09,0.13,0.11,0.15c-0.01,0.03-0.01,0.06-0.01,0.09c-0.01,0.12-0.01,0.23,0,0.34c0.01,0.4,0.16,0.67,0.43,0.83
				c0.49,0.35,1.33,0,1.61-0.14c0.21,1.12,0.42,1.68,0.77,1.75c0.14,0,0.21-0.07,0.28-0.07c0.03,0.13,0.06,0.24,0.11,0.34
				c0.02,0.06,0.05,0.13,0.1,0.19c0.06,0.11,0.16,0.22,0.28,0.31c0.25,0.23,0.58,0.36,0.9,0.42c-0.62,0.49-1.86,1.3-3.72,1.9
				c-0.03-0.25-0.06-0.51-0.12-0.78h-0.14c0.04,0.27,0.05,0.55,0.05,0.84c-0.01,0.32-0.04,0.65-0.12,0.98
				c-0.07,0.49-0.21,0.91-0.35,1.26c-0.28-0.56-0.49-1.19-0.77-1.82c-0.01-0.03-0.03-0.06-0.04-0.09c-0.14-0.34-0.27-0.69-0.39-1.06
				c-0.06-0.16-0.1-0.32-0.15-0.49c-0.11-0.36-0.2-0.74-0.28-1.11c-0.04-0.16-0.07-0.33-0.11-0.5c-0.1-0.53-0.18-1.09-0.24-1.65
				c-0.02-0.26-0.04-0.52-0.06-0.78h-0.14c0,0.03,0,0.06,0.01,0.09c0.01,0.27,0.02,0.55,0.05,0.81c0.04,0.53,0.11,1.06,0.2,1.57
				c0.02,0.18,0.06,0.35,0.09,0.53c0.06,0.36,0.15,0.73,0.23,1.08c0.04,0.18,0.08,0.34,0.13,0.5c0.1,0.36,0.2,0.72,0.32,1.07
				c0.01,0.03,0.02,0.06,0.03,0.09c0.28,0.7,0.56,1.47,0.84,2.17c0.39,1.02,0.75,2.02,1.02,3.02c0.27,1.02,0.45,2.05,0.45,3.14
				c0.07,0.63,0.07,1.26,0.14,2.03c-0.49-0.63-1.05-1.33-1.82-1.96l-0.07,0.07l-0.07,0.07c0.49,0.56,0.91,1.12,1.26,1.68
				C226.98,42.7,227.26,43.26,227.4,43.82z"/>
			<path  d="M255.4,43.75c-1.26,3.57-7.21,6.3-7.28,6.3v0.14c1.47,0.28,3.01-0.07,3.57-0.21
				c-2.66,3.99-8.54,3.5-8.61,3.5h-0.21c1.47,2.66,4.48,3.64,5.25,3.85c-4.13,1.96-9.8,0.56-9.87,0.56l-0.07,0.07
				c0.07,0.63,0.28,1.05,0.35,1.19c-7-1.33-9.87-5.11-9.87-5.11h-0.07c-1.89,0.98-4.37,3.29-5.07,4.41c-0.55,0.97-0.68,3.7-0.98,4.7
				l-2.22-0.01c0-0.35,0.02-0.81,0.03-1.32c0.26-1.06,0.51-2.98,0.88-3.7c0.65-1.24,3.54-4.63,4.34-5.73l-0.05-0.07l0.02-0.01
				c0,0,0,0,0.01-0.01c0.01,0,0.01-0.01,0.01-0.01c0-0.01,0.01-0.02,0.02-0.04l0.01-0.01l0.74,0.44l0.02,0.01l0.03,0.02l1.58,1.17
				h0.07c0.28-0.35,0.35-0.77,0.35-1.26c0-0.42,0.07-0.84,0.28-1.12l0.07-0.14c2.38,1.61,4.55,3.5,6.65,5.39
				c0.28,0.28,0.56,0.49,0.91,0.77l0.14-0.14c-0.35-0.35-0.63-0.63-0.91-0.98c-1.05-1.12-2.17-2.24-3.36-3.29
				c3.08,1.33,6.37,2.24,9.52,3.22c0.35,0.14,0.77,0.21,1.12,0.35v-0.14l-0.98-0.35c-2.94-1.05-6.02-2.1-8.89-3.43
				c2.73,0.63,5.11,0.84,7.35,0.77v-0.07c-1.61,0-3.22-0.21-5.25-0.7c-1.61-0.35-3.92-1.05-4.97-1.47c0,0,0,0-0.07-0.07
				c-0.21-0.14-0.35-0.21-0.56-0.35c-0.14-0.07-0.28-0.14-0.42-0.21c0-0.07,0.07-0.14,0.07-0.21c0-0.07,0.07-0.14,0.07-0.21
				c4.9,1.19,10.08,0.98,15.05,0.84c0.91,0,1.82-0.07,2.73-0.07v-0.14h-2.45c-3.08,0-6.23-0.07-9.31-0.35
				c2.45,0,4.97-0.28,7.21-1.61v-0.14c-3.43,1.82-7.28,1.33-11.13,0.84c-0.56-0.07-1.12-0.14-1.61-0.21l0.56-0.7
				c0.28-0.35,0.56-0.7,0.84-1.05c1.89-0.07,3.78-0.21,5.53-0.42c1.33,0.77,2.94,0.84,4.48,0.77v-0.14
				c-1.33-0.14-2.31-0.42-3.22-0.77c-0.07,0-0.07-0.07-0.14-0.07c2.03-0.35,3.99-0.91,5.74-1.54c2.24,0.35,4.55,0.07,6.51-0.14
				v-0.14c-1.96,0.14-3.85,0.21-5.67-0.07c2.94-1.19,5.39-2.8,7.28-4.69l-0.07-0.07l-0.07-0.07c-4.34,4.13-11.41,6.44-19.88,6.51
				l0.35-0.42c0.35-0.35,0.63-0.77,0.98-1.12c1.96,0.14,3.64-0.56,4.76-1.12v-0.14c-0.84,0.35-1.68,0.56-2.52,0.63
				c-0.56,0.07-1.12,0.07-1.61,0c0.77-0.84,1.47-1.68,2.17-2.45c0.56,0,1.05-0.07,1.61-0.14c1.96-0.07,4.06,0,6.58,0.28v-0.14
				c-1.47-0.28-2.8-0.42-4.13-0.56c1.68-0.49,2.94-1.26,3.78-2.31l-0.07-0.07l-0.07-0.07c-1.4,1.47-3.64,2.17-6.72,2.17h-0.28
				c0.98-1.12,2.03-2.17,3.01-3.15c0.14-0.07,0.28-0.07,0.35-0.14c0.21-0.07,0.35-0.14,0.56-0.21c0.63-0.21,1.12-0.35,1.61-0.56
				c2.03-0.7,3.85-1.33,5.53-1.82v-0.14c-1.05,0.21-2.1,0.49-3.15,0.77c1.19-0.77,2.03-1.68,2.59-2.66h-0.07l-0.07-0.07
				c-1.05,1.68-3.08,2.87-6.16,3.64c1.26-1.19,2.38-2.52,3.29-3.99c0.21-0.14,0.35-0.35,0.56-0.49c1.89-1.61,3.85-3.29,5.25-5.32
				l-0.07-0.07l-0.07-0.07c-1.33,1.61-3.08,3.01-4.9,4.41c0.63-1.19,1.12-2.45,1.54-3.78c0.91-0.7,1.75-1.54,1.96-2.52h-0.14
				c-0.28,0.77-0.98,1.4-1.61,1.89c0.21-0.77,0.42-1.61,0.56-2.45c1.12-0.63,1.68-1.26,1.75-2.03h-0.14
				c-0.14,0.63-0.63,1.19-1.54,1.68c0.21-1.4,0.35-2.87,0.35-4.34h-0.14c-0.07,1.61-0.21,3.15-0.56,4.69
				c-0.98-0.91-1.54-1.82-1.75-2.73h-0.14c0.14,0.98,0.7,1.96,1.75,3.01c-0.63,2.8-1.75,5.32-3.22,7.56
				c-0.91,1.4-2.03,2.66-3.29,3.78c0.28-1.4,0.63-2.87,0.84-4.41c1.96-2.03,1.89-5.18,1.82-7.21h-0.14
				c-0.14,2.24-0.28,4.41-1.54,6.02c0.42-3.22,0.35-5.88-0.14-8.33h-0.14c0.42,2.66,0.28,5.53-0.42,9.17
				c-0.42,2.03-0.98,4.06-1.4,5.74l-0.28,0.28c-0.07,0-0.14,0-0.14,0.07l-0.07,0.07v0.07c-0.56,0.56-1.19,1.12-1.68,1.61
				c0.07-0.98,0.21-1.96,0.21-2.87c0.07-1.26,0.14-2.45,0.14-3.57c0.84-0.77,1.4-1.68,1.61-2.66h-0.14
				c-0.21,0.49-0.42,0.91-0.77,1.33c-0.21,0.28-0.42,0.49-0.7,0.77c0-1.26-0.07-2.45-0.14-3.64c0.84-0.91,1.26-1.96,1.19-2.94h-0.14
				c0,0.84-0.35,1.75-1.12,2.59c-0.14-0.98-0.21-1.75-0.35-2.38h-0.14c0.35,2.94,0.35,6.09-0.07,9.94
				c-1.26-1.61-2.03-3.57-2.31-5.53h-0.14c0.07,2.38,0.84,4.76,2.31,6.72c-0.14,0.98-0.28,2.1-0.49,3.43l-1.19,1.19
				c0.07-1.54,0.07-3.08-0.42-4.48l-0.14,0.07c0.42,1.61,0.07,3.29-0.21,4.9c0,0.14-0.07,0.35-0.07,0.49
				c-0.42,0.42-0.84,0.91-1.26,1.33c0.21-2.73,0.28-6.23-1.05-9.24c-0.13-0.35-0.2-0.76-0.2-1.18c0-0.74,0.25-1.53,0.97-2.11
				l-0.07-0.07l-0.07-0.07c-0.77,0.56-1.19,1.47-1.12,2.52c-0.56-0.98-1.19-1.82-2.03-2.52l-0.07,0.07l-0.07,0.07
				c3.64,3.57,3.36,8.89,2.59,13.58c-0.7,0.84-1.47,1.61-2.17,2.38c-0.49-1.96-0.77-3.99-0.98-5.95c-0.21-1.4-0.35-2.87-0.63-4.34
				c-0.28-1.05-0.7-2.1-1.19-3.08c0.34-0.85,0.45-1.79,0.33-2.86c1.87-0.6,3.1-1.41,3.72-1.9c0.56,0.13,1.09,0.07,1.13,0.07
				l0.07-0.07c0.21-2.8,2.8-6.23,3.29-6.86c0.56,1.82,1.61,2.38,1.68,2.38l0.07-0.07c0.56-3.29,3.78-5.53,4.34-5.88
				c0.21,1.47,1.05,2.38,1.05,2.45h0.07c1.05-0.21,1.68-2.31,1.89-3.08c0.21,0.91,0.63,0.98,0.63,1.05l0.07-0.07
				c0-1.61,3.78-4.9,4.55-5.53c-0.07,0.7-0.35,3.43,0.21,5.74c0.63,2.59,1.26,6.72,1.26,6.72l0.07,0.07
				c0.49-0.07,0.84-0.28,0.98-0.49c-0.07,1.96-2.1,4.2-2.1,4.2l0.07,0.14c0.56-0.07,1.12-0.42,1.4-0.63
				c-0.28,2.31-2.87,4.48-2.87,4.48v0.14c0.42,0.35,1.05,0.35,1.26,0.35c-1.12,2.38-4.41,4.97-4.48,5.04l0.07,0.14
				c2.03,0.21,4.06-1.47,4.55-1.89c0.07,0.42,0.49,0.91,0.49,0.91h0.07c1.47-0.28,5.32-2.52,5.95-2.94c0.14,2.24-2.1,4.55-2.1,4.62
				v0.14c0.56,0.14,0.91,0.07,1.12-0.14c-0.14,1.89-2.87,3.64-2.87,3.64l0.07,0.14C253.72,44.17,254.98,43.82,255.4,43.75z"/>
		</g>
		<g>
			<rect x="216.69" y="63.15"  width="7.84" height="0.7"/>
			<path  d="M224.53,63.07h-7.84l-0.07,0.07v0.7l0.07,0.07h7.84l0.07-0.77L224.53,63.07z M224.46,63.77h-7.7v-0.56
				h7.7V63.77z"/>
		</g>
	</g>
</g>
</svg>
