<?xml version="1.0" encoding="utf-8"?>
<!-- Generator: Adobe Illustrator 27.0.0, SVG Export Plug-In . SVG Version: 6.00 Build 0)  -->
<svg version="1.1" id="Layer_1" xmlns="http://www.w3.org/2000/svg" xmlns:xlink="http://www.w3.org/1999/xlink" x="0px" y="0px"
	 viewBox="0 0 444.71 256.82" style="enable-background:new 0 0 444.71 256.82;" xml:space="preserve">
<style type="text/css">
	.st0{fill:#000;}
</style>
<g>
	<g>
		<g>
			<g>
				<g>
					<path class="st0" d="M172.76,239.84c-0.75-1.38-1.88-2.38-3.13-3.13c-1.25-0.75-2.75-1.13-4.5-1.13c-1.75,0-3.25,0.38-4.5,1.13
						c-1.25,0.75-2.38,1.75-3,3.13c-0.63,1.38-1.13,2.88-1.13,4.5c0,1.75,0.38,3.25,1.13,4.5c0.75,1.25,1.75,2.38,3.13,3.13
						c1.38,0.75,2.88,1.13,4.5,1.13c1.63,0,3.13-0.38,4.5-1.13c1.25-0.75,2.38-1.75,3-3.13c0.63-1.38,1.13-2.88,1.13-4.5
						C173.89,242.6,173.51,241.09,172.76,239.84z M169.76,247.22c-0.5,0.88-1.13,1.5-1.88,2c-0.75,0.5-1.75,0.75-2.75,0.75
						c-1,0-2-0.25-2.75-0.75c-0.88-0.5-1.5-1.13-1.88-2c-0.5-0.88-0.63-1.88-0.63-3c0-1.13,0.25-2.13,0.63-3
						c0.5-0.88,1.13-1.5,1.88-2c0.75-0.5,1.75-0.75,2.75-0.75c1,0,2,0.25,2.75,0.75c0.75,0.5,1.38,1.13,1.88,2
						c0.5,0.88,0.63,1.88,0.63,3C170.39,245.47,170.26,246.35,169.76,247.22z"/>
					<path class="st0" d="M187.15,235.84h-3.25l-6.75,17.01h3.5l1.38-3.75h7l1.38,3.75h3.5L187.15,235.84z M183.39,246.1l2.38-6.25
						l2.38,6.25H183.39z"/>
					<polygon class="st0" points="212.54,235.85 208.16,235.85 201.91,242.47 201.91,235.85 198.66,235.85 198.66,252.73 
						201.91,252.73 201.91,247.1 203.16,245.73 208.66,252.73 212.79,252.73 205.41,243.48 					"/>
					<polygon class="st0" points="224.17,248.98 219.17,235.85 215.54,235.85 222.29,252.73 222.67,252.73 225.54,252.73 
						225.92,252.73 232.67,235.85 229.17,235.85 					"/>
					<rect x="237.18" y="235.85" class="st0" width="3.25" height="17.01"/>
					<polygon class="st0" points="249.93,235.85 246.55,235.85 246.55,252.73 257.31,252.73 257.31,249.73 249.93,249.73 					"/>
					<polygon class="st0" points="265.31,235.85 261.94,235.85 261.94,252.73 272.82,252.73 272.82,249.73 265.31,249.73 					"/>
					<polygon class="st0" points="280.7,249.73 280.7,245.6 287.07,245.6 287.07,242.72 280.7,242.72 280.7,238.85 288.2,238.85 
						288.2,235.85 277.44,235.85 277.44,252.73 288.32,252.73 288.32,249.73 					"/>
				</g>
				<path class="st0" d="M130.45,142.03c-1.65,0.23-3.26,0.46-4.91,0.68c-1.05,0.16-2.12,0.23-3.2,0.23
					c-8.7,0.39-20.24,0.18-34.92,0.49c-17.03,0.36-36.85-0.26-56.58-0.49l-16.29-0.16c-0.41,0-0.79,0-1.2-0.05
					c-0.25,0-0.54-0.02-0.79-0.07l-8.74-0.98c-2.34-0.39-2.34-2.8,0-3.19l8.73-1.22c0.25-0.05,0.54-0.07,0.79-0.07
					c0.41-0.05,0.79-0.05,1.2-0.05l16.3,0.08c12.53-0.46,28.18-0.03,50.57-0.02c13.16,0.01,20.27-0.95,40.93,0.02
					c1.08,0,2.15,0.07,3.2,0.23c1.65,0.23,3.26,0.46,4.91,0.68C133.4,138.57,133.4,141.62,130.45,142.03z"/>
				<path class="st0" d="M440.44,142.03c-1.65,0.23-3.26,0.46-4.91,0.68c-1.05,0.16-2.12,0.23-3.2,0.23
					c-8.7,0.39-20.24,0.18-34.92,0.49c-17.03,0.36-36.85-0.26-56.58-0.49l-16.29-0.16c-0.41,0-0.79,0-1.2-0.05
					c-0.25,0-0.54-0.02-0.79-0.07l-8.74-0.98c-2.34-0.39-2.34-2.8,0-3.19l8.73-1.22c0.25-0.05,0.54-0.07,0.79-0.07
					c0.41-0.05,0.79-0.05,1.2-0.05l16.3,0.08c12.53-0.46,28.18-0.03,50.57-0.02c13.16,0.01,20.27-0.95,40.93,0.02
					c1.08,0,2.15,0.07,3.2,0.23c1.65,0.23,3.26,0.46,4.91,0.68C443.38,138.57,443.38,141.62,440.44,142.03z"/>
				<path class="st0" d="M440.27,247.33c-1.77,0.23-3.51,0.46-5.28,0.68c-1.13,0.16-2.28,0.23-3.44,0.23
					c-9.36,0.39-21.78,0.18-37.57,0.49c-18.33,0.36-39.64-0.26-60.88-0.49l-17.52-0.16c-0.44,0-0.85,0-1.3-0.05
					c-0.27,0-0.58-0.02-0.85-0.07l-9.41-0.98c-2.52-0.39-2.52-2.8,0-3.19l9.4-1.22c0.27-0.05,0.58-0.07,0.85-0.07
					c0.44-0.05,0.85-0.05,1.3-0.05l17.53,0.08c13.48-0.46,30.32-0.03,54.41-0.02c14.16,0.01,21.81-0.95,44.03,0.02
					c1.16,0,2.32,0.07,3.44,0.23c1.77,0.23,3.51,0.46,5.28,0.68C443.44,243.87,443.44,246.92,440.27,247.33z"/>
				<path class="st0" d="M140.2,247.33c-1.77,0.23-3.51,0.46-5.28,0.68c-1.13,0.16-2.28,0.23-3.44,0.23
					c-9.36,0.39-21.78,0.18-37.57,0.49c-18.33,0.36-39.64-0.26-60.88-0.49l-17.52-0.16c-0.44,0-0.85,0-1.3-0.05
					c-0.27,0-0.58-0.02-0.85-0.07l-9.41-0.98c-2.52-0.39-2.52-2.8,0-3.19l9.4-1.22c0.27-0.05,0.58-0.07,0.85-0.07
					c0.44-0.05,0.85-0.05,1.3-0.05l17.53,0.08c13.48-0.46,30.32-0.03,54.41-0.02c14.16,0.01,21.81-0.95,44.03,0.02
					c1.16,0,2.32,0.07,3.44,0.23c1.77,0.23,3.51,0.46,5.28,0.68C143.37,243.87,143.37,246.92,140.2,247.33z"/>
				<g>
					<path class="st0" d="M42.33,188.1c-1.44,2.66-3.7,4.81-6.76,6.44c-3.07,1.63-6.94,2.44-11.61,2.44h-9.53v21.84H3v-56.88h20.94
						c4.4,0,8.15,0.76,11.25,2.28c3.1,1.52,5.42,3.61,6.97,6.28c1.55,2.66,2.32,5.68,2.32,9.05
						C44.49,182.59,43.77,185.44,42.33,188.1z M30.47,185.62c1.52-1.44,2.28-3.46,2.28-6.07c0-5.54-3.1-8.31-9.29-8.31h-9.05v16.54
						h9.05C26.61,187.78,28.95,187.06,30.47,185.62z"/>
					<path class="st0" d="M90.04,218.83l-12.55-22.17h-5.38v22.17H60.7v-56.88h21.35c4.4,0,8.15,0.77,11.25,2.32
						c3.1,1.55,5.42,3.64,6.97,6.28c1.55,2.64,2.32,5.58,2.32,8.84c0,3.75-1.09,7.13-3.26,10.15c-2.17,3.02-5.41,5.09-9.7,6.23
						l13.61,23.06H90.04z M72.11,188.1h9.54c3.1,0,5.41-0.75,6.93-2.24c1.52-1.49,2.28-3.57,2.28-6.23c0-2.61-0.76-4.63-2.28-6.07
						c-1.52-1.44-3.83-2.16-6.93-2.16h-9.54V188.1z"/>
					<path class="st0" d="M132.5,171.15v14.26h19.15v9.05H132.5v15.08h21.6v9.29h-33.01v-56.97h33.01v9.29H132.5z"/>
					<path class="st0" d="M181.52,217.36c-3.18-1.36-5.69-3.31-7.54-5.87c-1.85-2.55-2.8-5.57-2.85-9.05h12.22
						c0.16,2.34,0.99,4.18,2.49,5.54c1.49,1.36,3.54,2.04,6.15,2.04c2.66,0,4.75-0.64,6.28-1.91c1.52-1.28,2.28-2.95,2.28-5.01
						c0-1.68-0.52-3.07-1.55-4.16c-1.03-1.09-2.32-1.94-3.87-2.57c-1.55-0.62-3.68-1.32-6.4-2.08c-3.7-1.09-6.7-2.16-9-3.22
						c-2.31-1.06-4.29-2.66-5.95-4.81c-1.66-2.15-2.48-5.01-2.48-8.6c0-3.37,0.84-6.3,2.53-8.8c1.68-2.5,4.05-4.41,7.09-5.75
						c3.04-1.33,6.52-2,10.43-2c5.87,0,10.64,1.43,14.3,4.28c3.67,2.85,5.69,6.83,6.07,11.94h-12.55c-0.11-1.96-0.94-3.57-2.49-4.85
						c-1.55-1.28-3.6-1.91-6.15-1.91c-2.23,0-4.01,0.57-5.34,1.71c-1.33,1.14-2,2.8-2,4.97c0,1.52,0.5,2.79,1.51,3.79
						c1,1.01,2.25,1.82,3.75,2.44c1.49,0.63,3.6,1.35,6.32,2.16c3.69,1.09,6.71,2.17,9.05,3.26c2.34,1.09,4.35,2.72,6.03,4.89
						c1.68,2.17,2.53,5.03,2.53,8.56c0,3.04-0.79,5.87-2.36,8.48c-1.58,2.61-3.88,4.69-6.93,6.23c-3.04,1.55-6.66,2.32-10.84,2.32
						C188.27,219.4,184.7,218.72,181.52,217.36z"/>
					<path class="st0" d="M241.79,171.15v14.26h19.15v9.05h-19.15v15.08h21.6v9.29h-33.01v-56.97h33.01v9.29H241.79z"/>
					<path class="st0" d="M311.23,218.83l-12.55-22.17h-5.38v22.17h-11.41v-56.88h21.35c4.4,0,8.15,0.77,11.25,2.32
						c3.1,1.55,5.42,3.64,6.97,6.28c1.55,2.64,2.32,5.58,2.32,8.84c0,3.75-1.09,7.13-3.26,10.15c-2.17,3.02-5.41,5.09-9.7,6.23
						l13.61,23.06H311.23z M293.3,188.1h9.54c3.1,0,5.41-0.75,6.93-2.24c1.52-1.49,2.28-3.57,2.28-6.23c0-2.61-0.76-4.63-2.28-6.07
						c-1.52-1.44-3.83-2.16-6.93-2.16h-9.54V188.1z"/>
					<path class="st0" d="M393.38,161.94l-20.86,56.88h-13.85l-20.86-56.88h12.22l15.65,45.23l15.57-45.23H393.38z"/>
					<path class="st0" d="M419.78,171.15v14.26h19.15v9.05h-19.15v15.08h21.6v9.29h-33.01v-56.97h33.01v9.29H419.78z"/>
				</g>
				<g>
					<path class="st0" d="M203.22,126.62v3.83h-6.3v19.81h-4.74v-19.81h-6.3v-3.83H203.22z"/>
					<path class="st0" d="M233.55,126.62v23.63h-4.74V140.2h-10.13v10.06h-4.74v-23.63h4.74v9.72h10.13v-9.72H233.55z"/>
					<path class="st0" d="M250.23,130.45v5.92h7.96v3.76h-7.96v6.26h8.97v3.86h-13.71v-23.67h13.71v3.86H250.23z"/>
				</g>
			</g>
		</g>
		<g>
			<g>
				<g>
					<path class="st0" d="M211.91,97.9l0.63-0.5c0,0,0,0,0.13,0.13c-0.25,0.25-0.38,0.38-0.63,0.63
						C212.04,97.9,211.91,97.9,211.91,97.9z"/>
					<path class="st0" d="M224.04,77.13c0,0.04-0.06,0.99-0.45,2.58c-0.05,0.23-0.11,0.45-0.18,0.69c-0.3,1.15-0.75,2.55-1.43,4.13
						c-1.54,3.69-4.24,8.34-8.95,12.99h-0.13l-0.5,0.38c-0.01-0.03-0.04-0.05-0.05-0.08c-0.01-0.04-0.04-0.06-0.05-0.09
						c-0.03-0.04-0.05-0.08-0.06-0.11c-0.15-0.29-0.25-0.58-0.34-0.85c-0.25-0.5-0.38-1-0.63-1.38c0.25-0.38,0.75-0.75,1.13-1.13
						c0.25-1,1-1.88,1.5-2.5c3.45-4.43,5.44-8.74,6.22-12.93c0.01-0.06,0.03-0.14,0.04-0.2h-0.25c-1.25,5-4.75,10.5-9.75,15.38
						c-0.13-0.25-0.25-0.5-0.38-0.75c-0.13-0.25-0.25-0.63-0.5-0.88c3-4.25,4.63-8.13,5-11.88h-0.25c-0.63,3.5-2.5,7-5.75,10.76
						c-0.13-0.25-0.38-0.38-0.5-0.63c-0.13-0.25-0.38-0.38-0.5-0.63c0.5-2.75,1-5.38,1.38-8.13c0.25-0.88,0.75-2,1.5-3.25
						c0.63-1,1.38-2,2.25-3l-0.25-0.25c-1.25,1.13-2.38,2.38-3.25,3.5c0.13-1.25,0.25-2.5,0.25-3.63c0-3.88,1.25-7.38,2.63-11.01
						c0.5-1.25,1-2.5,1.5-3.88c0.03-0.05,0.04-0.11,0.05-0.16c0.3-0.84,0.56-1.69,0.79-2.56c0.05-0.19,0.09-0.36,0.13-0.55
						c0.11-0.43,0.2-0.85,0.28-1.28c0.06-0.29,0.11-0.58,0.16-0.86c0.04-0.16,0.06-0.34,0.08-0.51c0.05-0.23,0.08-0.45,0.1-0.69
						c0.11-0.79,0.19-1.59,0.24-2.41c0.03-0.35,0.04-0.7,0.05-1.06c0.01-0.05,0.01-0.11,0.01-0.16h-0.25
						c-0.03,0.34-0.05,0.68-0.09,1.01c-0.08,0.83-0.18,1.63-0.31,2.43c-0.04,0.23-0.08,0.44-0.11,0.66c-0.04,0.2-0.08,0.4-0.13,0.6
						c-0.05,0.28-0.11,0.55-0.18,0.83c-0.11,0.5-0.25,1-0.39,1.49c-0.04,0.18-0.09,0.34-0.15,0.5c-0.24,0.81-0.51,1.61-0.81,2.39
						c-0.02,0.08-0.06,0.15-0.09,0.23c-0.38,1.13-0.88,2.25-1.38,3.13c-0.25-0.63-0.5-1.38-0.63-2.25c-0.08-0.65-0.1-1.26-0.11-1.89
						c-0.01-0.44-0.01-0.89-0.01-1.36h-0.25c-0.08,0.4-0.14,0.79-0.19,1.18c-0.26,2.03-0.06,3.85,0.56,5.33
						c-0.75,1.75-1.63,3.63-2.13,5.5c-0.5,2.63-0.88,5.25-1.13,7.75c-0.5,3.5-1,7.13-1.75,10.63c-1.25-1.5-2.63-2.88-3.88-4.25
						c-1.38-8.5-1.88-18.01,4.63-24.26l-0.13-0.13l-0.13-0.13c-1.38,1.25-2.63,2.75-3.63,4.5c0.13-1.88-0.63-3.5-2-4.5l-0.25,0.25
						c2,1.63,2,4.25,1.38,5.88c-1.64,3.7-2.09,7.82-2.09,11.61c0,1.73,0.1,3.38,0.21,4.9c-0.75-0.75-1.5-1.63-2.25-2.38
						c0-0.25-0.13-0.5-0.13-0.88c-0.5-2.88-1.13-5.88-0.38-8.75L196.78,70c-1,2.5-1,5.25-0.75,8c-0.75-0.88-1.5-1.5-2.13-2.13
						c-0.38-2.38-0.63-4.25-0.88-6.13c2.5-3.5,4-7.75,4.13-12.01h-0.25c-0.38,3.5-1.88,7-4.13,9.88
						c-0.75-6.88-0.75-12.51-0.13-17.76h-0.25c-0.25,1.25-0.38,2.63-0.63,4.25c-1.38-1.38-2-3-2-4.63h-0.25
						c-0.13,1.75,0.63,3.63,2.13,5.25c-0.25,2.13-0.25,4.38-0.25,6.5c-0.5-0.5-1-0.88-1.25-1.38c-0.63-0.75-1-1.5-1.38-2.38h-0.25
						c0.38,1.75,1.38,3.38,2.88,4.75c0,2,0.13,4.13,0.25,6.38c0.13,1.63,0.25,3.38,0.38,5.13c-1-0.88-2-1.88-3-2.88v-0.13
						l-0.13-0.13c-0.13,0-0.25,0-0.25-0.13l-0.5-0.5c-0.75-3-1.75-6.63-2.5-10.25c-0.79-4.06-1.18-7.59-1.18-10.83
						c0-1.94,0.14-3.78,0.43-5.55h-0.25c-0.88,4.38-1,9.13-0.25,14.88c-0.99-1.26-1.59-2.71-1.98-4.28c0.39,2.3,1.24,4.6,2.98,6.4
						c0.38,2.75,1,5.38,1.5,7.88c-2.25-2-4.13-4.25-5.88-6.75c-2.75-4-4.63-8.5-5.75-13.51c1.88-1.88,2.88-3.63,3.13-5.38h-0.25
						c-0.25,1.63-1.25,3.25-3.13,4.88c-0.63-2.75-1-5.5-1-8.38h-0.25c0,2.63,0.13,5.13,0.63,7.75c-1.63-0.88-2.63-1.88-2.75-3h-0.25
						c0.13,1.38,1.13,2.5,3.13,3.63c0.25,1.5,0.63,3,1,4.38c-1.13-0.75-2.38-1.88-2.88-3.38h-0.25c0.38,1.88,2,3.25,3.5,4.5
						c0.75,2.38,1.75,4.63,2.75,6.75c-3.25-2.5-6.38-4.88-8.75-7.88L169.76,52l-0.13,0.13c2.5,3.63,6,6.63,9.38,9.5
						c0.38,0.25,0.63,0.63,1,0.88c1.63,2.63,3.63,5,5.88,7.13c-5.5-1.38-9-3.63-11.01-6.5l-0.13,0.13h-0.13
						c1,1.75,2.5,3.38,4.63,4.75c-1.75-0.5-3.75-0.88-5.63-1.38v0.25c3,0.88,6.25,2,9.88,3.25c0.88,0.38,1.75,0.63,2.88,1
						c0.38,0.13,0.63,0.25,1,0.38c0.25,0.13,0.5,0.13,0.63,0.25c1.75,1.75,3.63,3.63,5.38,5.63h-0.5c-5.5,0-9.63-1.38-12.01-3.88
						l-0.13,0.13l0.13,0.63c1.5,1.88,3.88,3.25,6.75,4.13c-2.38,0.25-4.75,0.63-7.38,1v0.25c4.38-0.38,8.25-0.63,11.76-0.5
						c1,0.13,1.88,0.13,2.88,0.25c1.25,1.38,2.5,2.88,3.88,4.38c-0.88,0.13-1.88,0.13-2.88,0c-1.5-0.13-3-0.5-4.5-1.13v0.25
						c2,1.13,5,2.25,8.5,2c0.63,0.63,1.13,1.38,1.75,2l0.63,0.75c-15.13-0.13-27.76-4.25-35.52-11.63l-0.13,0.13l-0.13,0.13
						c3.38,3.5,7.75,6.25,13.01,8.38c-3.25,0.5-6.63,0.25-10.13,0.13v0.25c3.63,0.5,7.75,1,11.63,0.25
						c3.13,1.13,6.63,2.13,10.25,2.75c-0.13,0-0.13,0.13-0.25,0.13c-1.5,0.63-3.38,1.13-5.75,1.38v0.25c2.75,0,5.63,0,8-1.38
						c3.13,0.5,6.5,0.75,9.88,0.75c0.5,0.63,1,1.25,1.63,1.88c0.38,0.38,0.63,0.75,1,1.13c-1,0.13-2,0.25-2.88,0.38
						c-6.75,0.88-13.76,1.75-19.88-1.5v0.25c4,2.38,8.5,2.88,12.88,2.88c-5.5,0.5-11.13,0.63-16.63,0.63h-4.38v0.25
						c1.63,0,3.38,0.13,4.88,0.13c8.88,0.25,18.01,0.5,26.89-1.5c0,0.13,0.13,0.25,0.13,0.38c0.13,0.13,0.13,0.25,0.13,0.38
						c-0.25,0.25-0.5,0.25-0.75,0.38c-0.25,0.13-0.63,0.25-0.88,0.63l-0.13,0.13c-1.88,0.63-6,2-8.88,2.63
						c-3.63,0.75-6.63,1.13-9.38,1.25v0.25c4,0.13,8.13-0.25,13.13-1.38c-5.13,2.38-10.63,4.25-15.88,6.13l-1.75,0.63v0.25
						c0.63-0.25,1.38-0.38,2-0.63c5.63-1.63,11.51-3.38,17.01-5.75c-2,1.88-4,3.88-6,5.88c-0.5,0.63-1.13,1.13-1.63,1.75l0.13,0.13
						l0.13,0.13c0.5-0.5,1-0.88,1.63-1.38c3.75-3.38,7.63-6.75,11.88-9.63l0.13,0.38c0.5,0.5,0.5,1.25,0.5,2
						c0,0.75,0.13,1.63,0.63,2.25h0.13l3.54-2.94c0,0,0,0,0.13,0.13h0.13l0.5-0.5c1,1.38,7.58,8.65,8.71,11.03
						c0.64,1.29,0.68,3.81,0.64,5.93c-0.01,0.91-0.05,1.74-0.05,2.36v0.25c0,0.14,0,0.26,0.01,0.38c0,0.16,0.01,0.29,0.04,0.38
						h-4.31c-0.04-0.14-0.05-0.4-0.02-0.75c-0.01-0.04,0-0.09,0-0.13v-0.13c0.09-1.96,0.58-6.02-0.34-7.63
						c-1.13-2-6.45-6.38-9.95-8.13h-0.13c0,0.13-5.13,6.75-17.63,9.13c0.13-0.38,0.5-1,0.63-2.13l-0.13-0.13
						c-0.13,0-10.25,2.5-17.63-1c1.38-0.38,6.75-2,9.38-6.88l-0.13-0.13c-0.13,0-10.63,0.88-15.38-6.25c0.88,0.25,3.63,1,6.38,0.38
						v-0.25c-0.13,0-10.76-4.88-13.01-11.26c0.75,0.25,3,0.75,5.5,0.63l0.13-0.25c0,0-5-3.13-6.25-6.38c0.38,0.25,1,0.5,2,0.25
						v-0.25c0,0-4-4.25-3.75-8.25c1.13,0.75,8,4.75,10.63,5.25h0.13c0,0,0.88-0.88,0.88-1.63c0.88,0.75,4.5,3.88,8.13,3.38
						l0.13-0.25c-0.13,0-6-4.75-8-9c0.38,0,1.5-0.13,2.25-0.63v-0.25c0,0-4.63-3.88-5.13-8c0.38,0.25,1.38,0.88,2.5,1.13l0.13-0.25
						c0,0-3.75-4-3.75-7.5c0.25,0.25,0.75,0.75,1.75,0.88l0.13-0.13c0-0.13,1.25-7.38,2.25-12.01c1-4.13,0.5-9,0.38-10.25
						c1.38,1.13,8.13,7,8.13,9.88l0.13,0.13c0,0,0.75-0.25,1.13-1.88c0.38,1.38,1.5,5.13,3.38,5.5h0.13c0,0,1.38-1.63,1.88-4.38
						c1,0.63,6.75,4.63,7.75,10.5l0.13,0.13c0.13,0,1.88-1,3-4.25c0.88,1.13,5.5,7.25,5.88,12.26l0.13,0.13
						c0.13,0,2.38,0.25,3.63-0.88c0.24-0.18,0.41-0.38,0.54-0.6c0.16-0.26,0.28-0.56,0.34-0.9c0.13,0.13,0.38,0.25,0.5,0.13
						c0.41-0.09,0.71-0.55,0.98-1.43c0.05-0.15,0.1-0.33,0.14-0.5c0.09-0.35,0.18-0.75,0.26-1.2c0.43,0.21,1.49,0.61,2.41,0.4
						c0.16-0.03,0.31-0.08,0.46-0.15c0.01,0,0.01-0.01,0.02-0.03c0.61-0.38,0.85-1.11,0.73-2.23c0.04-0.05,0.11-0.16,0.23-0.31
						c0.1-0.16,0.25-0.39,0.41-0.65c0.11-0.18,0.23-0.38,0.34-0.59c0.08-0.15,0.16-0.3,0.24-0.46c0.3-0.61,0.59-1.34,0.79-2.14
						c0.04-0.19,0.09-0.38,0.11-0.58c0.13-0.71,0.15-1.46,0.04-2.24c0-0.05-0.01-0.11-0.02-0.16c0.81,0.74,3.16,3.06,4.61,5.89
						c0.75,1.5,1.26,3.14,1.16,4.76c-0.04,0.5-0.13,0.99-0.28,1.48l0.13,0.13c0,0,0.91,0,1.41-0.76c0.04-0.04,0.06-0.08,0.09-0.11
						v0.18c0,0.46-0.01,1.1-0.05,1.85c-0.02,0.38-0.04,0.78-0.08,1.2c-0.02,0.41-0.06,0.86-0.1,1.31c-0.1,0.96-0.21,1.99-0.38,3.01
						c-0.38,2.4-0.96,4.78-1.9,6.2l0.13,0.13c0,0,0.13,0,0.25,0.25c0.13,0.25,0.13,0.75-0.5,2c-0.5,0.88-0.5,1.75-0.63,2.75
						c-0.13,1.5-0.13,3.13-1.88,5.13l0.13,0.13c0.09-0.09,2.24-1.21,3.74-4.43v-0.01c0.39-0.85,0.74-1.85,0.99-3.03
						c0.11-0.55,0.21-1.15,0.28-1.79c0.13,0.1,0.33,0.26,0.59,0.5c0.19,0.19,0.43,0.43,0.65,0.73c0.25,0.33,0.51,0.73,0.75,1.21
						c0.01,0.01,0.01,0.03,0.01,0.04c0.26,0.51,0.49,1.13,0.65,1.84c0,0,0,0,0.01,0.01c0.04,0.13,0.06,0.26,0.09,0.4
						C224.13,74.21,224.2,75.53,224.04,77.13z"/>
					<path class="st0" d="M212.54,97.4l-0.63,0.5c0,0.13,0.13,0.13,0.13,0.13C212.29,97.77,212.41,97.65,212.54,97.4
						C212.66,97.4,212.54,97.4,212.54,97.4z"/>
				</g>
			</g>
			<g>
				<g>
					<path class="st0" d="M224.29,60.88h0.63V61c-0.25,0-0.38,0-0.63,0C224.29,61,224.29,61,224.29,60.88z"/>
					<path class="st0" d="M248.8,41.33c2.84-2.03,2.24-7.5,2-8.97c-1.25,2.13-4.13,2.63-4.5,2.75c-0.38,0.63-0.88,0.88-1.38,0.88
						c-0.88-0.13-1.38-1.13-1.63-1.5c-1.13,0.88-1.88,1.25-2.25,1c-0.13-0.13-0.25-0.25-0.25-0.38c-1.63,1.13-3.75-1-3.75-1v-0.13
						c2-2.88,2.13-8.25,2.13-9.38c-2.13,1.13-3.5,0.75-3.63,0.75l-0.13-0.13c2.13-3.5,0.63-8.38,0.25-9.38
						c-1.38,1.13-2.88,1.38-3,1.38h-0.13c-0.88-1,0-3.5,0.5-4.5c-0.88,0.63-1.38,0.38-1.38,0.38v-0.13c1.25-1.5,0-7.88-0.25-9.25
						c-0.63,0.75-2.5,3.63-4.88,5.25c-2.75,2-6.75,5.38-6.75,5.38h-0.13c-0.5-0.5-0.63-1-0.63-1.25c-1.5,2-1.13,5.88-1.13,5.88
						l-0.25,0.13c-0.63-0.63-0.88-1.38-1-1.75c-1.63,2.5-0.63,6.75-0.63,6.75l-0.13,0.13c-0.75-0.13-1.38-0.5-1.63-0.75
						c-0.75,3.25,0.63,8.63,0.63,8.63l-0.13,0.13c-2.25-1.5-3-4.75-3.13-5.75c-0.38,0.38-1.25,0.38-1.25,0.38h-0.13
						c-1.38-1.5-3.5-6.88-3.88-8c-1.88,2-1.5,6.13-1.5,6.13l-0.13,0.13c-0.63-0.38-0.88-0.75-1-1c-0.63,2.38,0.75,6.38,0.75,6.38
						l-0.13,0.13c-1.5-1.13-2.5-2.5-2.88-3c-1.5,4.63,2.5,12.26,2.5,12.38l-0.13,0.13c-1.75-1-3-2.63-3.5-3.25
						c-0.38,6.13,6,10.76,6.13,10.76v0.25c-3.63,1.25-7.38-0.38-8.5-0.88c1.9,3.81,5.79,6.73,8.04,8.15c1,0.64,1.68,0.98,1.71,0.98
						v0.25c-0.5,0.5-1,0.75-1.25,0.88c1.24,0.73,2.44,1.31,3.56,1.8c0.15,0.06,0.3,0.13,0.45,0.19c0.76,0.31,1.5,0.58,2.2,0.79
						c0.2,0.08,0.4,0.13,0.59,0.19c3.7,1.06,6.32,0.94,7.23,0.84c0.23-0.02,0.35-0.05,0.35-0.05h0.13c0.99,2.08,1.43,5.15,1.45,7.15
						c0,0.54-0.03,1-0.08,1.35c0,0.04-0.01,0.06-0.01,0.1c-0.3,1.69-1.86,5.54-2.11,6.15l1.75,1.38c0.28-0.46,1.24-2.36,1.88-4.03
						c0.01-0.04,0.03-0.08,0.04-0.11c0.2-0.54,0.38-1.06,0.46-1.49c0.15-0.74,0.25-2.18,0.34-3.74c0-0.15,0.01-0.31,0.02-0.46
						c0.01-0.35,0.03-0.7,0.04-1.05c0.06-1.94,0.1-3.78,0.1-4.38h-0.5l-0.13-0.13l-0.85-0.09l-1.78-0.16l-0.13-0.13
						c0-0.63,0.25-1,0.63-1.5c0.38-0.5,0.63-0.88,0.63-1.38v-0.25c-0.61-0.09-1.23-0.15-1.85-0.21c-2.26-0.24-4.54-0.35-6.82-0.39
						c-0.19,0-0.38-0.01-0.56-0.01c-0.68-0.01-1.35-0.01-2.03-0.01h-1.5v-0.25c0.63-0.13,1.13-0.13,1.75-0.13
						c0.63-0.04,1.28-0.09,1.93-0.11c0.18-0.03,0.36-0.03,0.54-0.04c1.13-0.06,2.26-0.1,3.41-0.1c-1.05-0.38-2.1-0.76-3.14-1.18
						c-0.15-0.06-0.29-0.11-0.43-0.18c-2.1-0.85-4.18-1.76-6.22-2.7c-0.88-0.39-1.74-0.8-2.6-1.2l-1.5-0.63l0.13-0.25l1.38,0.5
						c0.91,0.35,1.83,0.71,2.74,1.08c2.06,0.81,4.14,1.63,6.25,2.38c0.14,0.05,0.28,0.1,0.41,0.14c0.78,0.28,1.56,0.54,2.35,0.79
						c-0.8-0.44-1.56-0.86-2.28-1.3c-0.13-0.08-0.25-0.15-0.36-0.23c-1.35-0.84-2.56-1.69-3.7-2.58c-0.58-0.46-1.13-0.93-1.66-1.4
						l0.13-0.13l0.13-0.13c0.6,0.5,1.23,0.99,1.9,1.48c0.99,0.69,2.08,1.38,3.33,2.09c0.11,0.06,0.23,0.14,0.35,0.2
						c0.14,0.08,0.28,0.16,0.43,0.24c1.74,0.98,4.23,2.05,5.75,2.73c0.24,0.1,0.44,0.19,0.63,0.28h0.13c0.25,0,0.5,0,0.75,0.13
						c0.13,0,0.21,0.02,0.31,0.06c0.1,0.04,0.19,0.06,0.31,0.06c0-0.13,0-0.13,0-0.25c0.13-0.13,0.13-0.13,0.13-0.25
						c-0.16-0.09-0.33-0.18-0.49-0.28c-0.58-0.3-1.13-0.63-1.69-0.95c-2.1-1.26-4.1-2.68-6.02-4.18c-0.1-0.06-0.19-0.14-0.28-0.21
						c-0.91-0.7-1.81-1.44-2.69-2.2c-1.79-1.49-3.53-3.03-5.23-4.56c-1-0.88-1.88-1.63-2.88-2.5l0.13-0.13l0.13-0.13
						c0.88,0.75,1.75,1.38,2.63,2.13c1.86,1.48,3.71,3.04,5.64,4.54c0.79,0.64,1.59,1.25,2.39,1.84c0.08,0.06,0.15,0.11,0.21,0.16
						c0.34,0.24,0.68,0.48,1.01,0.71c-0.34-0.29-0.68-0.58-1-0.88c-0.81-0.76-1.59-1.56-2.28-2.43c-0.98-1.23-1.79-2.58-2.35-4.08
						l0.25-0.13c0.59,1.39,1.39,2.63,2.34,3.74c1.84,2.16,4.23,3.89,6.69,5.54c0.41,0.29,0.84,0.56,1.26,0.84
						c0.04,0.02,0.06,0.04,0.09,0.06c0.16,0.11,0.34,0.21,0.5,0.33c0.31,0.31,0.68,0.58,1.05,0.81c0.23,0.15,0.46,0.3,0.7,0.44v-1
						c-0.04-0.16-0.06-0.33-0.08-0.48c-0.05-0.43-0.05-0.81-0.05-1.28c-1.71-1.5-3.24-2.99-4.64-4.49c-0.26-0.25-0.5-0.51-0.74-0.76
						c-1.45-0.36-2.78-1.19-4-2.15c-0.48-0.35-0.93-0.73-1.38-1.1l0.13-0.13l0.13-0.13c0.43,0.29,0.84,0.54,1.24,0.78
						c0.98,0.56,1.88,0.96,2.76,1.23c-0.99-1.19-1.9-2.33-2.73-3.46c-0.75-1.03-1.44-2.03-2.03-3.04c-2.63-1.63-4.88-3.88-6.75-5.88
						l0.13-0.13c1.88,1.75,3.75,3.5,5.88,4.88c-2.13-3.75-3.38-7.38-3.75-10.88h0.25c1.13,7.75,6.63,16.13,15.38,23.64v-0.63
						c0-0.75-0.13-1.38-0.13-2c-2.13-1.63-3.38-3.75-4-5.25h0.25c0.63,1,1.25,1.88,2.13,2.75c0.5,0.5,1.13,1,1.63,1.38
						c0-1.38-0.13-2.75-0.25-4.13c-0.63-0.5-1.13-1-1.63-1.5c-1.88-1.75-4.25-3.5-7-5.5l0.13-0.13v-0.13c1.63,1,3.13,2,4.63,3
						c-1.25-1.88-2-3.63-2-5.38h0.25c0.25,2.63,2,5.25,5.25,8c0.13,0.13,0.13,0.13,0.25,0.25c-0.13-1.88-0.38-3.75-0.63-5.5
						c0-0.25-0.13-0.38-0.25-0.5c-0.13-0.13-0.25-0.38-0.38-0.63c-0.5-0.75-0.88-1.38-1.25-2c-1.5-2.5-2.88-4.63-4.25-6.63
						l0.25-0.25c0.88,1,1.75,2.13,2.5,3.25c-0.63-1.75-0.75-3.25-0.5-4.63h0.25c-0.25,2.5,0.88,5.38,3.38,8.75
						c-0.08-0.46-0.14-0.91-0.19-1.38c0.7-1.5,1.51-3,2.44-4.5c-0.5-3.63,2.13-6.63,3.88-8.5l0.13,0.13l0.13,0.13
						c-1.63,2.25-3.13,4.38-3.25,7c2.25-3.5,4.38-6,6.88-7.88l0.13,0.13l0.13,0.13c-1.25,1.06-2.44,2.31-3.58,3.81
						c-1.14,1.5-2.24,3.25-3.3,5.32c-1.13,2.25-2.25,4.75-3.13,6.75l0.13,0.5l0.13,0.13v0.13c0.25,1,0.38,1.88,0.5,3
						c0.63-1,1.38-2,2-2.88c1-1.38,1.88-2.5,2.75-3.63c-0.25-1.5,0-2.88,0.5-4h0.25c-0.13,0.63-0.25,1.38-0.25,2
						c0,0.38,0,0.75,0.13,1.25c1-1.13,2-2.25,3.13-3.25c-0.25-1.63,0.25-3,1.13-3.88l0.25,0.25c-0.63,0.88-1,2-0.88,3.38
						c0.88-0.88,1.63-1.5,2.25-2l0.25,0.25c-2.75,2.5-5.25,5.5-7.88,9.5c2.63-0.38,4.88-1.63,6.75-3.25l0.13,0.13l0.13,0.13
						c-1.88,2.25-4.63,3.88-7.75,4.5c-0.63,1.13-1.38,2.25-2.25,3.75c0.13,0.63,0.13,1.25,0.25,2.13c1.25-1.63,2.38-3,4.13-3.88
						l0.13,0.25c-1.75,1.13-2.75,3-3.75,4.88c0,0.13-0.13,0.38-0.25,0.5c0.13,0.88,0.13,1.63,0.25,2.38c1-1.38,2.19-2.9,3.59-4.31
						c1.41-1.41,3.04-2.69,4.91-3.56c1.13-0.63,2.25-1.88,1.88-3.75h0.25c0.38,1.25,0.13,2.38-0.75,3.38c1.25-0.38,2.63-0.63,4-0.63
						v0.13c-3.43,0.13-6.15,1.59-8.39,3.7c-1.8,1.69-3.29,3.78-4.59,5.93c-0.03,0.04-0.04,0.09-0.08,0.14
						c-0.2,0.34-0.39,0.66-0.58,0.99c0.01,0.11,0.03,0.24,0.04,0.35c0.11,1.26,0.23,2.51,0.34,3.78c1.15-0.81,2.23-1.69,3.26-2.59
						c0.06-0.05,0.13-0.11,0.19-0.16c0.83-0.71,1.63-1.43,2.43-2.13c0.14-0.13,0.26-0.24,0.4-0.36c1.24-1.13,2.5-2.25,3.85-3.26
						c1.25-0.88,2.5-1.5,3.75-2c0.38-1.38,1.38-2.63,2.75-3.75l0.13,0.13c-0.5,0.5-1,1.13-1.38,1.75c-0.25,0.5-0.5,0.88-0.63,1.38
						c0.63-0.25,1.38-0.63,2.13-1c2.13-1.13,4.13-2.63,5.88-4.38l0.13,0.13c-1.75,2-3.75,3.5-5.75,4.63c-0.88,0.5-1.75,1-2.63,1.38
						c-2.5,1.25-4.75,2.5-6.5,4.63c-0.35,0.44-0.76,0.81-1.2,1.23c-0.18,0.16-0.36,0.34-0.55,0.53c0.24-0.03,0.49-0.06,0.74-0.09
						c0.8-0.09,1.69-0.16,2.64-0.16v0.25c-0.88,0.13-1.75,0.25-2.63,0.5l-0.01,0.01c-0.99,0.36-1.61,0.61-2.24,0.99
						c-0.38,0.34-0.75,0.68-1.14,1.01l-0.26,0.23c-0.96,0.83-1.98,1.64-2.98,2.39v1.13c1.21-0.18,2.33-0.41,3.34-0.71
						c0.11-0.02,0.23-0.05,0.34-0.09c1.75-0.55,3.23-1.28,4.45-2.2l0.25,0.25c-1.16,1.16-2.68,2.09-4.51,2.84
						c-0.13,0.05-0.24,0.09-0.36,0.14c-1.03,0.39-2.15,0.73-3.38,1.03c0,0.13-0.13,0.38-0.13,0.63c-0.13,0.25-0.13,0.38-0.13,0.63
						c1.4-0.04,2.75-0.15,4.04-0.35c0.15-0.03,0.3-0.05,0.45-0.08c3.16-0.53,5.9-1.54,7.97-2.96c0.06-0.04,0.11-0.08,0.18-0.11
						l0.13,0.13l0.13,0.13c-0.09,0.08-0.16,0.14-0.25,0.2c-2.04,1.64-4.61,2.76-7.88,3.5c-0.16,0.04-0.33,0.06-0.49,0.1
						c-0.33,0.08-0.66,0.14-1.01,0.2c-0.63,0.13-1.5,0.13-2.25,0.13h-1.13c0,0.38-0.13,0.75-0.25,1.13
						c-0.13,0.38-0.25,0.63-0.25,0.88h0.5l0.13,0.13c1.76-0.06,3.38-0.25,4.83-0.54c0.21-0.04,0.41-0.08,0.61-0.13
						c0.81-0.16,1.58-0.36,2.28-0.59c0.13-0.04,0.25-0.08,0.38-0.11c3.34-1.08,5.54-2.51,6.65-3.39c0.6-0.45,0.89-0.75,0.89-0.75
						c3-2.88,2.5-5.38,2.25-6c-3.63,3.38-7,2.5-7.13,2.5v-0.25c1.88-0.25,2.63-1.13,3.38-1.88c0.5-0.38,1-0.88,1.63-1.13
						c0.88-0.25,1.13-0.63,1.13-0.75v-0.38c2.63-0.75,6.5-4.88,7.63-6.13C249.28,41.42,249,41.35,248.8,41.33z M221.12,25.15
						c-0.68-3.03-1.2-6.14-1.09-9.04h0.25c0,2.3,0.53,4.6,1.14,6.98C221.29,23.77,221.2,24.46,221.12,25.15z M223.25,17.12
						c-0.14,0.31-0.28,0.64-0.39,0.96c-0.14-0.98-0.11-1.9,0.3-2.73l0.25,0.13C223.21,16,223.19,16.57,223.25,17.12z M223.39,11.78
						l-0.1-0.05h0.13C223.4,11.74,223.4,11.76,223.39,11.78z M224.31,13.55c0.75-1.14,1.61-2.28,2.48-3.33l0.25,0.25
						c-1.01,1.31-1.86,2.63-2.6,4.01C224.35,14.15,224.31,13.84,224.31,13.55z M224.91,15.87v-0.01c-0.06-0.14-0.13-0.29-0.16-0.41
						c1.33-0.1,2.31-0.46,3.04-1.09l0.25,0.25C227.34,15.3,226.31,15.68,224.91,15.87z"/>
					<path class="st0" d="M224.29,60.88V61c0.25,0,0.38,0,0.63,0v-0.13H224.29z"/>
				</g>
			</g>
			<g>
				<g>
					<path class="st0" d="M225.1,116.4c-0.01,0.05-0.02,0.09-0.04,0.13c-0.01,0.05-0.03,0.09-0.04,0.13
						c-0.05,0.16-0.09,0.29-0.11,0.38h-3c0.01-0.09,0.04-0.21,0.06-0.38c0.01-0.04,0.01-0.08,0.03-0.13
						c0.01-0.04,0.01-0.08,0.03-0.13c0.11-0.56,0.29-1.41,0.51-2.36c-0.01,0.91-0.05,1.74-0.05,2.36H225.1z"/>
					<path class="st0" d="M234.54,82.01c0.38,2.75,0.75,5.38,1.38,8.13c-0.25,0.25-0.38,0.38-0.5,0.63c-0.13,0.25-0.38,0.38-0.5,0.5
						c-3.13-3.75-5-7.25-5.75-10.76h-0.25c0.38,3.75,2,7.63,5,11.88c-0.25,0.25-0.38,0.63-0.5,0.88c-0.13,0.25-0.25,0.63-0.38,0.75
						c-4.65-4.54-8-9.5-9.45-14.31c-0.11-0.36-0.21-0.71-0.3-1.08h-0.25c0.1,0.59,0.23,1.18,0.38,1.76
						c0.39,1.54,0.94,3.11,1.75,4.74c1,2.13,2.38,4.38,4.13,6.63c0.5,0.63,1.25,1.38,2.13,2.13c0.38,0.38,0.75,0.75,1.13,1.13
						c-0.25,0.38-0.5,0.88-0.63,1.38c-0.13,0.38-0.25,0.88-0.5,1.13l-0.5-0.38h-0.13c-4.55-4.5-7.23-9-8.8-12.62
						c-1.01-2.34-1.58-4.31-1.86-5.69c-0.03-0.08-0.04-0.14-0.05-0.2c-0.24-1.16-0.29-1.84-0.29-1.88
						c-0.11-1.38-0.06-2.55,0.11-3.55v-0.01c0.2-1.26,0.56-2.26,0.99-3.03c0.29-0.54,0.59-0.96,0.86-1.29
						c0.3-0.34,0.55-0.58,0.74-0.73c0.08-0.06,0.13-0.11,0.18-0.15c0.1,1.04,0.28,1.98,0.49,2.81c0.01,0.01,0.01,0.03,0.01,0.04
						c0.19,0.68,0.41,1.28,0.65,1.84c0,0,0,0,0.01,0.01c0.04,0.1,0.09,0.19,0.13,0.29c1.39,2.95,3.36,4.09,3.71,4.26l0.13-0.13
						c-1.75-2.13-1.88-3.75-1.88-5.13c0-0.88-0.13-1.88-0.63-2.75c-0.35-0.7-0.5-1.18-0.54-1.49c-0.04-0.21-0.03-0.35,0.02-0.46
						c0-0.01,0-0.04,0.01-0.05c0.13-0.13,0.25-0.25,0.25-0.25l0.13-0.13c-0.13-0.19-0.25-0.4-0.35-0.63
						c-0.63-1.21-1.06-2.85-1.38-4.59c-0.28-1.5-0.46-3.08-0.59-4.48c-0.01-0.25-0.04-0.49-0.05-0.71c-0.05-0.6-0.08-1.16-0.09-1.66
						c-0.04-0.71-0.05-1.29-0.05-1.69c0.19,0.31,0.43,0.53,0.68,0.65c0.41,0.23,0.83,0.23,0.83,0.23l0.13-0.13
						c-0.53-1.54-0.36-3.14,0.16-4.65c0.15-0.46,0.34-0.9,0.54-1.34c0.04-0.05,0.05-0.1,0.08-0.14c1.44-2.89,3.85-5.25,4.6-6
						c0,0.03-0.01,0.05-0.01,0.08c-0.4,2.39,0.64,4.64,1.41,5.94c0.21,0.36,0.4,0.64,0.53,0.84c0.1,0.14,0.16,0.23,0.2,0.28
						c-0.01,0.05-0.01,0.11-0.01,0.16c-0.03,0.21-0.03,0.41,0,0.6c0.02,0.71,0.29,1.2,0.76,1.49c0.88,0.63,2.38,0,2.88-0.25
						c0.38,2,0.75,3,1.38,3.13c0.25,0,0.38-0.13,0.5-0.13c0.05,0.23,0.1,0.43,0.2,0.61c0.04,0.11,0.09,0.23,0.18,0.34
						c0.11,0.2,0.29,0.39,0.5,0.55c0.45,0.41,1.04,0.64,1.61,0.75c-1.11,0.88-3.31,2.31-6.65,3.39c-0.05-0.45-0.11-0.91-0.21-1.39
						h-0.25c0.06,0.48,0.09,0.98,0.09,1.5c-0.01,0.58-0.08,1.16-0.21,1.75c-0.13,0.88-0.38,1.63-0.63,2.25
						c-0.5-1-0.88-2.13-1.38-3.25c-0.03-0.05-0.05-0.1-0.06-0.16c-0.25-0.61-0.48-1.24-0.69-1.89c-0.1-0.29-0.19-0.58-0.26-0.88
						c-0.19-0.65-0.36-1.31-0.5-1.99c-0.08-0.29-0.13-0.59-0.19-0.89c-0.18-0.95-0.33-1.94-0.44-2.94
						c-0.04-0.46-0.08-0.93-0.11-1.39h-0.25c0,0.05,0,0.11,0.01,0.16c0.01,0.49,0.04,0.98,0.09,1.45c0.08,0.95,0.2,1.89,0.36,2.8
						c0.04,0.31,0.1,0.63,0.16,0.94c0.11,0.65,0.26,1.3,0.41,1.93c0.08,0.31,0.15,0.61,0.23,0.9c0.18,0.65,0.36,1.29,0.56,1.91
						c0.01,0.05,0.04,0.11,0.05,0.16c0.5,1.25,1,2.63,1.5,3.88c0.69,1.81,1.34,3.6,1.83,5.4c0.49,1.83,0.8,3.66,0.8,5.6
						c0.13,1.13,0.13,2.25,0.25,3.63c-0.88-1.13-1.88-2.38-3.25-3.5l-0.13,0.13l-0.13,0.13c0.88,1,1.63,2,2.25,3
						C233.79,80.01,234.29,81.01,234.54,82.01z"/>
					<path class="st0" d="M284.57,81.89c-2.25,6.38-12.88,11.26-13.01,11.26v0.25c2.63,0.5,5.38-0.13,6.38-0.38
						c-4.75,7.13-15.26,6.25-15.38,6.25h-0.38c2.63,4.75,8,6.5,9.38,6.88c-7.38,3.5-17.51,1-17.63,1l-0.13,0.13
						c0.13,1.13,0.5,1.88,0.63,2.13c-12.51-2.38-17.63-9.13-17.63-9.13h-0.13c-3.38,1.75-7.81,5.88-9.07,7.88
						c-0.98,1.73-1.21,6.62-1.75,8.4l-3.97-0.03c0-0.63,0.04-1.45,0.05-2.36c0.46-1.9,0.92-5.32,1.57-6.6
						c1.16-2.21,6.32-8.28,7.76-10.24l-0.08-0.12l0.04-0.03c0,0,0,0,0.01-0.01c0.01,0,0.01-0.01,0.03-0.01
						c0-0.03,0.03-0.04,0.04-0.06l0.01-0.01l1.32,0.79l0.04,0.03l0.05,0.04l2.83,2.09h0.13c0.5-0.63,0.63-1.38,0.63-2.25
						c0-0.75,0.13-1.5,0.5-2l0.13-0.25c4.25,2.88,8.13,6.25,11.88,9.63c0.5,0.5,1,0.88,1.63,1.38l0.25-0.25
						c-0.63-0.63-1.13-1.13-1.63-1.75c-1.88-2-3.88-4-6-5.88c5.5,2.38,11.38,4,17.01,5.75c0.63,0.25,1.38,0.38,2,0.63v-0.25
						l-1.75-0.63c-5.25-1.88-10.76-3.75-15.88-6.13c4.88,1.13,9.13,1.5,13.13,1.38v-0.13c-2.88,0-5.75-0.38-9.38-1.25
						c-2.88-0.63-7-1.88-8.88-2.63c0,0,0,0-0.13-0.13c-0.38-0.25-0.63-0.38-1-0.63c-0.25-0.13-0.5-0.25-0.75-0.38
						c0-0.13,0.13-0.25,0.13-0.38c0-0.13,0.13-0.25,0.13-0.38c8.75,2.13,18.01,1.75,26.89,1.5c1.63,0,3.25-0.13,4.88-0.13v-0.25
						h-4.38c-5.5,0-11.13-0.13-16.63-0.63c4.38,0,8.88-0.5,12.88-2.88v-0.25c-6.13,3.25-13.01,2.38-19.88,1.5
						c-1-0.13-2-0.25-2.88-0.38l1-1.25c0.5-0.63,1-1.25,1.5-1.88c3.38-0.13,6.75-0.38,9.88-0.75c2.38,1.38,5.25,1.5,8,1.38v-0.25
						c-2.38-0.25-4.13-0.75-5.75-1.38c-0.13,0-0.13-0.13-0.25-0.13c3.63-0.63,7.13-1.63,10.25-2.75c4,0.63,8.13,0.13,11.63-0.25
						v-0.25c-3.5,0.25-6.88,0.38-10.13-0.13c5.25-2.13,9.63-5,13.01-8.38l-0.13-0.13l-0.13-0.13c-7.75,7.38-20.38,11.51-35.52,11.63
						l0.63-0.75c0.63-0.63,1.13-1.38,1.75-2c3.5,0.25,6.5-1,8.5-2v-0.25c-1.5,0.63-3,1-4.5,1.13c-1,0.13-2,0.13-2.88,0
						c1.38-1.5,2.63-3,3.88-4.38c1,0,1.88-0.13,2.88-0.25c3.5-0.13,7.25,0,11.76,0.5v-0.25c-2.63-0.5-5-0.75-7.38-1
						c3-0.88,5.25-2.25,6.75-4.13l-0.13-0.13l-0.13-0.13c-2.5,2.63-6.5,3.88-12.01,3.88h-0.5c1.75-2,3.63-3.88,5.38-5.63
						c0.25-0.13,0.5-0.13,0.63-0.25c0.38-0.13,0.63-0.25,1-0.38c1.13-0.38,2-0.63,2.88-1c3.63-1.25,6.88-2.38,9.88-3.25v-0.25
						c-1.88,0.38-3.75,0.88-5.63,1.38c2.13-1.38,3.63-3,4.63-4.75h-0.13l-0.13-0.13c-1.88,3-5.5,5.13-11.01,6.5
						c2.25-2.13,4.25-4.5,5.88-7.13c0.38-0.25,0.63-0.63,1-0.88c3.38-2.88,6.88-5.88,9.38-9.5l-0.13-0.13l-0.13-0.13
						c-2.38,2.88-5.5,5.38-8.75,7.88c1.13-2.13,2-4.38,2.75-6.75c1.63-1.25,3.13-2.75,3.5-4.5h-0.25c-0.5,1.38-1.75,2.5-2.88,3.38
						c0.38-1.38,0.75-2.88,1-4.38c2-1.13,3-2.25,3.13-3.63h-0.25c-0.25,1.13-1.13,2.13-2.75,3c0.38-2.5,0.63-5.13,0.63-7.75h-0.25
						c-0.13,2.88-0.38,5.63-1,8.38c-1.75-1.63-2.75-3.25-3.13-4.88h-0.25c0.25,1.75,1.25,3.5,3.13,5.38c-1.13,5-3.13,9.5-5.75,13.51
						c-1.63,2.5-3.63,4.75-5.88,6.75c0.5-2.5,1.13-5.13,1.5-7.88c3.5-3.63,3.38-9.25,3.25-12.88h-0.25c-0.25,4-0.5,7.88-2.75,10.76
						c0.75-5.75,0.63-10.5-0.25-14.88h-0.25c0.75,4.75,0.5,9.88-0.75,16.38c-0.75,3.63-1.75,7.25-2.5,10.25l-0.5,0.5
						c-0.13,0-0.25,0-0.25,0.13L254.18,71v0.13c-1,1-2.13,2-3,2.88c0.13-1.75,0.38-3.5,0.38-5.13c0.13-2.25,0.25-4.38,0.25-6.38
						c1.5-1.38,2.5-3,2.88-4.75h-0.25c-0.38,0.88-0.75,1.63-1.38,2.38c-0.38,0.5-0.75,0.88-1.25,1.38c0-2.25-0.13-4.38-0.25-6.5
						c1.5-1.63,2.25-3.5,2.13-5.25h-0.25c0,1.5-0.63,3.13-2,4.63c-0.25-1.75-0.38-3.13-0.63-4.25h-0.25
						c0.63,5.25,0.63,10.88-0.13,17.76C248.18,65,246.8,61.5,246.3,58h-0.25c0.13,4.25,1.5,8.5,4.13,12.01
						c-0.25,1.75-0.5,3.75-0.88,6.13l-2.13,2.13c0.13-2.75,0.13-5.5-0.75-8l-0.25,0.13c0.75,2.88,0.13,5.88-0.38,8.75
						c0,0.25-0.13,0.63-0.13,0.88c-0.75,0.75-1.5,1.63-2.25,2.38c0.38-4.88,0.5-11.13-1.88-16.51c-0.23-0.63-0.36-1.35-0.36-2.1
						c0-1.33,0.45-2.74,1.74-3.78l-0.13-0.13l-0.13-0.13c-1.38,1-2.13,2.63-2,4.5c-1-1.75-2.13-3.25-3.63-4.5l-0.13,0.13L236.79,60
						c6.5,6.38,6,15.88,4.63,24.26c-1.25,1.5-2.63,2.88-3.88,4.25c-0.88-3.5-1.38-7.13-1.75-10.63c-0.38-2.5-0.63-5.13-1.13-7.75
						c-0.5-1.88-1.25-3.75-2.13-5.5c0.61-1.51,0.8-3.2,0.59-5.11c3.34-1.08,5.54-2.51,6.65-3.39c1,0.23,1.94,0.13,2.01,0.13
						l0.13-0.13c0.38-5,5-11.13,5.88-12.26c1,3.25,2.88,4.25,3,4.25l0.13-0.13c1-5.88,6.75-9.88,7.75-10.5
						c0.38,2.63,1.88,4.25,1.88,4.38h0.13c1.88-0.38,3-4.13,3.38-5.5c0.38,1.63,1.13,1.75,1.13,1.88l0.13-0.13
						c0-2.88,6.75-8.75,8.13-9.88c-0.13,1.25-0.63,6.13,0.38,10.25c1.13,4.63,2.25,12.01,2.25,12.01l0.13,0.13
						c0.88-0.13,1.5-0.5,1.75-0.88c-0.13,3.5-3.75,7.5-3.75,7.5l0.13,0.25c1-0.13,2-0.75,2.5-1.13c-0.5,4.13-5.13,8-5.13,8v0.25
						c0.75,0.63,1.88,0.63,2.25,0.63c-2,4.25-7.88,8.88-8,9l0.13,0.25c3.63,0.38,7.25-2.63,8.13-3.38c0.13,0.75,0.88,1.63,0.88,1.63
						h0.13c2.63-0.5,9.5-4.5,10.63-5.25c0.25,4-3.75,8.13-3.75,8.25v0.25c1,0.25,1.63,0.13,2-0.25c-0.25,3.38-5.13,6.5-5.13,6.5
						l0.13,0.25C281.57,82.64,283.82,82.01,284.57,81.89z"/>
				</g>
			</g>
			<g>
				<rect x="215.41" y="116.53" class="st0" width="14.01" height="1.25"/>
				<path class="st0" d="M229.42,116.4h-14.01l-0.13,0.13v1.25l0.13,0.13h14.01l0.13-1.38L229.42,116.4z M229.29,117.65h-13.76v-1
					h13.76V117.65z"/>
			</g>
		</g>
	</g>
</g>
</svg>
