<?xml version="1.0" encoding="utf-8"?>

<svg fill="#05a8aa" version="1.1" id="Layer_1" xmlns="http://www.w3.org/2000/svg" xmlns:xlink="http://www.w3.org/1999/xlink" x="0px" y="0px"
	 viewBox="0 0 462.03 597.76" style="enable-background:new 0 0 462.03 597.76;" xml:space="preserve">

    <path  d="M622.42,439.78l-0.06-0.14c0.02,0.02,0.03,0.06,0.05,0.09C622.42,439.75,622.42,439.76,622.42,439.78z"/>

    <g>
        <g>
            <ellipse transform="matrix(0.7071 -0.7071 0.7071 0.7071 -0.093 116.5992)" cx="140.7" cy="58.41" rx="58.41" ry="58.41"/>
            <path  d="M280.45,296.89l-30.04-101.98c-4.71-16.89-11.45-31.2-22.89-41.83c-12.1-11.25-28.31-18.08-46.01-18.08h-74.07
                c-22.04,0-42.08,11.12-53.9,28.76c-2.55,2.39-4.53,5.45-5.64,9.03L0.96,323.5c-3.45,11.07,2.73,22.84,13.8,26.29
                c2.08,0.65,4.18,0.96,6.25,0.96c8.95,0,17.25-5.77,20.05-14.76l40.82-131.06c5.4-5.05,14.17-0.09,12.54,7.19l-21.63,96.7
                l-24.52,100.5c-1.3,5.34,2.75,10.49,8.25,10.49l27.86-0.04v151.99c0,14.36,11.64,26,26,26c14.36,0,26-11.64,26-26V419.69
                l17.71-0.03v152.1c0,14.36,11.64,26,26,26s26-11.64,26-26V419.58l26.77-0.04c5.45,0,9.47-5.07,8.25-10.38l-45.3-196.54
                c-1.66-7.21,6.7-11.93,11.99-7.73l32.55,104.49c2.8,9,11.09,14.76,20.04,14.76c2.07,0,4.17-0.3,6.25-0.95
                C277.72,319.74,283.9,307.97,280.45,296.89z"/>
        </g>
        <g>
            <ellipse transform="matrix(0.9871 -0.1602 0.1602 0.9871 -45.0621 62.8505)" cx="367.3" cy="310.93" rx="48.31" ry="48.31"/>
            <path  d="M461.93,462.55l-0.26-2.39c-3.04-28.52-5.45-51.05-20.02-67.42c-15-16.84-39.5-23.36-81.9-21.79
                c-48.91,1.79-63.06-26.87-64.33-29.69c0.01,0.02,0.01,0.03,0.01,0.05l-0.04-0.1c0.01,0.02,0.02,0.04,0.03,0.05
                c-0.28-1.08-4.74-15.61-21.01-11.61c-9.23,2.27-12.43,7.79-13.13,14c-0.65,5.77,0.67,11.59,3.5,16.66
                c5.88,10.53,21.37,31.93,53.84,41.67V576.7c0,11.85,9.81,21.41,21.76,20.99c11.38-0.4,20.24-10.1,20.24-21.49v-92.12l11.82-0.05
                v92.67c0,11.85,9.81,21.41,21.76,20.99c11.38-0.4,20.24-10.1,20.24-21.49V416.35c0,0,0,0,0.01,0c7.15,7.57,8.94,24.33,11.43,47.64
                l0.25,2.4c0.99,9.23,8.8,16.08,17.88,16.08c0.64,0,1.29-0.03,1.94-0.1C455.83,481.31,462.99,472.44,461.93,462.55z"/>
        </g>
    </g>
    <path  d="M622.42,439.78l-0.06-0.14c0.02,0.02,0.03,0.06,0.05,0.09C622.42,439.75,622.42,439.76,622.42,439.78z"/>
</svg>
