<?xml version="1.0" encoding="utf-8"?>
<!-- Generator: Adobe Illustrator 27.0.0, SVG Export Plug-In . SVG Version: 6.00 Build 0)  -->
<svg version="1.1" id="Layer_1" xmlns="http://www.w3.org/2000/svg" xmlns:xlink="http://www.w3.org/1999/xlink" x="0px" y="0px"
	 viewBox="0 0 226.26 201.89" style="enable-background:new 0 0 226.26 201.89;" xml:space="preserve">
<style type="text/css">
	.st0{fill:#ECDBC7;}
</style>
<g>
	<g>
		<g>
			<g>
				<g>
					<path class="st0" d="M95.56,166.52l1.11-0.88c0,0,0,0,0.22,0.22c-0.44,0.44-0.66,0.66-1.11,1.11
						C95.78,166.52,95.56,166.52,95.56,166.52z"/>
					<path class="st0" d="M117,129.8c0,0.07-0.11,1.75-0.8,4.56c-0.09,0.4-0.2,0.8-0.31,1.22c-0.53,2.03-1.33,4.51-2.52,7.3
						c-2.72,6.52-7.5,14.75-15.83,22.98h-0.22l-0.88,0.66c-0.02-0.04-0.07-0.09-0.09-0.13c-0.02-0.07-0.07-0.11-0.09-0.15
						c-0.04-0.07-0.09-0.13-0.11-0.2c-0.27-0.51-0.44-1.02-0.6-1.5c-0.44-0.88-0.66-1.77-1.11-2.43c0.44-0.66,1.33-1.33,1.99-1.99
						c0.44-1.77,1.77-3.32,2.65-4.42c6.1-7.83,9.62-15.46,10.99-22.86c0.02-0.11,0.04-0.24,0.07-0.35h-0.44
						c-2.21,8.85-8.4,18.58-17.25,27.2c-0.22-0.44-0.44-0.88-0.66-1.33c-0.22-0.44-0.44-1.11-0.88-1.55
						c5.31-7.52,8.18-14.37,8.85-21.01h-0.44c-1.11,6.19-4.42,12.38-10.17,19.02c-0.22-0.44-0.66-0.66-0.88-1.11
						c-0.22-0.44-0.66-0.66-0.88-1.11c0.88-4.86,1.77-9.51,2.43-14.37c0.44-1.55,1.33-3.54,2.65-5.75c1.11-1.77,2.43-3.54,3.98-5.31
						l-0.44-0.44c-2.21,1.99-4.2,4.2-5.75,6.19c0.22-2.21,0.44-4.42,0.44-6.41c0-6.86,2.21-13.05,4.64-19.46
						c0.88-2.21,1.77-4.42,2.65-6.85c0.04-0.09,0.07-0.2,0.09-0.29c0.53-1.48,1-2.99,1.39-4.53c0.09-0.33,0.15-0.64,0.22-0.97
						c0.2-0.75,0.35-1.5,0.49-2.26c0.11-0.51,0.2-1.02,0.29-1.53c0.07-0.29,0.11-0.6,0.13-0.91c0.09-0.4,0.13-0.8,0.18-1.22
						c0.2-1.39,0.33-2.81,0.42-4.27c0.04-0.62,0.07-1.24,0.09-1.88c0.02-0.09,0.02-0.2,0.02-0.29h-0.44
						c-0.04,0.6-0.09,1.19-0.15,1.79c-0.13,1.46-0.31,2.87-0.55,4.29c-0.07,0.4-0.13,0.77-0.2,1.17c-0.07,0.35-0.13,0.71-0.22,1.06
						c-0.09,0.49-0.2,0.97-0.31,1.46c-0.2,0.88-0.44,1.77-0.69,2.63c-0.07,0.31-0.15,0.6-0.27,0.88c-0.42,1.44-0.91,2.85-1.44,4.22
						c-0.04,0.13-0.11,0.27-0.15,0.4c-0.66,1.99-1.55,3.98-2.43,5.53c-0.44-1.11-0.88-2.43-1.11-3.98c-0.13-1.15-0.18-2.23-0.2-3.34
						c-0.02-0.77-0.02-1.57-0.02-2.41h-0.44c-0.13,0.71-0.24,1.39-0.33,2.08c-0.46,3.58-0.11,6.81,1,9.42
						c-1.33,3.1-2.87,6.41-3.76,9.73c-0.88,4.64-1.55,9.29-1.99,13.71c-0.88,6.19-1.77,12.6-3.1,18.8
						c-2.21-2.65-4.64-5.09-6.85-7.52c-2.43-15.04-3.32-31.84,8.18-42.9l-0.22-0.22l-0.22-0.22c-2.43,2.21-4.64,4.86-6.41,7.96
						c0.22-3.32-1.11-6.19-3.54-7.96l-0.44,0.44c3.54,2.87,3.54,7.52,2.43,10.39c-2.9,6.55-3.69,13.82-3.69,20.52
						c0,3.05,0.18,5.97,0.38,8.67c-1.33-1.33-2.65-2.87-3.98-4.2c0-0.44-0.22-0.88-0.22-1.55c-0.88-5.09-1.99-10.39-0.66-15.48
						l-0.44-0.22c-1.77,4.42-1.77,9.29-1.33,14.15c-1.33-1.55-2.65-2.65-3.76-3.76c-0.66-4.2-1.11-7.52-1.55-10.84
						c4.42-6.19,7.08-13.71,7.3-21.23h-0.44c-0.66,6.19-3.32,12.38-7.3,17.47c-1.33-12.16-1.33-22.11-0.22-31.4h-0.44
						c-0.44,2.21-0.66,4.64-1.11,7.52c-2.43-2.43-3.54-5.31-3.54-8.18h-0.44c-0.22,3.1,1.11,6.41,3.76,9.29
						c-0.44,3.76-0.44,7.74-0.44,11.5c-0.88-0.88-1.77-1.55-2.21-2.43c-1.11-1.33-1.77-2.65-2.43-4.2H54.2
						c0.66,3.1,2.43,5.97,5.09,8.4c0,3.54,0.22,7.3,0.44,11.28c0.22,2.87,0.44,5.97,0.66,9.07c-1.77-1.55-3.54-3.32-5.31-5.09v-0.22
						l-0.22-0.22c-0.22,0-0.44,0-0.44-0.22l-0.88-0.88c-1.33-5.31-3.1-11.72-4.42-18.13c-1.39-7.19-2.08-13.42-2.08-19.15
						c0-3.43,0.24-6.68,0.75-9.82h-0.44c-1.55,7.74-1.77,16.14-0.44,26.31c-1.75-2.23-2.81-4.8-3.49-7.56
						c0.69,4.07,2.19,8.14,5.26,11.32c0.66,4.86,1.77,9.51,2.65,13.93c-3.98-3.54-7.3-7.52-10.39-11.94
						c-4.86-7.08-8.18-15.04-10.17-23.88c3.32-3.32,5.09-6.41,5.53-9.51h-0.44c-0.44,2.87-2.21,5.75-5.53,8.62
						c-1.11-4.86-1.77-9.73-1.77-14.82H28.1c0,4.64,0.22,9.07,1.11,13.71c-2.87-1.55-4.64-3.32-4.86-5.31H23.9
						c0.22,2.43,1.99,4.42,5.53,6.41c0.44,2.65,1.11,5.31,1.77,7.74c-1.99-1.33-4.2-3.32-5.09-5.97h-0.44
						c0.66,3.32,3.54,5.75,6.19,7.96c1.33,4.2,3.1,8.18,4.86,11.94c-5.75-4.42-11.28-8.62-15.48-13.93l-0.22,0.22l-0.22,0.22
						c4.42,6.41,10.61,11.72,16.58,16.81c0.66,0.44,1.11,1.11,1.77,1.55c2.87,4.64,6.41,8.85,10.39,12.6
						c-9.73-2.43-15.92-6.41-19.46-11.5l-0.22,0.22h-0.22c1.77,3.1,4.42,5.97,8.18,8.4c-3.1-0.88-6.63-1.55-9.95-2.43v0.44
						c5.31,1.55,11.06,3.54,17.47,5.75c1.55,0.66,3.1,1.11,5.09,1.77c0.66,0.22,1.11,0.44,1.77,0.66c0.44,0.22,0.88,0.22,1.11,0.44
						c3.1,3.1,6.41,6.41,9.51,9.95h-0.88c-9.73,0-17.03-2.43-21.23-6.85l-0.22,0.22l0.22,1.11c2.65,3.32,6.85,5.75,11.94,7.3
						c-4.2,0.44-8.4,1.11-13.05,1.77v0.44c7.74-0.66,14.59-1.11,20.79-0.88c1.77,0.22,3.32,0.22,5.09,0.44
						c2.21,2.43,4.42,5.09,6.85,7.74c-1.55,0.22-3.32,0.22-5.09,0c-2.65-0.22-5.31-0.88-7.96-1.99v0.44
						c3.54,1.99,8.85,3.98,15.04,3.54c1.11,1.11,1.99,2.43,3.1,3.54l1.11,1.33c-26.76-0.22-49.09-7.52-62.8-20.57l-0.22,0.22
						l-0.22,0.22c5.97,6.19,13.71,11.06,23,14.82c-5.75,0.88-11.72,0.44-17.91,0.22v0.44c6.41,0.88,13.71,1.77,20.57,0.44
						c5.53,1.99,11.72,3.76,18.13,4.86c-0.22,0-0.22,0.22-0.44,0.22c-2.65,1.11-5.97,1.99-10.17,2.43v0.44c4.86,0,9.95,0,14.15-2.43
						c5.53,0.88,11.5,1.33,17.47,1.33c0.88,1.11,1.77,2.21,2.87,3.32c0.66,0.66,1.11,1.33,1.77,1.99c-1.77,0.22-3.54,0.44-5.09,0.66
						c-11.94,1.55-24.32,3.1-35.16-2.65v0.44c7.08,4.2,15.04,5.09,22.78,5.09c-9.73,0.88-19.68,1.11-29.41,1.11h-7.74v0.44
						c2.87,0,5.97,0.22,8.62,0.22c15.7,0.44,31.84,0.88,47.54-2.65c0,0.22,0.22,0.44,0.22,0.66c0.22,0.22,0.22,0.44,0.22,0.66
						c-0.44,0.44-0.88,0.44-1.33,0.66c-0.44,0.22-1.11,0.44-1.55,1.11l-0.22,0.22c-3.32,1.11-10.61,3.54-15.7,4.64
						c-6.41,1.33-11.72,1.99-16.58,2.21v0.44c7.08,0.22,14.37-0.44,23.22-2.43c-9.07,4.2-18.8,7.52-28.08,10.84l-3.1,1.11v0.44
						c1.11-0.44,2.43-0.66,3.54-1.11c9.95-2.87,20.34-5.97,30.07-10.17c-3.54,3.32-7.08,6.86-10.61,10.39
						c-0.88,1.11-1.99,1.99-2.87,3.1l0.22,0.22l0.22,0.22c0.88-0.88,1.77-1.55,2.87-2.43c6.63-5.97,13.49-11.94,21.01-17.03
						l0.22,0.66c0.88,0.88,0.88,2.21,0.88,3.54c0,1.33,0.22,2.87,1.11,3.98h0.22l6.26-5.2c0,0,0,0,0.22,0.22h0.22l0.88-0.88
						c1.77,2.43,13.4,15.3,15.39,19.5c1.13,2.28,1.19,6.74,1.13,10.48c-0.02,1.61-0.09,3.07-0.09,4.18v0.44c0,0.24,0,0.46,0.02,0.66
						c0,0.29,0.02,0.51,0.07,0.66h-7.63c-0.07-0.24-0.09-0.71-0.04-1.33c-0.02-0.07,0-0.15,0-0.22v-0.22
						c0.15-3.47,1.02-10.64-0.6-13.49c-1.99-3.54-11.41-11.28-17.6-14.37h-0.22c0,0.22-9.07,11.94-31.18,16.14
						c0.22-0.66,0.88-1.77,1.11-3.76l-0.22-0.22c-0.22,0-18.13,4.42-31.18-1.77c2.43-0.66,11.94-3.54,16.58-12.16l-0.22-0.22
						c-0.22,0-18.8,1.55-27.2-11.06c1.55,0.44,6.41,1.77,11.28,0.66v-0.44c-0.22,0-19.02-8.62-23-19.9
						c1.33,0.44,5.31,1.33,9.73,1.11l0.22-0.44c0,0-8.85-5.53-11.06-11.28c0.66,0.44,1.77,0.88,3.54,0.44v-0.44
						c0,0-7.08-7.52-6.63-14.59c1.99,1.33,14.15,8.4,18.8,9.29h0.22c0,0,1.55-1.55,1.55-2.87c1.55,1.33,7.96,6.85,14.37,5.97
						l0.22-0.44c-0.22,0-10.61-8.4-14.15-15.92c0.66,0,2.65-0.22,3.98-1.11v-0.44c0,0-8.18-6.85-9.07-14.15
						c0.66,0.44,2.43,1.55,4.42,1.99l0.22-0.44c0,0-6.63-7.08-6.63-13.27c0.44,0.44,1.33,1.33,3.1,1.55l0.22-0.22
						c0-0.22,2.21-13.05,3.98-21.23c1.77-7.3,0.88-15.92,0.66-18.13C24.34,46,36.29,56.39,36.29,61.47l0.22,0.22
						c0,0,1.33-0.44,1.99-3.32c0.66,2.43,2.65,9.07,5.97,9.73h0.22c0,0,2.43-2.87,3.32-7.74c1.77,1.11,11.94,8.18,13.71,18.58
						l0.22,0.22c0.22,0,3.32-1.77,5.31-7.52c1.55,1.99,9.73,12.83,10.39,21.67l0.22,0.22c0.22,0,4.2,0.44,6.41-1.55
						c0.42-0.31,0.73-0.66,0.95-1.06c0.29-0.46,0.49-1,0.6-1.59c0.22,0.22,0.66,0.44,0.88,0.22c0.73-0.15,1.26-0.97,1.72-2.52
						c0.09-0.27,0.18-0.57,0.24-0.88c0.15-0.62,0.31-1.33,0.46-2.12c0.75,0.38,2.63,1.08,4.27,0.71c0.29-0.04,0.55-0.13,0.82-0.27
						c0.02,0,0.02-0.02,0.04-0.04c1.08-0.66,1.5-1.97,1.28-3.94c0.07-0.09,0.2-0.29,0.4-0.55c0.18-0.29,0.44-0.69,0.73-1.15
						c0.2-0.31,0.4-0.66,0.6-1.04c0.13-0.27,0.29-0.53,0.42-0.82c0.53-1.08,1.04-2.37,1.39-3.78c0.07-0.33,0.15-0.66,0.2-1.02
						c0.22-1.26,0.27-2.59,0.07-3.96c0-0.09-0.02-0.2-0.04-0.29c1.44,1.3,5.59,5.42,8.16,10.42c1.33,2.65,2.23,5.55,2.06,8.43
						c-0.07,0.88-0.22,1.75-0.49,2.61l0.22,0.22c0,0,1.61,0,2.5-1.35c0.07-0.07,0.11-0.13,0.15-0.2v0.31c0,0.82-0.02,1.95-0.09,3.27
						c-0.04,0.66-0.07,1.37-0.13,2.12c-0.04,0.73-0.11,1.53-0.18,2.32c-0.18,1.7-0.38,3.52-0.66,5.33
						c-0.66,4.25-1.7,8.45-3.36,10.97l0.22,0.22c0,0,0.22,0,0.44,0.44c0.22,0.44,0.22,1.33-0.88,3.54c-0.88,1.55-0.88,3.1-1.11,4.86
						c-0.22,2.65-0.22,5.53-3.32,9.07l0.22,0.22c0.15-0.15,3.96-2.14,6.61-7.83v-0.02c0.69-1.5,1.3-3.27,1.75-5.35
						c0.2-0.97,0.38-2.03,0.49-3.16c0.22,0.18,0.57,0.46,1.04,0.88c0.33,0.33,0.75,0.75,1.15,1.28c0.44,0.57,0.91,1.28,1.33,2.14
						c0.02,0.02,0.02,0.04,0.02,0.07c0.46,0.91,0.86,1.99,1.15,3.25c0,0,0,0,0.02,0.02c0.07,0.22,0.11,0.46,0.15,0.71
						C117.15,124.63,117.29,126.97,117,129.8z"/>
					<path class="st0" d="M96.66,165.63l-1.11,0.88c0,0.22,0.22,0.22,0.22,0.22C96.22,166.3,96.44,166.08,96.66,165.63
						C96.88,165.63,96.66,165.63,96.66,165.63z"/>
				</g>
			</g>
			<g>
				<g>
					<path class="st0" d="M117.45,101.06h1.11v0.22c-0.44,0-0.66,0-1.11,0C117.45,101.29,117.45,101.29,117.45,101.06z"/>
					<path class="st0" d="M160.78,66.49c5.02-3.58,3.96-13.27,3.54-15.86c-2.21,3.76-7.3,4.64-7.96,4.86
						c-0.66,1.11-1.55,1.55-2.43,1.55c-1.55-0.22-2.43-1.99-2.87-2.65c-1.99,1.55-3.32,2.21-3.98,1.77
						c-0.22-0.22-0.44-0.44-0.44-0.66c-2.87,1.99-6.63-1.77-6.63-1.77v-0.22c3.54-5.09,3.76-14.59,3.76-16.58
						c-3.76,1.99-6.19,1.33-6.41,1.33l-0.22-0.22c3.76-6.19,1.11-14.82,0.44-16.58c-2.43,1.99-5.09,2.43-5.31,2.43h-0.22
						c-1.55-1.77,0-6.19,0.88-7.96c-1.55,1.11-2.43,0.66-2.43,0.66v-0.22c2.21-2.65,0-13.93-0.44-16.36
						c-1.11,1.33-4.42,6.41-8.62,9.29c-4.86,3.54-11.94,9.51-11.94,9.51h-0.22c-0.88-0.88-1.11-1.77-1.11-2.21
						c-2.65,3.54-1.99,10.39-1.99,10.39l-0.44,0.22c-1.11-1.11-1.55-2.43-1.77-3.1c-2.87,4.42-1.11,11.94-1.11,11.94l-0.22,0.22
						c-1.33-0.22-2.43-0.88-2.87-1.33c-1.33,5.75,1.11,15.26,1.11,15.26l-0.22,0.22c-3.98-2.65-5.31-8.4-5.53-10.17
						c-0.66,0.66-2.21,0.66-2.21,0.66h-0.22c-2.43-2.65-6.19-12.16-6.86-14.15c-3.32,3.54-2.65,10.84-2.65,10.84l-0.22,0.22
						c-1.11-0.66-1.55-1.33-1.77-1.77c-1.11,4.2,1.33,11.28,1.33,11.28l-0.22,0.22c-2.65-1.99-4.42-4.42-5.09-5.31
						c-2.65,8.18,4.42,21.67,4.42,21.89l-0.22,0.22c-3.1-1.77-5.31-4.64-6.19-5.75c-0.66,10.84,10.61,19.02,10.84,19.02v0.44
						C79.63,80.27,72.99,77.4,71,76.51c3.36,6.74,10.24,11.9,14.22,14.42c1.77,1.13,2.96,1.72,3.03,1.72v0.44
						c-0.88,0.88-1.77,1.33-2.21,1.55c2.19,1.28,4.31,2.32,6.3,3.18c0.27,0.11,0.53,0.22,0.8,0.33c1.35,0.55,2.65,1.02,3.89,1.39
						c0.35,0.13,0.71,0.22,1.04,0.33c6.55,1.88,11.17,1.66,12.78,1.48c0.4-0.04,0.62-0.09,0.62-0.09h0.22
						c1.75,3.67,2.52,9.11,2.57,12.65c0,0.95-0.04,1.77-0.13,2.39c0,0.07-0.02,0.11-0.02,0.18c-0.53,2.99-3.29,9.8-3.74,10.88
						l3.1,2.43c0.49-0.82,2.19-4.18,3.32-7.12c0.02-0.07,0.04-0.13,0.07-0.2c0.35-0.95,0.66-1.88,0.82-2.63
						c0.27-1.3,0.44-3.85,0.6-6.61c0-0.27,0.02-0.55,0.04-0.82c0.02-0.62,0.04-1.24,0.07-1.86c0.11-3.43,0.18-6.68,0.18-7.74h-0.88
						l-0.22-0.22l-1.5-0.15l-3.14-0.29l-0.22-0.22c0-1.11,0.44-1.77,1.11-2.65c0.66-0.88,1.11-1.55,1.11-2.43v-0.44
						c-1.08-0.15-2.17-0.27-3.27-0.38c-4-0.42-8.03-0.62-12.05-0.69c-0.33,0-0.66-0.02-1-0.02c-1.19-0.02-2.39-0.02-3.58-0.02h-2.65
						v-0.44c1.11-0.22,1.99-0.22,3.1-0.22c1.11-0.07,2.26-0.15,3.41-0.2c0.31-0.04,0.64-0.04,0.95-0.07c1.99-0.11,4-0.18,6.04-0.18
						c-1.86-0.66-3.71-1.35-5.55-2.08c-0.27-0.11-0.51-0.2-0.75-0.31c-3.71-1.5-7.39-3.12-10.99-4.78c-1.55-0.69-3.07-1.42-4.6-2.12
						l-2.65-1.11l0.22-0.44l2.43,0.88c1.61,0.62,3.23,1.26,4.84,1.9c3.65,1.44,7.32,2.87,11.06,4.2c0.24,0.09,0.49,0.18,0.73,0.24
						c1.37,0.49,2.76,0.95,4.16,1.39c-1.42-0.77-2.76-1.53-4.02-2.3c-0.22-0.13-0.44-0.27-0.64-0.4c-2.39-1.48-4.53-2.99-6.55-4.56
						c-1.02-0.82-1.99-1.64-2.94-2.48l0.22-0.22l0.22-0.22c1.06,0.88,2.17,1.75,3.36,2.61c1.75,1.22,3.67,2.43,5.88,3.69
						c0.2,0.11,0.4,0.24,0.62,0.35c0.24,0.13,0.49,0.29,0.75,0.42c3.07,1.72,7.47,3.63,10.17,4.82c0.42,0.18,0.77,0.33,1.11,0.49
						h0.22c0.44,0,0.88,0,1.33,0.22c0.22,0,0.38,0.04,0.55,0.11c0.18,0.07,0.33,0.11,0.55,0.11c0-0.22,0-0.22,0-0.44
						c0.22-0.22,0.22-0.22,0.22-0.44c-0.29-0.15-0.57-0.31-0.86-0.49c-1.02-0.53-1.99-1.11-2.99-1.68
						c-3.71-2.23-7.25-4.73-10.64-7.39c-0.18-0.11-0.33-0.24-0.49-0.38c-1.61-1.24-3.21-2.54-4.75-3.89
						c-3.16-2.63-6.24-5.35-9.24-8.07c-1.77-1.55-3.32-2.87-5.09-4.42l0.22-0.22L82.06,67c1.55,1.33,3.1,2.43,4.64,3.76
						c3.29,2.61,6.57,5.37,9.97,8.03c1.39,1.13,2.81,2.21,4.22,3.25c0.13,0.11,0.27,0.2,0.38,0.29c0.6,0.42,1.19,0.84,1.79,1.26
						c-0.6-0.51-1.19-1.02-1.77-1.55c-1.44-1.35-2.81-2.76-4.02-4.29c-1.72-2.17-3.16-4.56-4.16-7.21l0.44-0.22
						c1.04,2.45,2.45,4.64,4.14,6.61c3.25,3.83,7.47,6.88,11.83,9.8c0.73,0.51,1.48,1,2.23,1.48c0.07,0.04,0.11,0.07,0.15,0.11
						c0.29,0.2,0.6,0.38,0.88,0.57c0.55,0.55,1.19,1.02,1.86,1.44c0.4,0.27,0.82,0.53,1.24,0.77v-1.77
						c-0.07-0.29-0.11-0.57-0.13-0.84c-0.09-0.75-0.09-1.44-0.09-2.26c-3.03-2.65-5.73-5.29-8.2-7.94c-0.46-0.44-0.88-0.91-1.3-1.35
						c-2.57-0.64-4.91-2.1-7.08-3.8c-0.84-0.62-1.64-1.28-2.43-1.95l0.22-0.22l0.22-0.22c0.75,0.51,1.48,0.95,2.19,1.37
						c1.72,1,3.32,1.7,4.89,2.17c-1.75-2.1-3.36-4.11-4.82-6.13c-1.33-1.81-2.54-3.58-3.58-5.37c-4.64-2.87-8.62-6.85-11.94-10.39
						l0.22-0.22c3.32,3.1,6.63,6.19,10.39,8.62c-3.76-6.63-5.97-13.05-6.63-19.24h0.44c1.99,13.71,11.72,28.53,27.2,41.79v-1.11
						c0-1.33-0.22-2.43-0.22-3.54c-3.76-2.87-5.97-6.63-7.08-9.29h0.44c1.11,1.77,2.21,3.32,3.76,4.86
						c0.88,0.88,1.99,1.77,2.87,2.43c0-2.43-0.22-4.86-0.44-7.3c-1.11-0.88-1.99-1.77-2.87-2.65c-3.32-3.1-7.52-6.19-12.38-9.73
						l0.22-0.22v-0.22c2.87,1.77,5.53,3.54,8.18,5.31c-2.21-3.32-3.54-6.41-3.54-9.51h0.44c0.44,4.64,3.54,9.29,9.29,14.15
						c0.22,0.22,0.22,0.22,0.44,0.44c-0.22-3.32-0.66-6.63-1.11-9.73c0-0.44-0.22-0.66-0.44-0.88c-0.22-0.22-0.44-0.66-0.66-1.11
						c-0.88-1.33-1.55-2.43-2.21-3.54c-2.65-4.42-5.09-8.18-7.52-11.72l0.44-0.44c1.55,1.77,3.1,3.76,4.42,5.75
						c-1.11-3.1-1.33-5.75-0.88-8.18h0.44c-0.44,4.42,1.55,9.51,5.97,15.48c-0.13-0.82-0.24-1.61-0.33-2.43
						c1.24-2.65,2.68-5.31,4.31-7.96c-0.88-6.41,3.76-11.72,6.85-15.04l0.22,0.22l0.22,0.22c-2.87,3.98-5.53,7.74-5.75,12.38
						c3.98-6.19,7.74-10.61,12.16-13.93l0.22,0.22l0.22,0.22c-2.21,1.88-4.31,4.09-6.32,6.74c-2.01,2.65-3.96,5.75-5.84,9.4
						c-1.99,3.98-3.98,8.4-5.53,11.94l0.22,0.88l0.22,0.22v0.22c0.44,1.77,0.66,3.32,0.88,5.31c1.11-1.77,2.43-3.54,3.54-5.09
						c1.77-2.43,3.32-4.42,4.86-6.41c-0.44-2.65,0-5.09,0.88-7.08h0.44c-0.22,1.11-0.44,2.43-0.44,3.54c0,0.66,0,1.33,0.22,2.21
						c1.77-1.99,3.54-3.98,5.53-5.75c-0.44-2.87,0.44-5.31,1.99-6.85l0.44,0.44c-1.11,1.55-1.77,3.54-1.55,5.97
						c1.55-1.55,2.87-2.65,3.98-3.54l0.44,0.44c-4.86,4.42-9.29,9.73-13.93,16.81c4.64-0.66,8.62-2.87,11.94-5.75l0.22,0.22
						l0.22,0.22c-3.32,3.98-8.18,6.86-13.71,7.96c-1.11,1.99-2.43,3.98-3.98,6.63c0.22,1.11,0.22,2.21,0.44,3.76
						c2.21-2.87,4.2-5.31,7.3-6.86l0.22,0.44c-3.1,1.99-4.86,5.31-6.63,8.62c0,0.22-0.22,0.66-0.44,0.88
						c0.22,1.55,0.22,2.87,0.44,4.2c1.77-2.43,3.87-5.13,6.35-7.63c2.5-2.5,5.37-4.75,8.69-6.3c1.99-1.11,3.98-3.32,3.32-6.63h0.44
						c0.66,2.21,0.22,4.2-1.33,5.97c2.21-0.66,4.64-1.11,7.08-1.11v0.22c-6.06,0.22-10.88,2.81-14.84,6.55
						c-3.18,2.99-5.82,6.68-8.12,10.48c-0.04,0.07-0.07,0.15-0.13,0.24c-0.35,0.6-0.69,1.17-1.02,1.75c0.02,0.2,0.04,0.42,0.07,0.62
						c0.2,2.23,0.4,4.44,0.6,6.68c2.03-1.44,3.94-2.99,5.77-4.58c0.11-0.09,0.22-0.2,0.33-0.29c1.46-1.26,2.87-2.52,4.29-3.76
						c0.24-0.22,0.46-0.42,0.71-0.64c2.19-1.99,4.42-3.98,6.81-5.77c2.21-1.55,4.42-2.65,6.63-3.54c0.66-2.43,2.43-4.64,4.86-6.63
						l0.22,0.22c-0.88,0.88-1.77,1.99-2.43,3.1c-0.44,0.88-0.88,1.55-1.11,2.43c1.11-0.44,2.43-1.11,3.76-1.77
						c3.76-1.99,7.3-4.64,10.39-7.74l0.22,0.22c-3.1,3.54-6.63,6.19-10.17,8.18c-1.55,0.88-3.1,1.77-4.64,2.43
						c-4.42,2.21-8.4,4.42-11.5,8.18c-0.62,0.77-1.35,1.44-2.12,2.17c-0.31,0.29-0.64,0.6-0.97,0.93c0.42-0.04,0.86-0.11,1.3-0.15
						c1.42-0.15,2.99-0.29,4.67-0.29v0.44c-1.55,0.22-3.1,0.44-4.64,0.88l-0.02,0.02c-1.75,0.64-2.85,1.08-3.96,1.75
						c-0.66,0.6-1.33,1.19-2.01,1.79l-0.46,0.4c-1.7,1.46-3.49,2.9-5.26,4.22v1.99c2.15-0.31,4.11-0.73,5.9-1.26
						c0.2-0.04,0.4-0.09,0.6-0.15c3.1-0.97,5.71-2.26,7.87-3.89l0.44,0.44c-2.06,2.06-4.73,3.69-7.98,5.02
						c-0.22,0.09-0.42,0.15-0.64,0.24c-1.81,0.69-3.8,1.28-5.97,1.81c0,0.22-0.22,0.66-0.22,1.11c-0.22,0.44-0.22,0.66-0.22,1.11
						c2.48-0.07,4.86-0.27,7.14-0.62c0.27-0.04,0.53-0.09,0.8-0.13c5.59-0.93,10.44-2.72,14.09-5.24c0.11-0.07,0.2-0.13,0.31-0.2
						l0.22,0.22l0.22,0.22c-0.15,0.13-0.29,0.24-0.44,0.35c-3.6,2.9-8.16,4.89-13.93,6.19c-0.29,0.07-0.57,0.11-0.86,0.18
						c-0.57,0.13-1.17,0.24-1.79,0.35c-1.11,0.22-2.65,0.22-3.98,0.22h-1.99c0,0.66-0.22,1.33-0.44,1.99
						c-0.22,0.66-0.44,1.11-0.44,1.55h0.88l0.22,0.22c3.12-0.11,5.97-0.44,8.54-0.95c0.38-0.07,0.73-0.13,1.08-0.22
						c1.44-0.29,2.79-0.64,4.02-1.04c0.22-0.07,0.44-0.13,0.66-0.2c5.9-1.9,9.8-4.44,11.76-5.99c1.06-0.8,1.57-1.33,1.57-1.33
						c5.31-5.09,4.42-9.51,3.98-10.61c-6.41,5.97-12.38,4.42-12.6,4.42v-0.44c3.32-0.44,4.64-1.99,5.97-3.32
						c0.88-0.66,1.77-1.55,2.87-1.99c1.55-0.44,1.99-1.11,1.99-1.33V77.4c4.64-1.33,11.5-8.62,13.49-10.84
						C161.62,66.65,161.14,66.54,160.78,66.49z M111.85,37.88c-1.19-5.35-2.12-10.86-1.92-15.99h0.44c0,4.07,0.93,8.14,2.01,12.34
						C112.13,35.45,111.98,36.66,111.85,37.88z M115.6,23.68c-0.24,0.55-0.49,1.13-0.69,1.7c-0.24-1.72-0.2-3.36,0.53-4.82
						l0.44,0.22C115.54,21.72,115.49,22.71,115.6,23.68z M115.85,14.24l-0.18-0.09h0.22C115.87,14.17,115.87,14.22,115.85,14.24z
						 M117.48,17.38c1.33-2.01,2.85-4.02,4.38-5.88l0.44,0.44c-1.79,2.32-3.29,4.64-4.6,7.1C117.55,18.44,117.48,17.89,117.48,17.38
						z M118.55,21.47v-0.02c-0.11-0.24-0.22-0.51-0.29-0.73c2.34-0.18,4.09-0.82,5.37-1.92l0.44,0.44
						C122.84,20.48,121.02,21.14,118.55,21.47z"/>
					<path class="st0" d="M117.45,101.06v0.22c0.44,0,0.66,0,1.11,0v-0.22H117.45z"/>
				</g>
			</g>
			<g>
				<g>
					<path class="st0" d="M118.88,199.24c-0.02,0.09-0.04,0.15-0.07,0.22c-0.02,0.09-0.04,0.15-0.07,0.22
						c-0.09,0.29-0.15,0.51-0.2,0.66h-5.31c0.02-0.15,0.07-0.38,0.11-0.66c0.02-0.07,0.02-0.13,0.04-0.22
						c0.02-0.07,0.02-0.13,0.04-0.22c0.2-1,0.51-2.5,0.91-4.18c-0.02,1.61-0.09,3.07-0.09,4.18H118.88z"/>
					<path class="st0" d="M135.57,138.43c0.66,4.86,1.33,9.51,2.43,14.37c-0.44,0.44-0.66,0.66-0.88,1.11
						c-0.22,0.44-0.66,0.66-0.88,0.88c-5.53-6.63-8.85-12.83-10.17-19.02h-0.44c0.66,6.63,3.54,13.49,8.85,21.01
						c-0.44,0.44-0.66,1.11-0.88,1.55c-0.22,0.44-0.44,1.11-0.66,1.33c-8.23-8.03-14.15-16.81-16.72-25.3
						c-0.2-0.64-0.38-1.26-0.53-1.9h-0.44c0.18,1.04,0.4,2.08,0.66,3.12c0.69,2.72,1.66,5.51,3.1,8.38c1.77,3.76,4.2,7.74,7.3,11.72
						c0.88,1.11,2.21,2.43,3.76,3.76c0.66,0.66,1.33,1.33,1.99,1.99c-0.44,0.66-0.88,1.55-1.11,2.43c-0.22,0.66-0.44,1.55-0.88,1.99
						l-0.88-0.66h-0.22c-8.05-7.96-12.78-15.92-15.57-22.31c-1.79-4.14-2.79-7.63-3.29-10.06c-0.04-0.13-0.07-0.24-0.09-0.35
						c-0.42-2.06-0.51-3.25-0.51-3.32c-0.2-2.43-0.11-4.51,0.2-6.28v-0.02c0.35-2.23,1-4,1.75-5.35c0.51-0.95,1.04-1.7,1.53-2.28
						c0.53-0.6,0.97-1.02,1.3-1.28c0.13-0.11,0.22-0.2,0.31-0.27c0.18,1.84,0.49,3.49,0.86,4.98c0.02,0.02,0.02,0.04,0.02,0.07
						c0.33,1.19,0.73,2.26,1.15,3.25c0,0,0,0,0.02,0.02c0.07,0.18,0.15,0.33,0.22,0.51c2.45,5.22,5.95,7.23,6.57,7.54l0.22-0.22
						c-3.1-3.76-3.32-6.63-3.32-9.07c0-1.55-0.22-3.32-1.11-4.86c-0.62-1.24-0.88-2.08-0.95-2.63c-0.07-0.38-0.04-0.62,0.04-0.82
						c0-0.02,0-0.07,0.02-0.09c0.22-0.22,0.44-0.44,0.44-0.44l0.22-0.22c-0.22-0.33-0.44-0.71-0.62-1.11
						c-1.11-2.15-1.88-5.04-2.43-8.12c-0.49-2.65-0.82-5.44-1.04-7.92c-0.02-0.44-0.07-0.86-0.09-1.26
						c-0.09-1.06-0.13-2.06-0.15-2.94c-0.07-1.26-0.09-2.28-0.09-2.99c0.33,0.55,0.75,0.93,1.19,1.15c0.73,0.4,1.46,0.4,1.46,0.4
						l0.22-0.22c-0.93-2.72-0.64-5.55,0.29-8.23c0.27-0.82,0.6-1.59,0.95-2.37c0.07-0.09,0.09-0.18,0.13-0.24
						c2.54-5.11,6.81-9.29,8.14-10.61c0,0.04-0.02,0.09-0.02,0.13c-0.71,4.22,1.13,8.2,2.5,10.5c0.38,0.64,0.71,1.13,0.93,1.48
						c0.18,0.24,0.29,0.4,0.35,0.49c-0.02,0.09-0.02,0.2-0.02,0.29c-0.04,0.38-0.04,0.73,0,1.06c0.04,1.26,0.51,2.12,1.35,2.63
						c1.55,1.11,4.2,0,5.09-0.44c0.66,3.54,1.33,5.31,2.43,5.53c0.44,0,0.66-0.22,0.88-0.22c0.09,0.4,0.18,0.75,0.35,1.08
						c0.07,0.2,0.15,0.4,0.31,0.6c0.2,0.35,0.51,0.69,0.88,0.97c0.8,0.73,1.84,1.13,2.85,1.33c-1.97,1.55-5.86,4.09-11.76,5.99
						c-0.09-0.8-0.2-1.61-0.38-2.45h-0.44c0.11,0.84,0.15,1.72,0.15,2.65c-0.02,1.02-0.13,2.06-0.38,3.1
						c-0.22,1.55-0.66,2.87-1.11,3.98c-0.88-1.77-1.55-3.76-2.43-5.75c-0.04-0.09-0.09-0.18-0.11-0.29
						c-0.44-1.08-0.84-2.19-1.22-3.34c-0.18-0.51-0.33-1.02-0.46-1.55c-0.33-1.15-0.64-2.32-0.88-3.52
						c-0.13-0.51-0.22-1.04-0.33-1.57c-0.31-1.68-0.57-3.43-0.77-5.2c-0.07-0.82-0.13-1.64-0.2-2.45h-0.44c0,0.09,0,0.2,0.02,0.29
						c0.02,0.86,0.07,1.72,0.15,2.57c0.13,1.68,0.35,3.34,0.64,4.95c0.07,0.55,0.18,1.11,0.29,1.66c0.2,1.15,0.46,2.3,0.73,3.41
						c0.13,0.55,0.27,1.08,0.4,1.59c0.31,1.15,0.64,2.28,1,3.38c0.02,0.09,0.07,0.2,0.09,0.29c0.88,2.21,1.77,4.64,2.65,6.86
						c1.22,3.21,2.37,6.37,3.23,9.55c0.86,3.23,1.42,6.48,1.42,9.91c0.22,1.99,0.22,3.98,0.44,6.41c-1.55-1.99-3.32-4.2-5.75-6.19
						l-0.22,0.22l-0.22,0.22c1.55,1.77,2.87,3.54,3.98,5.31C134.25,134.89,135.13,136.66,135.57,138.43z"/>
					<path class="st0" d="M224.03,138.21c-3.98,11.28-22.78,19.9-23,19.9v0.44c4.64,0.88,9.51-0.22,11.28-0.66
						c-8.4,12.6-26.98,11.06-27.2,11.06h-0.66c4.64,8.4,14.15,11.5,16.58,12.16c-13.05,6.19-30.96,1.77-31.18,1.77l-0.22,0.22
						c0.22,1.99,0.88,3.32,1.11,3.76c-22.11-4.2-31.18-16.14-31.18-16.14h-0.22c-5.97,3.1-13.82,10.4-16.03,13.94
						c-1.72,3.05-2.14,11.7-3.09,14.86l-7.02-0.05c0-1.11,0.07-2.57,0.09-4.18c0.82-3.36,1.63-9.4,2.78-11.68
						c2.06-3.91,11.17-14.63,13.71-18.1l-0.14-0.21l0.07-0.04c0,0,0,0,0.02-0.02c0.02,0,0.02-0.02,0.04-0.02
						c0-0.04,0.04-0.07,0.07-0.11l0.02-0.02l2.34,1.39l0.07,0.04l0.09,0.07l5,3.69h0.22c0.88-1.11,1.11-2.43,1.11-3.98
						c0-1.33,0.22-2.65,0.88-3.54l0.22-0.44c7.52,5.09,14.37,11.06,21.01,17.03c0.88,0.88,1.77,1.55,2.87,2.43l0.44-0.44
						c-1.11-1.11-1.99-1.99-2.87-3.1c-3.32-3.54-6.86-7.08-10.61-10.39c9.73,4.2,20.12,7.08,30.07,10.17
						c1.11,0.44,2.43,0.66,3.54,1.11v-0.44l-3.1-1.11c-9.29-3.32-19.02-6.63-28.08-10.84c8.62,1.99,16.14,2.65,23.22,2.43v-0.22
						c-5.09,0-10.17-0.66-16.58-2.21c-5.09-1.11-12.38-3.32-15.7-4.64c0,0,0,0-0.22-0.22c-0.66-0.44-1.11-0.66-1.77-1.11
						c-0.44-0.22-0.88-0.44-1.33-0.66c0-0.22,0.22-0.44,0.22-0.66c0-0.22,0.22-0.44,0.22-0.66c15.48,3.76,31.84,3.1,47.54,2.65
						c2.87,0,5.75-0.22,8.62-0.22v-0.44h-7.74c-9.73,0-19.68-0.22-29.41-1.11c7.74,0,15.7-0.88,22.78-5.09v-0.44
						c-10.84,5.75-23,4.2-35.16,2.65c-1.77-0.22-3.54-0.44-5.09-0.66l1.77-2.21c0.88-1.11,1.77-2.21,2.65-3.32
						c5.97-0.22,11.94-0.66,17.47-1.33c4.2,2.43,9.29,2.65,14.15,2.43v-0.44c-4.2-0.44-7.3-1.33-10.17-2.43
						c-0.22,0-0.22-0.22-0.44-0.22c6.41-1.11,12.6-2.87,18.13-4.86c7.08,1.11,14.37,0.22,20.57-0.44v-0.44
						c-6.19,0.44-12.16,0.66-17.91-0.22c9.29-3.76,17.03-8.85,23-14.82l-0.22-0.22l-0.22-0.22c-13.71,13.05-36.04,20.34-62.8,20.57
						l1.11-1.33c1.11-1.11,1.99-2.43,3.1-3.54c6.19,0.44,11.5-1.77,15.04-3.54v-0.44c-2.65,1.11-5.31,1.77-7.96,1.99
						c-1.77,0.22-3.54,0.22-5.09,0c2.43-2.65,4.64-5.31,6.86-7.74c1.77,0,3.32-0.22,5.09-0.44c6.19-0.22,12.83,0,20.79,0.88v-0.44
						c-4.64-0.88-8.85-1.33-13.05-1.77c5.31-1.55,9.29-3.98,11.94-7.3l-0.22-0.22l-0.22-0.22c-4.42,4.64-11.5,6.85-21.23,6.85h-0.88
						c3.1-3.54,6.41-6.85,9.51-9.95c0.44-0.22,0.88-0.22,1.11-0.44c0.66-0.22,1.11-0.44,1.77-0.66c1.99-0.66,3.54-1.11,5.09-1.77
						c6.41-2.21,12.16-4.2,17.47-5.75v-0.44c-3.32,0.66-6.63,1.55-9.95,2.43c3.76-2.43,6.41-5.31,8.18-8.4h-0.22l-0.22-0.22
						c-3.32,5.31-9.73,9.07-19.46,11.5c3.98-3.76,7.52-7.96,10.39-12.6c0.66-0.44,1.11-1.11,1.77-1.55
						c5.97-5.09,12.16-10.39,16.58-16.81l-0.22-0.22l-0.22-0.22c-4.2,5.09-9.73,9.51-15.48,13.93c1.99-3.76,3.54-7.74,4.86-11.94
						c2.87-2.21,5.53-4.86,6.19-7.96h-0.44c-0.88,2.43-3.1,4.42-5.09,5.97c0.66-2.43,1.33-5.09,1.77-7.74
						c3.54-1.99,5.31-3.98,5.53-6.41h-0.44c-0.44,1.99-1.99,3.76-4.86,5.31c0.66-4.42,1.11-9.07,1.11-13.71h-0.44
						c-0.22,5.09-0.66,9.95-1.77,14.82c-3.1-2.87-4.86-5.75-5.53-8.62h-0.44c0.44,3.1,2.21,6.19,5.53,9.51
						c-1.99,8.85-5.53,16.81-10.17,23.88c-2.87,4.42-6.41,8.4-10.39,11.94c0.88-4.42,1.99-9.07,2.65-13.93
						c6.19-6.41,5.97-16.36,5.75-22.78h-0.44c-0.44,7.08-0.88,13.93-4.86,19.02c1.33-10.17,1.11-18.58-0.44-26.31h-0.44
						c1.33,8.4,0.88,17.47-1.33,28.97c-1.33,6.41-3.1,12.83-4.42,18.13l-0.88,0.88c-0.22,0-0.44,0-0.44,0.22l-0.22,0.22v0.22
						c-1.77,1.77-3.76,3.54-5.31,5.09c0.22-3.1,0.66-6.19,0.66-9.07c0.22-3.98,0.44-7.74,0.44-11.28c2.65-2.43,4.42-5.31,5.09-8.4
						h-0.44c-0.66,1.55-1.33,2.87-2.43,4.2c-0.66,0.88-1.33,1.55-2.21,2.43c0-3.98-0.22-7.74-0.44-11.5
						c2.65-2.87,3.98-6.19,3.76-9.29h-0.44c0,2.65-1.11,5.53-3.54,8.18c-0.44-3.1-0.66-5.53-1.11-7.52h-0.44
						c1.11,9.29,1.11,19.24-0.22,31.4c-3.98-5.09-6.41-11.28-7.3-17.47h-0.44c0.22,7.52,2.65,15.04,7.3,21.23
						c-0.44,3.1-0.88,6.63-1.55,10.84l-3.76,3.76c0.22-4.86,0.22-9.73-1.33-14.15l-0.44,0.22c1.33,5.09,0.22,10.39-0.66,15.48
						c0,0.44-0.22,1.11-0.22,1.55c-1.33,1.33-2.65,2.87-3.98,4.2c0.66-8.62,0.88-19.68-3.32-29.19c-0.4-1.11-0.64-2.39-0.64-3.71
						c0-2.34,0.8-4.84,3.07-6.68l-0.22-0.22l-0.22-0.22c-2.43,1.77-3.76,4.64-3.54,7.96c-1.77-3.1-3.76-5.75-6.41-7.96l-0.22,0.22
						l-0.22,0.22c11.5,11.28,10.61,28.08,8.18,42.9c-2.21,2.65-4.64,5.09-6.85,7.52c-1.55-6.19-2.43-12.6-3.1-18.8
						c-0.66-4.42-1.11-9.07-1.99-13.71c-0.88-3.32-2.21-6.63-3.76-9.73c1.08-2.68,1.42-5.66,1.04-9.04c5.9-1.9,9.8-4.44,11.76-5.99
						c1.77,0.4,3.43,0.22,3.56,0.22l0.22-0.22c0.66-8.85,8.85-19.68,10.39-21.67c1.77,5.75,5.09,7.52,5.31,7.52l0.22-0.22
						c1.77-10.39,11.94-17.47,13.71-18.57c0.66,4.64,3.32,7.52,3.32,7.74h0.22c3.32-0.66,5.31-7.3,5.97-9.73
						c0.66,2.87,1.99,3.1,1.99,3.32l0.22-0.22c0-5.09,11.94-15.48,14.37-17.47c-0.22,2.21-1.11,10.84,0.66,18.13
						c1.99,8.18,3.98,21.23,3.98,21.23l0.22,0.22c1.55-0.22,2.65-0.88,3.1-1.55c-0.22,6.19-6.63,13.27-6.63,13.27l0.22,0.44
						c1.77-0.22,3.54-1.33,4.42-1.99c-0.88,7.3-9.07,14.15-9.07,14.15v0.44c1.33,1.11,3.32,1.11,3.98,1.11
						c-3.54,7.52-13.93,15.7-14.15,15.92l0.22,0.44c6.41,0.66,12.83-4.64,14.37-5.97c0.22,1.33,1.55,2.87,1.55,2.87h0.22
						c4.64-0.88,16.81-7.96,18.8-9.29c0.44,7.08-6.63,14.37-6.63,14.59v0.44c1.77,0.44,2.87,0.22,3.54-0.44
						c-0.44,5.97-9.07,11.5-9.07,11.5l0.22,0.44C218.72,139.53,222.7,138.43,224.03,138.21z"/>
				</g>
			</g>
			<g>
				<rect x="101.75" y="199.47" class="st0" width="24.77" height="2.21"/>
				<path class="st0" d="M126.51,199.24h-24.77l-0.22,0.22v2.21l0.22,0.22h24.77l0.22-2.43L126.51,199.24z M126.29,201.45h-24.32
					v-1.77h24.32V201.45z"/>
			</g>
		</g>
	</g>
</g>
</svg>
