<?xml version="1.0" encoding="utf-8"?>
<!-- Generator: Adobe Illustrator 27.0.0, SVG Export Plug-In . SVG Version: 6.00 Build 0)  -->
<svg version="1.1" id="Layer_1" xmlns="http://www.w3.org/2000/svg" xmlns:xlink="http://www.w3.org/1999/xlink" x="0px" y="0px"
	 viewBox="0 0 427.14 235.26" style="enable-background:new 0 0 427.14 235.26;" xml:space="preserve">
<style type="text/css">
	.st0{fill:#ECDBC7;}
</style>
<g>
	<g>
		<g>
			<g>
				<g>
					<path class="st0" d="M165.62,222.76c-0.73-1.33-1.82-2.31-3.03-3.03c-1.21-0.73-2.67-1.09-4.37-1.09
						c-1.7,0-3.15,0.36-4.37,1.09c-1.21,0.73-2.31,1.7-2.91,3.03c-0.61,1.33-1.09,2.79-1.09,4.37c0,1.7,0.36,3.15,1.09,4.37
						c0.73,1.21,1.7,2.31,3.03,3.03c1.33,0.73,2.79,1.09,4.37,1.09c1.58,0,3.03-0.36,4.37-1.09c1.21-0.73,2.31-1.7,2.91-3.03
						c0.61-1.33,1.09-2.79,1.09-4.37C166.71,225.43,166.34,223.97,165.62,222.76z M162.7,229.92c-0.49,0.85-1.09,1.46-1.82,1.94
						c-0.73,0.49-1.7,0.73-2.67,0.73c-0.97,0-1.94-0.24-2.67-0.73c-0.85-0.49-1.46-1.09-1.82-1.94c-0.49-0.85-0.61-1.82-0.61-2.91
						c0-1.09,0.24-2.06,0.61-2.91c0.49-0.85,1.09-1.46,1.82-1.94c0.73-0.49,1.7-0.73,2.67-0.73c0.97,0,1.94,0.24,2.67,0.73
						c0.73,0.49,1.33,1.09,1.82,1.94c0.49,0.85,0.61,1.82,0.61,2.91C163.31,228.22,163.19,229.07,162.7,229.92z"/>
					<path class="st0" d="M179.57,218.88h-3.15l-6.55,16.5h3.4l1.33-3.64h6.79l1.33,3.64h3.4L179.57,218.88z M175.93,228.83
						l2.31-6.07l2.31,6.07H175.93z"/>
					<polygon class="st0" points="204.2,218.88 199.96,218.88 193.89,225.31 193.89,218.88 190.74,218.88 190.74,235.26 
						193.89,235.26 193.89,229.8 195.1,228.47 200.44,235.26 204.45,235.26 197.29,226.28 					"/>
					<polygon class="st0" points="215.49,231.62 210.63,218.88 207.12,218.88 213.67,235.26 214.03,235.26 216.82,235.26 
						217.19,235.26 223.74,218.88 220.34,218.88 					"/>
					<rect x="228.11" y="218.88" class="st0" width="3.15" height="16.5"/>
					<polygon class="st0" points="240.48,218.88 237.2,218.88 237.2,235.26 247.64,235.26 247.64,232.35 240.48,232.35 					"/>
					<polygon class="st0" points="255.4,218.88 252.13,218.88 252.13,235.26 262.68,235.26 262.68,232.35 255.4,232.35 					"/>
					<polygon class="st0" points="270.33,232.35 270.33,228.35 276.52,228.35 276.52,225.56 270.33,225.56 270.33,221.8 
						277.61,221.8 277.61,218.88 267.17,218.88 267.17,235.26 277.73,235.26 277.73,232.35 					"/>
				</g>
				<g>
					<path class="st0" d="M37.49,151.91c-3.28-2.79-8.37-4.13-15.04-4.13c-0.97,0-2.43,0-4.73,0.12c-2.31,0.12-4.61,0.12-7.04,0.12
						c-1.94,0-3.88,0-5.82-0.12c-1.94-0.12-3.52-0.12-4.85-0.12v1.46c1.7,0,2.91,0.24,3.76,0.61c0.85,0.36,1.33,0.97,1.7,1.82
						c0.24,0.85,0.36,2.31,0.36,4.13v37.37c0,1.82-0.12,3.15-0.36,4.13c-0.24,0.97-0.85,1.46-1.7,1.82
						c-0.85,0.24-2.06,0.49-3.76,0.61v1.46c1.46-0.12,3.15-0.12,5.1-0.24h13.22c2.31,0,4.25,0.12,5.7,0.24v-1.7
						c-2.18,0-3.76-0.24-4.97-0.49c-1.09-0.24-1.94-0.97-2.31-1.94c-0.36-0.97-0.61-2.43-0.61-4.25v-13.22h4.61
						c4.37,0,7.89-0.49,10.68-1.58c2.79-1.09,4.97-2.43,6.55-4.13c1.58-1.7,2.79-3.52,3.4-5.46c0.61-1.94,0.97-3.88,0.97-5.7
						C42.34,158.21,40.77,154.7,37.49,151.91z M30.7,170.59c-0.61,2.18-1.7,4-3.4,5.34c-1.7,1.33-4.13,2.06-7.28,2.06h-3.88v-22.32
						c0-2.55,0.36-4.37,0.97-5.22c0.61-0.85,1.94-1.33,4-1.33c3.76,0,6.55,1.21,8.01,3.52c1.58,2.31,2.31,5.95,2.31,10.68
						C31.55,165.98,31.18,168.41,30.7,170.59z"/>
					<path class="st0" d="M103.01,196.8c-0.73,0.49-1.21,1.09-1.7,1.46c-0.49,0.36-1.09,0.61-1.82,0.61c-0.97,0-1.82-0.36-2.31-1.21
						c-0.49-0.85-0.97-2.31-1.46-4.37l-1.7-7.77c-0.61-3.15-1.94-5.46-4-7.04c-1.94-1.58-5.1-2.55-9.22-2.91
						c-0.12,0-0.24,0-0.49-0.12c1.94-0.24,3.76-0.61,5.34-1.09c2.79-0.97,4.97-2.18,6.55-3.52c1.58-1.33,2.79-3.03,3.4-4.73
						c0.61-1.7,0.97-3.4,0.97-5.1c0-2.67-0.73-4.97-2.18-6.92c-1.46-1.94-3.64-3.52-6.55-4.61c-2.91-1.09-6.67-1.58-11.16-1.58
						c-0.97,0-2.43,0-4.61,0.12c-2.18,0.12-4.61,0.12-7.04,0.12c-1.94,0-3.88,0-5.82-0.12c-1.94-0.12-3.52-0.12-4.85-0.12v1.46
						c1.7,0,2.91,0.24,3.76,0.61c0.85,0.36,1.33,0.97,1.7,1.82c0.24,0.85,0.36,2.31,0.36,4.13v37.37c0,1.82-0.12,3.15-0.36,4.13
						c-0.24,0.97-0.85,1.46-1.7,1.82c-0.85,0.24-2.06,0.49-3.76,0.61v1.46c1.21-0.12,2.91-0.12,4.85-0.24h12.25
						c1.94,0,3.52,0.12,4.85,0.24v-1.46c-1.58-0.12-2.79-0.24-3.64-0.61c-0.85-0.36-1.46-0.97-1.7-1.82
						c-0.24-0.97-0.49-2.31-0.49-4.13v-17.35h5.7c1.7,0,3.15,0.49,4,1.33c0.97,0.97,1.58,2.18,2.18,3.76
						c0.61,1.58,0.97,3.52,1.46,5.58l1.46,7.52c0.61,3.15,1.7,5.34,3.4,6.43c1.7,1.09,3.76,1.7,6.07,1.7c2.18,0,3.88-0.36,5.34-1.09
						s2.79-1.82,4-3.4L103.01,196.8z M74.25,174.11h-3.88v-18.56c0-2.55,0.24-4.25,0.97-5.1c0.61-0.85,1.94-1.33,4-1.33
						c3.88,0,6.55,1.09,8.13,3.28c1.58,2.18,2.31,5.22,2.31,9.22c0,2.31-0.24,4.37-0.85,6.31c-0.61,1.94-1.7,3.4-3.4,4.49
						C79.84,173.5,77.41,174.11,74.25,174.11z"/>
					<path class="st0" d="M153.24,190.25c0-2.43,0.12-4.49,0.24-6.07h-1.7c-0.49,3.76-1.33,6.79-2.31,8.98
						c-1.09,2.18-2.43,3.76-4.13,4.73c-1.7,0.97-3.88,1.46-6.43,1.46h-4.25c-1.58,0-2.67-0.12-3.52-0.36
						c-0.73-0.24-1.33-0.73-1.58-1.58c-0.24-0.85-0.36-2.06-0.36-3.76v-18.68h3.28c2.06,0,3.76,0.49,4.85,1.33
						c1.09,0.97,1.94,2.18,2.55,3.76c0.49,1.58,0.97,3.15,1.21,4.85h1.7c-0.24-2.91-0.36-5.1-0.36-6.55c0-1.46-0.12-2.91-0.12-4.13
						s0-2.67,0-4.13c0-1.46,0.12-3.76,0.24-6.55h-1.7c-0.12,0.97-0.36,2.06-0.73,3.15s-0.85,2.18-1.46,3.28
						c-0.61,1.09-1.46,1.82-2.43,2.55c-0.97,0.61-2.18,0.97-3.76,0.97h-3.28v-18.44c0-1.7,0.12-2.91,0.36-3.76s0.85-1.33,1.58-1.58
						s1.94-0.36,3.52-0.36h4.13c2.43,0,4.49,0.36,5.95,1.21c1.58,0.85,2.79,2.18,3.64,4.25c0.97,1.94,1.58,4.73,1.94,8.13h1.7
						c0-0.61-0.12-1.33-0.12-2.18s-0.12-1.82-0.12-2.79s0-2.43,0.12-4.37c0.12-1.94,0.24-3.88,0.36-5.95
						c-2.31,0.12-4.97,0.12-7.89,0.24c-2.91,0-5.58,0-7.89,0c-1.21,0-2.79,0-4.61,0c-1.82,0-3.88,0-6.07,0s-4.37,0-6.67-0.12
						c-2.18,0-4.37-0.12-6.31-0.12v1.46c1.7,0,2.91,0.24,3.76,0.61s1.33,0.97,1.7,1.82c0.24,0.85,0.36,2.31,0.36,4.13v37.37
						c0,1.82-0.12,3.15-0.36,4.13c-0.24,0.97-0.85,1.46-1.7,1.82c-0.85,0.24-2.06,0.49-3.76,0.61v1.46c2.06,0,4.13-0.12,6.31-0.12
						c2.18,0,4.49,0,6.55-0.12s4.13,0,6.07,0c1.94,0,3.4,0,4.61,0c2.55,0,5.34,0,8.61,0c3.28,0,6.07,0.12,8.74,0.24
						c-0.24-2.18-0.36-4.25-0.36-6.31C153.24,192.8,153.24,191.22,153.24,190.25z"/>
					<path class="st0" d="M198.02,175.33c-1.94-1.58-4.13-3.15-6.67-4.73c-2.67-1.7-4.97-3.28-6.92-4.61
						c-1.94-1.33-3.4-2.67-4.49-4.13c-1.09-1.46-1.58-3.15-1.58-5.34c0-2.43,0.85-4.37,2.43-5.95c1.7-1.46,3.64-2.18,6.19-2.18
						c2.79,0,4.97,0.73,6.79,2.31c1.82,1.58,3.15,3.52,4.13,5.82c0.97,2.31,1.58,4.85,1.7,7.4h1.7c0-3.4,0-6.19,0-8.25
						c0-2.06,0.12-3.76,0.12-4.97s0.12-2.31,0.12-3.28h-1.7c-0.12,1.09-0.36,1.94-0.61,2.55c-0.24,0.61-0.61,0.85-1.09,0.85
						c-0.36,0-0.73-0.12-1.09-0.24c-0.36-0.12-0.85-0.49-1.46-0.73c-1.09-0.73-2.43-1.33-3.88-1.94c-1.46-0.61-3.64-0.97-6.43-0.97
						s-5.34,0.49-7.77,1.46c-2.43,0.97-4.37,2.43-5.95,4.37c-1.58,1.94-2.31,4.49-2.31,7.64c0,2.79,0.61,5.22,1.82,7.16
						c1.21,1.94,2.91,3.76,4.97,5.34c2.06,1.58,4.25,3.15,6.67,4.61c2.31,1.46,4.37,2.79,6.07,4.13c1.7,1.33,3.03,2.79,4,4.37
						c0.97,1.58,1.46,3.4,1.46,5.46s-0.49,3.76-1.33,5.1c-0.85,1.33-1.94,2.31-3.4,2.91c-1.46,0.61-3.03,0.97-4.73,0.97
						c-3.15,0-5.82-0.85-7.77-2.55c-1.94-1.7-3.4-4-4.25-6.79c-0.97-2.79-1.46-5.82-1.7-8.98h-1.7c0,3.76,0,7.04,0,9.46
						c0,2.43,0,4.49-0.12,6.07c-0.12,1.58-0.12,2.91-0.24,4.13h1.7c0.12-1.09,0.36-1.94,0.61-2.55c0.24-0.61,0.61-0.85,1.09-0.85
						c0.61,0,1.46,0.36,2.55,1.09c1.21,0.61,2.79,1.33,4.49,1.94c1.7,0.61,4.13,0.97,7.04,0.97c3.15,0,6.19-0.49,8.86-1.58
						c2.67-1.09,4.85-2.67,6.55-4.85s2.43-4.85,2.43-8.13c0-2.79-0.61-5.1-1.7-7.04C201.53,178.6,199.96,176.9,198.02,175.33z"/>
					<path class="st0" d="M258.32,190.25c0-2.43,0.12-4.49,0.24-6.07h-1.7c-0.49,3.76-1.33,6.79-2.31,8.98
						c-1.09,2.18-2.43,3.76-4.13,4.73c-1.7,0.97-3.88,1.46-6.43,1.46h-4.25c-1.58,0-2.67-0.12-3.52-0.36
						c-0.73-0.24-1.33-0.73-1.58-1.58c-0.24-0.85-0.36-2.06-0.36-3.76v-18.68h3.28c2.06,0,3.76,0.49,4.85,1.33
						c1.09,0.97,1.94,2.18,2.55,3.76c0.49,1.58,0.97,3.15,1.21,4.85h1.7c-0.24-2.91-0.36-5.1-0.36-6.55c0-1.46-0.12-2.91-0.12-4.13
						s0-2.67,0-4.13c0-1.46,0.12-3.76,0.24-6.55h-1.7c-0.12,0.97-0.36,2.06-0.73,3.15c-0.36,1.09-0.73,2.18-1.33,3.28
						c-0.61,1.09-1.33,1.82-2.43,2.55c-0.97,0.61-2.31,0.97-3.76,0.97h-3.28v-18.44c0-1.7,0.12-2.91,0.36-3.76s0.85-1.33,1.58-1.58
						c0.73-0.24,1.94-0.36,3.52-0.36H244c2.43,0,4.49,0.36,5.95,1.21c1.58,0.85,2.79,2.18,3.64,4.25c0.97,1.94,1.58,4.73,1.94,8.13
						h1.7c0-0.61-0.12-1.33-0.12-2.18s-0.12-1.82-0.12-2.79s0-2.43,0.12-4.37c0.12-1.94,0.24-3.88,0.36-5.95
						c-2.31,0.12-4.97,0.12-7.89,0.24c-2.91,0-5.58,0-7.89,0c-1.21,0-2.79,0-4.61,0c-1.82,0-3.88,0-6.07,0c-2.18,0-4.37,0-6.67-0.12
						c-2.31-0.12-4.37-0.12-6.31-0.12v1.46c1.7,0,2.91,0.24,3.76,0.61c0.85,0.36,1.33,0.97,1.7,1.82c0.24,0.85,0.36,2.31,0.36,4.13
						v37.37c0,1.82-0.12,3.15-0.36,4.13c-0.24,0.97-0.85,1.46-1.7,1.82c-0.85,0.24-2.06,0.49-3.76,0.61v1.46
						c2.06,0,4.13-0.12,6.31-0.12c2.18,0,4.49,0,6.55-0.12s4.13,0,6.07,0c1.94,0,3.4,0,4.61,0c2.55,0,5.34,0,8.61,0
						c3.15,0,6.07,0.12,8.61,0.24c-0.24-2.18-0.36-4.25-0.36-6.31C258.32,192.8,258.32,191.22,258.32,190.25z"/>
					<path class="st0" d="M321.04,196.8c-0.36,0.49-0.85,1.09-1.33,1.46c-0.49,0.36-1.09,0.61-1.82,0.61
						c-0.97,0-1.82-0.36-2.31-1.21c-0.49-0.85-0.97-2.31-1.46-4.37l-1.7-7.77c-0.61-3.15-1.94-5.46-4-7.04
						c-1.94-1.58-5.1-2.55-9.22-2.91c-0.12,0-0.24,0-0.49-0.12c1.94-0.24,3.76-0.61,5.34-1.09c2.79-0.97,4.97-2.18,6.55-3.52
						c1.58-1.33,2.79-3.03,3.4-4.73c0.61-1.7,0.97-3.4,0.97-5.1c0-2.67-0.73-4.97-2.18-6.92c-1.46-1.94-3.64-3.52-6.55-4.61
						c-2.91-1.09-6.67-1.58-11.16-1.58c-0.97,0-2.43,0-4.73,0.12c-2.31,0.12-4.61,0.12-7.04,0.12c-1.94,0-3.88,0-5.95-0.12
						c-1.94,0-3.52-0.12-4.85-0.12v1.46c1.7,0,2.91,0.24,3.76,0.61c0.85,0.36,1.33,0.97,1.7,1.82c0.24,0.85,0.36,2.31,0.36,4.13
						v37.37c0,1.82-0.12,3.15-0.36,4.13c-0.24,0.97-0.85,1.46-1.7,1.82c-0.85,0.24-2.06,0.49-3.76,0.61v1.46
						c1.21-0.12,2.91-0.12,4.85-0.24h12.25c1.94,0,3.52,0.12,4.85,0.24v-1.46c-1.58-0.12-2.79-0.24-3.64-0.61
						c-0.85-0.36-1.33-0.97-1.7-1.82c-0.24-0.97-0.49-2.31-0.49-4.13v-17.35h5.7c1.7,0,3.15,0.49,4,1.33
						c0.97,0.97,1.58,2.18,2.18,3.76c0.49,1.58,0.97,3.52,1.33,5.58l1.46,7.52c0.61,3.15,1.7,5.34,3.4,6.43
						c1.7,1.09,3.76,1.7,6.07,1.7c2.18,0,3.88-0.36,5.34-1.09c1.46-0.73,2.79-1.82,4-3.4L321.04,196.8z M292.53,174.11h-3.76v-18.56
						c0-2.55,0.24-4.25,0.97-5.1c0.61-0.85,1.94-1.33,4-1.33c3.76,0,6.55,1.09,8.01,3.28c1.46,2.18,2.31,5.22,2.31,9.22
						c0,2.31-0.24,4.37-0.85,6.31c-0.61,1.94-1.7,3.4-3.4,4.49C298.11,173.5,295.68,174.11,292.53,174.11z"/>
					<path class="st0" d="M371.15,147.91c-1.46,0-2.91,0-4.37-0.12c-1.46,0-3.03-0.12-4.73-0.12v1.46c2.06,0,3.64,0.49,4.73,1.33
						c1.09,0.85,1.7,2.31,1.7,4.25s-0.61,4.61-1.82,8.01l-10.31,27.42l-13.47-34.7c-0.61-1.7-0.97-3.03-0.85-4
						c0.12-0.85,0.61-1.46,1.46-1.82c0.85-0.36,2.18-0.49,3.76-0.61v-1.46c-1.21,0-2.67,0.12-4.61,0.12c-1.94,0-4,0.12-6.19,0.12
						c-1.82,0-3.64,0-5.58-0.12c-1.82,0-3.52-0.12-4.85-0.12V149c0.73,0,1.58,0.36,2.43,1.09c0.85,0.61,1.7,1.94,2.43,3.76
						l18.93,47.32c0.24,0,0.61,0,0.97,0c0.36,0,0.61,0,0.97,0s0.73,0,0.97,0c0.24,0,0.61,0,0.97,0l16.5-43.92
						c0.97-2.55,2.06-4.49,3.28-5.82c1.21-1.21,2.31-2.06,3.28-2.43v-1.46c-0.73,0-1.58,0.12-2.55,0.12
						C373.46,147.91,372.37,147.91,371.15,147.91z"/>
					<path class="st0" d="M426.96,194.74c-0.12-2.06-0.12-3.52-0.12-4.61c0-2.43,0.12-4.49,0.24-6.07h-1.7
						c-0.49,3.76-1.33,6.79-2.31,8.98c-1.09,2.18-2.43,3.76-4.25,4.73c-1.7,0.97-3.88,1.46-6.43,1.46h-4.25
						c-1.58,0-2.67-0.12-3.52-0.36c-0.73-0.24-1.33-0.73-1.58-1.58s-0.36-2.06-0.36-3.76v-18.68h3.28c2.06,0,3.76,0.49,4.85,1.33
						c1.09,0.97,1.94,2.18,2.43,3.76c0.49,1.58,0.97,3.15,1.21,4.85h1.7c-0.24-2.91-0.36-5.1-0.36-6.55c0-1.46-0.12-2.91-0.12-4.13
						s0-2.67,0-4.13c0-1.46,0-3.76,0.24-6.55h-1.7c-0.12,0.97-0.36,2.06-0.73,3.15s-0.73,2.18-1.33,3.28
						c-0.61,1.09-1.33,1.82-2.43,2.55c-0.97,0.61-2.31,0.97-3.76,0.97h-3.28v-18.44c0-1.7,0.12-2.91,0.36-3.76
						c0.24-0.85,0.85-1.33,1.58-1.58c0.73-0.24,1.94-0.36,3.52-0.36h4.13c2.43,0,4.49,0.36,5.95,1.21c1.58,0.85,2.79,2.18,3.64,4.25
						c0.97,1.94,1.58,4.73,1.94,8.13h1.7c0-0.61-0.12-1.33-0.12-2.18s-0.12-1.82-0.12-2.79s0-2.43,0.12-4.37
						c0.12-1.94,0.24-3.88,0.36-5.95c-2.31,0.12-4.97,0.12-7.89,0.24c-2.91,0-5.58,0-7.89,0c-1.21,0-2.79,0-4.61,0s-3.88,0-6.07,0
						c-2.18,0-4.37,0-6.67-0.12c-2.31-0.12-4.37-0.12-6.31-0.12V149c1.7,0,2.91,0.24,3.76,0.61c0.85,0.36,1.33,0.97,1.7,1.82
						c0.24,0.85,0.36,2.31,0.36,4.13v37.37c0,1.82-0.12,3.15-0.36,4.13c-0.24,0.97-0.85,1.46-1.7,1.82
						c-0.85,0.24-2.06,0.49-3.76,0.61v1.46c2.06,0,4.13-0.12,6.31-0.12c2.18,0,4.49,0,6.55-0.12c2.06-0.12,4.25,0,6.07,0
						s3.4,0,4.61,0c2.55,0,5.34,0,8.61,0c3.28,0,6.07,0.12,8.61,0.24C427.21,198.86,427.09,196.8,426.96,194.74z"/>
				</g>
				<g>
					<path class="st0" d="M201.29,114.3c-0.85,0-1.7,0-2.67,0.12c-0.97,0-1.94,0-2.91,0s-1.94,0-2.67,0c-0.85,0-1.7,0-2.67,0
						s-1.94,0-2.91,0c-0.97,0-1.94,0-2.67-0.12c0.12,0.85,0.12,1.7,0.12,2.55s0,1.46,0,1.82c0,0.49,0,0.85,0,1.21s0,0.73-0.12,0.97
						h0.61c0.24-1.46,0.49-2.67,0.97-3.52c0.36-0.85,0.85-1.46,1.46-1.82s1.46-0.61,2.43-0.61h0.97v16.02c0,0.73-0.12,1.33-0.24,1.7
						c-0.12,0.36-0.49,0.61-0.85,0.73c-0.49,0.12-1.09,0.24-1.82,0.24v0.61c0.49,0,1.21-0.12,2.06-0.12c0.85,0,1.7,0,2.67,0
						s1.82,0,2.79,0c0.85,0,1.58,0,2.18,0.12v-0.61c-0.85,0-1.46-0.12-1.94-0.24s-0.73-0.36-0.85-0.73
						c-0.12-0.36-0.24-0.97-0.24-1.7V114.9h0.85c0.97,0,1.82,0.24,2.43,0.61c0.61,0.36,1.09,0.97,1.46,1.82
						c0.36,0.85,0.73,2.06,0.97,3.52h0.61c0-0.24,0-0.61-0.12-0.97s0-0.73,0-1.21s0-1.09,0-1.82
						C201.17,116,201.17,115.15,201.29,114.3z"/>
					<path class="st0" d="M220.34,114.42c-0.73,0-1.46,0-2.31,0c-0.73,0-1.33,0-1.94-0.12v0.61c0.61,0,1.09,0.12,1.33,0.24
						c0.24,0.12,0.49,0.36,0.61,0.73c0.12,0.36,0.12,0.85,0.12,1.58V124h-8.01v-6.55c0-0.73,0.12-1.21,0.12-1.58
						c0.12-0.36,0.36-0.49,0.61-0.73c0.24-0.12,0.73-0.24,1.33-0.24v-0.61c-0.49,0-1.09,0-1.82,0.12c-0.73,0-1.46,0-2.18,0
						c-0.85,0-1.58,0-2.31,0c-0.73,0-1.33,0-1.82-0.12v0.61c0.61,0,1.09,0.12,1.33,0.24c0.24,0.12,0.49,0.36,0.61,0.73
						c0.12,0.36,0.12,0.85,0.12,1.58v13.83c0,0.73,0,1.21-0.12,1.46c-0.12,0.36-0.24,0.61-0.61,0.73c-0.36,0.12-0.73,0.12-1.33,0.24
						v0.61c0.49,0,1.09-0.12,1.82-0.12c0.73,0,1.58,0,2.31,0c0.73,0,1.46,0,2.18,0s1.33,0,1.82,0.12v-0.61
						c-0.61,0-1.09-0.12-1.33-0.24c-0.36-0.12-0.49-0.36-0.61-0.73c-0.12-0.36-0.12-0.85-0.12-1.46v-6.67h8.01v6.67
						c0,0.73,0,1.21-0.12,1.46c-0.12,0.36-0.24,0.61-0.61,0.73c-0.24,0.12-0.73,0.12-1.33,0.24v0.61c0.49,0,1.09-0.12,1.94-0.12
						c0.73,0,1.46,0,2.31,0s1.58,0,2.31,0s1.33,0,1.7,0.12v-0.61c-0.61,0-1.09-0.12-1.33-0.24c-0.36-0.12-0.49-0.36-0.61-0.73
						c-0.12-0.36-0.12-0.85-0.12-1.46v-14.07c0-0.73,0.12-1.21,0.12-1.58c0.12-0.36,0.36-0.49,0.61-0.73
						c0.24-0.12,0.73-0.24,1.33-0.24v-0.61c-0.49,0-0.97,0-1.7,0.12C221.92,114.42,221.07,114.42,220.34,114.42z"/>
					<path class="st0" d="M242.79,131.77c0-0.73,0-1.33,0-1.7c0-0.97,0-1.7,0.12-2.31h-0.61c-0.12,1.46-0.49,2.55-0.85,3.4
						c-0.36,0.85-0.97,1.33-1.58,1.7c-0.61,0.36-1.46,0.49-2.43,0.49h-1.58c-0.61,0-0.97,0-1.33-0.12
						c-0.24-0.12-0.49-0.24-0.61-0.61c-0.12-0.24-0.12-0.73-0.12-1.33v-6.92h1.21c0.73,0,1.33,0.12,1.82,0.49
						c0.49,0.36,0.73,0.85,0.97,1.33c0.24,0.61,0.36,1.21,0.49,1.82h0.61c-0.12-1.09-0.12-1.94-0.12-2.43c0-0.61,0-1.09,0-1.58
						s0-0.97,0-1.58c0-0.61,0-1.33,0.12-2.43h-0.61c-0.12,0.36-0.12,0.73-0.24,1.21c-0.12,0.49-0.24,0.85-0.49,1.21
						c-0.24,0.36-0.49,0.73-0.85,0.97c-0.36,0.24-0.85,0.36-1.46,0.36h-1.21v-6.79c0-0.61,0-1.09,0.12-1.33s0.24-0.49,0.61-0.61
						c0.24-0.12,0.73-0.12,1.33-0.12h1.58c0.97,0,1.7,0.12,2.18,0.49c0.49,0.36,0.97,0.85,1.33,1.58s0.61,1.7,0.73,3.03h0.61
						c0-0.24,0-0.49-0.12-0.85c0-0.36,0-0.73,0-0.97c0-0.36,0-0.97,0-1.58s0.12-1.46,0.12-2.18c-0.85,0-1.82,0.12-2.91,0.12
						s-2.06,0-2.91,0c-0.49,0-0.97,0-1.7,0s-1.46,0-2.31,0s-1.7,0-2.43,0c-0.85,0-1.58,0-2.31,0v0.61c0.61,0,1.09,0.12,1.33,0.24
						c0.24,0.12,0.49,0.36,0.61,0.73c0.12,0.36,0.12,0.85,0.12,1.58v13.83c0,0.73,0,1.21-0.12,1.46c-0.12,0.36-0.24,0.61-0.61,0.73
						c-0.24,0.12-0.73,0.12-1.33,0.24v0.61c0.73,0,1.58,0,2.31,0c0.85,0,1.7,0,2.43,0c0.85,0,1.58,0,2.31,0s1.33,0,1.7,0
						c0.97,0,1.94,0,3.15,0s2.31,0,3.15,0.12C242.91,133.35,242.91,132.62,242.79,131.77z"/>
				</g>
				<path class="st0" d="M124.56,127.86c-1.6,0.22-3.17,0.44-4.76,0.66c-1.01,0.15-2.06,0.22-3.1,0.22
					c-8.44,0.38-19.64,0.18-33.88,0.48c-16.52,0.35-35.75-0.25-54.9-0.48l-15.8-0.16c-0.4,0-0.77,0-1.17-0.04
					c-0.25,0-0.52-0.02-0.77-0.07l-8.48-0.95c-2.27-0.38-2.27-2.72,0-3.09l8.47-1.18c0.25-0.04,0.52-0.07,0.77-0.07
					c0.4-0.04,0.77-0.04,1.17-0.04l15.81,0.08c12.15-0.45,27.34-0.03,49.06-0.02c12.76,0.01,19.66-0.92,39.71,0.02
					c1.04,0,2.09,0.07,3.1,0.22c1.6,0.22,3.17,0.44,4.76,0.66C127.42,124.5,127.42,127.47,124.56,127.86z"/>
				<path class="st0" d="M425.31,127.86c-1.6,0.22-3.17,0.44-4.76,0.66c-1.01,0.15-2.06,0.22-3.1,0.22
					c-8.44,0.38-19.64,0.18-33.88,0.48c-16.52,0.35-35.75-0.25-54.89-0.48l-15.8-0.16c-0.4,0-0.77,0-1.17-0.04
					c-0.25,0-0.52-0.02-0.77-0.07l-8.48-0.95c-2.27-0.38-2.27-2.72,0-3.09l8.47-1.18c0.25-0.04,0.52-0.07,0.77-0.07
					c0.4-0.04,0.77-0.04,1.17-0.04l15.81,0.08c12.15-0.45,27.34-0.03,49.06-0.02c12.76,0.01,19.66-0.92,39.71,0.02
					c1.04,0,2.09,0.07,3.1,0.22c1.6,0.22,3.17,0.44,4.76,0.66C428.16,124.5,428.16,127.47,425.31,127.86z"/>
				<path class="st0" d="M425.14,230.02c-1.72,0.22-3.41,0.44-5.13,0.66c-1.09,0.15-2.22,0.22-3.34,0.22
					c-9.08,0.38-21.13,0.18-36.45,0.48c-17.78,0.35-38.46-0.25-59.06-0.48l-17-0.16c-0.43,0-0.83,0-1.26-0.04
					c-0.26,0-0.56-0.02-0.83-0.07l-9.13-0.95c-2.45-0.38-2.45-2.72,0-3.09l9.12-1.18c0.26-0.04,0.56-0.07,0.83-0.07
					c0.43-0.04,0.83-0.04,1.26-0.04l17.01,0.08c13.08-0.45,29.41-0.03,52.79-0.02c13.73,0.01,21.16-0.92,42.72,0.02
					c1.12,0,2.25,0.07,3.34,0.22c1.72,0.22,3.41,0.44,5.13,0.66C428.22,226.66,428.22,229.63,425.14,230.02z"/>
				<path class="st0" d="M134.02,230.02c-1.72,0.22-3.41,0.44-5.13,0.66c-1.09,0.15-2.22,0.22-3.34,0.22
					c-9.08,0.38-21.13,0.18-36.45,0.48c-17.78,0.35-38.46-0.25-59.06-0.48l-17-0.16c-0.43,0-0.83,0-1.26-0.04
					c-0.26,0-0.56-0.02-0.83-0.07l-9.13-0.95c-2.45-0.38-2.45-2.72,0-3.09l9.12-1.18c0.26-0.04,0.56-0.07,0.83-0.07
					c0.43-0.04,0.83-0.04,1.26-0.04l17.01,0.08c13.08-0.45,29.41-0.03,52.79-0.02c13.73,0.01,21.16-0.92,42.72,0.02
					c1.12,0,2.25,0.07,3.34,0.22c1.72,0.22,3.41,0.44,5.13,0.66C137.1,226.66,137.1,229.63,134.02,230.02z"/>
			</g>
		</g>
		<g>
			<g>
				<g>
					<path class="st0" d="M203.6,91.37l0.61-0.49c0,0,0,0,0.12,0.12c-0.24,0.24-0.36,0.36-0.61,0.61
						C203.72,91.37,203.6,91.37,203.6,91.37z"/>
					<path class="st0" d="M215.36,71.22c0,0.04-0.06,0.96-0.44,2.5c-0.05,0.22-0.11,0.44-0.17,0.67c-0.29,1.12-0.73,2.48-1.38,4
						c-1.49,3.58-4.11,8.09-8.69,12.61h-0.12l-0.49,0.36c-0.01-0.02-0.04-0.05-0.05-0.07c-0.01-0.04-0.04-0.06-0.05-0.08
						c-0.02-0.04-0.05-0.07-0.06-0.11c-0.15-0.28-0.24-0.56-0.33-0.83c-0.24-0.49-0.36-0.97-0.61-1.33
						c0.24-0.36,0.73-0.73,1.09-1.09c0.24-0.97,0.97-1.82,1.46-2.43c3.35-4.3,5.28-8.48,6.03-12.55c0.01-0.06,0.02-0.13,0.04-0.19
						h-0.24c-1.21,4.85-4.61,10.19-9.46,14.92c-0.12-0.24-0.24-0.49-0.36-0.73c-0.12-0.24-0.24-0.61-0.49-0.85
						c2.91-4.13,4.49-7.89,4.85-11.53h-0.24c-0.61,3.4-2.43,6.79-5.58,10.43c-0.12-0.24-0.36-0.36-0.49-0.61
						c-0.12-0.24-0.36-0.36-0.49-0.61c0.49-2.67,0.97-5.22,1.33-7.89c0.24-0.85,0.73-1.94,1.46-3.15c0.61-0.97,1.33-1.94,2.18-2.91
						l-0.24-0.24c-1.21,1.09-2.31,2.31-3.15,3.4c0.12-1.21,0.24-2.43,0.24-3.52c0-3.76,1.21-7.16,2.55-10.68
						c0.49-1.21,0.97-2.43,1.46-3.76c0.02-0.05,0.04-0.11,0.05-0.16c0.29-0.81,0.55-1.64,0.76-2.49c0.05-0.18,0.08-0.35,0.12-0.53
						c0.11-0.41,0.19-0.83,0.27-1.24c0.06-0.28,0.11-0.56,0.16-0.84c0.04-0.16,0.06-0.33,0.07-0.5c0.05-0.22,0.07-0.44,0.1-0.67
						c0.11-0.76,0.18-1.54,0.23-2.34c0.02-0.34,0.04-0.68,0.05-1.03c0.01-0.05,0.01-0.11,0.01-0.16h-0.24
						c-0.02,0.33-0.05,0.66-0.08,0.98c-0.07,0.8-0.17,1.58-0.3,2.35c-0.04,0.22-0.07,0.42-0.11,0.64c-0.04,0.19-0.07,0.39-0.12,0.58
						c-0.05,0.27-0.11,0.53-0.17,0.8c-0.11,0.49-0.24,0.97-0.38,1.44c-0.04,0.17-0.08,0.33-0.15,0.49c-0.23,0.79-0.5,1.57-0.79,2.32
						c-0.02,0.07-0.06,0.15-0.08,0.22c-0.36,1.09-0.85,2.18-1.33,3.03c-0.24-0.61-0.49-1.33-0.61-2.18
						c-0.07-0.63-0.1-1.23-0.11-1.83c-0.01-0.42-0.01-0.86-0.01-1.32h-0.24c-0.07,0.39-0.13,0.76-0.18,1.14
						c-0.25,1.97-0.06,3.74,0.55,5.17c-0.73,1.7-1.58,3.52-2.06,5.34c-0.49,2.55-0.85,5.1-1.09,7.52c-0.49,3.4-0.97,6.92-1.7,10.31
						c-1.21-1.46-2.55-2.79-3.76-4.13c-1.33-8.25-1.82-17.47,4.49-23.54l-0.12-0.12l-0.12-0.12c-1.33,1.21-2.55,2.67-3.52,4.37
						c0.12-1.82-0.61-3.4-1.94-4.37l-0.24,0.24c1.94,1.58,1.94,4.13,1.33,5.7c-1.59,3.59-2.03,7.58-2.03,11.26
						c0,1.67,0.1,3.28,0.21,4.76c-0.73-0.73-1.46-1.58-2.18-2.31c0-0.24-0.12-0.49-0.12-0.85c-0.49-2.79-1.09-5.7-0.36-8.49
						l-0.24-0.12c-0.97,2.43-0.97,5.1-0.73,7.77c-0.73-0.85-1.46-1.46-2.06-2.06c-0.36-2.31-0.61-4.13-0.85-5.95
						c2.43-3.4,3.88-7.52,4-11.65h-0.24c-0.36,3.4-1.82,6.79-4,9.59c-0.73-6.67-0.73-12.13-0.12-17.23h-0.24
						c-0.24,1.21-0.36,2.55-0.61,4.13c-1.33-1.33-1.94-2.91-1.94-4.49h-0.24c-0.12,1.7,0.61,3.52,2.06,5.1
						c-0.24,2.06-0.24,4.25-0.24,6.31c-0.49-0.49-0.97-0.85-1.21-1.33c-0.61-0.73-0.97-1.46-1.33-2.31h-0.24
						c0.36,1.7,1.33,3.28,2.79,4.61c0,1.94,0.12,4,0.24,6.19c0.12,1.58,0.24,3.28,0.36,4.97c-0.97-0.85-1.94-1.82-2.91-2.79v-0.12
						l-0.12-0.12c-0.12,0-0.24,0-0.24-0.12l-0.49-0.49c-0.73-2.91-1.7-6.43-2.43-9.95c-0.76-3.94-1.14-7.36-1.14-10.51
						c0-1.88,0.13-3.66,0.41-5.39h-0.24c-0.85,4.25-0.97,8.86-0.24,14.44c-0.96-1.23-1.54-2.63-1.92-4.15
						c0.38,2.23,1.2,4.46,2.89,6.21c0.36,2.67,0.97,5.22,1.46,7.64c-2.18-1.94-4-4.13-5.7-6.55c-2.67-3.88-4.49-8.25-5.58-13.1
						c1.82-1.82,2.79-3.52,3.03-5.22h-0.24c-0.24,1.58-1.21,3.15-3.03,4.73c-0.61-2.67-0.97-5.34-0.97-8.13h-0.24
						c0,2.55,0.12,4.97,0.61,7.52c-1.58-0.85-2.55-1.82-2.67-2.91h-0.24c0.12,1.33,1.09,2.43,3.03,3.52
						c0.24,1.46,0.61,2.91,0.97,4.25c-1.09-0.73-2.31-1.82-2.79-3.28h-0.24c0.36,1.82,1.94,3.15,3.4,4.37
						c0.73,2.31,1.7,4.49,2.67,6.55c-3.15-2.43-6.19-4.73-8.49-7.64l-0.12,0.12l-0.12,0.12c2.43,3.52,5.82,6.43,9.1,9.22
						c0.36,0.24,0.61,0.61,0.97,0.85c1.58,2.55,3.52,4.85,5.7,6.92c-5.34-1.33-8.74-3.52-10.68-6.31l-0.12,0.12h-0.12
						c0.97,1.7,2.43,3.28,4.49,4.61c-1.7-0.49-3.64-0.85-5.46-1.33v0.24c2.91,0.85,6.07,1.94,9.59,3.15
						c0.85,0.36,1.7,0.61,2.79,0.97c0.36,0.12,0.61,0.24,0.97,0.36c0.24,0.12,0.49,0.12,0.61,0.24c1.7,1.7,3.52,3.52,5.22,5.46
						h-0.49c-5.34,0-9.34-1.33-11.65-3.76l-0.12,0.12l0.12,0.61c1.46,1.82,3.76,3.15,6.55,4c-2.31,0.24-4.61,0.61-7.16,0.97v0.24
						c4.25-0.36,8.01-0.61,11.4-0.49c0.97,0.12,1.82,0.12,2.79,0.24c1.21,1.33,2.43,2.79,3.76,4.25c-0.85,0.12-1.82,0.12-2.79,0
						c-1.46-0.12-2.91-0.49-4.37-1.09v0.24c1.94,1.09,4.85,2.18,8.25,1.94c0.61,0.61,1.09,1.33,1.7,1.94l0.61,0.73
						c-14.68-0.12-26.94-4.13-34.46-11.28l-0.12,0.12l-0.12,0.12c3.28,3.4,7.52,6.07,12.62,8.13c-3.15,0.49-6.43,0.24-9.83,0.12
						v0.24c3.52,0.49,7.52,0.97,11.28,0.24c3.03,1.09,6.43,2.06,9.95,2.67c-0.12,0-0.12,0.12-0.24,0.12
						c-1.46,0.61-3.28,1.09-5.58,1.33v0.24c2.67,0,5.46,0,7.77-1.33c3.03,0.49,6.31,0.73,9.59,0.73c0.49,0.61,0.97,1.21,1.58,1.82
						c0.36,0.36,0.61,0.73,0.97,1.09c-0.97,0.12-1.94,0.24-2.79,0.36c-6.55,0.85-13.35,1.7-19.29-1.46v0.24
						c3.88,2.31,8.25,2.79,12.5,2.79c-5.34,0.49-10.8,0.61-16.14,0.61h-4.25v0.24c1.58,0,3.28,0.12,4.73,0.12
						c8.61,0.24,17.47,0.49,26.09-1.46c0,0.12,0.12,0.24,0.12,0.36c0.12,0.12,0.12,0.24,0.12,0.36c-0.24,0.24-0.49,0.24-0.73,0.36
						c-0.24,0.12-0.61,0.24-0.85,0.61l-0.12,0.12c-1.82,0.61-5.82,1.94-8.61,2.55c-3.52,0.73-6.43,1.09-9.1,1.21v0.24
						c3.88,0.12,7.89-0.24,12.74-1.33c-4.97,2.31-10.31,4.13-15.41,5.95l-1.7,0.61v0.24c0.61-0.24,1.33-0.36,1.94-0.61
						c5.46-1.58,11.16-3.28,16.5-5.58c-1.94,1.82-3.88,3.76-5.82,5.7c-0.49,0.61-1.09,1.09-1.58,1.7l0.12,0.12l0.12,0.12
						c0.49-0.49,0.97-0.85,1.58-1.33c3.64-3.28,7.4-6.55,11.53-9.34l0.12,0.36c0.49,0.49,0.49,1.21,0.49,1.94
						c0,0.73,0.12,1.58,0.61,2.18h0.12l3.43-2.85c0,0,0,0,0.12,0.12h0.12l0.49-0.49c0.97,1.33,7.35,8.4,8.45,10.7
						c0.62,1.25,0.66,3.7,0.62,5.75c-0.01,0.89-0.05,1.69-0.05,2.29v0.24c0,0.13,0,0.25,0.01,0.36c0,0.16,0.01,0.28,0.04,0.36h-4.19
						c-0.04-0.13-0.05-0.39-0.02-0.73c-0.01-0.04,0-0.08,0-0.12v-0.12c0.08-1.9,0.56-5.84-0.33-7.4c-1.09-1.94-6.26-6.19-9.66-7.89
						h-0.12c0,0.12-4.97,6.55-17.11,8.86c0.12-0.36,0.49-0.97,0.61-2.06l-0.12-0.12c-0.12,0-9.95,2.43-17.11-0.97
						c1.33-0.36,6.55-1.94,9.1-6.67l-0.12-0.12c-0.12,0-10.31,0.85-14.92-6.07c0.85,0.24,3.52,0.97,6.19,0.36v-0.24
						c-0.12,0-10.43-4.73-12.62-10.92c0.73,0.24,2.91,0.73,5.34,0.61l0.12-0.24c0,0-4.85-3.03-6.07-6.19
						c0.36,0.24,0.97,0.49,1.94,0.24v-0.24c0,0-3.88-4.13-3.64-8.01c1.09,0.73,7.77,4.61,10.31,5.1h0.12c0,0,0.85-0.85,0.85-1.58
						c0.85,0.73,4.37,3.76,7.89,3.28l0.12-0.24c-0.12,0-5.82-4.61-7.77-8.74c0.36,0,1.46-0.12,2.18-0.61v-0.24
						c0,0-4.49-3.76-4.97-7.77c0.36,0.24,1.33,0.85,2.43,1.09l0.12-0.24c0,0-3.64-3.88-3.64-7.28c0.24,0.24,0.73,0.73,1.7,0.85
						l0.12-0.12c0-0.12,1.21-7.16,2.18-11.65c0.97-4,0.49-8.74,0.36-9.95c1.33,1.09,7.89,6.79,7.89,9.59l0.12,0.12
						c0,0,0.73-0.24,1.09-1.82c0.36,1.33,1.46,4.97,3.28,5.34h0.12c0,0,1.33-1.58,1.82-4.25c0.97,0.61,6.55,4.49,7.52,10.19
						l0.12,0.12c0.12,0,1.82-0.97,2.91-4.13c0.85,1.09,5.34,7.04,5.7,11.89l0.12,0.12c0.12,0,2.31,0.24,3.52-0.85
						c0.23-0.17,0.4-0.36,0.52-0.58c0.16-0.25,0.27-0.55,0.33-0.87c0.12,0.12,0.36,0.24,0.49,0.12c0.4-0.08,0.69-0.53,0.95-1.38
						c0.05-0.15,0.1-0.32,0.13-0.49c0.08-0.34,0.17-0.73,0.25-1.16c0.41,0.21,1.44,0.59,2.34,0.39c0.16-0.02,0.3-0.07,0.45-0.15
						c0.01,0,0.01-0.01,0.02-0.02c0.59-0.36,0.83-1.08,0.7-2.16c0.04-0.05,0.11-0.16,0.22-0.3c0.1-0.16,0.24-0.38,0.4-0.63
						c0.11-0.17,0.22-0.36,0.33-0.57c0.07-0.15,0.16-0.29,0.23-0.45c0.29-0.59,0.57-1.3,0.76-2.07c0.04-0.18,0.08-0.36,0.11-0.56
						c0.12-0.69,0.15-1.42,0.04-2.17c0-0.05-0.01-0.11-0.02-0.16c0.79,0.72,3.07,2.97,4.48,5.71c0.73,1.46,1.23,3.05,1.13,4.62
						c-0.04,0.49-0.12,0.96-0.27,1.43l0.12,0.12c0,0,0.89,0,1.37-0.74c0.04-0.04,0.06-0.07,0.08-0.11v0.17
						c0,0.45-0.01,1.07-0.05,1.8c-0.02,0.36-0.04,0.75-0.07,1.16c-0.02,0.4-0.06,0.84-0.1,1.27c-0.1,0.93-0.21,1.93-0.36,2.92
						c-0.36,2.33-0.93,4.63-1.84,6.02l0.12,0.12c0,0,0.12,0,0.24,0.24c0.12,0.24,0.12,0.73-0.49,1.94c-0.49,0.85-0.49,1.7-0.61,2.67
						c-0.12,1.46-0.12,3.03-1.82,4.97l0.12,0.12c0.08-0.08,2.17-1.18,3.63-4.3V67.4c0.38-0.83,0.72-1.8,0.96-2.94
						c0.11-0.53,0.21-1.12,0.27-1.74c0.12,0.1,0.32,0.25,0.57,0.49c0.18,0.18,0.41,0.41,0.63,0.7c0.24,0.32,0.5,0.7,0.73,1.18
						c0.01,0.01,0.01,0.02,0.01,0.04c0.25,0.5,0.47,1.09,0.63,1.78c0,0,0,0,0.01,0.01c0.04,0.12,0.06,0.25,0.08,0.39
						C215.45,68.38,215.52,69.67,215.36,71.22z"/>
					<path class="st0" d="M204.2,90.88l-0.61,0.49c0,0.12,0.12,0.12,0.12,0.12C203.96,91.24,204.08,91.12,204.2,90.88
						C204.32,90.88,204.2,90.88,204.2,90.88z"/>
				</g>
			</g>
			<g>
				<g>
					<path class="st0" d="M215.61,55.45h0.61v0.12c-0.24,0-0.36,0-0.61,0C215.61,55.57,215.61,55.57,215.61,55.45z"/>
					<path class="st0" d="M239.38,36.48c2.75-1.97,2.17-7.28,1.94-8.7c-1.21,2.06-4,2.55-4.37,2.67c-0.36,0.61-0.85,0.85-1.33,0.85
						c-0.85-0.12-1.33-1.09-1.58-1.46c-1.09,0.85-1.82,1.21-2.18,0.97c-0.12-0.12-0.24-0.24-0.24-0.36
						c-1.58,1.09-3.64-0.97-3.64-0.97v-0.12c1.94-2.79,2.06-8.01,2.06-9.1c-2.06,1.09-3.4,0.73-3.52,0.73l-0.12-0.12
						c2.06-3.4,0.61-8.13,0.24-9.1c-1.33,1.09-2.79,1.33-2.91,1.33h-0.12c-0.85-0.97,0-3.4,0.49-4.37
						c-0.85,0.61-1.33,0.36-1.33,0.36V8.98c1.21-1.46,0-7.64-0.24-8.98c-0.61,0.73-2.43,3.52-4.73,5.1
						c-2.67,1.94-6.55,5.22-6.55,5.22h-0.12c-0.49-0.49-0.61-0.97-0.61-1.21c-1.46,1.94-1.09,5.7-1.09,5.7l-0.24,0.12
						c-0.61-0.61-0.85-1.33-0.97-1.7c-1.58,2.43-0.61,6.55-0.61,6.55l-0.12,0.12c-0.73-0.12-1.33-0.49-1.58-0.73
						c-0.73,3.15,0.61,8.37,0.61,8.37l-0.12,0.12c-2.18-1.46-2.91-4.61-3.03-5.58c-0.36,0.36-1.21,0.36-1.21,0.36h-0.12
						c-1.33-1.46-3.4-6.67-3.76-7.77c-1.82,1.94-1.46,5.95-1.46,5.95l-0.12,0.12c-0.61-0.36-0.85-0.73-0.97-0.97
						c-0.61,2.31,0.73,6.19,0.73,6.19l-0.12,0.12c-1.46-1.09-2.43-2.43-2.79-2.91c-1.46,4.49,2.43,11.89,2.43,12.01l-0.12,0.12
						c-1.7-0.97-2.91-2.55-3.4-3.15c-0.36,5.95,5.82,10.43,5.95,10.43v0.24c-3.52,1.21-7.16-0.36-8.25-0.85
						c1.84,3.7,5.62,6.53,7.8,7.91c0.97,0.62,1.63,0.95,1.66,0.95v0.24c-0.49,0.49-0.97,0.73-1.21,0.85c1.2,0.7,2.37,1.27,3.46,1.75
						c0.15,0.06,0.29,0.12,0.44,0.18c0.74,0.3,1.46,0.56,2.14,0.76c0.19,0.07,0.39,0.12,0.57,0.18c3.59,1.03,6.13,0.91,7.01,0.81
						c0.22-0.02,0.34-0.05,0.34-0.05h0.12c0.96,2.01,1.38,5,1.41,6.94c0,0.52-0.02,0.97-0.07,1.31c0,0.04-0.01,0.06-0.01,0.1
						c-0.29,1.64-1.81,5.37-2.05,5.97l1.7,1.33c0.27-0.45,1.2-2.29,1.82-3.91c0.01-0.04,0.02-0.07,0.04-0.11
						c0.19-0.52,0.36-1.03,0.45-1.44c0.15-0.72,0.24-2.11,0.33-3.63c0-0.15,0.01-0.3,0.02-0.45c0.01-0.34,0.02-0.68,0.04-1.02
						c0.06-1.88,0.1-3.66,0.1-4.25h-0.49l-0.12-0.12l-0.83-0.08l-1.72-0.16l-0.12-0.12c0-0.61,0.24-0.97,0.61-1.46
						c0.36-0.49,0.61-0.85,0.61-1.33V52.9c-0.59-0.08-1.19-0.15-1.8-0.21c-2.2-0.23-4.4-0.34-6.61-0.38c-0.18,0-0.36-0.01-0.55-0.01
						c-0.66-0.01-1.31-0.01-1.97-0.01h-1.46v-0.24c0.61-0.12,1.09-0.12,1.7-0.12c0.61-0.04,1.24-0.08,1.87-0.11
						c0.17-0.02,0.35-0.02,0.52-0.04c1.09-0.06,2.2-0.1,3.31-0.1c-1.02-0.36-2.04-0.74-3.05-1.14c-0.15-0.06-0.28-0.11-0.41-0.17
						c-2.04-0.83-4.05-1.71-6.03-2.62c-0.85-0.38-1.69-0.78-2.52-1.16l-1.46-0.61l0.12-0.24l1.33,0.49
						c0.89,0.34,1.77,0.69,2.66,1.04c2,0.79,4.02,1.58,6.07,2.31c0.13,0.05,0.27,0.1,0.4,0.13c0.75,0.27,1.52,0.52,2.28,0.76
						c-0.78-0.42-1.52-0.84-2.21-1.26c-0.12-0.07-0.24-0.15-0.35-0.22c-1.31-0.81-2.49-1.64-3.59-2.5c-0.56-0.45-1.09-0.9-1.61-1.36
						l0.12-0.12l0.12-0.12c0.58,0.49,1.19,0.96,1.84,1.43c0.96,0.67,2.01,1.33,3.23,2.03c0.11,0.06,0.22,0.13,0.34,0.19
						c0.13,0.07,0.27,0.16,0.41,0.23c1.69,0.95,4.1,1.99,5.58,2.64c0.23,0.1,0.42,0.18,0.61,0.27h0.12c0.24,0,0.49,0,0.73,0.12
						c0.12,0,0.21,0.02,0.3,0.06c0.1,0.04,0.18,0.06,0.3,0.06c0-0.12,0-0.12,0-0.24c0.12-0.12,0.12-0.12,0.12-0.24
						c-0.16-0.08-0.32-0.17-0.47-0.27c-0.56-0.29-1.09-0.61-1.64-0.92c-2.04-1.23-3.98-2.6-5.84-4.05c-0.1-0.06-0.18-0.13-0.27-0.21
						c-0.89-0.68-1.76-1.4-2.61-2.14c-1.74-1.44-3.42-2.94-5.07-4.43c-0.97-0.85-1.82-1.58-2.79-2.43l0.12-0.12l0.12-0.12
						c0.85,0.73,1.7,1.33,2.55,2.06c1.81,1.43,3.6,2.95,5.47,4.4c0.76,0.62,1.54,1.21,2.32,1.78c0.07,0.06,0.15,0.11,0.21,0.16
						c0.33,0.23,0.66,0.46,0.98,0.69c-0.33-0.28-0.66-0.56-0.97-0.85c-0.79-0.74-1.54-1.52-2.21-2.35c-0.95-1.19-1.74-2.5-2.28-3.96
						l0.24-0.12c0.57,1.35,1.35,2.55,2.27,3.63c1.78,2.1,4.1,3.77,6.49,5.37c0.4,0.28,0.81,0.55,1.23,0.81
						c0.04,0.02,0.06,0.04,0.08,0.06c0.16,0.11,0.33,0.21,0.49,0.32c0.3,0.3,0.66,0.56,1.02,0.79c0.22,0.15,0.45,0.29,0.68,0.42
						v-0.97c-0.04-0.16-0.06-0.32-0.07-0.46c-0.05-0.41-0.05-0.79-0.05-1.24c-1.66-1.46-3.14-2.9-4.5-4.36
						c-0.25-0.24-0.49-0.5-0.72-0.74c-1.41-0.35-2.69-1.15-3.88-2.09c-0.46-0.34-0.9-0.7-1.33-1.07l0.12-0.12l0.12-0.12
						c0.41,0.28,0.81,0.52,1.2,0.75c0.95,0.55,1.82,0.93,2.68,1.19c-0.96-1.15-1.84-2.26-2.65-3.36c-0.73-0.99-1.4-1.97-1.97-2.95
						c-2.55-1.58-4.73-3.76-6.55-5.7l0.12-0.12c1.82,1.7,3.64,3.4,5.7,4.73c-2.06-3.64-3.28-7.16-3.64-10.56h0.24
						c1.09,7.52,6.43,15.65,14.92,22.93v-0.61c0-0.73-0.12-1.33-0.12-1.94c-2.06-1.58-3.28-3.64-3.88-5.1h0.24
						c0.61,0.97,1.21,1.82,2.06,2.67c0.49,0.49,1.09,0.97,1.58,1.33c0-1.33-0.12-2.67-0.24-4c-0.61-0.49-1.09-0.97-1.58-1.46
						c-1.82-1.7-4.13-3.4-6.79-5.34l0.12-0.12v-0.12c1.58,0.97,3.03,1.94,4.49,2.91c-1.21-1.82-1.94-3.52-1.94-5.22h0.24
						c0.24,2.55,1.94,5.1,5.1,7.77c0.12,0.12,0.12,0.12,0.24,0.24c-0.12-1.82-0.36-3.64-0.61-5.34c0-0.24-0.12-0.36-0.24-0.49
						c-0.12-0.12-0.24-0.36-0.36-0.61c-0.49-0.73-0.85-1.33-1.21-1.94c-1.46-2.43-2.79-4.49-4.13-6.43l0.24-0.24
						c0.85,0.97,1.7,2.06,2.43,3.15c-0.61-1.7-0.73-3.15-0.49-4.49h0.24c-0.24,2.43,0.85,5.22,3.28,8.49
						c-0.07-0.45-0.13-0.89-0.18-1.33c0.68-1.46,1.47-2.91,2.37-4.37c-0.49-3.52,2.06-6.43,3.76-8.25l0.12,0.12l0.12,0.12
						c-1.58,2.18-3.03,4.25-3.15,6.79c2.18-3.4,4.25-5.82,6.67-7.64l0.12,0.12l0.12,0.12c-1.21,1.03-2.37,2.24-3.47,3.7
						c-1.1,1.46-2.17,3.15-3.2,5.16c-1.09,2.18-2.18,4.61-3.03,6.55l0.12,0.49l0.12,0.12v0.12c0.24,0.97,0.36,1.82,0.49,2.91
						c0.61-0.97,1.33-1.94,1.94-2.79c0.97-1.33,1.82-2.43,2.67-3.52c-0.24-1.46,0-2.79,0.49-3.88h0.24
						c-0.12,0.61-0.24,1.33-0.24,1.94c0,0.36,0,0.73,0.12,1.21c0.97-1.09,1.94-2.18,3.03-3.15c-0.24-1.58,0.24-2.91,1.09-3.76
						l0.24,0.24c-0.61,0.85-0.97,1.94-0.85,3.28c0.85-0.85,1.58-1.46,2.18-1.94l0.24,0.24c-2.67,2.43-5.1,5.34-7.64,9.22
						c2.55-0.36,4.73-1.58,6.55-3.15l0.12,0.12l0.12,0.12c-1.82,2.18-4.49,3.76-7.52,4.37c-0.61,1.09-1.33,2.18-2.18,3.64
						c0.12,0.61,0.12,1.21,0.24,2.06c1.21-1.58,2.31-2.91,4-3.76l0.12,0.24c-1.7,1.09-2.67,2.91-3.64,4.73
						c0,0.12-0.12,0.36-0.24,0.49c0.12,0.85,0.12,1.58,0.24,2.31c0.97-1.33,2.12-2.81,3.48-4.19c1.37-1.37,2.95-2.61,4.77-3.46
						c1.09-0.61,2.18-1.82,1.82-3.64h0.24c0.36,1.21,0.12,2.31-0.73,3.28c1.21-0.36,2.55-0.61,3.88-0.61v0.12
						c-3.32,0.12-5.97,1.54-8.14,3.59c-1.75,1.64-3.19,3.66-4.45,5.75c-0.02,0.04-0.04,0.08-0.07,0.13
						c-0.19,0.33-0.38,0.64-0.56,0.96c0.01,0.11,0.02,0.23,0.04,0.34c0.11,1.23,0.22,2.44,0.33,3.66c1.12-0.79,2.16-1.64,3.17-2.51
						c0.06-0.05,0.12-0.11,0.18-0.16c0.8-0.69,1.58-1.38,2.35-2.06c0.13-0.12,0.25-0.23,0.39-0.35c1.2-1.09,2.43-2.18,3.74-3.17
						c1.21-0.85,2.43-1.46,3.64-1.94c0.36-1.33,1.33-2.55,2.67-3.64l0.12,0.12c-0.49,0.49-0.97,1.09-1.33,1.7
						c-0.24,0.49-0.49,0.85-0.61,1.33c0.61-0.24,1.33-0.61,2.06-0.97c2.06-1.09,4-2.55,5.7-4.25l0.12,0.12
						c-1.7,1.94-3.64,3.4-5.58,4.49c-0.85,0.49-1.7,0.97-2.55,1.33c-2.43,1.21-4.61,2.43-6.31,4.49c-0.34,0.42-0.74,0.79-1.16,1.19
						c-0.17,0.16-0.35,0.33-0.53,0.51c0.23-0.02,0.47-0.06,0.72-0.08c0.78-0.08,1.64-0.16,2.56-0.16v0.24
						c-0.85,0.12-1.7,0.24-2.55,0.49l-0.01,0.01c-0.96,0.35-1.57,0.59-2.17,0.96c-0.36,0.33-0.73,0.66-1.1,0.98l-0.25,0.22
						c-0.93,0.8-1.92,1.59-2.89,2.32v1.09c1.18-0.17,2.26-0.4,3.24-0.69c0.11-0.02,0.22-0.05,0.33-0.08
						c1.7-0.53,3.13-1.24,4.32-2.14l0.24,0.24c-1.13,1.13-2.6,2.03-4.38,2.75c-0.12,0.05-0.23,0.08-0.35,0.13
						c-0.99,0.38-2.09,0.7-3.28,0.99c0,0.12-0.12,0.36-0.12,0.61c-0.12,0.24-0.12,0.36-0.12,0.61c1.36-0.04,2.67-0.15,3.92-0.34
						c0.15-0.02,0.29-0.05,0.44-0.07c3.07-0.51,5.73-1.49,7.73-2.88c0.06-0.04,0.11-0.07,0.17-0.11l0.12,0.12l0.12,0.12
						c-0.08,0.07-0.16,0.13-0.24,0.19c-1.98,1.59-4.48,2.68-7.64,3.4c-0.16,0.04-0.32,0.06-0.47,0.1c-0.32,0.07-0.64,0.13-0.98,0.19
						c-0.61,0.12-1.46,0.12-2.18,0.12h-1.09c0,0.36-0.12,0.73-0.24,1.09c-0.12,0.36-0.24,0.61-0.24,0.85h0.49l0.12,0.12
						c1.71-0.06,3.28-0.24,4.68-0.52c0.21-0.04,0.4-0.07,0.59-0.12c0.79-0.16,1.53-0.35,2.21-0.57c0.12-0.04,0.24-0.07,0.36-0.11
						c3.24-1.04,5.37-2.44,6.45-3.29c0.58-0.44,0.86-0.73,0.86-0.73c2.91-2.79,2.43-5.22,2.18-5.82c-3.52,3.28-6.79,2.43-6.92,2.43
						v-0.24c1.82-0.24,2.55-1.09,3.28-1.82c0.49-0.36,0.97-0.85,1.58-1.09c0.85-0.24,1.09-0.61,1.09-0.73v-0.36
						c2.55-0.73,6.31-4.73,7.4-5.95C239.84,36.57,239.58,36.51,239.38,36.48z M212.53,20.78c-0.66-2.94-1.16-5.96-1.06-8.77h0.24
						c0,2.23,0.51,4.47,1.1,6.77C212.69,19.45,212.61,20.12,212.53,20.78z M214.6,12.99c-0.13,0.3-0.27,0.62-0.38,0.93
						c-0.13-0.95-0.11-1.84,0.29-2.64l0.24,0.12C214.56,11.91,214.54,12.46,214.6,12.99z M214.73,7.81l-0.1-0.05h0.12
						C214.74,7.78,214.74,7.8,214.73,7.81z M215.63,9.54c0.73-1.1,1.57-2.21,2.4-3.23l0.24,0.24c-0.98,1.27-1.81,2.55-2.52,3.89
						C215.66,10.12,215.63,9.82,215.63,9.54z M216.21,11.78v-0.01c-0.06-0.13-0.12-0.28-0.16-0.4c1.29-0.1,2.24-0.45,2.95-1.06
						l0.24,0.24C218.56,11.24,217.57,11.6,216.21,11.78z"/>
					<path class="st0" d="M215.61,55.45v0.12c0.24,0,0.36,0,0.61,0v-0.12H215.61z"/>
				</g>
			</g>
			<g>
				<g>
					<path class="st0" d="M216.39,109.32c-0.01,0.05-0.02,0.08-0.04,0.12c-0.01,0.05-0.02,0.08-0.04,0.12
						c-0.05,0.16-0.08,0.28-0.11,0.36h-2.91c0.01-0.08,0.04-0.21,0.06-0.36c0.01-0.04,0.01-0.07,0.02-0.12
						c0.01-0.04,0.01-0.07,0.02-0.12c0.11-0.55,0.28-1.37,0.5-2.29c-0.01,0.89-0.05,1.69-0.05,2.29H216.39z"/>
					<path class="st0" d="M225.55,75.95c0.36,2.67,0.73,5.22,1.33,7.89c-0.24,0.24-0.36,0.36-0.49,0.61
						c-0.12,0.24-0.36,0.36-0.49,0.49c-3.03-3.64-4.85-7.04-5.58-10.43h-0.24c0.36,3.64,1.94,7.4,4.85,11.53
						c-0.24,0.24-0.36,0.61-0.49,0.85c-0.12,0.24-0.24,0.61-0.36,0.73c-4.51-4.4-7.77-9.22-9.17-13.88
						c-0.11-0.35-0.21-0.69-0.29-1.04h-0.24c0.1,0.57,0.22,1.14,0.36,1.71c0.38,1.49,0.91,3.02,1.7,4.6c0.97,2.06,2.31,4.25,4,6.43
						c0.49,0.61,1.21,1.33,2.06,2.06c0.36,0.36,0.73,0.73,1.09,1.09c-0.24,0.36-0.49,0.85-0.61,1.33c-0.12,0.36-0.24,0.85-0.49,1.09
						l-0.49-0.36h-0.12c-4.42-4.37-7.01-8.74-8.54-12.24c-0.98-2.27-1.53-4.19-1.81-5.52c-0.02-0.07-0.04-0.13-0.05-0.19
						c-0.23-1.13-0.28-1.78-0.28-1.82c-0.11-1.33-0.06-2.48,0.11-3.45V67.4c0.19-1.23,0.55-2.2,0.96-2.94
						c0.28-0.52,0.57-0.93,0.84-1.25c0.29-0.33,0.53-0.56,0.72-0.7c0.07-0.06,0.12-0.11,0.17-0.15c0.1,1.01,0.27,1.92,0.47,2.73
						c0.01,0.01,0.01,0.02,0.01,0.04c0.18,0.66,0.4,1.24,0.63,1.78c0,0,0,0,0.01,0.01c0.04,0.1,0.08,0.18,0.12,0.28
						c1.35,2.86,3.26,3.97,3.6,4.14l0.12-0.12c-1.7-2.06-1.82-3.64-1.82-4.97c0-0.85-0.12-1.82-0.61-2.67
						c-0.34-0.68-0.49-1.14-0.52-1.44c-0.04-0.21-0.02-0.34,0.02-0.45c0-0.01,0-0.04,0.01-0.05c0.12-0.12,0.24-0.24,0.24-0.24
						l0.12-0.12c-0.12-0.18-0.24-0.39-0.34-0.61c-0.61-1.18-1.03-2.77-1.33-4.45c-0.27-1.46-0.45-2.98-0.57-4.34
						c-0.01-0.24-0.04-0.47-0.05-0.69c-0.05-0.58-0.07-1.13-0.08-1.61c-0.04-0.69-0.05-1.25-0.05-1.64c0.18,0.3,0.41,0.51,0.66,0.63
						c0.4,0.22,0.8,0.22,0.8,0.22l0.12-0.12c-0.51-1.49-0.35-3.05,0.16-4.51c0.15-0.45,0.33-0.87,0.52-1.3
						c0.04-0.05,0.05-0.1,0.07-0.13c1.4-2.8,3.74-5.1,4.46-5.82c0,0.02-0.01,0.05-0.01,0.07c-0.39,2.32,0.62,4.5,1.37,5.76
						c0.21,0.35,0.39,0.62,0.51,0.81c0.1,0.13,0.16,0.22,0.19,0.27c-0.01,0.05-0.01,0.11-0.01,0.16c-0.02,0.21-0.02,0.4,0,0.58
						c0.02,0.69,0.28,1.16,0.74,1.44c0.85,0.61,2.31,0,2.79-0.24c0.36,1.94,0.73,2.91,1.33,3.03c0.24,0,0.36-0.12,0.49-0.12
						c0.05,0.22,0.1,0.41,0.19,0.59c0.04,0.11,0.08,0.22,0.17,0.33c0.11,0.19,0.28,0.38,0.49,0.53c0.44,0.4,1.01,0.62,1.57,0.73
						c-1.08,0.85-3.22,2.24-6.45,3.29c-0.05-0.44-0.11-0.89-0.21-1.35h-0.24c0.06,0.46,0.08,0.95,0.08,1.46
						c-0.01,0.56-0.07,1.13-0.21,1.7c-0.12,0.85-0.36,1.58-0.61,2.18c-0.49-0.97-0.85-2.06-1.33-3.15c-0.02-0.05-0.05-0.1-0.06-0.16
						c-0.24-0.59-0.46-1.2-0.67-1.83c-0.1-0.28-0.18-0.56-0.25-0.85c-0.18-0.63-0.35-1.27-0.49-1.93c-0.07-0.28-0.12-0.57-0.18-0.86
						c-0.17-0.92-0.32-1.88-0.42-2.85c-0.04-0.45-0.07-0.9-0.11-1.35h-0.24c0,0.05,0,0.11,0.01,0.16c0.01,0.47,0.04,0.95,0.08,1.41
						c0.07,0.92,0.19,1.83,0.35,2.72c0.04,0.3,0.1,0.61,0.16,0.91c0.11,0.63,0.25,1.26,0.4,1.87c0.07,0.3,0.15,0.59,0.22,0.87
						c0.17,0.63,0.35,1.25,0.55,1.86c0.01,0.05,0.04,0.11,0.05,0.16c0.49,1.21,0.97,2.55,1.46,3.76c0.67,1.76,1.3,3.49,1.77,5.24
						c0.47,1.77,0.78,3.55,0.78,5.44c0.12,1.09,0.12,2.18,0.24,3.52c-0.85-1.09-1.82-2.31-3.15-3.4l-0.12,0.12l-0.12,0.12
						c0.85,0.97,1.58,1.94,2.18,2.91C224.82,74.01,225.31,74.98,225.55,75.95z"/>
					<path class="st0" d="M274.08,75.83c-2.18,6.19-12.5,10.92-12.62,10.92v0.24c2.55,0.49,5.22-0.12,6.19-0.36
						c-4.61,6.92-14.8,6.07-14.92,6.07h-0.36c2.55,4.61,7.77,6.31,9.1,6.67c-7.16,3.4-16.99,0.97-17.11,0.97l-0.12,0.12
						c0.12,1.09,0.49,1.82,0.61,2.06c-12.13-2.31-17.11-8.86-17.11-8.86h-0.12c-3.28,1.7-7.58,5.71-8.79,7.65
						c-0.95,1.67-1.17,6.42-1.7,8.15l-3.85-0.03c0-0.61,0.04-1.41,0.05-2.29c0.45-1.84,0.89-5.16,1.52-6.41
						c1.13-2.15,6.13-8.03,7.52-9.93l-0.08-0.12l0.04-0.02c0,0,0,0,0.01-0.01c0.01,0,0.01-0.01,0.02-0.01
						c0-0.02,0.02-0.04,0.04-0.06l0.01-0.01l1.28,0.76l0.04,0.02l0.05,0.04l2.74,2.03h0.12c0.49-0.61,0.61-1.33,0.61-2.18
						c0-0.73,0.12-1.46,0.49-1.94l0.12-0.24c4.13,2.79,7.89,6.07,11.53,9.34c0.49,0.49,0.97,0.85,1.58,1.33l0.24-0.24
						c-0.61-0.61-1.09-1.09-1.58-1.7c-1.82-1.94-3.76-3.88-5.82-5.7c5.34,2.31,11.04,3.88,16.5,5.58c0.61,0.24,1.33,0.36,1.94,0.61
						v-0.24l-1.7-0.61c-5.1-1.82-10.43-3.64-15.41-5.95c4.73,1.09,8.86,1.46,12.74,1.33V92.7c-2.79,0-5.58-0.36-9.1-1.21
						c-2.79-0.61-6.79-1.82-8.61-2.55c0,0,0,0-0.12-0.12c-0.36-0.24-0.61-0.36-0.97-0.61c-0.24-0.12-0.49-0.24-0.73-0.36
						c0-0.12,0.12-0.24,0.12-0.36c0-0.12,0.12-0.24,0.12-0.36c8.49,2.06,17.47,1.7,26.09,1.46c1.58,0,3.15-0.12,4.73-0.12v-0.24
						h-4.25c-5.34,0-10.8-0.12-16.14-0.61c4.25,0,8.61-0.49,12.5-2.79v-0.24c-5.95,3.15-12.62,2.31-19.29,1.46
						c-0.97-0.12-1.94-0.24-2.79-0.36l0.97-1.21c0.49-0.61,0.97-1.21,1.46-1.82c3.28-0.12,6.55-0.36,9.59-0.73
						c2.31,1.33,5.1,1.46,7.77,1.33v-0.24c-2.31-0.24-4-0.73-5.58-1.33c-0.12,0-0.12-0.12-0.24-0.12c3.52-0.61,6.92-1.58,9.95-2.67
						c3.88,0.61,7.89,0.12,11.28-0.24v-0.24c-3.4,0.24-6.67,0.36-9.83-0.12c5.1-2.06,9.34-4.85,12.62-8.13l-0.12-0.12l-0.12-0.12
						c-7.52,7.16-19.78,11.16-34.46,11.28l0.61-0.73c0.61-0.61,1.09-1.33,1.7-1.94c3.4,0.24,6.31-0.97,8.25-1.94v-0.24
						c-1.46,0.61-2.91,0.97-4.37,1.09c-0.97,0.12-1.94,0.12-2.79,0c1.33-1.46,2.55-2.91,3.76-4.25c0.97,0,1.82-0.12,2.79-0.24
						c3.4-0.12,7.04,0,11.4,0.49v-0.24c-2.55-0.49-4.85-0.73-7.16-0.97c2.91-0.85,5.1-2.18,6.55-4l-0.12-0.12l-0.12-0.12
						c-2.43,2.55-6.31,3.76-11.65,3.76h-0.49c1.7-1.94,3.52-3.76,5.22-5.46c0.24-0.12,0.49-0.12,0.61-0.24
						c0.36-0.12,0.61-0.24,0.97-0.36c1.09-0.36,1.94-0.61,2.79-0.97c3.52-1.21,6.67-2.31,9.59-3.15v-0.24
						c-1.82,0.36-3.64,0.85-5.46,1.33c2.06-1.33,3.52-2.91,4.49-4.61h-0.12l-0.12-0.12c-1.82,2.91-5.34,4.97-10.68,6.31
						c2.18-2.06,4.13-4.37,5.7-6.92c0.36-0.24,0.61-0.61,0.97-0.85c3.28-2.79,6.67-5.7,9.1-9.22l-0.12-0.12l-0.12-0.12
						c-2.31,2.79-5.34,5.22-8.49,7.64c1.09-2.06,1.94-4.25,2.67-6.55c1.58-1.21,3.03-2.67,3.4-4.37h-0.24
						c-0.49,1.33-1.7,2.43-2.79,3.28c0.36-1.33,0.73-2.79,0.97-4.25c1.94-1.09,2.91-2.18,3.03-3.52h-0.24
						c-0.24,1.09-1.09,2.06-2.67,2.91c0.36-2.43,0.61-4.97,0.61-7.52h-0.24c-0.12,2.79-0.36,5.46-0.97,8.13
						c-1.7-1.58-2.67-3.15-3.03-4.73h-0.24c0.24,1.7,1.21,3.4,3.03,5.22c-1.09,4.85-3.03,9.22-5.58,13.1
						c-1.58,2.43-3.52,4.61-5.7,6.55c0.49-2.43,1.09-4.97,1.46-7.64c3.4-3.52,3.28-8.98,3.15-12.5h-0.24
						c-0.24,3.88-0.49,7.64-2.67,10.43c0.73-5.58,0.61-10.19-0.24-14.44h-0.24c0.73,4.61,0.49,9.59-0.73,15.89
						c-0.73,3.52-1.7,7.04-2.43,9.95l-0.49,0.49c-0.12,0-0.24,0-0.24,0.12l-0.12,0.12v0.12c-0.97,0.97-2.06,1.94-2.91,2.79
						c0.12-1.7,0.36-3.4,0.36-4.97c0.12-2.18,0.24-4.25,0.24-6.19c1.46-1.33,2.43-2.91,2.79-4.61h-0.24
						c-0.36,0.85-0.73,1.58-1.33,2.31c-0.36,0.49-0.73,0.85-1.21,1.33c0-2.18-0.12-4.25-0.24-6.31c1.46-1.58,2.18-3.4,2.06-5.1
						h-0.24c0,1.46-0.61,3.03-1.94,4.49c-0.24-1.7-0.36-3.03-0.61-4.13h-0.24c0.61,5.1,0.61,10.56-0.12,17.23
						c-2.18-2.79-3.52-6.19-4-9.59h-0.24c0.12,4.13,1.46,8.25,4,11.65c-0.24,1.7-0.49,3.64-0.85,5.95l-2.06,2.06
						c0.12-2.67,0.12-5.34-0.73-7.77l-0.24,0.12c0.73,2.79,0.12,5.7-0.36,8.49c0,0.24-0.12,0.61-0.12,0.85
						c-0.73,0.73-1.46,1.58-2.18,2.31c0.36-4.73,0.49-10.8-1.82-16.02c-0.22-0.61-0.35-1.31-0.35-2.04c0-1.29,0.44-2.66,1.69-3.66
						l-0.12-0.12l-0.12-0.12c-1.33,0.97-2.06,2.55-1.94,4.37c-0.97-1.7-2.06-3.15-3.52-4.37l-0.12,0.12l-0.12,0.12
						c6.31,6.19,5.82,15.41,4.49,23.54c-1.21,1.46-2.55,2.79-3.76,4.13c-0.85-3.4-1.33-6.92-1.7-10.31
						c-0.36-2.43-0.61-4.97-1.09-7.52c-0.49-1.82-1.21-3.64-2.06-5.34c0.59-1.47,0.78-3.11,0.57-4.96c3.24-1.04,5.37-2.44,6.45-3.29
						c0.97,0.22,1.88,0.12,1.95,0.12l0.12-0.12c0.36-4.85,4.85-10.8,5.7-11.89c0.97,3.15,2.79,4.13,2.91,4.13l0.12-0.12
						c0.97-5.7,6.55-9.59,7.52-10.19c0.36,2.55,1.82,4.13,1.82,4.25h0.12c1.82-0.36,2.91-4,3.28-5.34c0.36,1.58,1.09,1.7,1.09,1.82
						l0.12-0.12c0-2.79,6.55-8.49,7.89-9.59c-0.12,1.21-0.61,5.95,0.36,9.95c1.09,4.49,2.18,11.65,2.18,11.65l0.12,0.12
						c0.85-0.12,1.46-0.49,1.7-0.85c-0.12,3.4-3.64,7.28-3.64,7.28l0.12,0.24c0.97-0.12,1.94-0.73,2.43-1.09
						c-0.49,4-4.97,7.77-4.97,7.77v0.24c0.73,0.61,1.82,0.61,2.18,0.61c-1.94,4.13-7.64,8.61-7.77,8.74l0.12,0.24
						c3.52,0.36,7.04-2.55,7.89-3.28c0.12,0.73,0.85,1.58,0.85,1.58h0.12c2.55-0.49,9.22-4.37,10.31-5.1
						c0.24,3.88-3.64,7.89-3.64,8.01v0.24c0.97,0.24,1.58,0.12,1.94-0.24c-0.24,3.28-4.97,6.31-4.97,6.31l0.12,0.24
						C271.17,76.56,273.36,75.95,274.08,75.83z"/>
				</g>
			</g>
			<g>
				<rect x="206.99" y="109.44" class="st0" width="13.59" height="1.21"/>
				<path class="st0" d="M220.58,109.32h-13.59l-0.12,0.12v1.21l0.12,0.12h13.59l0.12-1.33L220.58,109.32z M220.46,110.53h-13.35
					v-0.97h13.35V110.53z"/>
			</g>
		</g>
	</g>
</g>
</svg>
