<svg width="250" height="160" viewBox="0 0 250 160" fill="none" xmlns="http://www.w3.org/2000/svg">
<g id="Group">
<g id="Group_2">
<g id="Group_3">
<g id="Group_4">
<path id="Vector" d="M94.5981 94.3568H0V96.6632H94.5981V94.3568Z" fill="#ECDBC7"/>
<path id="Vector_2" d="M249.986 94.3568H155.388V96.6632H249.986V94.3568Z" fill="#ECDBC7"/>
</g>
<g id="Group_5">
<path id="Vector_3" d="M78.3042 154.117H0V156.424H78.3042V154.117Z" fill="#ECDBC7"/>
<path id="Vector_4" d="M249.986 154.117H171.682V156.424H249.986V154.117Z" fill="#ECDBC7"/>
</g>
<g id="Group_6">
<path id="Vector_5" d="M95.095 150.278C94.3569 149.852 93.5053 149.64 92.5331 149.64C91.5679 149.64 90.7234 149.852 89.9854 150.271C89.2473 150.69 88.6654 151.279 88.2467 152.024C87.828 152.769 87.6151 153.635 87.6151 154.614C87.6151 155.579 87.828 156.431 88.2467 157.176C88.6654 157.921 89.2544 158.51 89.9996 158.936C90.7447 159.362 91.6034 159.575 92.5757 159.575C93.5266 159.575 94.3711 159.362 95.1092 158.936C95.8472 158.51 96.422 157.921 96.8407 157.176C97.2594 156.431 97.4652 155.572 97.4652 154.614C97.4652 153.642 97.2523 152.783 96.8336 152.038C96.4149 151.293 95.833 150.704 95.095 150.278ZM95.1659 156.296C94.9104 156.779 94.5627 157.162 94.1227 157.446C93.6756 157.723 93.1647 157.865 92.5757 157.865C91.9795 157.865 91.4544 157.723 90.9931 157.446C90.5318 157.169 90.177 156.786 89.9215 156.296C89.666 155.814 89.5383 155.253 89.5383 154.621C89.5383 153.983 89.666 153.415 89.9215 152.932C90.177 152.45 90.5318 152.067 90.986 151.783C91.4402 151.506 91.9582 151.364 92.5331 151.364C93.1292 151.364 93.6543 151.506 94.1014 151.783C94.5485 152.059 94.9033 152.443 95.1588 152.932C95.4143 153.415 95.542 153.983 95.542 154.621C95.542 155.246 95.4214 155.806 95.1659 156.296Z" fill="#ECDBC7"/>
<path id="Vector_6" d="M105.115 149.789H103.355H103.235L99.4379 159.412H101.432L102.241 157.297H106.229L107.038 159.412H109.033L105.236 149.789H105.115ZM102.873 155.636L104.228 152.088L105.584 155.636H102.873Z" fill="#ECDBC7"/>
<path id="Vector_7" d="M119.415 149.789H116.981L113.418 153.599V149.789H111.559V159.412H113.418V156.204L114.128 155.445L117.236 159.412H119.564L115.356 154.132L119.415 149.789Z" fill="#ECDBC7"/>
<path id="Vector_8" d="M126.015 157.261L123.176 149.789H121.161L124.993 159.412H125.199H126.838H127.044L130.862 149.789H128.847L126.015 157.261Z" fill="#ECDBC7"/>
<path id="Vector_9" d="M135.276 149.789H133.395V159.412H135.276V149.789Z" fill="#ECDBC7"/>
<path id="Vector_10" d="M140.627 149.789H138.739V159.412H144.864V157.694H140.627V149.789Z" fill="#ECDBC7"/>
<path id="Vector_11" d="M149.384 149.789H147.496V159.412H153.621V157.694H149.384V149.789Z" fill="#ECDBC7"/>
<path id="Vector_12" d="M158.141 157.694V155.374H161.768V153.699H158.141V151.513H162.35V149.789H156.261V159.412H162.406V157.694H158.141Z" fill="#ECDBC7"/>
</g>
<g id="Group_7">
<path id="Vector_13" d="M21.9002 110.629C19.977 109.011 17.039 108.202 13.1004 108.202C12.5681 108.202 11.6598 108.216 10.3682 108.245C9.07659 108.273 7.70694 108.287 6.26632 108.287C5.11667 108.287 3.97411 108.273 2.82446 108.245C1.6748 108.216 0.738049 108.188 0 108.16V109.04C0.972238 109.068 1.69609 109.182 2.18576 109.373C2.66833 109.565 2.99478 109.92 3.158 110.431C3.32122 110.949 3.39928 111.751 3.39928 112.836V134.715C3.39928 135.773 3.32122 136.567 3.158 137.1C2.99478 137.632 2.67543 137.98 2.18576 138.157C1.70319 138.335 0.972238 138.448 0 138.512V139.392C0.851595 139.335 1.85222 139.3 3.00187 139.278C4.15153 139.264 5.33666 139.257 6.57148 139.257C8.01209 139.257 9.41013 139.264 10.7585 139.278C12.1068 139.293 13.2139 139.328 14.0655 139.392V138.469C12.8023 138.441 11.8301 138.335 11.1559 138.157C10.4817 137.98 10.0204 137.611 9.78625 137.057C9.55206 136.497 9.43142 135.659 9.43142 134.545V126.781H12.121C14.6474 126.781 16.7268 126.476 18.359 125.852C19.9912 125.234 21.2757 124.432 22.2195 123.446C23.1634 122.459 23.8234 121.388 24.2066 120.224C24.5898 119.06 24.7814 117.953 24.7814 116.896C24.7885 114.334 23.8234 112.247 21.9002 110.629ZM17.9261 121.565C17.5854 122.857 16.9255 123.9 15.939 124.695C14.9526 125.49 13.5333 125.887 11.681 125.887H9.43851V112.836C9.43851 111.311 9.62303 110.296 9.99205 109.792C10.3611 109.295 11.1488 109.04 12.3552 109.04C14.5907 109.04 16.159 109.728 17.0745 111.112C17.9829 112.496 18.4441 114.582 18.4441 117.378C18.437 118.876 18.2667 120.274 17.9261 121.565Z" fill="#ECDBC7"/>
<path id="Vector_14" d="M59.2357 137.731C58.9447 137.951 58.5899 138.065 58.1783 138.065C57.5892 138.093 57.1421 137.852 56.837 137.334C56.5247 136.823 56.2409 135.957 55.9783 134.751L54.9635 130.209C54.5803 128.385 53.8067 127.03 52.65 126.128C51.4861 125.234 49.6907 124.666 47.2495 124.432C47.1714 124.418 47.0791 124.411 46.994 124.397C48.1578 124.262 49.1939 124.049 50.0952 123.751C51.7274 123.205 53.0119 122.509 53.9558 121.658C54.8996 120.806 55.5596 119.869 55.9428 118.854C56.326 117.84 56.5176 116.846 56.5176 115.874C56.5176 114.312 56.0918 112.964 55.2403 111.814C54.3887 110.665 53.1042 109.778 51.3797 109.146C49.6623 108.515 47.4765 108.195 44.8295 108.195C44.2973 108.195 43.3889 108.209 42.0973 108.238C40.8057 108.266 39.4361 108.28 37.9954 108.28C36.8458 108.28 35.7032 108.266 34.5536 108.238C33.4039 108.209 32.4672 108.181 31.7291 108.153V109.033C32.7014 109.061 33.4252 109.175 33.9149 109.366C34.3975 109.558 34.7239 109.913 34.8871 110.424C35.0503 110.942 35.1284 111.744 35.1284 112.829V134.708C35.1284 135.766 35.0503 136.56 34.8871 137.093C34.7239 137.625 34.4046 137.973 33.9149 138.15C33.4323 138.327 32.7014 138.441 31.7291 138.505V139.385C32.4601 139.328 33.4039 139.293 34.5536 139.271C35.7032 139.257 36.9381 139.25 38.258 139.25C39.4361 139.25 40.5928 139.257 41.7425 139.271C42.8921 139.286 43.8289 139.321 44.5669 139.385V138.505C43.6231 138.448 42.9134 138.327 42.4308 138.15C41.9483 137.973 41.6147 137.618 41.4373 137.093C41.2599 136.56 41.1747 135.773 41.1747 134.708V124.567H43.8644H44.4818C45.5108 124.567 46.2914 124.83 46.8166 125.362C47.3488 125.894 47.7675 126.625 48.0727 127.569C48.3778 128.513 48.6546 129.599 48.8888 130.833L49.7262 135.24C50.081 137.093 50.741 138.349 51.7132 139.009C52.6855 139.669 53.8777 140.002 55.2828 140.002C56.546 140.002 57.5892 139.789 58.4124 139.364C59.2357 138.938 60.0163 138.271 60.7472 137.355L60.1298 136.823C59.8176 137.213 59.5266 137.511 59.2357 137.731ZM41.6999 109.792C42.0689 109.295 42.8566 109.04 44.0631 109.04C46.2985 109.04 47.8669 109.678 48.7823 110.956C49.6907 112.233 50.152 114.036 50.152 116.356C50.152 117.712 49.9817 118.939 49.6481 120.039C49.3075 121.139 48.6475 122.027 47.6611 122.687C46.6746 123.347 45.2553 123.68 43.4031 123.68H41.1535V112.836C41.1464 111.304 41.3309 110.289 41.6999 109.792Z" fill="#ECDBC7"/>
<path id="Vector_15" d="M89.6233 133.033C89.6233 131.593 89.6659 130.415 89.7582 129.506H88.7434C88.4524 131.742 87.9911 133.495 87.3737 134.779C86.7563 136.057 85.9402 136.979 84.9254 137.533C83.9105 138.093 82.6544 138.37 81.1571 138.37H78.6448C77.7294 138.37 77.0481 138.299 76.5939 138.15C76.1397 138.001 75.8275 137.696 75.6714 137.228C75.5081 136.759 75.4301 136.035 75.4301 135.063V124.127H77.3746C78.6094 124.127 79.5603 124.397 80.2203 124.943C80.8803 125.49 81.37 126.206 81.6751 127.108C81.9803 128.002 82.2145 128.953 82.3564 129.953H83.3712C83.2506 128.279 83.1796 127.001 83.1512 126.114C83.1228 125.234 83.1086 124.425 83.1086 123.687C83.1086 122.949 83.1015 122.14 83.0873 121.26C83.0731 120.38 83.1228 119.096 83.2435 117.421H82.2286C82.1435 118.01 82.0016 118.634 81.8099 119.294C81.6183 119.954 81.3487 120.586 80.9938 121.189C80.639 121.792 80.1777 122.282 79.6029 122.665C79.0281 123.048 78.29 123.24 77.3746 123.24H75.4301V112.482C75.4301 111.509 75.5081 110.793 75.6714 110.317C75.8346 109.849 76.1397 109.536 76.5939 109.387C77.0481 109.238 77.7365 109.167 78.6448 109.167H81.0719C82.5125 109.167 83.6835 109.409 84.5776 109.898C85.4718 110.381 86.1886 111.204 86.7137 112.368C87.246 113.532 87.6221 115.122 87.8634 117.151H88.8782C88.8498 116.796 88.8214 116.363 88.793 115.852C88.7646 115.342 88.7504 114.802 88.7504 114.242C88.7504 113.653 88.7717 112.794 88.8143 111.658C88.8569 110.53 88.9421 109.359 89.0556 108.153C87.7001 108.209 86.1673 108.245 84.4499 108.266C82.7325 108.28 81.1925 108.287 79.8442 108.287C79.1416 108.287 78.2403 108.287 77.1546 108.287C76.0688 108.287 74.8836 108.28 73.6062 108.266C72.3289 108.252 71.0302 108.238 69.7244 108.224C68.4186 108.209 67.1696 108.188 65.9987 108.16V109.04C66.9709 109.068 67.6948 109.182 68.1844 109.373C68.667 109.565 68.9934 109.92 69.1567 110.431C69.3199 110.949 69.3979 111.751 69.3979 112.836V134.715C69.3979 135.773 69.3199 136.568 69.1567 137.1C68.9934 137.632 68.6741 137.98 68.1844 138.157C67.7018 138.335 66.9709 138.448 65.9987 138.512V139.392C67.1767 139.364 68.4186 139.342 69.7244 139.328C71.0302 139.314 72.3218 139.3 73.585 139.286C74.8482 139.271 76.0333 139.264 77.1333 139.264C78.2332 139.264 79.1416 139.264 79.8442 139.264C81.3132 139.264 82.988 139.271 84.8757 139.286C86.7563 139.3 88.4453 139.335 89.9498 139.399C89.8291 138.136 89.7511 136.915 89.7085 135.737C89.6446 134.552 89.6233 133.651 89.6233 133.033Z" fill="#ECDBC7"/>
<path id="Vector_16" d="M115.817 124.326C114.667 123.396 113.376 122.467 111.935 121.523C110.374 120.522 109.033 119.635 107.897 118.854C106.762 118.074 105.889 117.265 105.272 116.427C104.654 115.59 104.349 114.554 104.349 113.319C104.349 111.878 104.824 110.729 105.782 109.877C106.741 109.025 107.933 108.6 109.373 108.6C110.991 108.6 112.318 109.047 113.362 109.948C114.405 110.842 115.214 111.985 115.789 113.369C116.364 114.752 116.69 116.193 116.782 117.69H117.804C117.804 115.689 117.811 114.078 117.825 112.865C117.84 111.644 117.868 110.665 117.911 109.934C117.953 109.203 117.989 108.55 118.017 107.996H117.002C116.917 108.642 116.804 109.132 116.669 109.451C116.534 109.778 116.321 109.934 116.03 109.934C115.824 109.934 115.611 109.884 115.391 109.778C115.171 109.678 114.88 109.522 114.533 109.316C113.887 108.905 113.12 108.522 112.24 108.167C111.36 107.812 110.097 107.635 108.451 107.635C106.833 107.635 105.314 107.911 103.888 108.472C102.461 109.033 101.304 109.891 100.425 111.055C99.5445 112.219 99.1045 113.709 99.1045 115.533C99.1045 117.18 99.4665 118.585 100.183 119.749C100.9 120.912 101.865 121.948 103.072 122.857C104.278 123.765 105.57 124.666 106.953 125.546C108.302 126.37 109.48 127.179 110.48 127.973C111.481 128.768 112.262 129.62 112.815 130.535C113.376 131.444 113.653 132.508 113.653 133.708C113.653 134.914 113.404 135.908 112.9 136.681C112.397 137.462 111.729 138.037 110.892 138.398C110.055 138.767 109.118 138.952 108.089 138.952C106.208 138.952 104.697 138.455 103.568 137.455C102.433 136.454 101.595 135.141 101.056 133.509C100.51 131.877 100.183 130.124 100.063 128.236H99.0478C99.0478 130.472 99.0407 132.317 99.0265 133.771C99.0123 135.226 98.9981 136.411 98.9839 137.32C98.9697 138.228 98.9342 139.023 98.8704 139.704H99.8852C99.9703 139.058 100.084 138.576 100.219 138.249C100.354 137.923 100.566 137.767 100.857 137.767C101.212 137.767 101.709 137.973 102.355 138.384C103.093 138.767 103.966 139.136 104.981 139.484C105.995 139.839 107.372 140.016 109.104 140.016C110.984 140.016 112.723 139.711 114.306 139.087C115.895 138.469 117.158 137.526 118.102 136.262C119.046 134.999 119.514 133.41 119.514 131.501C119.514 129.882 119.181 128.52 118.521 127.399C117.868 126.27 116.967 125.248 115.817 124.326Z" fill="#ECDBC7"/>
<path id="Vector_17" d="M151.101 133.033C151.101 131.593 151.144 130.415 151.236 129.506H150.221C149.93 131.742 149.469 133.495 148.852 134.779C148.234 136.057 147.418 136.979 146.403 137.533C145.389 138.093 144.132 138.37 142.635 138.37H140.123C139.215 138.37 138.526 138.299 138.072 138.15C137.618 138.001 137.306 137.696 137.142 137.228C136.979 136.759 136.901 136.035 136.901 135.063V124.127H138.838C140.073 124.127 141.024 124.397 141.684 124.943C142.344 125.49 142.834 126.206 143.139 127.108C143.451 128.002 143.678 128.953 143.82 129.953H144.835C144.714 128.279 144.643 127.001 144.615 126.114C144.587 125.234 144.572 124.425 144.572 123.687C144.572 122.949 144.565 122.14 144.551 121.26C144.537 120.38 144.587 119.096 144.707 117.421H143.692C143.607 118.01 143.465 118.634 143.274 119.294C143.082 119.954 142.812 120.586 142.458 121.189C142.103 121.792 141.642 122.282 141.067 122.665C140.492 123.048 139.747 123.24 138.838 123.24H136.901V112.482C136.901 111.509 136.979 110.793 137.142 110.317C137.306 109.849 137.611 109.536 138.072 109.387C138.526 109.238 139.215 109.167 140.123 109.167H142.55C143.991 109.167 145.161 109.409 146.056 109.898C146.95 110.381 147.667 111.204 148.192 112.368C148.724 113.532 149.1 115.122 149.341 117.151H150.356C150.328 116.796 150.299 116.363 150.271 115.852C150.243 115.342 150.228 114.802 150.228 114.242C150.228 113.653 150.25 112.794 150.292 111.658C150.335 110.53 150.42 109.359 150.534 108.153C149.178 108.209 147.645 108.245 145.928 108.266C144.211 108.28 142.671 108.287 141.322 108.287C140.62 108.287 139.718 108.287 138.633 108.287C137.547 108.287 136.362 108.28 135.084 108.266C133.807 108.252 132.508 108.238 131.202 108.224C129.897 108.209 128.648 108.188 127.477 108.16V109.04C128.449 109.068 129.173 109.182 129.662 109.373C130.145 109.565 130.471 109.92 130.635 110.431C130.798 110.949 130.876 111.751 130.876 112.836V134.715C130.876 135.773 130.798 136.568 130.635 137.1C130.471 137.632 130.152 137.98 129.662 138.157C129.18 138.335 128.449 138.448 127.477 138.512V139.392C128.655 139.364 129.897 139.342 131.202 139.328C132.508 139.314 133.8 139.3 135.063 139.286C136.326 139.271 137.511 139.264 138.611 139.264C139.711 139.264 140.62 139.264 141.322 139.264C142.791 139.264 144.466 139.271 146.347 139.286C148.227 139.3 149.916 139.335 151.421 139.399C151.3 138.136 151.222 136.915 151.179 135.737C151.123 134.552 151.101 133.651 151.101 133.033Z" fill="#ECDBC7"/>
<path id="Vector_18" d="M186.961 137.731C186.67 137.951 186.315 138.065 185.903 138.065C185.314 138.093 184.867 137.852 184.562 137.334C184.25 136.823 183.966 135.957 183.703 134.751L182.689 130.209C182.305 128.385 181.532 127.03 180.375 126.128C179.211 125.234 177.416 124.666 174.975 124.432C174.896 124.418 174.804 124.411 174.719 124.397C175.883 124.262 176.919 124.049 177.82 123.751C179.453 123.205 180.737 122.509 181.681 121.658C182.625 120.806 183.285 119.869 183.668 118.854C184.051 117.84 184.243 116.846 184.243 115.874C184.243 114.312 183.817 112.964 182.965 111.814C182.114 110.665 180.829 109.778 179.105 109.146C177.387 108.515 175.202 108.195 172.555 108.195C172.022 108.195 171.114 108.209 169.822 108.238C168.531 108.266 167.161 108.28 165.721 108.28C164.571 108.28 163.428 108.266 162.279 108.238C161.129 108.209 160.192 108.181 159.454 108.153V109.033C160.426 109.061 161.15 109.175 161.64 109.366C162.123 109.558 162.449 109.913 162.612 110.424C162.775 110.942 162.854 111.744 162.854 112.829V134.708C162.854 135.766 162.775 136.56 162.612 137.093C162.449 137.625 162.13 137.973 161.64 138.15C161.157 138.327 160.426 138.441 159.454 138.505V139.385C160.185 139.328 161.129 139.293 162.279 139.271C163.428 139.257 164.663 139.25 165.983 139.25C167.161 139.25 168.318 139.257 169.468 139.271C170.617 139.286 171.554 139.321 172.292 139.385V138.505C171.348 138.448 170.639 138.327 170.156 138.15C169.673 137.973 169.34 137.618 169.162 137.093C168.985 136.56 168.9 135.773 168.9 134.708V124.567H171.589H172.207C173.236 124.567 174.017 124.83 174.542 125.362C175.074 125.894 175.493 126.625 175.798 127.569C176.103 128.513 176.38 129.599 176.614 130.833L177.451 135.24C177.806 137.093 178.466 138.349 179.438 139.009C180.411 139.669 181.603 140.002 183.008 140.002C184.271 140.002 185.314 139.789 186.138 139.364C186.961 138.938 187.741 138.271 188.472 137.355L187.855 136.823C187.55 137.213 187.252 137.511 186.961 137.731ZM169.432 109.792C169.801 109.295 170.589 109.04 171.795 109.04C174.031 109.04 175.606 109.678 176.515 110.956C177.423 112.233 177.884 114.036 177.884 116.356C177.884 117.712 177.714 118.939 177.38 120.039C177.04 121.139 176.38 122.027 175.393 122.687C174.407 123.347 172.987 123.68 171.135 123.68H168.886V112.836C168.879 111.304 169.063 110.289 169.432 109.792Z" fill="#ECDBC7"/>
<path id="Vector_19" d="M217.086 108.295C216.234 108.295 215.376 108.28 214.503 108.252C213.637 108.224 212.714 108.195 211.749 108.167V109.047C212.956 109.075 213.878 109.338 214.531 109.842C215.177 110.338 215.503 111.162 215.503 112.311C215.503 113.461 215.134 115.015 214.403 116.988L208.393 133.019L200.508 112.758C200.125 111.729 199.962 110.956 200.026 110.445C200.082 109.934 200.373 109.579 200.884 109.387C201.395 109.196 202.14 109.089 203.113 109.054V108.174C202.438 108.202 201.53 108.231 200.402 108.259C199.266 108.287 198.06 108.302 196.761 108.302C195.704 108.302 194.625 108.287 193.518 108.259C192.418 108.231 191.481 108.202 190.715 108.174V109.054C191.155 109.082 191.63 109.288 192.148 109.671C192.659 110.054 193.142 110.785 193.582 111.878L204.653 139.534C204.83 139.534 205.015 139.527 205.206 139.513C205.398 139.498 205.596 139.491 205.802 139.491C206.008 139.491 206.207 139.498 206.398 139.513C206.59 139.527 206.775 139.534 206.952 139.534L216.61 113.823C217.171 112.297 217.803 111.169 218.505 110.452C219.208 109.735 219.854 109.267 220.443 109.061V108.181C220.003 108.209 219.506 108.238 218.967 108.266C218.413 108.28 217.788 108.295 217.086 108.295Z" fill="#ECDBC7"/>
<path id="Vector_20" d="M249.745 135.723C249.702 134.545 249.681 133.651 249.681 133.033C249.681 131.593 249.723 130.415 249.816 129.506H248.801C248.51 131.742 248.049 133.495 247.431 134.779C246.814 136.057 245.998 136.979 244.983 137.533C243.968 138.093 242.712 138.37 241.215 138.37H238.702C237.794 138.37 237.106 138.299 236.651 138.15C236.197 138.001 235.885 137.696 235.722 137.228C235.559 136.759 235.48 136.035 235.48 135.063V124.127H237.418C238.653 124.127 239.604 124.397 240.264 124.943C240.924 125.49 241.413 126.206 241.718 127.108C242.031 128.002 242.258 128.953 242.4 129.953H243.414C243.294 128.279 243.223 127.001 243.195 126.114C243.166 125.234 243.152 124.425 243.152 123.687C243.152 122.949 243.145 122.14 243.131 121.26C243.116 120.38 243.166 119.096 243.287 117.421H242.272C242.187 118.01 242.045 118.634 241.853 119.294C241.662 119.954 241.392 120.586 241.037 121.189C240.682 121.792 240.221 122.282 239.646 122.665C239.071 123.048 238.326 123.24 237.418 123.24H235.48V112.482C235.48 111.509 235.559 110.793 235.722 110.317C235.885 109.849 236.19 109.536 236.651 109.387C237.106 109.238 237.794 109.167 238.702 109.167H241.129C242.57 109.167 243.741 109.409 244.635 109.898C245.529 110.381 246.246 111.204 246.771 112.368C247.303 113.532 247.68 115.122 247.921 117.151H248.936C248.907 116.796 248.879 116.363 248.851 115.852C248.822 115.342 248.808 114.802 248.808 114.242C248.808 113.653 248.829 112.794 248.872 111.658C248.914 110.53 249 109.359 249.113 108.153C247.758 108.209 246.225 108.245 244.507 108.266C242.79 108.28 241.25 108.287 239.902 108.287C239.199 108.287 238.298 108.287 237.212 108.287C236.126 108.287 234.941 108.28 233.664 108.266C232.386 108.252 231.088 108.238 229.782 108.224C228.476 108.209 227.227 108.188 226.056 108.16V109.04C227.028 109.068 227.752 109.182 228.242 109.373C228.724 109.565 229.051 109.92 229.214 110.431C229.377 110.949 229.455 111.751 229.455 112.836V134.715C229.455 135.773 229.377 136.568 229.214 137.1C229.051 137.632 228.732 137.98 228.242 138.157C227.759 138.335 227.028 138.448 226.056 138.512V139.392C227.234 139.364 228.476 139.342 229.782 139.328C231.088 139.314 232.379 139.3 233.642 139.286C234.906 139.271 236.091 139.264 237.191 139.264C238.291 139.264 239.199 139.264 239.902 139.264C241.371 139.264 243.045 139.271 244.926 139.286C246.807 139.3 248.496 139.335 250 139.399C249.872 138.122 249.787 136.901 249.745 135.723Z" fill="#ECDBC7"/>
</g>
<g id="Group_8">
<path id="Vector_21" d="M117.698 88.644C117.215 88.6582 116.69 88.6653 116.108 88.6795C115.526 88.6937 114.951 88.6937 114.369 88.6937C113.787 88.6937 113.269 88.6937 112.794 88.6937C112.311 88.6937 111.786 88.6937 111.204 88.6937C110.622 88.6937 110.047 88.6866 109.466 88.6795C108.884 88.6653 108.358 88.6582 107.876 88.644C107.918 89.1479 107.947 89.6375 107.968 90.113C107.982 90.5885 107.989 90.9504 107.989 91.2059C107.989 91.4543 107.989 91.6956 107.982 91.9085C107.975 92.1285 107.961 92.3201 107.94 92.4833H108.316C108.458 91.6104 108.635 90.922 108.855 90.4253C109.075 89.9285 109.366 89.5737 109.721 89.3537C110.083 89.1337 110.544 89.0272 111.112 89.0272H111.651V98.3664C111.651 98.8135 111.609 99.147 111.524 99.367C111.438 99.587 111.268 99.7289 111.013 99.7999C110.764 99.8709 110.402 99.9135 109.934 99.9206V100.247C110.239 100.226 110.644 100.212 111.14 100.204C111.637 100.197 112.169 100.197 112.737 100.197C113.283 100.197 113.816 100.197 114.341 100.204C114.866 100.212 115.292 100.226 115.618 100.247V99.9206C115.136 99.9064 114.774 99.8709 114.518 99.7999C114.27 99.7289 114.1 99.587 114.022 99.367C113.936 99.147 113.901 98.8135 113.901 98.3664V89.0272H114.426C115.008 89.0272 115.469 89.1337 115.824 89.3537C116.179 89.5737 116.463 89.9285 116.683 90.4253C116.903 90.922 117.087 91.6104 117.236 92.4833H117.612C117.598 92.3201 117.591 92.1285 117.577 91.9085C117.563 91.6885 117.563 91.4543 117.563 91.2059C117.563 90.9575 117.57 90.5885 117.584 90.113C117.627 89.6375 117.655 89.1479 117.698 88.644Z" fill="#ECDBC7"/>
<path id="Vector_22" d="M128.861 88.6937C128.421 88.6937 127.988 88.6866 127.548 88.6795C127.108 88.6653 126.746 88.6582 126.448 88.644V88.9705C126.81 88.9846 127.079 89.0201 127.257 89.0911C127.434 89.1621 127.555 89.2969 127.619 89.4814C127.675 89.673 127.711 89.9711 127.711 90.3756V94.2433H123.041V90.3756C123.041 89.9711 123.077 89.673 123.141 89.4814C123.205 89.2898 123.332 89.1621 123.51 89.0911C123.687 89.0201 123.957 88.9776 124.305 88.9705V88.644C124.028 88.6582 123.68 88.6653 123.254 88.6795C122.828 88.6937 122.396 88.6937 121.963 88.6937C121.473 88.6937 121.012 88.6866 120.579 88.6795C120.146 88.6653 119.798 88.6582 119.536 88.644V88.9705C119.898 88.9846 120.167 89.0201 120.345 89.0911C120.522 89.1621 120.643 89.2969 120.707 89.4814C120.763 89.673 120.799 89.9711 120.799 90.3756V98.5012C120.799 98.8915 120.77 99.1896 120.707 99.3883C120.65 99.587 120.529 99.7148 120.345 99.7786C120.16 99.8425 119.898 99.8851 119.536 99.9064V100.233C119.798 100.212 120.146 100.197 120.579 100.19C121.012 100.183 121.473 100.183 121.963 100.183C122.403 100.183 122.828 100.183 123.254 100.19C123.68 100.197 124.028 100.212 124.305 100.233V99.9064C123.957 99.8851 123.687 99.8425 123.503 99.7786C123.318 99.7148 123.19 99.5799 123.134 99.3883C123.077 99.1896 123.041 98.8986 123.041 98.5012V94.5697H127.711V98.5012C127.711 98.8915 127.683 99.1896 127.619 99.3883C127.562 99.587 127.441 99.7148 127.257 99.7786C127.079 99.8425 126.81 99.8851 126.448 99.9064V100.233C126.746 100.212 127.108 100.197 127.548 100.19C127.988 100.183 128.421 100.183 128.861 100.183C129.343 100.183 129.79 100.183 130.209 100.19C130.628 100.197 130.968 100.212 131.217 100.233V99.9064C130.869 99.8851 130.599 99.8425 130.415 99.7786C130.23 99.7148 130.11 99.5799 130.046 99.3883C129.989 99.1896 129.953 98.8986 129.953 98.5012V90.3756C129.953 89.9711 129.989 89.673 130.053 89.4814C130.117 89.2898 130.244 89.1621 130.422 89.0911C130.599 89.0201 130.869 88.9776 131.217 88.9705V88.644C130.968 88.6582 130.628 88.6653 130.209 88.6795C129.79 88.6937 129.336 88.6937 128.861 88.6937Z" fill="#ECDBC7"/>
<path id="Vector_23" d="M142.039 98.8844C142.025 98.4444 142.018 98.118 142.018 97.8838C142.018 97.3516 142.032 96.9116 142.067 96.5709H141.691C141.585 97.4012 141.415 98.0541 141.18 98.5296C140.953 99.0051 140.648 99.3457 140.272 99.5515C139.896 99.7573 139.428 99.8638 138.874 99.8638H137.937C137.597 99.8638 137.341 99.8354 137.178 99.7786C137.008 99.7218 136.894 99.6083 136.837 99.438C136.78 99.2606 136.745 98.998 136.745 98.6361V94.5697H137.469C137.93 94.5697 138.278 94.669 138.526 94.8748C138.775 95.0735 138.952 95.3432 139.066 95.6768C139.179 96.0103 139.264 96.3651 139.321 96.7342H139.697C139.655 96.1096 139.626 95.6342 139.612 95.3077C139.598 94.9813 139.598 94.6832 139.598 94.4065C139.598 94.1368 139.598 93.8316 139.591 93.5052C139.584 93.1787 139.605 92.7033 139.648 92.0788H139.271C139.236 92.2988 139.186 92.5259 139.115 92.7742C139.044 93.0226 138.945 93.2568 138.81 93.4768C138.682 93.7039 138.505 93.8813 138.292 94.0232C138.079 94.1652 137.802 94.2361 137.462 94.2361H136.738V90.2407C136.738 89.8788 136.766 89.6091 136.83 89.4388C136.887 89.2614 137.008 89.1479 137.171 89.0982C137.341 89.0414 137.597 89.013 137.93 89.013H138.831C139.364 89.013 139.804 89.1053 140.137 89.2827C140.471 89.4601 140.733 89.7724 140.932 90.1982C141.131 90.6311 141.273 91.2201 141.358 91.9794H141.734C141.72 91.8517 141.713 91.6884 141.698 91.4968C141.684 91.3052 141.684 91.1065 141.684 90.9007C141.684 90.6807 141.691 90.3614 141.706 89.9427C141.72 89.524 141.755 89.0911 141.798 88.6369C141.294 88.6582 140.726 88.6724 140.088 88.6795C139.449 88.6866 138.874 88.6866 138.377 88.6866C138.115 88.6866 137.781 88.6866 137.377 88.6866C136.972 88.6866 136.532 88.6866 136.057 88.6795C135.581 88.6724 135.099 88.6653 134.616 88.6653C134.126 88.6582 133.665 88.6511 133.232 88.644V88.9704C133.594 88.9846 133.864 89.0201 134.041 89.0911C134.219 89.1621 134.339 89.2969 134.403 89.4814C134.46 89.673 134.495 89.9711 134.495 90.3756V98.5012C134.495 98.8915 134.467 99.1896 134.403 99.3883C134.346 99.587 134.226 99.7147 134.041 99.7786C133.864 99.8425 133.594 99.8851 133.232 99.9063V100.233C133.672 100.219 134.133 100.212 134.616 100.212C135.099 100.204 135.581 100.197 136.05 100.197C136.518 100.19 136.958 100.19 137.37 100.19C137.781 100.19 138.115 100.19 138.377 100.19C138.924 100.19 139.548 100.19 140.244 100.197C140.939 100.204 141.571 100.219 142.124 100.24C142.082 99.7786 142.053 99.3244 142.039 98.8844Z" fill="#ECDBC7"/>
</g>
</g>
</g>
<g id="Group_9">
<g id="Group_10">
<g id="Group_11">
<path id="Vector_24" d="M117.151 71.4702L117.641 71.1012C117.655 71.1154 117.677 71.1437 117.691 71.1721C117.549 71.3212 117.4 71.4631 117.251 71.605C117.215 71.5624 117.18 71.5199 117.151 71.4702Z" fill="#ECDBC7"/>
<path id="Vector_25" d="M118.67 66.9212C121.31 63.4864 122.857 60.2504 123.396 57.0143L123.311 57.0001L123.226 56.9788C122.282 60.7897 119.692 64.9058 115.916 68.5605C115.789 68.3973 115.689 68.1844 115.597 67.9715C115.484 67.7444 115.377 67.5031 115.228 67.3186C117.492 64.111 118.72 61.1871 118.968 58.3911L118.883 58.384L118.798 58.3698C118.294 61.0026 116.889 63.6639 114.504 66.5096C114.376 66.3677 114.249 66.2257 114.121 66.0767C113.993 65.9277 113.858 65.7787 113.731 65.6296C114.142 63.6 114.483 61.542 114.738 59.5265C114.944 58.824 115.299 58.0504 115.86 57.1137C116.335 56.333 116.903 55.5666 117.534 54.8286L117.471 54.7718L117.414 54.7079C116.435 55.6021 115.64 56.475 114.994 57.3621C115.1 56.3756 115.171 55.4885 115.221 54.644C115.193 51.7415 116.144 49.0661 117.215 46.3552V46.341C117.598 45.39 117.989 44.4107 118.365 43.4101C119.195 41.0611 119.685 38.4637 119.82 35.6889L119.727 35.6819L119.642 35.6748C119.422 38.4141 118.854 40.9759 117.953 43.2823C117.634 44.1197 117.272 44.9571 116.945 45.681C116.754 45.1913 116.605 44.6307 116.505 44.0133C116.392 43.2043 116.378 42.3882 116.449 41.5933L116.364 41.5862L116.278 41.5721C115.916 43.4881 116.016 45.1062 116.576 46.5042C115.995 47.8171 115.391 49.2222 115.015 50.6841C114.653 52.6286 114.391 54.6157 114.135 56.5388C113.787 59.193 113.426 61.9394 112.794 64.5935C111.822 63.5077 110.842 62.4291 109.856 61.3433C108.841 54.9634 108.479 47.81 113.383 43.034L113.319 42.9701L113.262 42.9062C112.191 43.8572 111.275 44.9926 110.551 46.2842C110.601 44.8862 110.055 43.6727 109.019 42.8991L108.969 42.9701L108.912 43.0411C110.417 44.2546 110.395 46.1991 109.92 47.4977L109.934 47.5048C108.131 51.5641 108.231 56.2408 108.543 59.931C107.997 59.3349 107.429 58.7317 106.854 58.1214C106.811 57.9085 106.769 57.7027 106.733 57.4898C106.315 55.304 105.882 53.0473 106.428 50.8899L106.258 50.8332C105.513 52.7209 105.527 54.7718 105.648 56.8795C105.037 56.255 104.526 55.7298 104.037 55.2402C103.753 53.4589 103.533 51.9899 103.363 50.6203C105.293 47.9874 106.379 44.7797 106.435 41.5862H106.343L106.258 41.5791C105.931 44.2475 104.867 46.8165 103.185 49.0306C102.617 43.8856 102.582 39.6418 103.086 35.696L103.001 35.6819L102.915 35.6677C102.745 36.6115 102.61 37.6263 102.468 38.9179C101.475 37.8534 100.957 36.6328 101.006 35.476L100.914 35.469L100.829 35.4619C100.694 36.8031 101.262 38.2295 102.419 39.4644C102.27 41.0682 102.192 42.7217 102.192 44.3823C101.808 44.0417 101.482 43.7081 101.219 43.3675C100.779 42.8282 100.439 42.2178 100.197 41.5579L100.112 41.5862L100.027 41.6075C100.339 42.9275 101.085 44.1765 102.192 45.2197C102.206 46.7739 102.27 48.3493 102.39 50.0454H102.397V50.0809H102.39C102.468 51.3015 102.582 52.6002 102.717 53.9344C101.993 53.2318 101.219 52.4867 100.425 51.7486L100.453 51.6777L100.403 51.557C100.325 51.5357 100.254 51.5144 100.183 51.5002L100.148 51.4931L99.7787 51.1383C99.1826 48.9029 98.4517 46.121 97.9052 43.4456L97.891 43.4314H97.8981C96.933 38.5773 96.7485 34.667 97.3091 31.1187L97.2239 31.1045L97.1388 31.0832C96.4433 34.3832 96.3794 37.9599 96.9472 42.3314C95.2937 40.1243 95.024 37.2431 94.875 34.2341L94.7898 34.2412H94.6975C94.6195 37.0018 94.4917 41.1746 97.1743 43.9423C97.4936 45.972 97.891 47.9732 98.2884 49.8396C96.6136 48.3351 95.1375 46.639 93.8814 44.7868L93.8743 44.7939L93.8672 44.7797V44.7726C91.8376 41.7708 90.3686 38.3431 89.5028 34.5677C90.9292 33.1625 91.7099 31.8284 91.8873 30.4942L91.8021 30.48L91.717 30.4658C91.4899 31.6794 90.7305 32.8716 89.3964 34.1064C88.9493 32.0697 88.6867 29.9478 88.6228 27.8046H88.4454C88.4312 29.7562 88.5732 31.7077 88.8783 33.6167C87.6293 32.978 86.9267 32.2258 86.7848 31.3813L86.6996 31.3955L86.6145 31.4026C86.7067 32.3961 87.4945 33.3045 88.9564 34.1064C89.148 35.2277 89.3964 36.3276 89.6944 37.3779C88.8428 36.7747 87.8919 35.9586 87.5087 34.8799L87.4235 34.9083L87.3383 34.9296C87.6506 36.2993 88.8002 37.3921 89.9996 38.3644C90.5673 40.1598 91.2841 41.8701 92.1144 43.4527C89.666 41.6004 87.3312 39.7411 85.55 37.527L85.479 37.5837L85.4081 37.6334C87.2958 40.3372 89.9357 42.5869 92.4905 44.7584C92.746 44.9784 93.0015 45.1984 93.2569 45.4113H93.264C94.5059 47.3771 95.9962 49.1796 97.7065 50.7835C93.5905 49.7119 90.8867 48.0939 89.4531 45.8442L89.3751 45.8939L89.297 45.9365C90.0067 47.299 91.1705 48.4984 92.7602 49.5203C91.4047 49.1867 89.9783 48.839 88.5519 48.5197L88.5306 48.6048L88.5022 48.69C90.7731 49.3783 93.2002 50.1732 95.9253 51.1312C96.5498 51.3796 97.2523 51.628 98.0755 51.8906C98.3239 51.9828 98.5723 52.068 98.8278 52.1602C98.9981 52.217 99.1755 52.2809 99.3458 52.3447C100.68 53.6718 102.043 55.0911 103.398 56.5601C103.27 56.5672 103.135 56.5672 103.001 56.5672C98.8349 56.5672 95.7762 55.5666 93.9098 53.6008L93.846 53.6647L93.775 53.7215C94.9246 55.1408 96.6491 56.1911 98.9058 56.8298C97.1246 57.0143 95.2866 57.2698 93.3208 57.6104L93.335 57.6956L93.3421 57.7808C96.6775 57.4685 99.5587 57.355 102.156 57.433C102.88 57.5111 103.611 57.5608 104.321 57.5821C105.272 58.6253 106.251 59.7323 107.237 60.882C106.563 60.96 105.825 60.9671 105.087 60.9104C103.937 60.7968 102.795 60.5201 101.702 60.0801L101.666 60.1652L101.624 60.2433C103.086 61.0452 105.378 61.9536 108.011 61.762C108.444 62.2658 108.877 62.7768 109.309 63.2877L109.82 63.8839C98.4091 63.8058 88.9138 60.6833 83.0662 55.0911L83.0023 55.155L82.9384 55.2189C85.5003 57.8304 88.8073 59.9736 92.7744 61.5774C90.3047 61.9536 87.7358 61.8116 85.11 61.6271L85.1029 61.7123L85.0887 61.7974C87.8067 62.131 90.8937 62.5071 93.8956 62.0245C96.2801 62.8974 98.8987 63.5929 101.666 64.0826C101.61 64.111 101.56 64.1393 101.51 64.1606C100.361 64.6787 98.991 65.0193 97.2168 65.2322L97.2239 65.4096C99.2962 65.438 101.468 65.3741 103.292 64.3451C105.648 64.6858 108.146 64.8916 110.708 64.9483C111.105 65.4167 111.495 65.8922 111.886 66.3677C112.134 66.6657 112.382 66.9638 112.638 67.2619C111.907 67.347 111.162 67.4393 110.445 67.5315C105.342 68.1844 100.07 68.8586 95.4995 66.4315L95.4569 66.5096L95.4143 66.5877C98.4304 68.3902 101.823 68.7805 105.158 68.738C101.021 69.1567 96.784 69.1921 92.6679 69.2276C91.5679 69.2418 90.468 69.2489 89.3751 69.2702V69.4476C90.6099 69.4689 91.8731 69.5044 93.0937 69.5399C99.7716 69.7315 106.684 69.9373 113.305 68.376C113.347 68.4399 113.39 68.5463 113.433 68.6457C113.482 68.7521 113.525 68.8515 113.567 68.9225C113.355 69.0715 113.177 69.1567 113 69.2418C112.78 69.3483 112.553 69.4547 112.297 69.6676C112.255 69.696 112.219 69.7173 112.205 69.7315C110.757 70.2353 107.727 71.2005 105.527 71.6689C102.809 72.2721 100.552 72.563 98.4304 72.5701V72.7475C101.432 72.8611 104.59 72.5275 108.302 71.6901C104.47 73.4998 100.339 74.9404 96.3369 76.3313L94.9743 76.7997L95.0027 76.8849L95.0311 76.97C95.5349 76.821 96.0459 76.672 96.5498 76.523C100.829 75.2739 105.243 73.9824 109.359 72.2295C107.805 73.6701 106.315 75.1888 104.867 76.6649C104.448 77.0907 104.03 77.5165 103.604 77.9423L103.668 78.0061L103.724 78.07C104.122 77.7294 104.512 77.3745 104.91 77.0268C107.741 74.5217 110.665 71.9243 113.894 69.767L114.022 70.0153C114.376 70.434 114.398 70.9805 114.426 71.5553C114.455 72.1372 114.49 72.7405 114.88 73.2088L115.001 73.223L117.13 71.605C117.144 71.6263 117.165 71.6476 117.18 71.6618L117.307 71.6689C117.435 71.5482 117.563 71.4276 117.684 71.3069C118.471 72.3147 122.559 77.8074 123.474 79.5603C124.326 81.2138 125.107 85.2234 125.241 85.926H123.006C122.829 85.3015 121.53 80.8235 120.678 79.319C119.805 77.772 116.775 74.5714 114.206 73.2727L114.093 73.3011C114.057 73.3508 110.232 78.4319 100.772 80.199C100.893 79.9577 101.106 79.4468 101.226 78.5739L101.12 78.4745C101.042 78.4958 93.4272 80.3835 87.8564 77.7152C88.8854 77.4384 92.9376 76.161 94.9033 72.5417L94.8182 72.414C94.7401 72.4211 86.8061 73.1166 83.2081 67.7089C83.8965 67.9076 85.9829 68.4257 87.977 68.0354L87.9983 67.8722C87.9203 67.8296 79.894 64.2316 78.1766 59.3846C78.7017 59.5336 80.412 59.9665 82.2784 59.9026L82.3281 59.7323C82.2855 59.711 78.5882 57.3479 77.6018 54.8853C77.8714 55.0769 78.3256 55.2189 79.1134 55.0273L79.1559 54.8782C79.1275 54.8498 76.1541 51.6777 76.3386 48.7042C77.2256 49.2364 82.3636 52.288 84.3719 52.6286L84.45 52.6073C84.4784 52.5789 85.0958 51.9828 85.1455 51.3725C85.8197 51.9828 88.5306 54.2466 91.2486 53.9628L91.2983 53.8066C91.2486 53.7712 86.7777 50.2583 85.3016 47.0507C85.628 47.0436 86.4371 46.9868 87.019 46.5539L87.0261 46.412C86.9906 46.3836 83.5275 43.4881 83.1158 40.3372C83.4352 40.5572 84.1803 41.0185 84.9752 41.1392L85.0532 40.9972C85.0248 40.9617 82.2501 37.9386 82.1862 35.2986C82.3849 35.5115 82.7823 35.8238 83.4707 35.9231L83.57 35.8522C83.5842 35.7954 84.4855 30.2813 85.3087 26.7614C86.0397 23.6815 85.6848 19.9699 85.5784 19.0261C86.5932 19.8848 91.6957 24.3201 91.6957 26.4775L91.8021 26.5627C91.8305 26.5556 92.3557 26.3995 92.6324 25.193C92.9092 26.2575 93.7537 29.0536 95.1872 29.3233L95.2724 29.2949C95.2795 29.2807 96.3369 28.0317 96.6633 26.0375C97.4227 26.5343 101.773 29.5362 102.525 33.9361L102.653 33.9999C102.71 33.9716 104.079 33.2406 104.874 30.8065C105.52 31.6368 109.004 36.2425 109.324 40.0463L109.402 40.1243C109.473 40.1314 111.169 40.2734 112.148 39.4431C112.496 39.1521 112.709 38.7831 112.787 38.336C112.879 38.4212 113.028 38.5063 113.191 38.4708C113.624 38.3928 113.965 37.6263 114.227 36.136C114.575 36.2993 115.661 36.7463 116.349 36.2922C116.775 36.0083 116.967 35.4406 116.903 34.589C117.137 34.298 119.011 31.8497 118.521 29.2239C119.536 30.1678 123.929 34.5251 122.623 38.3644L122.708 38.485C122.715 38.485 123.481 38.4708 123.879 37.8392C123.836 39.585 123.595 45.7733 121.977 48.2358L122.034 48.3706C122.034 48.3706 122.133 48.3919 122.183 48.5126C122.261 48.6616 122.303 49.059 121.785 50.0028C121.423 50.6628 121.395 51.3299 121.36 52.0325C121.303 53.1325 121.239 54.3744 119.933 55.9427L120.047 56.0776C120.182 56.0066 123.29 54.3389 123.808 49.13C124.326 49.4706 126.405 51.1454 125.987 55.6802C125.987 55.7582 125.433 63.3871 117.698 71.0444L117.584 71.0302L117.165 71.3495C117.009 71.1011 116.896 70.7747 116.789 70.4624C116.647 70.0721 116.505 69.6747 116.278 69.3837C116.513 69.1354 116.804 68.8586 117.102 68.5676C117.684 67.9999 118.287 67.4109 118.67 66.9212Z" fill="#ECDBC7"/>
<path id="Vector_26" d="M117.641 71.1012L117.151 71.4702C117.18 71.5199 117.215 71.5624 117.251 71.605C117.4 71.4631 117.549 71.3212 117.691 71.1721C117.677 71.1437 117.655 71.1154 117.641 71.1012Z" fill="#ECDBC7"/>
</g>
</g>
<g id="Group_12">
<g id="Group_13">
<path id="Vector_27" d="M126.448 43.6584L126.909 43.701V43.7649C126.76 43.772 126.611 43.7791 126.455 43.7791C126.448 43.7365 126.448 43.701 126.448 43.6584Z" fill="#ECDBC7"/>
<path id="Vector_28" d="M145.531 28.8975C144.658 29.8768 141.791 32.978 139.775 33.4961L139.733 33.6451C139.733 33.6451 139.775 33.6948 139.754 33.7729C139.726 33.8864 139.577 34.1064 138.867 34.3548C138.356 34.5322 138.03 34.8799 137.689 35.249C137.164 35.8025 136.568 36.4412 135.106 36.6399L135.099 36.8173C135.205 36.8457 137.774 37.4702 140.428 34.9438C140.584 35.4264 140.975 37.2999 138.746 39.4856C138.704 39.5211 134.943 43.3462 126.973 43.6727L126.916 43.6088L126.547 43.5804C126.569 43.3746 126.64 43.1617 126.718 42.9417C126.817 42.672 126.909 42.3953 126.916 42.1256C127.158 42.1114 127.434 42.1043 127.732 42.0901C128.336 42.0759 128.953 42.0546 129.4 41.9766C132.501 41.423 134.872 40.4366 136.653 38.9605L136.596 38.8895L136.546 38.8186C134.283 40.4082 130.919 41.345 127.072 41.4585C127.08 41.3166 127.115 41.1675 127.15 41.0114C127.193 40.8411 127.229 40.6637 127.236 40.5005C130.003 39.876 132.033 38.9037 133.445 37.527L133.388 37.4631L133.332 37.3921C131.856 38.556 129.84 39.3011 127.172 39.6631C127.165 39.5353 127.158 39.4005 127.15 39.2727C127.136 39.1308 127.129 38.9889 127.122 38.8398C128.279 37.9528 129.4 37.016 130.458 36.0651C130.89 35.7883 131.444 35.547 132.196 35.3199C132.828 35.1354 133.502 35.0006 134.205 34.9154L134.19 34.738C133.246 34.7451 132.409 34.8161 131.65 34.9722C132.132 34.5038 132.558 34.078 132.956 33.6664C134.247 32.091 136.007 31.1258 137.859 30.1891L137.866 30.182C138.519 29.8626 139.193 29.522 139.861 29.1742C141.415 28.3155 142.877 27.1517 144.211 25.7182L144.083 25.5975C142.72 26.9601 141.23 28.0601 139.669 28.862C139.115 29.1459 138.555 29.4013 138.03 29.6355C138.136 29.2949 138.299 28.9401 138.512 28.5781C138.81 28.0885 139.165 27.6414 139.57 27.2511L139.456 27.1162C138.377 27.9749 137.703 28.8904 137.391 29.9265C136.461 30.3452 135.475 30.8065 134.595 31.4026C133.502 32.2755 132.452 33.2122 131.437 34.1277C130.039 35.3767 128.598 36.6612 127.044 37.7754C126.966 36.7251 126.881 35.6818 126.796 34.6315C129.088 30.7071 132.104 26.6904 137.107 26.5272V26.3498C136.071 26.3427 135.049 26.4988 134.063 26.8182C134.687 26.0943 134.9 25.1859 134.652 24.2776L134.566 24.306L134.474 24.3272C134.801 25.704 133.921 26.7259 133.069 27.1872V27.1943C130.202 28.493 128.144 31.0265 126.668 33.1625C126.611 32.5806 126.561 31.9987 126.498 31.4168C126.569 31.289 126.64 31.1613 126.711 31.0265C127.456 29.6497 128.222 28.2233 129.507 27.3362L129.421 27.1872C128.144 27.833 127.229 28.9259 126.349 30.1039C126.285 29.4865 126.221 28.9684 126.157 28.4859C126.796 27.393 127.335 26.4988 127.839 25.6898C130.159 25.2143 132.253 24.0221 133.722 22.326L133.658 22.2692L133.594 22.2054C132.217 23.4686 130.45 24.3272 128.492 24.6963C130.479 21.666 132.367 19.388 134.432 17.5216L134.375 17.4506L134.318 17.3867C133.807 17.8054 133.261 18.2809 132.622 18.8912C132.53 17.848 132.778 16.9609 133.317 16.3719L133.254 16.3151L133.19 16.2513C132.501 16.9184 132.182 17.9616 132.303 19.1964C131.501 19.977 130.72 20.8144 129.982 21.6873C129.918 21.3325 129.883 21.006 129.883 20.708C129.869 20.2112 129.947 19.7144 130.103 19.239L130.018 19.2106L129.939 19.1751C129.521 20.0409 129.393 21.0841 129.563 22.1841C128.875 23.0286 128.201 23.9014 127.505 24.8737L127.52 24.8808L127.512 24.9021L127.491 24.8879C126.994 25.5762 126.491 26.293 125.972 27.0736C125.859 26.2646 125.752 25.5621 125.632 24.8453L125.66 24.8382L125.696 24.7034C125.667 24.6608 125.632 24.6111 125.603 24.5685L125.582 24.5472L125.525 24.1924C126.192 22.695 127.016 20.8428 127.903 19.1467V19.1183L127.91 19.1254C129.542 16.0455 131.196 13.8526 133.126 12.2204L133.069 12.1565L133.019 12.0856C131.139 13.5049 129.492 15.3855 127.853 17.9829C127.917 16.0242 129.045 14.3636 130.301 12.703L130.23 12.6462L130.167 12.5894C128.861 14.0371 126.902 16.2229 127.214 19.0403C126.498 20.2609 125.838 21.5099 125.234 22.6879C124.943 21.0841 124.851 19.4661 124.958 17.8764H124.943V17.8622H124.958C125.121 15.2578 125.816 12.703 127.009 10.2546C128.47 10.1979 129.535 9.86431 130.245 9.22562L130.188 9.16175L130.131 9.09078C129.464 9.62303 128.492 9.8927 127.179 9.90689C127.832 8.60111 128.634 7.34501 129.556 6.17407L129.492 6.11729L129.421 6.06052C128.534 7.08953 127.747 8.19661 127.065 9.36045C126.647 8.43079 126.576 7.69984 126.867 7.18888L126.796 7.1463L126.718 7.09663C126.32 7.69275 126.363 8.55144 126.86 9.71528C126.476 10.3895 126.136 11.0778 125.845 11.7662C125.625 11.0424 125.454 10.1695 125.71 9.42432L125.547 9.35336C125.107 10.2546 125.284 11.4043 125.547 12.5185C125.078 13.732 124.731 14.9668 124.503 16.1874C123.922 14.0229 123.411 11.9152 123.368 9.87851H123.283L123.191 9.87141C123.077 12.263 123.602 14.7681 124.106 17.1951L124.262 17.919C124.106 19.5512 124.156 21.2189 124.418 22.8866C122.538 20.3247 121.714 18.1603 121.885 16.2726L121.714 16.2442C121.523 17.2945 121.636 18.4583 122.062 19.7357C121.452 18.9267 120.806 18.0822 120.153 17.2519L120.082 17.3087L120.004 17.3584C121.019 18.8415 122.076 20.4596 123.24 22.3118C123.489 22.7589 123.78 23.2202 124.149 23.7737C124.255 23.944 124.354 24.1143 124.461 24.2847C124.539 24.4053 124.61 24.5189 124.681 24.6395C124.858 25.9808 125.014 27.393 125.135 28.8265C125.071 28.7768 125.014 28.7201 124.951 28.6704C122.516 26.6266 121.182 24.5969 120.984 22.6311L120.898 22.6382H120.806C120.834 23.9369 121.338 25.3066 122.318 26.7259C121.232 25.9737 120.082 25.2356 118.819 24.4834L118.776 24.5543L118.727 24.6324C120.813 26.0943 122.552 27.4498 124.028 28.7626C124.411 29.16 124.816 29.5433 125.22 29.9052C125.305 30.92 125.376 31.949 125.433 33.0419C125.014 32.7651 124.596 32.4174 124.205 32.0342C123.588 31.4097 123.049 30.7 122.602 29.9336L122.523 29.9762L122.445 30.0116C122.935 31.1613 123.858 32.7722 125.483 33.9645C125.511 34.4541 125.532 34.9509 125.554 35.4406L125.575 35.9231C118.982 30.2884 114.859 23.9653 113.979 18.1035L113.887 18.1177L113.802 18.1319C114.114 20.7718 115.058 23.5111 116.619 26.293C115.044 25.2924 113.631 23.9795 112.212 22.617L112.084 22.7376C113.525 24.2563 115.157 25.9666 117.13 27.1801C118.116 28.8052 119.309 30.4303 120.678 32.0342C120.664 32.0342 120.65 32.0271 120.643 32.02C119.735 31.7361 118.784 31.2536 117.648 30.4942L117.598 30.5652L117.542 30.6361C118.741 31.6652 120.04 32.7013 121.573 33.0419C122.793 34.3832 124.149 35.7102 125.618 37.0018C125.639 37.4418 125.653 37.8889 125.667 38.336C125.674 38.5986 125.689 38.8611 125.696 39.1308C125.249 38.8257 124.794 38.5276 124.333 38.2224C121.062 36.0722 117.684 33.8509 116.108 30.3026L115.945 30.3736C116.818 32.6303 118.415 34.3974 120.196 35.9231C117.776 34.2057 115.455 32.2897 113.191 30.4162C112.539 29.8839 111.893 29.3446 111.247 28.8194L111.19 28.8904L111.133 28.9542C111.843 29.5787 112.553 30.2033 113.262 30.8349C117.073 34.2128 121.012 37.7044 125.589 40.1172C125.575 40.174 125.561 40.245 125.54 40.3088C125.525 40.3798 125.504 40.4437 125.497 40.5005C125.32 40.4721 125.185 40.4366 125.05 40.394C124.872 40.3443 124.688 40.2947 124.447 40.2805C124.411 40.2734 124.383 40.2734 124.362 40.2663C123.29 39.8263 121.09 38.8682 119.593 38.0379C117.733 37.0302 116.286 36.0793 115.044 35.0432L114.987 35.107L114.93 35.1709C116.584 36.6683 118.514 38.0024 120.955 39.3366C117.982 38.4353 115.001 37.2147 112.12 36.0367L111.105 35.618L111.034 35.7812L112.127 36.2922C115.15 37.6973 118.266 39.145 121.416 40.2166C119.912 40.2379 118.407 40.3159 116.946 40.4011C116.506 40.4224 116.066 40.4437 115.626 40.4721V40.6495C116.009 40.6495 116.399 40.6566 116.782 40.6637C119.564 40.7063 122.445 40.7417 125.298 41.1604L125.27 41.345C125.277 41.7353 125.05 42.0333 124.809 42.3527C124.56 42.6862 124.305 43.0269 124.319 43.481L124.404 43.5662L126.363 43.7436V43.7791L126.455 43.8643C126.576 43.8643 126.696 43.8572 126.824 43.8572C126.817 44.8294 126.725 49.7332 126.469 51.1099C126.228 52.3873 124.922 54.8498 124.645 55.3679L123.368 54.2963C123.574 53.8208 124.809 50.8261 124.993 49.6054C125.178 48.3493 124.858 45.1346 123.943 43.1617L123.843 43.1191C123.801 43.1262 119.302 43.9778 113 40.3159C113.199 40.2379 113.532 40.0605 113.958 39.6843L113.944 39.5353C113.887 39.5069 108.65 36.8244 106.584 32.7013C107.415 33.0987 110.275 34.2909 112.986 33.34L113.007 33.1838C112.95 33.1483 108.068 29.6781 108.352 25.0511C108.699 25.5408 109.664 26.7756 110.956 27.5136L111.084 27.4001C111.048 27.3362 108.025 21.5241 109.161 18.0751C109.43 18.4512 110.218 19.4802 111.311 20.3389L111.446 20.2396C111.431 20.2041 110.374 17.2164 110.864 15.4068C110.949 15.6339 111.162 15.9035 111.659 16.1661L111.793 16.081C111.786 16.0455 111.488 12.9301 112.9 11.4185C113.213 12.2204 114.802 16.2939 115.81 17.4506L115.881 17.479C115.909 17.479 116.513 17.4648 116.832 17.1809C116.96 17.8977 117.513 20.3602 119.231 21.5454L119.365 21.4531C119.358 21.4105 118.351 17.3796 118.911 14.9313C119.124 15.1016 119.6 15.4352 120.118 15.4848L120.217 15.3784C120.21 15.35 119.507 12.1494 120.65 10.2546C120.742 10.5456 120.969 11.1275 121.36 11.5675L121.516 11.4965C121.509 11.4682 121.267 8.55144 122.374 7.08953C122.403 7.30953 122.509 7.65017 122.843 8.01919L122.963 8.02629C122.992 8.005 126.015 5.4786 128.087 3.98831C129.861 2.72511 131.309 0.6316 131.721 0C131.941 1.0574 132.863 5.80504 131.912 6.9405L131.948 7.07534C131.962 7.08244 132.331 7.25275 133.012 6.78438C132.672 7.54372 131.969 9.38884 132.665 10.2191L132.743 10.2475C132.792 10.2404 133.928 10.0914 135.021 9.19013C135.262 9.8998 136.39 13.5829 134.865 16.2726L134.921 16.4003C134.971 16.4145 136.092 16.6913 137.646 15.79C137.654 16.6274 137.583 20.7292 136.071 22.8937L136.085 23.0073C136.099 23.0215 137.732 24.604 138.874 23.724C138.895 23.8163 138.945 23.9227 139.059 23.9866C139.35 24.1498 139.896 23.9014 140.719 23.2415C140.861 23.5253 141.308 24.2989 141.933 24.3627C142.295 24.3982 142.657 24.1782 142.997 23.7098C143.324 23.6602 145.424 23.2769 146.347 21.666C146.524 22.766 147.049 27.1162 144.615 28.5072L144.601 28.6491C144.608 28.6562 145.034 29.0039 145.531 28.8975Z" fill="#ECDBC7"/>
<path id="Vector_29" d="M126.448 43.6584C126.448 43.701 126.448 43.7365 126.455 43.7791C126.611 43.7791 126.76 43.772 126.909 43.7649V43.701L126.448 43.6584Z" fill="#ECDBC7"/>
</g>
</g>
<g id="Group_14">
<g id="Group_15">
<path id="Vector_30" d="M132.707 71.605C132.558 71.4631 132.409 71.3212 132.267 71.1721C132.281 71.1437 132.302 71.1154 132.317 71.1012L132.806 71.4702C132.778 71.5199 132.742 71.5624 132.707 71.605Z" fill="#ECDBC7"/>
<path id="Vector_31" d="M167.63 59.7323L167.679 59.9026C169.539 59.9665 171.256 59.5336 171.781 59.3846C170.064 64.2316 162.037 67.8296 161.959 67.8722L161.981 68.0354C163.975 68.4257 166.061 67.9076 166.75 67.7089C163.144 73.1166 155.225 72.4211 155.139 72.414L155.054 72.5417C157.02 76.161 161.072 77.4384 162.101 77.7152C156.53 80.3835 148.916 78.4958 148.838 78.4745L148.731 78.5739C148.852 79.4468 149.065 79.9577 149.185 80.199C139.726 78.4319 135.9 73.3508 135.865 73.3011L135.751 73.2727C133.175 74.5714 130.152 77.772 129.279 79.319C128.428 80.8235 127.129 85.3015 126.952 85.926H124.716C124.851 85.2234 125.632 81.2138 126.483 79.5603C127.399 77.8145 131.486 72.3147 132.274 71.3069C132.395 71.4276 132.523 71.5482 132.65 71.6689L132.778 71.6618C132.792 71.6476 132.813 71.6263 132.828 71.605L134.957 73.223L135.077 73.2088C135.475 72.7405 135.503 72.1372 135.531 71.5553C135.56 70.9805 135.581 70.434 135.943 70.0012L136.064 69.767C139.286 71.9243 142.216 74.5146 145.041 77.0197C145.438 77.3745 145.836 77.7223 146.233 78.07L146.29 78.0061L146.354 77.9423C145.928 77.5165 145.509 77.0836 145.084 76.6578C143.643 75.1888 142.146 73.6701 140.598 72.2295C144.715 73.9824 149.129 75.2739 153.408 76.523C153.912 76.672 154.423 76.821 154.934 76.97L154.955 76.8849L154.983 76.7997L153.628 76.3313C149.625 74.9404 145.488 73.5069 141.656 71.6901C145.374 72.5275 148.525 72.8611 151.534 72.7475L151.527 72.6553V72.5701C149.405 72.563 147.149 72.2721 144.431 71.6689C142.224 71.2005 139.2 70.2353 137.753 69.7315C137.739 69.7173 137.71 69.696 137.668 69.6676C137.405 69.4547 137.178 69.3483 136.958 69.2418C136.78 69.1567 136.603 69.0715 136.39 68.9225C136.433 68.8515 136.475 68.745 136.525 68.6457C136.568 68.5463 136.61 68.4399 136.653 68.376C143.274 69.9373 150.179 69.7386 156.864 69.5399C158.085 69.5044 159.348 69.4689 160.583 69.4476V69.2702C159.49 69.2489 158.39 69.2418 157.29 69.2276C153.174 69.1921 148.937 69.1567 144.8 68.738C148.142 68.7734 151.527 68.3902 154.543 66.5877L154.501 66.5096L154.458 66.4315C149.888 68.8586 144.615 68.1844 139.513 67.5315C138.796 67.4393 138.051 67.347 137.32 67.2619L138.086 66.3464C138.469 65.878 138.86 65.4167 139.25 64.9483C141.812 64.8916 144.31 64.6858 146.666 64.3451C148.49 65.3741 150.661 65.4309 152.734 65.4096L152.741 65.2322C150.967 65.0193 149.597 64.6787 148.447 64.1606C148.398 64.1393 148.348 64.111 148.291 64.0826C151.059 63.5929 153.678 62.8974 156.062 62.0245C159.064 62.5071 162.151 62.131 164.862 61.7974L164.855 61.7123L164.848 61.6271C162.222 61.8116 159.653 61.9536 157.183 61.5774C161.15 59.9736 164.457 57.8304 167.019 55.2189L166.955 55.155L166.891 55.0911C161.044 60.6833 151.549 63.8058 140.137 63.8839L140.641 63.2948C141.074 62.7839 141.507 62.2729 141.947 61.762C144.58 61.9607 146.872 61.0452 148.334 60.2433L148.291 60.1652L148.256 60.0801C147.163 60.5201 146.02 60.7968 144.871 60.9104C144.133 60.9671 143.395 60.96 142.72 60.882C143.721 59.7181 144.679 58.6324 145.637 57.5821C146.347 57.5608 147.078 57.5111 147.794 57.4401C150.399 57.355 153.28 57.4685 156.616 57.7808L156.623 57.6956L156.637 57.6104C154.671 57.2698 152.833 57.0143 151.052 56.8298C153.309 56.1911 155.033 55.1408 156.183 53.7215L156.112 53.6647L156.048 53.6008C154.181 55.5666 151.123 56.5672 146.957 56.5672C146.822 56.5672 146.694 56.5672 146.56 56.5601C147.915 55.084 149.278 53.6718 150.612 52.3447C150.782 52.2809 150.952 52.217 151.13 52.1602C151.385 52.068 151.634 51.9828 151.882 51.8906C152.705 51.628 153.408 51.3796 154.025 51.1312C156.757 50.1732 159.185 49.3783 161.455 48.69L161.427 48.6048L161.406 48.5197C159.979 48.839 158.553 49.1867 157.197 49.5203C158.787 48.4984 159.951 47.299 160.661 45.9365L160.583 45.8939L160.505 45.8442C159.071 48.0939 156.367 49.7119 152.251 50.7835C153.954 49.1796 155.452 47.3771 156.694 45.4113H156.701C156.956 45.1984 157.212 44.9784 157.467 44.7584C160.022 42.5869 162.662 40.3372 164.55 37.6334L164.479 37.5837L164.408 37.527C162.619 39.7411 160.292 41.6004 157.843 43.4527C158.674 41.8701 159.383 40.1669 159.958 38.3644C161.157 37.3921 162.307 36.3064 162.619 34.9296L162.534 34.9083L162.449 34.8799C162.066 35.9586 161.115 36.7747 160.263 37.3779C160.561 36.3205 160.81 35.2206 161.001 34.1064C162.463 33.3045 163.251 32.3961 163.343 31.4026L163.258 31.3955L163.173 31.3813C163.031 32.2258 162.328 32.978 161.079 33.6167C161.384 31.7077 161.526 29.7491 161.505 27.8046H161.328C161.271 29.9478 161.008 32.0626 160.561 34.1064C159.227 32.8716 158.468 31.6794 158.241 30.4658L158.156 30.48L158.07 30.4942C158.248 31.8284 159.028 33.1625 160.455 34.5677C159.589 38.3431 158.12 41.7708 156.09 44.7726V44.7797L156.083 44.7939L156.076 44.7868C154.82 46.639 153.344 48.3351 151.669 49.8396C152.067 47.959 152.471 45.9507 152.783 43.9423C155.466 41.1746 155.338 37.0018 155.26 34.2412H155.168L155.083 34.2341C154.934 37.2431 154.664 40.1243 153.01 42.3314C153.578 37.9599 153.514 34.3761 152.819 31.0832L152.734 31.1045L152.649 31.1187C153.209 34.667 153.025 38.5773 152.06 43.4314L152.052 43.4385C151.506 46.1281 150.768 48.9029 150.179 51.1383L149.81 51.4931L149.774 51.5002C149.703 51.5144 149.632 51.5357 149.554 51.557L149.505 51.6777L149.533 51.7486C148.738 52.4867 147.965 53.2318 147.241 53.9344C147.376 52.6073 147.489 51.3157 147.567 50.0809H147.553L147.546 50.0454H147.567C147.688 48.3493 147.752 46.7739 147.766 45.2197C148.873 44.1765 149.618 42.9275 149.931 41.6075L149.845 41.5862L149.76 41.5579C149.519 42.2178 149.178 42.8282 148.738 43.3675C148.476 43.7081 148.149 44.0417 147.773 44.3823C147.766 42.7217 147.688 41.0682 147.539 39.4644C148.696 38.2295 149.263 36.8031 149.129 35.4619L149.043 35.469L148.958 35.476C149.001 36.6328 148.483 37.8534 147.489 38.9179C147.347 37.6405 147.213 36.6044 147.042 35.6677L146.957 35.6819L146.872 35.696C147.376 39.6347 147.34 43.8785 146.773 49.0306C145.091 46.8165 144.026 44.2475 143.7 41.5791L143.615 41.5862H143.522C143.579 44.7797 144.665 47.9874 146.595 50.6203C146.418 51.9828 146.205 53.4589 145.921 55.2402C145.431 55.7369 144.899 56.2763 144.31 56.8795C144.424 54.7718 144.445 52.7209 143.7 50.8332L143.529 50.8899C144.076 53.0402 143.643 55.304 143.224 57.4827C143.189 57.6956 143.146 57.9085 143.104 58.1214C142.55 58.7104 141.982 59.3207 141.415 59.931C141.727 56.2479 141.826 51.5641 140.031 47.5048L140.038 47.4977C139.562 46.1991 139.541 44.2546 141.046 43.0411L140.989 42.9701L140.939 42.8991C139.896 43.6727 139.357 44.8862 139.406 46.2842C138.682 44.9926 137.767 43.8572 136.695 42.9062L136.639 42.9701L136.575 43.034C141.478 47.81 141.117 54.9634 140.102 61.3433C139.115 62.4291 138.136 63.5077 137.164 64.5935C136.532 61.9394 136.17 59.193 135.822 56.5388C135.567 54.6157 135.304 52.6286 134.942 50.677C134.566 49.2293 133.963 47.8171 133.381 46.5042C133.942 45.1062 134.041 43.4881 133.679 41.5721L133.594 41.5862L133.509 41.5933C133.58 42.3882 133.566 43.2043 133.452 44.0133C133.353 44.6307 133.204 45.1913 133.012 45.681C132.672 44.9217 132.317 44.1126 132.004 43.2752C131.103 40.9759 130.535 38.4141 130.315 35.6748L130.23 35.6819L130.138 35.6889C130.273 38.4637 130.763 41.0611 131.593 43.4101C131.962 44.3965 132.359 45.3829 132.742 46.341V46.3552C133.814 49.0661 134.765 51.7415 134.737 54.6511C134.786 55.4885 134.857 56.3827 134.964 57.3621C134.318 56.475 133.523 55.6021 132.551 54.7079L132.487 54.7718L132.423 54.8286C133.055 55.5666 133.622 56.333 134.098 57.1066C134.659 58.0575 135.013 58.824 135.219 59.5123C135.475 61.5491 135.815 63.6071 136.234 65.6296C136.092 65.7858 135.957 65.9419 135.822 66.0909C135.702 66.2328 135.581 66.3677 135.453 66.5096C133.069 63.6639 131.664 61.0026 131.16 58.3698L131.075 58.384L130.99 58.3911C131.238 61.1871 132.466 64.111 134.73 67.3186C134.581 67.5031 134.474 67.7444 134.361 67.9715C134.268 68.1844 134.169 68.3973 134.041 68.5605C130.266 64.9058 127.668 60.7897 126.732 56.9788L126.646 57.0001L126.561 57.0143C126.831 58.6323 127.349 60.2504 128.137 61.8968C128.925 63.5361 129.968 65.2038 131.288 66.9212C131.671 67.4109 132.274 67.9999 132.856 68.5676C133.154 68.8586 133.445 69.1354 133.679 69.3837C133.445 69.6747 133.31 70.0721 133.168 70.4624C133.062 70.7747 132.948 71.1011 132.792 71.3495L132.373 71.0302L132.26 71.0444C124.525 63.3942 123.971 55.7582 123.964 55.6802C123.552 51.1454 125.632 49.4706 126.15 49.13C126.661 54.2466 129.577 55.9072 129.911 56.0776L130.024 55.9427C128.719 54.3744 128.655 53.1325 128.598 52.0325C128.563 51.3299 128.534 50.6628 128.172 50.0028C127.654 49.059 127.697 48.6616 127.775 48.5126C127.825 48.3919 127.917 48.3706 127.924 48.3706L127.981 48.2358C126.363 45.7733 126.121 39.585 126.079 37.8392C126.476 38.4708 127.243 38.485 127.25 38.485L127.335 38.3644C126.029 34.5251 130.422 30.1678 131.43 29.2239C130.947 31.8497 132.821 34.298 133.055 34.589C132.991 35.4406 133.182 36.0083 133.608 36.2922C134.297 36.7463 135.382 36.2993 135.73 36.136C135.993 37.6263 136.333 38.3928 136.766 38.4708C136.937 38.5063 137.079 38.4212 137.171 38.336C137.249 38.7831 137.462 39.1521 137.809 39.4431C138.789 40.2663 140.485 40.1314 140.556 40.1243L140.634 40.0463C140.953 36.2425 144.438 31.6368 145.084 30.8065C145.878 33.2406 147.248 33.9716 147.305 33.9999L147.433 33.9361C148.185 29.5362 152.535 26.5343 153.294 26.0375C153.621 28.0317 154.678 29.2807 154.692 29.2949L154.77 29.3233C156.204 29.0536 157.048 26.2575 157.325 25.193C157.602 26.3995 158.127 26.5556 158.156 26.5627L158.269 26.4775C158.269 24.3201 163.364 19.8848 164.379 19.0261C164.273 19.9699 163.918 23.6815 164.649 26.7614C165.472 30.2813 166.373 35.7954 166.388 35.8522L166.487 35.9231C167.175 35.8238 167.573 35.5115 167.771 35.2986C167.708 37.9386 164.933 40.9617 164.904 40.9972L164.982 41.1392C165.777 41.0185 166.522 40.5572 166.842 40.3372C166.43 43.4881 162.967 46.3836 162.932 46.412L162.939 46.5539C163.521 46.9868 164.33 47.0436 164.656 47.0507C163.18 50.2583 158.709 53.7712 158.659 53.8066L158.709 53.9628C161.441 54.2466 164.138 51.9828 164.812 51.3725C164.862 51.9828 165.479 52.5789 165.508 52.6073L165.586 52.6286C167.594 52.288 172.732 49.2364 173.619 48.7042C173.804 51.6777 170.83 54.8498 170.802 54.8782L170.844 55.0273C171.632 55.2118 172.086 55.0769 172.356 54.8853C171.369 57.3479 167.672 59.711 167.63 59.7323Z" fill="#ECDBC7"/>
<path id="Vector_32" d="M132.317 71.1012C132.302 71.1154 132.281 71.1437 132.267 71.1721C132.409 71.3212 132.558 71.4631 132.707 71.605C132.742 71.5624 132.778 71.5199 132.806 71.4702L132.317 71.1012Z" fill="#ECDBC7"/>
</g>
</g>
<g id="Group_16">
<path id="Vector_33" d="M130.344 85.5569H119.813V86.4582H130.344V85.5569Z" fill="#ECDBC7"/>
<path id="Vector_34" d="M130.344 86.5505H119.813L119.727 86.4653V85.564L119.813 85.4789H130.344L130.429 85.564V86.4653L130.344 86.5505ZM119.905 86.3731H130.259V85.6492H119.905V86.3731Z" fill="#ECDBC7"/>
</g>
</g>
</g>
</svg>
