<?xml version="1.0" encoding="utf-8"?>
<!-- Generator: Adobe Illustrator 27.0.0, SVG Export Plug-In . SVG Version: 6.00 Build 0)  -->
<svg version="1.1" id="Layer_1" xmlns="http://www.w3.org/2000/svg" xmlns:xlink="http://www.w3.org/1999/xlink" x="0px" y="0px"
	 viewBox="0 0 352.26 224.87" style="enable-background:new 0 0 352.26 224.87;" xml:space="preserve">
<style type="text/css">
	.st0{fill:#455249;}
</style>
<g>
	<g>
		<g>
			<g>
				<rect y="132.96" class="st0" width="133.3" height="3.25"/>
				<rect x="218.96" y="132.96" class="st0" width="133.3" height="3.25"/>
			</g>
			<g>
				<rect y="217.17" class="st0" width="110.34" height="3.25"/>
				<rect x="241.92" y="217.17" class="st0" width="110.34" height="3.25"/>
			</g>
			<g>
				<path class="st0" d="M134,211.76c-1.04-0.6-2.24-0.9-3.61-0.9c-1.36,0-2.55,0.3-3.59,0.89c-1.04,0.59-1.86,1.42-2.45,2.47
					c-0.59,1.05-0.89,2.27-0.89,3.65c0,1.36,0.3,2.56,0.89,3.61c0.59,1.05,1.42,1.88,2.47,2.48c1.05,0.6,2.26,0.9,3.63,0.9
					c1.34,0,2.53-0.3,3.57-0.9c1.04-0.6,1.85-1.43,2.44-2.48c0.59-1.05,0.88-2.26,0.88-3.61c0-1.37-0.3-2.58-0.89-3.63
					C135.86,213.19,135.04,212.36,134,211.76z M134.1,220.24c-0.36,0.68-0.85,1.22-1.47,1.62c-0.63,0.39-1.35,0.59-2.18,0.59
					c-0.84,0-1.58-0.2-2.23-0.59c-0.65-0.39-1.15-0.93-1.51-1.62c-0.36-0.68-0.54-1.47-0.54-2.36c0-0.9,0.18-1.7,0.54-2.38
					c0.36-0.68,0.86-1.22,1.5-1.62c0.64-0.39,1.37-0.59,2.18-0.59c0.84,0,1.58,0.2,2.21,0.59c0.63,0.39,1.13,0.93,1.49,1.62
					c0.36,0.68,0.54,1.48,0.54,2.38C134.63,218.76,134.46,219.55,134.1,220.24z"/>
				<path class="st0" d="M148.12,211.07h-2.48h-0.17l-5.35,13.56h2.81l1.14-2.98h5.62l1.14,2.98h2.81l-5.35-13.56H148.12z
					 M144.96,219.31l1.91-5l1.91,5H144.96z"/>
				<polygon class="st0" points="168.27,211.07 164.84,211.07 159.82,216.44 159.82,211.07 157.2,211.07 157.2,224.63 
					159.82,224.63 159.82,220.11 160.82,219.04 165.2,224.63 168.48,224.63 162.55,217.19 				"/>
				<polygon class="st0" points="177.57,221.6 173.57,211.07 170.73,211.07 176.13,224.63 176.42,224.63 178.73,224.63 
					179.02,224.63 184.4,211.07 181.56,211.07 				"/>
				<rect x="187.97" y="211.07" class="st0" width="2.65" height="13.56"/>
				<polygon class="st0" points="198.16,211.07 195.5,211.07 195.5,224.63 204.13,224.63 204.13,222.21 198.16,222.21 				"/>
				<polygon class="st0" points="210.5,211.07 207.84,211.07 207.84,224.63 216.47,224.63 216.47,222.21 210.5,222.21 				"/>
				<polygon class="st0" points="222.84,222.21 222.84,218.94 227.95,218.94 227.95,216.58 222.84,216.58 222.84,213.5 
					228.77,213.5 228.77,211.07 220.19,211.07 220.19,224.63 228.85,224.63 228.85,222.21 				"/>
			</g>
			<g>
				<path class="st0" d="M30.86,155.89c-2.71-2.28-6.85-3.42-12.4-3.42c-0.75,0-2.03,0.02-3.85,0.06c-1.82,0.04-3.75,0.06-5.78,0.06
					c-1.62,0-3.23-0.02-4.85-0.06c-1.62-0.04-2.94-0.08-3.98-0.12v1.24c1.37,0.04,2.39,0.2,3.08,0.47c0.68,0.27,1.14,0.77,1.37,1.49
					c0.23,0.73,0.34,1.86,0.34,3.39v30.83c0,1.49-0.11,2.61-0.34,3.36c-0.23,0.75-0.68,1.24-1.37,1.49
					c-0.68,0.25-1.71,0.41-3.08,0.5v1.24c1.2-0.08,2.61-0.13,4.23-0.16c1.62-0.02,3.29-0.03,5.03-0.03c2.03,0,4,0.01,5.9,0.03
					c1.9,0.02,3.46,0.07,4.66,0.16v-1.3c-1.78-0.04-3.15-0.19-4.1-0.44c-0.95-0.25-1.6-0.77-1.93-1.55c-0.33-0.79-0.5-1.97-0.5-3.54
					v-10.94h3.79c3.56,0,6.49-0.43,8.79-1.31c2.3-0.87,4.11-2,5.44-3.39c1.33-1.39,2.26-2.9,2.8-4.54c0.54-1.64,0.81-3.2,0.81-4.69
					C34.93,161.11,33.57,158.17,30.86,155.89z M25.26,171.3c-0.48,1.82-1.41,3.29-2.8,4.41c-1.39,1.12-3.39,1.68-6,1.68H13.3V159
					c0-2.15,0.26-3.58,0.78-4.29c0.52-0.7,1.63-1.06,3.33-1.06c3.15,0,5.36,0.97,6.65,2.92c1.28,1.95,1.93,4.89,1.93,8.83
					C25.98,167.51,25.74,169.48,25.26,171.3z"/>
				<path class="st0" d="M83.47,194.08c-0.41,0.31-0.91,0.47-1.49,0.47c-0.83,0.04-1.46-0.3-1.89-1.03
					c-0.44-0.72-0.84-1.94-1.21-3.64l-1.43-6.4c-0.54-2.57-1.63-4.48-3.26-5.75c-1.64-1.26-4.17-2.06-7.61-2.39
					c-0.11-0.02-0.24-0.03-0.36-0.05c1.64-0.19,3.1-0.49,4.37-0.91c2.3-0.77,4.11-1.75,5.44-2.95c1.33-1.2,2.26-2.52,2.8-3.95
					c0.54-1.43,0.81-2.83,0.81-4.2c0-2.2-0.6-4.1-1.8-5.72c-1.2-1.62-3.01-2.87-5.44-3.76c-2.42-0.89-5.5-1.34-9.23-1.34
					c-0.75,0-2.03,0.02-3.85,0.06c-1.82,0.04-3.75,0.06-5.78,0.06c-1.62,0-3.23-0.02-4.85-0.06c-1.62-0.04-2.94-0.08-3.98-0.12v1.24
					c1.37,0.04,2.39,0.2,3.08,0.47c0.68,0.27,1.14,0.77,1.37,1.49c0.23,0.73,0.34,1.86,0.34,3.39v30.83c0,1.49-0.11,2.61-0.34,3.36
					c-0.23,0.75-0.68,1.24-1.37,1.49c-0.68,0.25-1.71,0.41-3.08,0.5v1.24c1.03-0.08,2.36-0.13,3.98-0.16
					c1.62-0.02,3.36-0.03,5.22-0.03c1.66,0,3.29,0.01,4.91,0.03c1.62,0.02,2.94,0.07,3.98,0.16v-1.24c-1.33-0.08-2.33-0.25-3.01-0.5
					c-0.68-0.25-1.15-0.75-1.4-1.49c-0.25-0.75-0.37-1.86-0.37-3.36v-14.29h3.79h0.87c1.45,0,2.55,0.37,3.29,1.12
					c0.75,0.75,1.34,1.78,1.77,3.11c0.43,1.33,0.82,2.86,1.15,4.6l1.18,6.21c0.5,2.61,1.43,4.38,2.8,5.31
					c1.37,0.93,3.05,1.4,5.03,1.4c1.78,0,3.25-0.3,4.41-0.9c1.16-0.6,2.26-1.54,3.29-2.83l-0.87-0.75
					C84.29,193.35,83.88,193.77,83.47,194.08z M58.76,154.71c0.52-0.7,1.63-1.06,3.33-1.06c3.15,0,5.36,0.9,6.65,2.7
					c1.28,1.8,1.93,4.34,1.93,7.61c0,1.91-0.24,3.64-0.71,5.19c-0.48,1.55-1.41,2.8-2.8,3.73c-1.39,0.93-3.39,1.4-6,1.4h-3.17V159
					C57.98,156.84,58.24,155.41,58.76,154.71z"/>
				<path class="st0" d="M126.29,187.46c0-2.03,0.06-3.69,0.19-4.97h-1.43c-0.41,3.15-1.06,5.62-1.93,7.43
					c-0.87,1.8-2.02,3.1-3.45,3.88c-1.43,0.79-3.2,1.18-5.31,1.18h-3.54c-1.29,0-2.25-0.1-2.89-0.31c-0.64-0.21-1.08-0.64-1.3-1.3
					c-0.23-0.66-0.34-1.68-0.34-3.05v-15.41h2.74c1.74,0,3.08,0.38,4.01,1.15c0.93,0.77,1.62,1.78,2.05,3.05
					c0.43,1.26,0.76,2.6,0.96,4.01h1.43c-0.17-2.36-0.27-4.16-0.31-5.41c-0.04-1.24-0.06-2.38-0.06-3.42c0-1.04-0.01-2.18-0.03-3.42
					c-0.02-1.24,0.05-3.05,0.22-5.41h-1.43c-0.12,0.83-0.32,1.71-0.59,2.64c-0.27,0.93-0.65,1.82-1.15,2.67
					c-0.5,0.85-1.15,1.54-1.96,2.08c-0.81,0.54-1.85,0.81-3.14,0.81h-2.74V158.5c0-1.37,0.11-2.38,0.34-3.05
					c0.23-0.66,0.66-1.1,1.3-1.31c0.64-0.21,1.61-0.31,2.89-0.31h3.42c2.03,0,3.68,0.34,4.94,1.03c1.26,0.68,2.27,1.84,3.01,3.48
					c0.75,1.64,1.28,3.88,1.62,6.74h1.43c-0.04-0.5-0.08-1.11-0.12-1.83c-0.04-0.72-0.06-1.48-0.06-2.27c0-0.83,0.03-2.04,0.09-3.64
					c0.06-1.59,0.18-3.24,0.34-4.94c-1.91,0.08-4.07,0.13-6.49,0.16c-2.42,0.02-4.59,0.03-6.49,0.03c-0.99,0-2.26,0-3.79,0
					s-3.2-0.01-5-0.03c-1.8-0.02-3.63-0.04-5.47-0.06c-1.84-0.02-3.6-0.05-5.25-0.09v1.24c1.37,0.04,2.39,0.2,3.08,0.47
					c0.68,0.27,1.14,0.77,1.37,1.49c0.23,0.73,0.34,1.86,0.34,3.39v30.83c0,1.49-0.11,2.61-0.34,3.36
					c-0.23,0.75-0.68,1.24-1.37,1.49c-0.68,0.25-1.71,0.41-3.08,0.5v1.24c1.66-0.04,3.41-0.07,5.25-0.09
					c1.84-0.02,3.66-0.04,5.44-0.06c1.78-0.02,3.45-0.03,5-0.03c1.55,0,2.83,0,3.82,0c2.07,0,4.43,0.01,7.09,0.03
					c2.65,0.02,5.03,0.07,7.15,0.16c-0.17-1.78-0.28-3.5-0.34-5.16C126.32,189.6,126.29,188.33,126.29,187.46z"/>
				<path class="st0" d="M163.2,175.19c-1.62-1.31-3.44-2.62-5.47-3.95c-2.2-1.41-4.09-2.66-5.69-3.76c-1.6-1.1-2.83-2.24-3.7-3.42
					c-0.87-1.18-1.3-2.64-1.3-4.38c0-2.03,0.67-3.65,2.02-4.85c1.35-1.2,3.03-1.8,5.06-1.8c2.28,0,4.15,0.63,5.62,1.9
					c1.47,1.26,2.61,2.87,3.42,4.82c0.81,1.95,1.27,3.98,1.4,6.09H166c0-2.82,0.01-5.09,0.03-6.8c0.02-1.72,0.06-3.1,0.12-4.13
					c0.06-1.03,0.11-1.95,0.15-2.73h-1.43c-0.12,0.91-0.28,1.6-0.47,2.05c-0.19,0.46-0.49,0.68-0.9,0.68c-0.29,0-0.59-0.07-0.9-0.22
					c-0.31-0.14-0.72-0.36-1.21-0.65c-0.91-0.58-1.99-1.12-3.23-1.62c-1.24-0.5-3.02-0.75-5.34-0.75c-2.28,0-4.42,0.39-6.43,1.18
					c-2.01,0.79-3.64,2-4.88,3.64c-1.24,1.64-1.86,3.74-1.86,6.31c0,2.32,0.51,4.3,1.52,5.94c1.01,1.64,2.37,3.1,4.07,4.38
					c1.7,1.28,3.52,2.55,5.47,3.79c1.9,1.16,3.56,2.3,4.97,3.42c1.41,1.12,2.51,2.32,3.29,3.61c0.79,1.28,1.18,2.78,1.18,4.47
					c0,1.7-0.35,3.1-1.06,4.19c-0.71,1.1-1.65,1.91-2.83,2.42c-1.18,0.52-2.5,0.78-3.95,0.78c-2.65,0-4.78-0.7-6.37-2.11
					c-1.6-1.41-2.78-3.26-3.54-5.56c-0.77-2.3-1.23-4.77-1.4-7.43h-1.43c0,3.15-0.01,5.75-0.03,7.8c-0.02,2.05-0.04,3.72-0.06,5
					c-0.02,1.28-0.07,2.4-0.16,3.36h1.43c0.12-0.91,0.28-1.59,0.47-2.05c0.19-0.46,0.49-0.68,0.9-0.68c0.5,0,1.2,0.29,2.11,0.87
					c1.04,0.54,2.27,1.06,3.7,1.55c1.43,0.5,3.37,0.75,5.81,0.75c2.65,0,5.1-0.43,7.33-1.31c2.24-0.87,4.02-2.2,5.35-3.98
					c1.33-1.78,1.99-4.02,1.99-6.71c0-2.28-0.47-4.2-1.4-5.78C166.09,177.93,164.82,176.49,163.2,175.19z"/>
				<path class="st0" d="M212.92,187.46c0-2.03,0.06-3.69,0.19-4.97h-1.43c-0.41,3.15-1.06,5.62-1.93,7.43
					c-0.87,1.8-2.02,3.1-3.45,3.88c-1.43,0.79-3.2,1.18-5.31,1.18h-3.54c-1.28,0-2.25-0.1-2.89-0.31c-0.64-0.21-1.08-0.64-1.31-1.3
					c-0.23-0.66-0.34-1.68-0.34-3.05v-15.41h2.73c1.74,0,3.08,0.38,4.01,1.15c0.93,0.77,1.62,1.78,2.05,3.05
					c0.44,1.26,0.76,2.6,0.96,4.01h1.43c-0.17-2.36-0.27-4.16-0.31-5.41c-0.04-1.24-0.06-2.38-0.06-3.42c0-1.04-0.01-2.18-0.03-3.42
					c-0.02-1.24,0.05-3.05,0.22-5.41h-1.43c-0.12,0.83-0.32,1.71-0.59,2.64c-0.27,0.93-0.65,1.82-1.15,2.67
					c-0.5,0.85-1.15,1.54-1.96,2.08c-0.81,0.54-1.86,0.81-3.14,0.81h-2.73V158.5c0-1.37,0.11-2.38,0.34-3.05
					c0.23-0.66,0.66-1.1,1.31-1.31c0.64-0.21,1.61-0.31,2.89-0.31h3.42c2.03,0,3.68,0.34,4.94,1.03c1.26,0.68,2.27,1.84,3.01,3.48
					c0.75,1.64,1.28,3.88,1.62,6.74h1.43c-0.04-0.5-0.08-1.11-0.12-1.83c-0.04-0.72-0.06-1.48-0.06-2.27c0-0.83,0.03-2.04,0.09-3.64
					c0.06-1.59,0.18-3.24,0.34-4.94c-1.91,0.08-4.07,0.13-6.49,0.16c-2.42,0.02-4.59,0.03-6.49,0.03c-0.99,0-2.26,0-3.79,0
					c-1.53,0-3.2-0.01-5-0.03c-1.8-0.02-3.63-0.04-5.47-0.06c-1.84-0.02-3.6-0.05-5.25-0.09v1.24c1.37,0.04,2.39,0.2,3.08,0.47
					c0.68,0.27,1.14,0.77,1.37,1.49c0.23,0.73,0.34,1.86,0.34,3.39v30.83c0,1.49-0.11,2.61-0.34,3.36
					c-0.23,0.75-0.68,1.24-1.37,1.49c-0.68,0.25-1.71,0.41-3.08,0.5v1.24c1.66-0.04,3.41-0.07,5.25-0.09
					c1.84-0.02,3.66-0.04,5.44-0.06c1.78-0.02,3.45-0.03,5-0.03c1.55,0,2.83,0,3.82,0c2.07,0,4.43,0.01,7.08,0.03
					c2.65,0.02,5.03,0.07,7.15,0.16c-0.17-1.78-0.28-3.5-0.34-5.16C212.95,189.6,212.92,188.33,212.92,187.46z"/>
				<path class="st0" d="M263.45,194.08c-0.41,0.31-0.91,0.47-1.49,0.47c-0.83,0.04-1.46-0.3-1.89-1.03
					c-0.44-0.72-0.84-1.94-1.21-3.64l-1.43-6.4c-0.54-2.57-1.63-4.48-3.26-5.75c-1.64-1.26-4.17-2.06-7.61-2.39
					c-0.11-0.02-0.24-0.03-0.36-0.05c1.64-0.19,3.1-0.49,4.37-0.91c2.3-0.77,4.11-1.75,5.44-2.95c1.33-1.2,2.26-2.52,2.8-3.95
					c0.54-1.43,0.81-2.83,0.81-4.2c0-2.2-0.6-4.1-1.8-5.72c-1.2-1.62-3.01-2.87-5.44-3.76c-2.42-0.89-5.5-1.34-9.23-1.34
					c-0.75,0-2.03,0.02-3.85,0.06c-1.82,0.04-3.75,0.06-5.78,0.06c-1.62,0-3.23-0.02-4.85-0.06c-1.62-0.04-2.94-0.08-3.98-0.12v1.24
					c1.37,0.04,2.39,0.2,3.08,0.47c0.68,0.27,1.14,0.77,1.37,1.49c0.23,0.73,0.34,1.86,0.34,3.39v30.83c0,1.49-0.11,2.61-0.34,3.36
					c-0.23,0.75-0.68,1.24-1.37,1.49c-0.68,0.25-1.71,0.41-3.08,0.5v1.24c1.03-0.08,2.36-0.13,3.98-0.16
					c1.62-0.02,3.36-0.03,5.22-0.03c1.66,0,3.29,0.01,4.91,0.03c1.62,0.02,2.94,0.07,3.98,0.16v-1.24c-1.33-0.08-2.33-0.25-3.01-0.5
					c-0.68-0.25-1.15-0.75-1.4-1.49c-0.25-0.75-0.37-1.86-0.37-3.36v-14.29h3.79h0.87c1.45,0,2.55,0.37,3.29,1.12
					c0.75,0.75,1.34,1.78,1.77,3.11c0.43,1.33,0.82,2.86,1.15,4.6l1.18,6.21c0.5,2.61,1.43,4.38,2.8,5.31
					c1.37,0.93,3.05,1.4,5.03,1.4c1.78,0,3.25-0.3,4.41-0.9c1.16-0.6,2.26-1.54,3.29-2.83l-0.87-0.75
					C264.28,193.35,263.86,193.77,263.45,194.08z M238.75,154.71c0.52-0.7,1.63-1.06,3.33-1.06c3.15,0,5.37,0.9,6.65,2.7
					c1.28,1.8,1.93,4.34,1.93,7.61c0,1.91-0.24,3.64-0.71,5.19c-0.48,1.55-1.41,2.8-2.8,3.73c-1.39,0.93-3.39,1.4-6,1.4h-3.17V159
					C237.97,156.84,238.23,155.41,238.75,154.71z"/>
				<path class="st0" d="M305.9,152.6c-1.2,0-2.41-0.02-3.64-0.06c-1.22-0.04-2.52-0.08-3.88-0.12v1.24c1.7,0.04,3,0.41,3.92,1.12
					c0.91,0.7,1.37,1.86,1.37,3.48c0,1.62-0.52,3.81-1.55,6.59l-8.47,22.59l-11.11-28.55c-0.54-1.45-0.77-2.54-0.68-3.26
					c0.08-0.72,0.49-1.22,1.21-1.49c0.72-0.27,1.77-0.42,3.14-0.47v-1.24c-0.95,0.04-2.23,0.08-3.82,0.12
					c-1.6,0.04-3.3,0.06-5.13,0.06c-1.49,0-3.01-0.02-4.57-0.06c-1.55-0.04-2.87-0.08-3.95-0.12v1.24c0.62,0.04,1.29,0.33,2.02,0.87
					c0.72,0.54,1.4,1.57,2.02,3.11l15.6,38.97c0.25,0,0.51-0.01,0.78-0.03c0.27-0.02,0.55-0.03,0.84-0.03
					c0.29,0,0.57,0.01,0.84,0.03c0.27,0.02,0.53,0.03,0.78,0.03l13.61-36.23c0.79-2.15,1.68-3.74,2.67-4.75
					c0.99-1.01,1.9-1.67,2.73-1.96v-1.24c-0.62,0.04-1.32,0.08-2.08,0.12C307.77,152.58,306.89,152.6,305.9,152.6z"/>
				<path class="st0" d="M351.92,191.25c-0.06-1.66-0.09-2.92-0.09-3.79c0-2.03,0.06-3.69,0.19-4.97h-1.43
					c-0.41,3.15-1.06,5.62-1.93,7.43c-0.87,1.8-2.02,3.1-3.45,3.88c-1.43,0.79-3.2,1.18-5.31,1.18h-3.54c-1.28,0-2.25-0.1-2.89-0.31
					c-0.64-0.21-1.08-0.64-1.31-1.3c-0.23-0.66-0.34-1.68-0.34-3.05v-15.41h2.73c1.74,0,3.08,0.38,4.01,1.15
					c0.93,0.77,1.62,1.78,2.05,3.05c0.44,1.26,0.76,2.6,0.96,4.01H343c-0.17-2.36-0.27-4.16-0.31-5.41
					c-0.04-1.24-0.06-2.38-0.06-3.42c0-1.04-0.01-2.18-0.03-3.42c-0.02-1.24,0.05-3.05,0.22-5.41h-1.43
					c-0.12,0.83-0.32,1.71-0.59,2.64c-0.27,0.93-0.65,1.82-1.15,2.67c-0.5,0.85-1.15,1.54-1.96,2.08c-0.81,0.54-1.86,0.81-3.14,0.81
					h-2.73V158.5c0-1.37,0.11-2.38,0.34-3.05c0.23-0.66,0.66-1.1,1.31-1.31c0.64-0.21,1.61-0.31,2.89-0.31h3.42
					c2.03,0,3.68,0.34,4.94,1.03c1.26,0.68,2.27,1.84,3.01,3.48c0.75,1.64,1.28,3.88,1.62,6.74h1.43c-0.04-0.5-0.08-1.11-0.12-1.83
					c-0.04-0.72-0.06-1.48-0.06-2.27c0-0.83,0.03-2.04,0.09-3.64c0.06-1.59,0.18-3.24,0.34-4.94c-1.91,0.08-4.07,0.13-6.49,0.16
					c-2.42,0.02-4.59,0.03-6.49,0.03c-0.99,0-2.26,0-3.79,0c-1.53,0-3.2-0.01-5-0.03c-1.8-0.02-3.63-0.04-5.47-0.06
					c-1.84-0.02-3.6-0.05-5.25-0.09v1.24c1.37,0.04,2.39,0.2,3.08,0.47c0.68,0.27,1.14,0.77,1.37,1.49
					c0.23,0.73,0.34,1.86,0.34,3.39v30.83c0,1.49-0.11,2.61-0.34,3.36c-0.23,0.75-0.68,1.24-1.37,1.49
					c-0.68,0.25-1.71,0.41-3.08,0.5v1.24c1.66-0.04,3.41-0.07,5.25-0.09c1.84-0.02,3.66-0.04,5.44-0.06c1.78-0.02,3.45-0.03,5-0.03
					c1.55,0,2.83,0,3.82,0c2.07,0,4.43,0.01,7.08,0.03c2.65,0.02,5.03,0.07,7.15,0.16C352.1,194.63,351.98,192.91,351.92,191.25z"/>
			</g>
			<g>
				<path class="st0" d="M165.85,124.91c-0.68,0.02-1.42,0.03-2.24,0.05c-0.82,0.02-1.63,0.02-2.45,0.02s-1.55,0-2.22,0
					c-0.68,0-1.42,0-2.24,0c-0.82,0-1.63-0.01-2.45-0.02c-0.82-0.02-1.56-0.03-2.24-0.05c0.06,0.71,0.1,1.4,0.13,2.07
					c0.02,0.67,0.03,1.18,0.03,1.54c0,0.35,0,0.69-0.01,0.99c-0.01,0.31-0.03,0.58-0.06,0.81h0.53c0.2-1.23,0.45-2.2,0.76-2.9
					c0.31-0.7,0.72-1.2,1.22-1.51c0.51-0.31,1.16-0.46,1.96-0.46h0.76v13.16c0,0.63-0.06,1.1-0.18,1.41
					c-0.12,0.31-0.36,0.51-0.72,0.61c-0.35,0.1-0.86,0.16-1.52,0.17v0.46c0.43-0.03,1-0.05,1.7-0.06c0.7-0.01,1.45-0.01,2.25-0.01
					c0.77,0,1.52,0,2.26,0.01c0.74,0.01,1.34,0.03,1.8,0.06v-0.46c-0.68-0.02-1.19-0.07-1.55-0.17c-0.35-0.1-0.59-0.3-0.7-0.61
					c-0.12-0.31-0.17-0.78-0.17-1.41v-13.16h0.74c0.82,0,1.47,0.15,1.97,0.46c0.5,0.31,0.9,0.81,1.21,1.51
					c0.31,0.7,0.57,1.67,0.78,2.9h0.53c-0.02-0.23-0.03-0.5-0.05-0.81c-0.02-0.31-0.02-0.64-0.02-0.99c0-0.35,0.01-0.87,0.03-1.54
					C165.75,126.31,165.79,125.62,165.85,124.91z"/>
				<path class="st0" d="M181.58,124.98c-0.62,0-1.23-0.01-1.85-0.02c-0.62-0.02-1.13-0.03-1.55-0.05v0.46
					c0.51,0.02,0.89,0.07,1.14,0.17c0.25,0.1,0.42,0.29,0.51,0.55c0.08,0.27,0.13,0.69,0.13,1.26v5.45h-6.58v-5.45
					c0-0.57,0.05-0.99,0.14-1.26c0.09-0.27,0.27-0.45,0.52-0.55c0.25-0.1,0.63-0.16,1.12-0.17v-0.46c-0.39,0.02-0.88,0.03-1.48,0.05
					c-0.6,0.02-1.21,0.02-1.82,0.02c-0.69,0-1.34-0.01-1.95-0.02c-0.61-0.02-1.1-0.03-1.47-0.05v0.46c0.51,0.02,0.89,0.07,1.14,0.17
					c0.25,0.1,0.42,0.29,0.51,0.55c0.08,0.27,0.13,0.69,0.13,1.26v11.45c0,0.55-0.04,0.97-0.13,1.25c-0.08,0.28-0.25,0.46-0.51,0.55
					s-0.63,0.15-1.14,0.18v0.46c0.37-0.03,0.86-0.05,1.47-0.06c0.61-0.01,1.26-0.01,1.95-0.01c0.62,0,1.22,0,1.82,0.01
					c0.6,0.01,1.09,0.03,1.48,0.06v-0.46c-0.49-0.03-0.87-0.09-1.13-0.18c-0.26-0.09-0.44-0.28-0.52-0.55
					c-0.08-0.28-0.13-0.69-0.13-1.25v-5.54h6.58v5.54c0,0.55-0.04,0.97-0.13,1.25c-0.08,0.28-0.25,0.46-0.51,0.55
					c-0.25,0.09-0.63,0.15-1.14,0.18v0.46c0.42-0.03,0.93-0.05,1.55-0.06c0.62-0.01,1.23-0.01,1.85-0.01c0.68,0,1.31,0,1.9,0.01
					c0.59,0.01,1.07,0.03,1.42,0.06v-0.46c-0.49-0.03-0.87-0.09-1.13-0.18c-0.26-0.09-0.43-0.28-0.52-0.55
					c-0.08-0.28-0.13-0.69-0.13-1.25v-11.45c0-0.57,0.05-0.99,0.14-1.26c0.09-0.27,0.27-0.45,0.52-0.55
					c0.25-0.1,0.63-0.16,1.12-0.17v-0.46c-0.35,0.02-0.83,0.03-1.42,0.05C182.89,124.98,182.25,124.98,181.58,124.98z"/>
				<path class="st0" d="M200.15,139.34c-0.02-0.62-0.03-1.08-0.03-1.41c0-0.75,0.02-1.37,0.07-1.85h-0.53
					c-0.15,1.17-0.39,2.09-0.72,2.76c-0.32,0.67-0.75,1.15-1.28,1.44c-0.53,0.29-1.19,0.44-1.97,0.44h-1.32
					c-0.48,0-0.84-0.04-1.07-0.12c-0.24-0.08-0.4-0.24-0.48-0.48c-0.08-0.25-0.13-0.62-0.13-1.13v-5.73h1.02
					c0.65,0,1.14,0.14,1.49,0.43c0.35,0.28,0.6,0.66,0.76,1.13c0.16,0.47,0.28,0.97,0.36,1.49h0.53c-0.06-0.88-0.1-1.55-0.12-2.01
					c-0.02-0.46-0.02-0.88-0.02-1.27c0-0.38,0-0.81-0.01-1.27c-0.01-0.46,0.02-1.13,0.08-2.01h-0.53c-0.05,0.31-0.12,0.63-0.22,0.98
					c-0.1,0.35-0.24,0.68-0.43,0.99c-0.18,0.32-0.43,0.57-0.73,0.77c-0.3,0.2-0.69,0.3-1.17,0.3h-1.02v-5.63
					c0-0.51,0.04-0.89,0.13-1.13c0.08-0.25,0.25-0.41,0.48-0.48c0.24-0.08,0.6-0.12,1.07-0.12h1.27c0.75,0,1.37,0.13,1.84,0.38
					c0.47,0.25,0.84,0.69,1.12,1.29c0.28,0.61,0.48,1.44,0.6,2.51h0.53c-0.02-0.18-0.03-0.41-0.05-0.68
					c-0.02-0.27-0.02-0.55-0.02-0.84c0-0.31,0.01-0.76,0.03-1.35c0.02-0.59,0.07-1.2,0.13-1.84c-0.71,0.03-1.51,0.05-2.41,0.06
					c-0.9,0.01-1.71,0.01-2.41,0.01c-0.37,0-0.84,0-1.41,0c-0.57,0-1.19,0-1.86-0.01c-0.67-0.01-1.35-0.02-2.03-0.02
					c-0.69-0.01-1.34-0.02-1.95-0.03v0.46c0.51,0.02,0.89,0.07,1.14,0.17c0.25,0.1,0.42,0.29,0.51,0.55
					c0.08,0.27,0.13,0.69,0.13,1.26v11.45c0,0.55-0.04,0.97-0.13,1.25c-0.08,0.28-0.25,0.46-0.51,0.55
					c-0.25,0.09-0.63,0.15-1.14,0.18v0.46c0.62-0.02,1.27-0.03,1.95-0.03c0.68-0.01,1.36-0.02,2.02-0.02
					c0.66-0.01,1.28-0.01,1.86-0.01c0.58,0,1.05,0,1.42,0c0.77,0,1.65,0,2.63,0.01c0.98,0.01,1.87,0.03,2.65,0.06
					C200.21,140.6,200.17,139.96,200.15,139.34z"/>
			</g>
		</g>
	</g>
	<g>
		<g>
			<g>
				<path class="st0" d="M165.08,100.71l0.69-0.52c0.02,0.02,0.05,0.06,0.07,0.1c-0.2,0.21-0.41,0.41-0.62,0.61
					C165.17,100.84,165.12,100.78,165.08,100.71z"/>
				<path class="st0" d="M167.22,94.3c3.72-4.84,5.9-9.4,6.66-13.96l-0.12-0.02l-0.12-0.03c-1.33,5.37-4.98,11.17-10.3,16.32
					c-0.18-0.23-0.32-0.53-0.45-0.83c-0.16-0.32-0.31-0.66-0.52-0.92c3.19-4.52,4.92-8.64,5.27-12.58l-0.12-0.01l-0.12-0.02
					c-0.71,3.71-2.69,7.46-6.05,11.47c-0.18-0.2-0.36-0.4-0.54-0.61s-0.37-0.42-0.55-0.63c0.58-2.86,1.06-5.76,1.42-8.6
					c0.29-0.99,0.79-2.08,1.58-3.4c0.67-1.1,1.47-2.18,2.36-3.22l-0.09-0.08l-0.08-0.09c-1.38,1.26-2.5,2.49-3.41,3.74
					c0.15-1.39,0.25-2.64,0.32-3.83c-0.04-4.09,1.3-7.86,2.81-11.68V65.3c0.54-1.34,1.09-2.72,1.62-4.13
					c1.17-3.31,1.86-6.97,2.05-10.88l-0.13-0.01l-0.12-0.01c-0.31,3.86-1.11,7.47-2.38,10.72c-0.45,1.18-0.96,2.36-1.42,3.38
					c-0.27-0.69-0.48-1.48-0.62-2.35c-0.16-1.14-0.18-2.29-0.08-3.41l-0.12-0.01l-0.12-0.02c-0.51,2.7-0.37,4.98,0.42,6.95
					c-0.82,1.85-1.67,3.83-2.2,5.89c-0.51,2.74-0.88,5.54-1.24,8.25c-0.49,3.74-1,7.61-1.89,11.35c-1.37-1.53-2.75-3.05-4.14-4.58
					c-1.43-8.99-1.94-19.07,4.97-25.8l-0.09-0.09l-0.08-0.09c-1.51,1.34-2.8,2.94-3.82,4.76c0.07-1.97-0.7-3.68-2.16-4.77l-0.07,0.1
					l-0.08,0.1c2.12,1.71,2.09,4.45,1.42,6.28l0.02,0.01c-2.54,5.72-2.4,12.31-1.96,17.51c-0.77-0.84-1.57-1.69-2.38-2.55
					c-0.06-0.3-0.12-0.59-0.17-0.89c-0.59-3.08-1.2-6.26-0.43-9.3l-0.24-0.08c-1.05,2.66-1.03,5.55-0.86,8.52
					c-0.86-0.88-1.58-1.62-2.27-2.31c-0.4-2.51-0.71-4.58-0.95-6.51c2.72-3.71,4.25-8.23,4.33-12.73h-0.13l-0.12-0.01
					c-0.46,3.76-1.96,7.38-4.33,10.5c-0.8-7.25-0.85-13.23-0.14-18.79l-0.12-0.02l-0.12-0.02c-0.24,1.33-0.43,2.76-0.63,4.58
					c-1.4-1.5-2.13-3.22-2.06-4.85l-0.13-0.01l-0.12-0.01c-0.19,1.89,0.61,3.9,2.24,5.64c-0.21,2.26-0.32,4.59-0.32,6.93
					c-0.54-0.48-1-0.95-1.37-1.43c-0.62-0.76-1.1-1.62-1.44-2.55l-0.12,0.04l-0.12,0.03c0.44,1.86,1.49,3.62,3.05,5.09
					c0.02,2.19,0.11,4.41,0.28,6.8h0.01v0.05h-0.01c0.11,1.72,0.27,3.55,0.46,5.43c-1.02-0.99-2.11-2.04-3.23-3.08l0.04-0.1
					l-0.07-0.17c-0.11-0.03-0.21-0.06-0.31-0.08l-0.05-0.01l-0.52-0.5c-0.84-3.15-1.87-7.07-2.64-10.84l-0.02-0.02h0.01
					c-1.36-6.84-1.62-12.35-0.83-17.35L137,43.83l-0.12-0.03c-0.98,4.65-1.07,9.69-0.27,15.85c-2.33-3.11-2.71-7.17-2.92-11.41
					l-0.12,0.01h-0.13c-0.11,3.89-0.29,9.77,3.49,13.67c0.45,2.86,1.01,5.68,1.57,8.31c-2.36-2.12-4.44-4.51-6.21-7.12l-0.01,0.01
					l-0.01-0.02v-0.01c-2.86-4.23-4.93-9.06-6.15-14.38c2.01-1.98,3.11-3.86,3.36-5.74l-0.12-0.02l-0.12-0.02
					c-0.32,1.71-1.39,3.39-3.27,5.13c-0.63-2.87-1-5.86-1.09-8.88h-0.25c-0.02,2.75,0.18,5.5,0.61,8.19
					c-1.76-0.9-2.75-1.96-2.95-3.15l-0.12,0.02l-0.12,0.01c0.13,1.4,1.24,2.68,3.3,3.81c0.27,1.58,0.62,3.13,1.04,4.61
					c-1.2-0.85-2.54-2-3.08-3.52l-0.12,0.04l-0.12,0.03c0.44,1.93,2.06,3.47,3.75,4.84c0.8,2.53,1.81,4.94,2.98,7.17
					c-3.45-2.61-6.74-5.23-9.25-8.35l-0.1,0.08l-0.1,0.07c2.66,3.81,6.38,6.98,9.98,10.04c0.36,0.31,0.72,0.62,1.08,0.92h0.01
					c1.75,2.77,3.85,5.31,6.26,7.57c-5.8-1.51-9.61-3.79-11.63-6.96l-0.11,0.07l-0.11,0.06c1,1.92,2.64,3.61,4.88,5.05
					c-1.91-0.47-3.92-0.96-5.93-1.41l-0.03,0.12l-0.04,0.12c3.2,0.97,6.62,2.09,10.46,3.44c0.88,0.35,1.87,0.7,3.03,1.07
					c0.35,0.13,0.7,0.25,1.06,0.38c0.24,0.08,0.49,0.17,0.73,0.26c1.88,1.87,3.8,3.87,5.71,5.94c-0.18,0.01-0.37,0.01-0.56,0.01
					c-5.87,0-10.18-1.41-12.81-4.18l-0.09,0.09l-0.1,0.08c1.62,2,4.05,3.48,7.23,4.38c-2.51,0.26-5.1,0.62-7.87,1.1l0.02,0.12
					l0.01,0.12c4.7-0.44,8.76-0.6,12.42-0.49c1.02,0.11,2.05,0.18,3.05,0.21c1.34,1.47,2.72,3.03,4.11,4.65
					c-0.95,0.11-1.99,0.12-3.03,0.04c-1.62-0.16-3.23-0.55-4.77-1.17l-0.05,0.12l-0.06,0.11c2.06,1.13,5.29,2.41,9,2.14
					c0.61,0.71,1.22,1.43,1.83,2.15l0.72,0.84c-16.08-0.11-29.46-4.51-37.7-12.39l-0.09,0.09l-0.09,0.09
					c3.61,3.68,8.27,6.7,13.86,8.96c-3.48,0.53-7.1,0.33-10.8,0.07l-0.01,0.12l-0.02,0.12c3.83,0.47,8.18,1,12.41,0.32
					c3.36,1.23,7.05,2.21,10.95,2.9c-0.08,0.04-0.15,0.08-0.22,0.11c-1.62,0.73-3.55,1.21-6.05,1.51l0.01,0.25
					c2.92,0.04,5.98-0.05,8.55-1.5c3.32,0.48,6.84,0.77,10.45,0.85c0.56,0.66,1.11,1.33,1.66,2c0.35,0.42,0.7,0.84,1.06,1.26
					c-1.03,0.12-2.08,0.25-3.09,0.38c-7.19,0.92-14.62,1.87-21.06-1.55l-0.06,0.11l-0.06,0.11c4.25,2.54,9.03,3.09,13.73,3.03
					c-5.83,0.59-11.8,0.64-17.6,0.69c-1.55,0.02-3.1,0.03-4.64,0.06v0.25c1.74,0.03,3.52,0.08,5.24,0.13
					c9.41,0.27,19.15,0.56,28.48-1.64c0.06,0.09,0.12,0.24,0.18,0.38c0.07,0.15,0.13,0.29,0.19,0.39c-0.3,0.21-0.55,0.33-0.8,0.45
					c-0.31,0.15-0.63,0.3-0.99,0.6c-0.06,0.04-0.11,0.07-0.13,0.09c-2.04,0.71-6.31,2.07-9.41,2.73c-3.83,0.85-7.01,1.26-10,1.27
					v0.25c4.23,0.16,8.68-0.31,13.91-1.49c-5.4,2.55-11.22,4.58-16.86,6.54l-1.92,0.66l0.04,0.12l0.04,0.12
					c0.71-0.21,1.43-0.42,2.14-0.63c6.03-1.76,12.25-3.58,18.05-6.05c-2.19,2.03-4.29,4.17-6.33,6.25c-0.59,0.6-1.18,1.2-1.78,1.8
					l0.09,0.09l0.08,0.09c0.56-0.48,1.11-0.98,1.67-1.47c3.99-3.53,8.11-7.19,12.66-10.23l0.18,0.35c0.5,0.59,0.53,1.36,0.57,2.17
					c0.04,0.82,0.09,1.67,0.64,2.33l0.17,0.02l3-2.28c0.02,0.03,0.05,0.06,0.07,0.08l0.18,0.01c0.18-0.17,0.36-0.34,0.53-0.51
					c1.11,1.42,6.87,9.16,8.16,11.63c1.2,2.33,2.3,7.98,2.49,8.97h-3.15c-0.25-0.88-2.08-7.19-3.28-9.31
					c-1.23-2.18-5.5-6.69-9.12-8.52l-0.16,0.04c-0.05,0.07-5.44,7.23-18.77,9.72c0.17-0.34,0.47-1.06,0.64-2.29l-0.15-0.14
					c-0.11,0.03-10.84,2.69-18.69-1.07c1.45-0.39,7.16-2.19,9.93-7.29l-0.12-0.18c-0.11,0.01-11.29,0.99-16.36-6.63
					c0.97,0.28,3.91,1.01,6.72,0.46l0.03-0.23c-0.11-0.06-11.42-5.13-13.84-11.96c0.74,0.21,3.15,0.82,5.78,0.73l0.07-0.24
					c-0.06-0.03-5.27-3.36-6.66-6.83c0.38,0.27,1.02,0.47,2.13,0.2l0.06-0.21c-0.04-0.04-4.23-4.51-3.97-8.7
					c1.25,0.75,8.49,5.05,11.32,5.53l0.11-0.03c0.04-0.04,0.91-0.88,0.98-1.74c0.95,0.86,4.77,4.05,8.6,3.65l0.07-0.22
					c-0.07-0.05-6.37-5-8.45-9.52c0.46-0.01,1.6-0.09,2.42-0.7l0.01-0.2c-0.05-0.04-4.93-4.12-5.51-8.56
					c0.45,0.31,1.5,0.96,2.62,1.13l0.11-0.2c-0.04-0.05-3.95-4.31-4.04-8.03c0.28,0.3,0.84,0.74,1.81,0.88l0.14-0.1
					c0.02-0.08,1.29-7.85,2.45-12.81c1.03-4.34,0.53-9.57,0.38-10.9c1.43,1.21,8.62,7.46,8.62,10.5l0.15,0.12
					c0.04-0.01,0.78-0.23,1.17-1.93c0.39,1.5,1.58,5.44,3.6,5.82l0.12-0.04c0.01-0.02,1.5-1.78,1.96-4.59
					c1.07,0.7,7.2,4.93,8.26,11.13l0.18,0.09c0.08-0.04,2.01-1.07,3.13-4.5c0.91,1.17,5.82,7.66,6.27,13.02l0.11,0.11
					c0.1,0.01,2.49,0.21,3.87-0.96c0.49-0.41,0.79-0.93,0.9-1.56c0.13,0.12,0.34,0.24,0.57,0.19c0.61-0.11,1.09-1.19,1.46-3.29
					c0.49,0.23,2.02,0.86,2.99,0.22c0.6-0.4,0.87-1.2,0.78-2.4c0.33-0.41,2.97-3.86,2.28-7.56c1.43,1.33,7.62,7.47,5.78,12.88
					l0.12,0.17c0.01,0,1.09-0.02,1.65-0.91c-0.06,2.46-0.4,11.18-2.68,14.65l0.08,0.19c0,0,0.14,0.03,0.21,0.2
					c0.11,0.21,0.17,0.77-0.56,2.1c-0.51,0.93-0.55,1.87-0.6,2.86c-0.08,1.55-0.17,3.3-2.01,5.51l0.16,0.19
					c0.19-0.1,4.57-2.45,5.3-9.79c0.73,0.48,3.66,2.84,3.07,9.23c0,0.11-0.78,10.86-11.68,21.65l-0.16-0.02l-0.59,0.45
					c-0.22-0.35-0.38-0.81-0.53-1.25c-0.2-0.55-0.4-1.11-0.72-1.52c0.33-0.35,0.74-0.74,1.16-1.15
					C165.83,95.82,166.68,94.99,167.22,94.3z"/>
				<path class="st0" d="M165.77,100.19l-0.69,0.52c0.04,0.07,0.09,0.13,0.14,0.19c0.21-0.2,0.42-0.4,0.62-0.61
					C165.82,100.25,165.79,100.21,165.77,100.19z"/>
			</g>
		</g>
		<g>
			<g>
				<path class="st0" d="M178.18,61.52l0.65,0.06v0.09c-0.21,0.01-0.42,0.02-0.64,0.02C178.18,61.63,178.18,61.58,178.18,61.52z"/>
				<path class="st0" d="M205.07,40.72c-1.23,1.38-5.27,5.75-8.11,6.48l-0.06,0.21c0,0,0.06,0.07,0.03,0.18
					c-0.04,0.16-0.25,0.47-1.25,0.82c-0.72,0.25-1.18,0.74-1.66,1.26c-0.74,0.78-1.58,1.68-3.64,1.96l-0.01,0.25
					c0.15,0.04,3.77,0.92,7.51-2.64c0.22,0.68,0.77,3.32-2.37,6.4c-0.06,0.05-5.36,5.44-16.59,5.9l-0.08-0.09l-0.52-0.04
					c0.03-0.29,0.13-0.59,0.24-0.9c0.14-0.38,0.27-0.77,0.28-1.15c0.34-0.02,0.73-0.03,1.15-0.05c0.85-0.02,1.72-0.05,2.35-0.16
					c4.37-0.78,7.71-2.17,10.22-4.25l-0.08-0.1l-0.07-0.1c-3.19,2.24-7.93,3.56-13.35,3.72c0.01-0.2,0.06-0.41,0.11-0.63
					c0.06-0.24,0.11-0.49,0.12-0.72c3.9-0.88,6.76-2.25,8.75-4.19l-0.08-0.09l-0.08-0.1c-2.08,1.64-4.92,2.69-8.68,3.2
					c-0.01-0.18-0.02-0.37-0.03-0.55c-0.02-0.2-0.03-0.4-0.04-0.61c1.63-1.25,3.21-2.57,4.7-3.91c0.61-0.39,1.39-0.73,2.45-1.05
					c0.89-0.26,1.84-0.45,2.83-0.57l-0.02-0.25c-1.33,0.01-2.51,0.11-3.58,0.33c0.68-0.66,1.28-1.26,1.84-1.84
					c1.82-2.22,4.3-3.58,6.91-4.9l0.01-0.01c0.92-0.45,1.87-0.93,2.81-1.42c2.19-1.21,4.25-2.85,6.13-4.87l-0.18-0.17
					c-1.92,1.92-4.02,3.47-6.22,4.6c-0.78,0.4-1.57,0.76-2.31,1.09c0.15-0.48,0.38-0.98,0.68-1.49c0.42-0.69,0.92-1.32,1.49-1.87
					l-0.16-0.19c-1.52,1.21-2.47,2.5-2.91,3.96c-1.31,0.59-2.7,1.24-3.94,2.08c-1.54,1.23-3.02,2.55-4.45,3.84
					c-1.97,1.76-4,3.57-6.19,5.14c-0.11-1.48-0.23-2.95-0.35-4.43c3.23-5.53,7.48-11.19,14.53-11.42v-0.25
					c-1.46-0.01-2.9,0.21-4.29,0.66c0.88-1.02,1.18-2.3,0.83-3.58l-0.12,0.04l-0.13,0.03c0.46,1.94-0.78,3.38-1.98,4.03v0.01
					c-4.04,1.83-6.94,5.4-9.02,8.41c-0.08-0.82-0.15-1.64-0.24-2.46c0.1-0.18,0.2-0.36,0.3-0.55c1.05-1.94,2.13-3.95,3.94-5.2
					l-0.12-0.21c-1.8,0.91-3.09,2.45-4.33,4.11c-0.09-0.87-0.18-1.6-0.27-2.28c0.9-1.54,1.66-2.8,2.37-3.94
					c3.27-0.67,6.22-2.35,8.29-4.74l-0.09-0.08l-0.09-0.09c-1.94,1.78-4.43,2.99-7.19,3.51c2.8-4.27,5.46-7.48,8.37-10.11l-0.08-0.1
					l-0.08-0.09c-0.72,0.59-1.49,1.26-2.39,2.12c-0.13-1.47,0.22-2.72,0.98-3.55l-0.09-0.08l-0.09-0.09
					c-0.97,0.94-1.42,2.41-1.25,4.15c-1.13,1.1-2.23,2.28-3.27,3.51c-0.09-0.5-0.14-0.96-0.14-1.38c-0.02-0.7,0.09-1.4,0.31-2.07
					l-0.12-0.04l-0.11-0.05c-0.59,1.22-0.77,2.69-0.53,4.24c-0.97,1.19-1.92,2.42-2.9,3.79l0.02,0.01l-0.01,0.03l-0.03-0.02
					c-0.7,0.97-1.41,1.98-2.14,3.08c-0.16-1.14-0.31-2.13-0.48-3.14l0.04-0.01l0.05-0.19c-0.04-0.06-0.09-0.13-0.13-0.19l-0.03-0.03
					l-0.08-0.5c0.94-2.11,2.1-4.72,3.35-7.11v-0.04l0.01,0.01c2.3-4.34,4.63-7.43,7.35-9.73l-0.08-0.09l-0.07-0.1
					c-2.65,2-4.97,4.65-7.28,8.31c0.09-2.76,1.68-5.1,3.45-7.44l-0.1-0.08l-0.09-0.08c-1.84,2.04-4.6,5.12-4.16,9.09
					c-1.01,1.72-1.94,3.48-2.79,5.14c-0.41-2.26-0.54-4.54-0.39-6.78h-0.02v-0.02h0.02c0.23-3.67,1.21-7.27,2.89-10.72
					c2.06-0.08,3.56-0.55,4.56-1.45l-0.08-0.09l-0.08-0.1c-0.94,0.75-2.31,1.13-4.16,1.15c0.92-1.84,2.05-3.61,3.35-5.26l-0.09-0.08
					l-0.1-0.08c-1.25,1.45-2.36,3.01-3.32,4.65c-0.59-1.31-0.69-2.34-0.28-3.06l-0.1-0.06L178.56,10c-0.56,0.84-0.5,2.05,0.2,3.69
					c-0.54,0.95-1.02,1.92-1.43,2.89c-0.31-1.02-0.55-2.25-0.19-3.3l-0.23-0.1c-0.62,1.27-0.37,2.89,0,4.46
					c-0.66,1.71-1.15,3.45-1.47,5.17c-0.82-3.05-1.54-6.02-1.6-8.89h-0.12l-0.13-0.01c-0.16,3.37,0.58,6.9,1.29,10.32l0.22,1.02
					c-0.22,2.3-0.15,4.65,0.22,7c-2.65-3.61-3.81-6.66-3.57-9.32l-0.24-0.04c-0.27,1.48-0.11,3.12,0.49,4.92
					c-0.86-1.14-1.77-2.33-2.69-3.5l-0.1,0.08l-0.11,0.07c1.43,2.09,2.92,4.37,4.56,6.98c0.35,0.63,0.76,1.28,1.28,2.06
					c0.15,0.24,0.29,0.48,0.44,0.72c0.11,0.17,0.21,0.33,0.31,0.5c0.25,1.89,0.47,3.88,0.64,5.9c-0.09-0.07-0.17-0.15-0.26-0.22
					c-3.43-2.88-5.31-5.74-5.59-8.51l-0.12,0.01h-0.13c0.04,1.83,0.75,3.76,2.13,5.76c-1.53-1.06-3.15-2.1-4.93-3.16l-0.06,0.1
					l-0.07,0.11c2.94,2.06,5.39,3.97,7.47,5.82c0.54,0.56,1.11,1.1,1.68,1.61c0.12,1.43,0.22,2.88,0.3,4.42
					c-0.59-0.39-1.18-0.88-1.73-1.42c-0.87-0.88-1.63-1.88-2.26-2.96l-0.11,0.06l-0.11,0.05c0.69,1.62,1.99,3.89,4.28,5.57
					c0.04,0.69,0.07,1.39,0.1,2.08l0.03,0.68c-9.29-7.94-15.1-16.85-16.34-25.11l-0.13,0.02l-0.12,0.02
					c0.44,3.72,1.77,7.58,3.97,11.5c-2.22-1.41-4.21-3.26-6.21-5.18l-0.18,0.17c2.03,2.14,4.33,4.55,7.11,6.26
					c1.39,2.29,3.07,4.58,5,6.84c-0.02,0-0.04-0.01-0.05-0.02c-1.28-0.4-2.62-1.08-4.22-2.15l-0.07,0.1l-0.08,0.1
					c1.69,1.45,3.52,2.91,5.68,3.39c1.72,1.89,3.63,3.76,5.7,5.58c0.03,0.62,0.05,1.25,0.07,1.88c0.01,0.37,0.03,0.74,0.04,1.12
					c-0.63-0.43-1.27-0.85-1.92-1.28c-4.61-3.03-9.37-6.16-11.59-11.16l-0.23,0.1c1.23,3.18,3.48,5.67,5.99,7.82
					c-3.41-2.42-6.68-5.12-9.87-7.76c-0.92-0.75-1.83-1.51-2.74-2.25l-0.08,0.1l-0.08,0.09c1,0.88,2,1.76,3,2.65
					c5.37,4.76,10.92,9.68,17.37,13.08c-0.02,0.08-0.04,0.18-0.07,0.27c-0.02,0.1-0.05,0.19-0.06,0.27
					c-0.25-0.04-0.44-0.09-0.63-0.15c-0.25-0.07-0.51-0.14-0.85-0.16c-0.05-0.01-0.09-0.01-0.12-0.02
					c-1.51-0.62-4.61-1.97-6.72-3.14c-2.62-1.42-4.66-2.76-6.41-4.22l-0.08,0.09l-0.08,0.09c2.33,2.11,5.05,3.99,8.49,5.87
					c-4.19-1.27-8.39-2.99-12.45-4.65l-1.43-0.59l-0.1,0.23l1.54,0.72c4.26,1.98,8.65,4.02,13.09,5.53
					c-2.12,0.03-4.24,0.14-6.3,0.26c-0.62,0.03-1.24,0.06-1.86,0.1v0.25c0.54,0,1.09,0.01,1.63,0.02c3.92,0.06,7.98,0.11,12,0.7
					l-0.04,0.26c0.01,0.55-0.31,0.97-0.65,1.42c-0.35,0.47-0.71,0.95-0.69,1.59l0.12,0.12l2.76,0.25v0.05l0.13,0.12
					c0.17,0,0.34-0.01,0.52-0.01c-0.01,1.37-0.14,8.28-0.5,10.22c-0.34,1.8-2.18,5.27-2.57,6l-1.8-1.51
					c0.29-0.67,2.03-4.89,2.29-6.61c0.26-1.77-0.19-6.3-1.48-9.08l-0.14-0.06c-0.06,0.01-6.4,1.21-15.28-3.95
					c0.28-0.11,0.75-0.36,1.35-0.89l-0.02-0.21c-0.08-0.04-7.46-3.82-10.37-9.63c1.17,0.56,5.2,2.24,9.02,0.9l0.03-0.22
					c-0.08-0.05-6.96-4.94-6.56-11.46c0.49,0.69,1.85,2.43,3.67,3.47l0.18-0.16c-0.05-0.09-4.31-8.28-2.71-13.14
					c0.38,0.53,1.49,1.98,3.03,3.19l0.19-0.14c-0.02-0.05-1.51-4.26-0.82-6.81c0.12,0.32,0.42,0.7,1.12,1.07l0.19-0.12
					c-0.01-0.05-0.43-4.44,1.56-6.57c0.44,1.13,2.68,6.87,4.1,8.5l0.1,0.04c0.04,0,0.89-0.02,1.34-0.42
					c0.18,1.01,0.96,4.48,3.38,6.15l0.19-0.13c-0.01-0.06-1.43-5.74-0.64-9.19c0.3,0.24,0.97,0.71,1.7,0.78l0.14-0.15
					c-0.01-0.04-1-4.55,0.61-7.22c0.13,0.41,0.45,1.23,1,1.85l0.22-0.1c-0.01-0.04-0.35-4.15,1.21-6.21
					c0.04,0.31,0.19,0.79,0.66,1.31l0.17,0.01c0.04-0.03,4.3-3.59,7.22-5.69c2.5-1.78,4.54-4.73,5.12-5.62
					c0.31,1.49,1.61,8.18,0.27,9.78l0.05,0.19c0.02,0.01,0.54,0.25,1.5-0.41c-0.48,1.07-1.47,3.67-0.49,4.84l0.11,0.04
					c0.07-0.01,1.67-0.22,3.21-1.49c0.34,1,1.93,6.19-0.22,9.98l0.08,0.18c0.07,0.02,1.65,0.41,3.84-0.86
					c0.01,1.18-0.09,6.96-2.22,10.01l0.02,0.16c0.02,0.02,2.32,2.25,3.93,1.01c0.03,0.13,0.1,0.28,0.26,0.37
					c0.41,0.23,1.18-0.12,2.34-1.05c0.2,0.4,0.83,1.49,1.71,1.58c0.51,0.05,1.02-0.26,1.5-0.92c0.46-0.07,3.42-0.61,4.72-2.88
					c0.25,1.55,0.99,7.68-2.44,9.64l-0.02,0.2C203.77,40.38,204.37,40.87,205.07,40.72z"/>
				<path class="st0" d="M178.18,61.52c0,0.06,0,0.11,0.01,0.17c0.22,0,0.43-0.01,0.64-0.02v-0.09L178.18,61.52z"/>
			</g>
		</g>
		<g>
			<g>
				<path class="st0" d="M187,100.9c-0.21-0.2-0.42-0.4-0.62-0.61c0.02-0.04,0.05-0.08,0.07-0.1l0.69,0.52
					C187.1,100.78,187.05,100.84,187,100.9z"/>
				<path class="st0" d="M236.21,84.17l0.07,0.24c2.62,0.09,5.04-0.52,5.78-0.73c-2.42,6.83-13.73,11.9-13.84,11.96l0.03,0.23
					c2.81,0.55,5.75-0.18,6.72-0.46c-5.08,7.62-16.24,6.64-16.36,6.63l-0.12,0.18c2.77,5.1,8.48,6.9,9.93,7.29
					c-7.85,3.76-18.58,1.1-18.69,1.07l-0.15,0.14c0.17,1.23,0.47,1.95,0.64,2.29c-13.33-2.49-18.72-9.65-18.77-9.72l-0.16-0.04
					c-3.63,1.83-7.89,6.34-9.12,8.52c-1.2,2.12-3.03,8.43-3.28,9.31h-3.15c0.19-0.99,1.29-6.64,2.49-8.97
					c1.29-2.46,7.05-10.21,8.16-11.63c0.17,0.17,0.35,0.34,0.53,0.51l0.18-0.01c0.02-0.02,0.05-0.05,0.07-0.08l3,2.28l0.17-0.02
					c0.56-0.66,0.6-1.51,0.64-2.33c0.04-0.81,0.07-1.58,0.58-2.19l0.17-0.33c4.54,3.04,8.67,6.69,12.65,10.22
					c0.56,0.5,1.12,0.99,1.68,1.48l0.08-0.09l0.09-0.09c-0.6-0.6-1.19-1.21-1.79-1.81c-2.03-2.07-4.14-4.21-6.32-6.24
					c5.8,2.47,12.02,4.29,18.05,6.05c0.71,0.21,1.43,0.42,2.15,0.63l0.03-0.12l0.04-0.12l-1.91-0.66
					c-5.64-1.96-11.47-3.98-16.87-6.54c5.24,1.18,9.68,1.65,13.92,1.49l-0.01-0.13v-0.12c-2.99-0.01-6.17-0.42-10-1.27
					c-3.11-0.66-7.37-2.02-9.41-2.73c-0.02-0.02-0.06-0.05-0.12-0.09c-0.37-0.3-0.69-0.45-1-0.6c-0.25-0.12-0.5-0.24-0.8-0.45
					c0.06-0.1,0.12-0.25,0.19-0.39c0.06-0.14,0.12-0.29,0.18-0.38c9.33,2.2,19.06,1.92,28.48,1.64c1.72-0.05,3.5-0.1,5.24-0.13
					v-0.25c-1.54-0.03-3.09-0.04-4.64-0.06c-5.8-0.05-11.77-0.1-17.6-0.69c4.71,0.05,9.48-0.49,13.73-3.03l-0.06-0.11l-0.06-0.11
					c-6.44,3.42-13.87,2.47-21.06,1.55c-1.01-0.13-2.06-0.26-3.09-0.38l1.08-1.29c0.54-0.66,1.09-1.31,1.64-1.97
					c3.61-0.08,7.13-0.37,10.45-0.85c2.57,1.45,5.63,1.53,8.55,1.5l0.01-0.25c-2.5-0.3-4.43-0.78-6.05-1.51
					c-0.07-0.03-0.14-0.07-0.22-0.11c3.9-0.69,7.59-1.67,10.95-2.9c4.23,0.68,8.58,0.15,12.4-0.32l-0.01-0.12l-0.01-0.12
					c-3.7,0.26-7.32,0.46-10.8-0.07c5.59-2.26,10.25-5.28,13.86-8.96l-0.09-0.09l-0.09-0.09c-8.24,7.88-21.62,12.28-37.7,12.39
					l0.71-0.83c0.61-0.72,1.22-1.44,1.84-2.16c3.71,0.28,6.94-1.01,9-2.14l-0.06-0.11l-0.05-0.12c-1.54,0.62-3.15,1.01-4.77,1.17
					c-1.04,0.08-2.08,0.07-3.03-0.04c1.41-1.64,2.76-3.17,4.11-4.65c1-0.03,2.03-0.1,3.04-0.2c3.67-0.12,7.73,0.04,12.43,0.48
					l0.01-0.12l0.02-0.12c-2.77-0.48-5.36-0.84-7.87-1.1c3.18-0.9,5.61-2.38,7.23-4.38l-0.1-0.08l-0.09-0.09
					c-2.63,2.77-6.94,4.18-12.81,4.18c-0.19,0-0.37,0-0.56-0.01c1.91-2.08,3.83-4.07,5.71-5.94c0.24-0.09,0.48-0.18,0.73-0.26
					c0.36-0.13,0.71-0.25,1.06-0.38c1.16-0.37,2.15-0.72,3.02-1.07c3.85-1.35,7.27-2.47,10.47-3.44l-0.04-0.12l-0.03-0.12
					c-2.01,0.45-4.02,0.94-5.93,1.41c2.24-1.44,3.88-3.13,4.88-5.05l-0.11-0.06l-0.11-0.07c-2.02,3.17-5.83,5.45-11.63,6.96
					c2.4-2.26,4.51-4.8,6.26-7.57h0.01c0.36-0.3,0.72-0.61,1.08-0.92c3.6-3.06,7.32-6.23,9.98-10.04l-0.1-0.07l-0.1-0.08
					c-2.52,3.12-5.8,5.74-9.25,8.35c1.17-2.23,2.17-4.63,2.98-7.17c1.69-1.37,3.31-2.9,3.75-4.84l-0.12-0.03l-0.12-0.04
					c-0.54,1.52-1.88,2.67-3.08,3.52c0.42-1.49,0.77-3.04,1.04-4.61c2.06-1.13,3.17-2.41,3.3-3.81l-0.12-0.01l-0.12-0.02
					c-0.2,1.19-1.19,2.25-2.95,3.15c0.43-2.69,0.63-5.45,0.6-8.19h-0.25c-0.08,3.02-0.45,6-1.08,8.88
					c-1.88-1.74-2.95-3.42-3.27-5.13l-0.12,0.02l-0.12,0.02c0.25,1.88,1.35,3.76,3.36,5.74c-1.22,5.32-3.29,10.15-6.15,14.38v0.01
					l-0.01,0.02l-0.01-0.01c-1.77,2.61-3.85,5-6.21,7.12c0.56-2.65,1.13-5.48,1.57-8.31c3.78-3.9,3.6-9.78,3.49-13.67h-0.13
					l-0.12-0.01c-0.21,4.24-0.59,8.3-2.92,11.41c0.8-6.16,0.71-11.21-0.27-15.85l-0.12,0.03l-0.12,0.02
					c0.79,5,0.53,10.51-0.83,17.35l-0.01,0.01c-0.77,3.79-1.81,7.7-2.64,10.85l-0.52,0.5l-0.05,0.01c-0.1,0.02-0.2,0.05-0.31,0.08
					l-0.07,0.17l0.04,0.1c-1.12,1.04-2.21,2.09-3.23,3.08c0.19-1.87,0.35-3.69,0.46-5.43h-0.02l-0.01-0.05h0.03
					c0.17-2.39,0.26-4.61,0.28-6.8c1.56-1.47,2.61-3.23,3.05-5.09l-0.12-0.03l-0.12-0.04c-0.34,0.93-0.82,1.79-1.44,2.55
					c-0.37,0.48-0.83,0.95-1.36,1.43c-0.01-2.34-0.12-4.67-0.33-6.93c1.63-1.74,2.43-3.75,2.24-5.64l-0.12,0.01l-0.12,0.01
					c0.06,1.63-0.67,3.35-2.07,4.85c-0.2-1.8-0.39-3.26-0.63-4.58l-0.12,0.02l-0.12,0.02c0.71,5.55,0.66,11.53-0.14,18.79
					c-2.37-3.12-3.87-6.74-4.33-10.5l-0.12,0.01h-0.13c0.08,4.5,1.61,9.02,4.33,12.73c-0.25,1.92-0.55,4-0.95,6.51
					c-0.69,0.7-1.44,1.46-2.27,2.31c0.16-2.97,0.19-5.86-0.86-8.52l-0.24,0.08c0.77,3.03,0.16,6.22-0.43,9.29
					c-0.05,0.3-0.11,0.6-0.17,0.9c-0.78,0.83-1.58,1.69-2.38,2.55c0.44-5.19,0.58-11.79-1.95-17.51l0.01-0.01
					c-0.67-1.83-0.7-4.57,1.42-6.28l-0.08-0.1l-0.07-0.1c-1.47,1.09-2.23,2.8-2.16,4.77c-1.02-1.82-2.31-3.42-3.82-4.76l-0.08,0.09
					l-0.09,0.09c6.91,6.73,6.4,16.81,4.97,25.8c-1.39,1.53-2.77,3.05-4.14,4.58c-0.89-3.74-1.4-7.61-1.89-11.35
					c-0.36-2.71-0.73-5.51-1.24-8.26c-0.53-2.04-1.38-4.03-2.2-5.88c0.79-1.97,0.93-4.25,0.42-6.95l-0.12,0.02l-0.12,0.01
					c0.1,1.12,0.08,2.27-0.08,3.41c-0.14,0.87-0.35,1.66-0.62,2.35c-0.48-1.07-0.98-2.21-1.42-3.39c-1.27-3.24-2.07-6.85-2.38-10.71
					l-0.12,0.01l-0.13,0.01c0.19,3.91,0.88,7.57,2.05,10.88c0.52,1.39,1.08,2.78,1.62,4.13v0.02c1.51,3.82,2.85,7.59,2.81,11.69
					c0.07,1.18,0.17,2.44,0.32,3.82c-0.91-1.25-2.03-2.48-3.4-3.74l-0.09,0.09l-0.09,0.08c0.89,1.04,1.69,2.12,2.36,3.21
					c0.79,1.34,1.29,2.42,1.58,3.39c0.36,2.87,0.84,5.77,1.43,8.62c-0.2,0.22-0.39,0.44-0.58,0.65c-0.17,0.2-0.34,0.39-0.52,0.59
					c-3.36-4.01-5.34-7.76-6.05-11.47l-0.12,0.02l-0.12,0.01c0.35,3.94,2.08,8.06,5.27,12.58c-0.21,0.26-0.36,0.6-0.52,0.92
					c-0.13,0.3-0.27,0.6-0.45,0.83c-5.32-5.15-8.98-10.95-10.3-16.32l-0.12,0.03l-0.12,0.02c0.38,2.28,1.11,4.56,2.22,6.88
					c1.11,2.31,2.58,4.66,4.44,7.08c0.54,0.69,1.39,1.52,2.21,2.32c0.42,0.41,0.83,0.8,1.16,1.15c-0.33,0.41-0.52,0.97-0.72,1.52
					c-0.15,0.44-0.31,0.9-0.53,1.25l-0.59-0.45l-0.16,0.02c-10.9-10.78-11.68-21.54-11.69-21.65c-0.58-6.39,2.35-8.75,3.08-9.23
					c0.72,7.21,4.83,9.55,5.3,9.79l0.16-0.19c-1.84-2.21-1.93-3.96-2.01-5.51c-0.05-0.99-0.09-1.93-0.6-2.86
					c-0.73-1.33-0.67-1.89-0.56-2.1c0.07-0.17,0.2-0.2,0.21-0.2l0.08-0.19c-2.28-3.47-2.62-12.19-2.68-14.65
					c0.56,0.89,1.64,0.91,1.65,0.91l0.12-0.17c-1.84-5.41,4.35-11.55,5.77-12.88c-0.68,3.7,1.96,7.15,2.29,7.56
					c-0.09,1.2,0.18,2,0.78,2.4c0.97,0.64,2.5,0.01,2.99-0.22c0.37,2.1,0.85,3.18,1.46,3.29c0.24,0.05,0.44-0.07,0.57-0.19
					c0.11,0.63,0.41,1.15,0.9,1.56c1.38,1.16,3.77,0.97,3.87,0.96l0.11-0.11c0.45-5.36,5.36-11.85,6.27-13.02
					c1.12,3.43,3.05,4.46,3.13,4.5l0.18-0.09c1.06-6.2,7.19-10.43,8.26-11.13c0.46,2.81,1.95,4.57,1.97,4.59l0.11,0.04
					c2.02-0.38,3.21-4.32,3.6-5.82c0.39,1.7,1.13,1.92,1.17,1.93l0.16-0.12c0-3.04,7.18-9.29,8.61-10.5
					c-0.15,1.33-0.65,6.56,0.38,10.9c1.16,4.96,2.43,12.73,2.45,12.81l0.14,0.1c0.97-0.14,1.53-0.58,1.81-0.88
					c-0.09,3.72-4,7.98-4.04,8.03l0.11,0.2c1.12-0.17,2.17-0.82,2.62-1.13c-0.58,4.44-5.46,8.52-5.51,8.56l0.01,0.2
					c0.82,0.61,1.96,0.69,2.42,0.7c-2.08,4.52-8.38,9.47-8.45,9.52l0.07,0.22c3.85,0.4,7.65-2.79,8.6-3.65
					c0.07,0.86,0.94,1.7,0.98,1.74l0.11,0.03c2.83-0.48,10.07-4.78,11.32-5.53c0.26,4.19-3.93,8.66-3.97,8.7l0.06,0.21
					c1.11,0.26,1.75,0.07,2.13-0.2C241.48,80.81,236.27,84.14,236.21,84.17z"/>
				<path class="st0" d="M186.45,100.19c-0.02,0.02-0.05,0.06-0.07,0.1c0.2,0.21,0.41,0.41,0.62,0.61c0.05-0.06,0.1-0.12,0.14-0.19
					L186.45,100.19z"/>
			</g>
		</g>
		<g>
			<rect x="168.83" y="120.56" class="st0" width="14.84" height="1.27"/>
			<path class="st0" d="M183.67,121.96h-14.84l-0.12-0.12v-1.27l0.12-0.12h14.84l0.12,0.12v1.27L183.67,121.96z M168.96,121.71
				h14.59v-1.02h-14.59V121.71z"/>
		</g>
	</g>
</g>
</svg>
